<svg xmlns="http://www.w3.org/2000/svg" xmlns:dc="http://purl.org/dc/elements/1.1/" xmlns:cc="http://creativecommons.org/ns#" xmlns:rdf="http://www.w3.org/1999/02/22-rdf-syntax-ns#" xmlns:svg="http://www.w3.org/2000/svg" xmlns:xlink="http://www.w3.org/1999/xlink" xmlns:sodipodi="http://sodipodi.sourceforge.net/DTD/sodipodi-0.dtd" xmlns:inkscape="http://www.inkscape.org/namespaces/inkscape" viewBox="0 0 50 50"><rect x="0" y="0" width="50" height="50" fill="rgb(0,0,0)"/><g transform="translate(0.000000,50.000000) scale(1.000000,-1.000000)" fill="rgb(255,255,255)" stroke="none">
<path d="M0 25 l0 -25 5 0 c3 0 6 0 6 1 1 0 2 1 4 1 2 0 3 0 2 -1 0 -1 21 -1 23 0 1 1 1 1 1 0 0 -1 1 -1 2 -1 0 0 1 1 1 1 0 1 0 1 1 0 3 -2 5 2 5 9 0 6 0 7 -1 6 -1 0 -1 0 0 1 1 2 1 2 0 3 -1 1 -1 1 0 1 1 0 1 0 0 2 -1 1 -1 1 0 1 1 -1 1 2 1 12 l0 14 -25 0 -25 0 0 -25z m38 16 c5 -4 6 -14 3 -18 -2 -2 -3 -1 -2 2 1 1 1 3 0 3 0 0 -1 1 -3 1 -1 0 -1 0 0 1 2 2 2 8 0 8 -2 0 -2 0 -1 1 1 1 -1 2 -6 2 -2 0 -2 0 -1 1 1 0 2 1 2 1 0 2 6 0 8 -2z m-11 -2 c0 -1 -1 -2 -1 -1 -1 0 -1 0 -1 -1 1 -2 0 -5 -1 -3 -1 1 -1 1 0 1 1 0 1 0 0 1 -1 1 -1 1 0 3 3 1 3 1 3 0z m3 0 c0 -1 0 -1 -1 -1 -1 0 -1 0 -1 1 0 1 0 1 1 1 1 0 1 0 1 -1z m3 1 c0 -1 0 -1 -1 -1 -1 -1 -1 -1 -1 0 0 1 0 1 1 1 1 0 1 0 1 0z m-1 -5 c0 -1 -1 -1 -2 -1 0 0 -1 0 0 1 0 1 1 1 1 1 1 0 1 0 1 -1z m-9 -6 c-1 -1 -1 0 -1 1 0 1 0 2 1 1 0 0 0 -2 0 -2z m5 0 c0 -2 -2 0 -1 2 0 1 0 1 1 0 1 -1 1 -2 0 -2z m5 2 c0 -1 0 -1 -1 -1 -1 -1 -1 -1 -1 0 0 1 0 1 1 1 1 0 1 0 1 0z m-1 -7 c2 1 4 0 2 -1 -1 -1 -1 -1 0 -1 2 0 2 -1 2 -1 -1 -1 0 -2 1 -3 0 -1 1 -1 1 0 0 0 1 0 2 -1 1 -1 1 -1 1 1 0 1 0 1 1 0 0 -2 0 -3 0 -3 -1 -1 -1 -1 0 -1 3 1 4 0 3 -3 -1 -1 -2 -3 -1 -3 0 -1 -1 -1 -2 -1 -1 -1 -3 -1 -4 -2 -2 0 -2 0 -1 2 1 1 0 0 -1 -1 -2 -1 -3 -3 -2 -3 0 -1 -1 -1 -2 0 -1 0 -2 1 -2 1 0 1 1 1 1 0 2 0 3 2 3 5 0 3 0 3 1 3 2 -1 2 -1 2 0 -1 1 -1 1 -2 1 -1 0 -2 1 -3 1 0 1 0 1 0 1 1 -1 2 0 3 0 1 1 1 3 0 2 -1 0 -1 0 -1 1 1 1 0 1 -4 1 -1 0 -2 0 -2 1 0 1 0 1 1 1 1 0 1 1 1 2 0 0 0 1 -1 1 -1 0 -1 1 0 2 0 1 0 1 1 0 0 -1 1 -2 2 -2z m1 -14 c0 -1 0 -1 -1 -1 -1 -1 -1 -1 -1 0 0 1 0 1 1 1 1 0 1 0 1 0z m-16 -5 c1 0 0 -1 0 -1 -1 -1 -2 0 -1 1 0 1 1 1 1 0z m29 0 c0 -1 -1 -1 -2 -1 0 -1 -1 -1 0 0 0 1 2 1 2 1z M38 9 c1 0 1 0 2 0 0 1 -1 1 -2 1 -1 0 -1 0 0 -1z"/>
</g>
<g transform="translate(0.000000,50.000000) scale(1.000000,-1.000000)" fill="rgb(185,185,185)" stroke="none">
<path d="M29 43 c-1 -1 -2 -2 -2 -2 0 1 -1 0 -2 0 -1 -1 -1 -2 1 -2 1 -1 1 -1 0 0 0 1 1 1 5 1 3 -1 5 0 4 0 -1 1 -2 1 -3 1 -1 0 -2 1 -2 2 -1 1 -1 1 -1 0z M32 38 c0 0 1 -2 1 -3 2 -2 2 -3 1 -3 -1 0 -2 -1 -2 -2 -1 -2 -1 -2 -2 -1 0 1 -1 2 -1 2 -1 0 -1 -2 1 -4 0 -1 1 -2 0 -2 0 -1 1 -1 2 -1 2 1 2 1 2 0 -1 -1 0 -2 1 -2 0 0 1 0 1 -1 0 -1 -1 -1 -2 -1 -1 0 -2 0 -2 -1 1 0 0 0 -2 0 -2 0 -3 2 -1 2 1 0 1 1 1 2 0 1 -1 1 -3 1 -1 0 -1 0 -1 1 1 1 2 1 2 0 1 0 1 0 1 1 -1 0 -2 1 -3 1 -1 0 -1 0 0 1 2 0 1 3 -1 5 -2 1 -4 0 -4 -3 0 -1 0 -1 1 1 1 1 1 0 0 -3 0 -2 0 -4 1 -4 1 -1 1 -2 1 -4 0 -2 0 -3 1 -4 1 0 1 -1 0 -2 -1 -1 -1 -2 0 -2 0 1 1 0 1 -1 l1 -2 0 2 c1 2 3 3 5 1 0 -1 0 -1 -1 -1 0 0 -1 0 -1 0 0 -1 1 -1 1 -1 2 0 2 -3 1 -5 -1 -1 -1 -1 0 -1 1 0 1 0 0 -2 -1 -1 0 -1 2 1 5 3 6 3 5 0 0 -2 0 -2 1 -1 2 1 1 5 -1 4 -2 0 -2 0 -1 1 0 1 0 1 -1 0 -1 -1 -2 -1 -2 -1 -1 5 -1 6 1 6 1 0 1 0 1 1 0 0 1 1 1 2 2 1 1 2 -1 0 -3 -2 -4 -2 -5 -1 0 1 0 1 1 1 1 -1 3 2 2 3 0 1 0 1 1 0 1 0 2 -1 2 0 1 0 1 -1 2 -2 1 -1 2 -2 2 -2 3 0 4 0 3 -2 -1 -1 -1 -2 0 -2 2 0 2 3 -1 6 -2 1 -3 3 -3 3 1 0 1 2 1 4 l1 4 -2 -3 -2 -2 0 3 c0 3 0 3 -1 4 -3 0 -4 1 -2 1 1 0 2 1 2 3 -1 2 0 4 0 4 1 1 1 1 -1 1 -1 0 -3 0 -3 1 -1 0 -2 0 -2 -1z m11 -22 c0 -1 0 -1 -1 -1 -1 0 -1 0 -1 1 0 1 0 1 0 1 1 0 1 0 2 -1z m-8 -11 c0 -1 0 -1 -1 -1 -1 0 -1 0 0 1 0 1 0 1 1 1 0 0 0 0 0 -1z M22 36 c0 -1 1 -1 2 -1 0 0 1 0 1 0 0 1 -1 1 -1 1 -1 1 -2 1 -2 0z M42 34 c0 -1 0 -2 1 -1 0 0 0 2 0 2 -1 1 -1 0 -1 -1z M41 12 c0 -1 -1 -1 -2 -2 -2 -1 -2 -1 -1 -1 1 0 3 1 4 2 1 1 1 2 0 2 0 0 -1 0 -1 -1z M24 10 c0 -1 0 -1 1 -1 0 0 0 0 0 1 0 1 0 1 -1 1 -1 0 -1 0 0 -1z M19 8 c-1 -2 -2 -3 -1 -3 0 0 1 1 2 3 0 1 1 2 1 2 -1 0 -2 -1 -2 -2z M25 6 c0 -1 0 -2 1 -1 0 0 1 1 1 0 1 0 1 1 0 1 0 3 -2 2 -2 0z M49 5 c-1 -1 -1 -1 -1 -2 1 -1 2 1 2 2 -1 1 -1 1 -1 0z M16 3 c0 -1 0 -1 1 0 1 0 1 0 1 1 0 0 0 0 -1 0 -1 0 -1 0 -1 -1z M28 2 c0 -1 0 -2 1 -1 1 0 1 1 1 2 0 0 0 1 -1 1 -1 0 -1 -1 -1 -2z M43 2 c-1 -1 -1 -2 0 -2 1 0 2 3 2 4 -1 0 -1 -1 -2 -2z M46 1 c0 -1 0 -1 1 -1 1 1 1 1 1 2 0 0 0 0 -1 0 -1 0 -1 0 -1 -1z"/>
</g>
<g transform="translate(0.000000,50.000000) scale(1.000000,-1.000000)" fill="rgb(80,80,80)" stroke="none">
<path d="M30 43 c1 0 0 -1 -1 -1 -1 -1 -1 -1 0 -1 2 0 3 2 2 3 -1 0 -1 0 -1 -1z M38 33 c-2 -3 -2 -4 0 -4 0 0 1 0 1 1 -1 1 -1 1 0 1 0 0 1 -1 1 -2 1 -2 0 -3 0 -2 -1 0 -1 0 -1 -1 1 -1 0 -2 0 -2 -1 0 -1 -1 -1 -2 1 -1 2 -1 3 1 1 2 2 8 1 6 0 0 -1 1 -2 3 l-1 4 -1 -3z M42 33 c0 -1 0 -2 1 -1 0 0 0 2 0 2 -1 1 -1 0 -1 -1z M27 29 c0 -1 0 -1 1 -1 0 0 0 0 0 1 0 1 0 1 -1 1 -1 0 -1 0 0 -1z M33 25 c1 -2 1 -2 0 -2 -1 0 -2 -1 -3 -2 -1 -1 -1 -1 0 -1 1 1 2 0 3 0 0 -1 4 -1 4 0 0 1 -1 1 -1 0 -2 0 -2 0 -2 2 1 1 0 2 -1 3 -1 1 -1 1 0 0z M34 16 c-1 -1 -1 -1 0 0 1 0 1 1 1 2 -1 0 -1 -1 -1 -2z M37 13 c0 -2 0 -3 -1 -4 -1 0 -2 -1 -1 -2 1 -1 1 -1 2 2 1 2 1 4 1 4 -1 0 -1 1 0 1 0 1 0 1 -1 1 -1 0 -1 -1 0 -2z M41 11 c-1 -1 -1 -1 0 0 2 1 2 2 2 2 -1 0 -1 -1 -2 -2z M39 8 c-1 0 -1 -1 0 -2 1 0 1 0 1 1 -1 0 0 1 0 1 1 1 1 1 0 1 0 0 -1 0 -1 -1z"/>
</g>
<g transform="translate(0.000000,50.000000) scale(1.000000,-1.000000)" fill="rgb(225,225,225)" stroke="none">
<path d="M39 41 c0 -1 2 -2 2 -2 0 0 -1 1 -1 2 -1 1 -3 2 -3 2 0 0 1 -1 2 -2z M30 40 c0 -2 -2 -3 -2 -1 0 1 -1 1 -2 -1 -2 -2 -2 -6 0 -7 0 0 1 0 1 1 0 1 2 1 4 1 5 -1 6 1 4 4 -1 0 -1 1 -1 2 1 1 1 1 0 1 0 0 -1 -1 -2 -1 0 -1 -1 -1 -1 1 -1 1 -1 1 -1 0z m2 -5 c0 -1 -1 -1 -1 -1 -1 0 -2 1 -1 1 0 2 2 2 2 0z M21 34 c0 -1 0 -3 0 -4 0 -2 1 -2 1 1 1 4 0 5 -1 3z M28 32 c0 -1 3 -2 4 -1 0 1 -1 1 -2 1 -1 0 -2 0 -2 0z M43 29 c0 -1 0 -2 1 -1 0 0 0 2 0 2 -1 1 -1 0 -1 -1z M27 28 c-3 0 -3 0 -2 -2 1 -4 1 -4 3 -1 1 1 2 2 2 1 1 -1 1 0 1 1 0 1 0 2 0 2 0 0 -2 -1 -4 -1z M33 28 c0 -1 3 -5 3 -4 1 3 0 4 0 4 -2 1 -3 1 -3 0z M22 24 c1 -2 1 -4 1 -6 1 -2 1 -4 2 -4 2 1 3 -2 2 -4 -1 -1 -1 -1 -1 1 0 1 -1 2 -1 2 -2 0 -2 -6 -1 -8 1 0 1 -1 0 -1 -1 -1 -1 -1 -1 0 0 1 0 1 -1 1 0 -1 -1 0 -1 1 -1 1 0 2 0 2 1 -1 2 2 2 3 -1 1 -6 -4 -6 -6 1 0 0 -1 -1 -1 0 -1 -1 0 0 1 0 1 0 1 -1 0 0 0 -1 -2 -3 -2 -1 -2 -1 -2 2 -1 3 0 4 0 4 -1 -1 -2 7 -1 9 0 3 2 2 6 -1 5 -2 0 -2 0 0 2 1 1 3 2 3 1 0 0 1 1 1 2 0 2 -1 3 -2 3 -1 1 -2 2 -2 3 0 1 0 2 -1 2 -1 -1 -1 0 -1 1 0 1 -1 3 -1 4 -1 1 -1 1 -1 0z M42 19 c0 -1 0 -1 1 0 0 1 0 1 0 2 -1 0 -1 -1 -1 -2z M45 11 c-1 -2 -2 -3 -2 -3 1 -1 -9 -5 -10 -5 -1 0 -2 -1 -2 -1 -1 -2 7 -2 9 -1 1 1 1 1 1 0 0 0 1 -1 2 -1 0 0 1 1 1 1 0 1 0 1 1 0 3 -2 6 8 3 11 0 1 -1 0 -3 -1z m1 -6 c0 -1 -1 -1 -2 -1 0 -1 -1 -1 0 0 0 1 2 1 2 1z"/>
</g>
<g transform="translate(0.000000,50.000000) scale(1.000000,-1.000000)" fill="rgb(55,55,55)" stroke="none">
<path d="M37 11 c-2 -3 -2 -6 -1 -5 0 1 1 1 1 2 0 0 0 2 1 3 1 1 1 2 1 2 -1 0 -1 -1 -2 -2z"/>
</g>
<g transform="translate(0.000000,50.000000) scale(1.000000,-1.000000)" fill="rgb(30,30,30)" stroke="none">
<path d=""/>
</g>
<g transform="translate(0.000000,50.000000) scale(1.000000,-1.000000)" fill="rgb(110,110,110)" stroke="none">
<path d="M28 41 c-1 -1 0 -1 0 0 2 0 2 1 1 1 0 0 -1 0 -1 -1z M42 33 c0 -1 0 -1 1 0 0 1 0 1 0 2 -1 0 -1 -1 -1 -2z M32 30 c0 0 1 -1 1 -1 1 0 2 1 1 1 0 1 -1 1 -1 1 -1 0 -1 0 -1 -1z M26 29 c-1 -1 -1 -1 0 -1 1 0 1 0 1 1 0 1 0 1 0 1 -1 0 -1 0 -1 -1z M32 26 c-1 -1 -1 -2 0 -2 2 0 2 0 1 -1 -1 -1 -1 -1 0 -1 2 0 2 1 1 3 -2 2 -2 2 -2 1z M38 25 c-1 -5 1 -5 3 -2 1 2 2 3 1 3 -1 -1 -2 -1 -2 0 -1 1 -1 1 -2 -1z m2 -2 c-1 -1 -1 -1 -1 0 0 1 0 2 1 2 0 -1 0 -1 0 -2z M34 20 c-1 0 -2 -1 -1 -2 0 -2 1 -3 2 -2 0 0 1 1 1 2 -1 0 0 1 0 1 2 1 1 2 -2 1z M37 17 c1 -1 0 -2 -1 -2 -1 -2 -1 -2 0 -3 0 -1 1 -1 1 0 1 1 1 1 0 1 0 0 0 1 1 2 1 1 1 1 0 2 -1 1 -1 1 -1 0z M41 17 c-1 -1 0 -3 1 -3 1 0 1 0 0 1 0 0 -1 1 -1 1 0 1 1 1 1 0 1 0 1 0 1 1 -1 1 -2 1 -2 0z M40 11 c-1 -1 -1 -2 0 -3 1 0 1 0 1 1 -1 0 0 1 1 2 1 1 1 2 0 2 0 0 -1 -1 -2 -2z M33 10 c0 -1 1 -1 2 -2 1 -1 1 -1 0 0 -1 2 -2 2 -2 2z M38 7 c1 0 0 -1 0 -1 -1 -1 -1 -1 0 -1 1 0 2 2 1 3 -1 0 -1 0 -1 -1z M35 5 c-1 -1 -1 -1 0 -1 1 0 1 0 1 1 0 1 0 1 0 1 -1 0 -1 0 -1 -1z"/>
</g>
<g transform="translate(0.000000,50.000000) scale(1.000000,-1.000000)" fill="rgb(240,240,240)" stroke="none">
<path d="M26 35 c-1 -1 -1 -1 0 0 2 1 2 1 1 -1 -1 -2 -1 -2 3 -2 3 0 4 2 0 2 -1 0 -1 0 0 2 2 1 2 1 0 1 -2 0 -3 -1 -4 -2z M21 26 c0 -1 0 -1 1 0 0 1 0 1 0 2 -1 0 -1 -1 -1 -2z M19 10 c-1 -1 -2 -2 -3 -3 -3 0 -4 -2 -5 -4 0 -2 0 -2 1 -1 0 0 1 1 1 1 0 -1 2 1 4 3 3 5 5 5 3 1 -1 -2 -1 -3 0 -3 1 -1 1 -1 0 -2 -1 -2 -1 -2 1 -2 4 1 5 6 3 8 -1 1 -2 2 -1 3 1 0 1 1 0 1 -1 0 -3 -1 -4 -2z M47 10 c-1 0 -2 -2 -2 -2 0 -1 1 -1 2 0 0 2 2 3 2 3 1 1 1 1 0 1 0 0 -2 -1 -2 -2z M26 8 c1 -1 2 -2 2 -2 0 -1 0 -1 -1 0 -1 0 -1 -2 0 -4 1 -1 1 0 1 2 1 2 0 5 -2 5 -1 0 -1 -1 0 -1z"/>
</g>
<g transform="translate(0.000000,50.000000) scale(1.000000,-1.000000)" fill="rgb(137,137,137)" stroke="none">
<path d="M33 30 c-1 0 -1 -2 -1 -3 0 -1 -1 -2 -2 -3 -1 -1 -1 -1 1 0 1 1 2 2 2 4 0 2 0 2 2 1 1 -1 1 -1 0 1 -1 1 -2 2 -2 2 0 0 0 -1 0 -2z M25 29 c0 -1 0 -1 1 -1 1 0 1 0 1 1 -1 1 -1 1 -2 1 0 0 0 0 0 -1z M40 23 c0 -1 -1 -2 -1 -1 -1 0 -1 0 0 -3 l2 -3 0 4 c1 4 0 5 -1 3z M32 18 c0 -1 1 -2 1 -2 1 0 1 -1 0 -2 -2 0 -2 -1 -1 -1 0 0 2 1 3 3 2 2 3 3 2 3 -1 -1 -2 0 -3 0 -1 1 -2 0 -2 -1z M35 13 c0 0 0 -1 1 -1 1 -1 1 -1 1 0 0 0 0 1 -1 2 -1 0 -1 0 -1 -1z M38 9 c1 0 1 0 2 0 0 1 -1 1 -2 1 -1 0 -1 0 0 -1z M34 6 c1 -1 2 -2 2 -1 0 0 0 1 -1 2 -2 1 -2 1 -1 -1z"/>
</g>
<g transform="translate(0.000000,50.000000) scale(1.000000,-1.000000)" fill="rgb(98,98,98)" stroke="none">
<path d="M38 33 c0 0 0 -1 1 -1 1 -1 1 -1 1 0 0 0 0 1 -1 2 -1 0 -1 0 -1 -1z"/>
</g>
<g transform="translate(0.000000,50.000000) scale(1.000000,-1.000000)" fill="rgb(148,148,148)" stroke="none">
<path d="M37 34 c0 0 0 -2 -1 -3 0 -1 0 -1 1 0 1 1 1 3 1 3 -1 1 -1 1 -1 0z M33 31 c1 0 1 -1 0 -1 -1 -1 -1 -2 -1 -2 0 -1 1 -1 1 1 2 2 2 3 1 3 -1 0 -1 0 -1 -1z M40 21 c0 -1 0 -1 -1 0 -1 0 -1 -1 0 -2 2 -2 3 0 2 2 -1 1 -1 1 -1 0z M32 17 c0 -2 0 -3 0 -4 -1 -1 0 -1 1 0 2 2 3 4 1 3 0 -1 -1 0 -1 1 -1 1 -1 1 -1 0z"/>
</g>
<g transform="translate(0.000000,50.000000) scale(1.000000,-1.000000)" fill="rgb(207,207,207)" stroke="none">
<path d="M33 39 c-1 0 -1 -1 0 -3 1 -3 3 -5 4 -4 0 1 0 1 -1 2 -1 1 -1 1 0 1 1 1 1 1 0 2 -1 1 -2 2 -1 2 1 1 0 1 -2 0z M24 32 c0 0 1 -1 2 -1 0 -1 1 -1 1 0 0 0 -1 1 -1 1 -1 1 -2 1 -2 0z M25 25 c1 -3 1 -5 0 -5 -1 -2 -1 -3 0 -2 1 0 1 -1 1 -2 0 -2 0 -3 2 -3 1 0 2 0 2 1 0 2 -1 2 -2 1 -1 -2 -2 5 0 7 1 1 1 1 0 1 -1 -1 -2 1 -1 3 1 0 0 1 -1 2 l-3 1 2 -4z M33 28 c0 -1 2 -4 2 -2 0 0 1 0 1 -1 1 -1 1 -1 1 0 -1 1 0 2 0 2 1 1 1 1 0 0 -1 0 -2 1 -2 1 0 1 0 1 -1 1 -1 0 -1 0 -1 -1z M22 25 c0 0 0 -1 1 -1 1 -1 1 0 0 0 0 2 -1 2 -1 1z M30 11 c-1 0 -1 -1 0 -1 1 -1 1 0 1 0 0 2 -1 2 -1 1z M40 4 c-1 -2 0 -3 0 -2 1 0 1 2 1 3 0 1 -1 1 -1 -1z M49 5 c-1 -1 -1 -2 0 -2 0 0 1 1 1 2 0 1 0 1 -1 0z M28 2 c0 -1 0 -2 1 -1 0 0 0 2 0 2 -1 1 -1 0 -1 -1z M43 2 c-1 -1 -1 -2 0 -2 1 0 2 3 2 4 -1 0 -1 -1 -2 -2z M46 1 c0 -1 0 -1 1 -1 1 1 1 1 1 2 0 0 0 0 -1 0 -1 0 -1 0 -1 -1z"/>
</g>
<g transform="translate(0.000000,50.000000) scale(1.000000,-1.000000)" fill="rgb(71,71,71)" stroke="none">
<path d="M41 28 c-1 0 -1 -1 0 -2 2 0 2 0 1 2 0 1 -1 1 -1 0z"/>
</g>
<g transform="translate(0.000000,50.000000) scale(1.000000,-1.000000)" fill="rgb(119,119,119)" stroke="none">
<path d="M36 20 c-1 -1 -1 -1 0 -1 1 0 1 0 1 1 0 1 0 1 0 1 -1 0 -1 0 -1 -1z"/>
</g>
<g transform="translate(0.000000,50.000000) scale(1.000000,-1.000000)" fill="rgb(46,46,46)" stroke="none">
<path d=""/>
</g>
<g transform="translate(0.000000,50.000000) scale(1.000000,-1.000000)" fill="rgb(167,167,167)" stroke="none">
<path d="M23 32 c0 -1 0 -2 1 -3 1 -1 1 -1 1 0 0 1 0 2 -1 3 -1 1 -1 1 -1 0z M33 31 c0 -1 1 -2 2 -1 0 0 1 1 0 1 0 1 -2 1 -2 0z M39 18 c0 0 1 -1 1 0 1 0 1 2 0 2 -1 0 -2 -1 -1 -2z M27 17 c0 -1 0 -2 1 -1 0 0 0 2 0 2 -1 1 -1 0 -1 -1z M31 17 c0 -1 0 -2 0 -3 -1 0 0 -1 1 -2 2 -2 2 -2 2 0 1 1 0 1 -1 1 -1 0 -2 0 -1 1 1 2 1 4 0 5 -1 0 -1 -1 -1 -2z"/>
</g>
<g transform="translate(0.000000,50.000000) scale(1.000000,-1.000000)" fill="rgb(90,90,90)" stroke="none">
<path d="M39 33 c0 -1 0 -2 1 -2 0 1 0 2 -1 2 -1 1 -1 1 0 0z"/>
</g>
<g transform="translate(0.000000,50.000000) scale(1.000000,-1.000000)" fill="rgb(12,12,12)" stroke="none">
<path d=""/>
</g>
<g transform="translate(0.000000,50.000000) scale(1.000000,-1.000000)" fill="rgb(158,158,158)" stroke="none">
<path d="M40 20 c-1 0 -1 -1 0 -1 1 -1 1 0 1 0 0 2 -1 2 -1 1z"/>
</g>
<g transform="translate(0.000000,50.000000) scale(1.000000,-1.000000)" fill="rgb(103,103,103)" stroke="none">
<path d=""/>
</g>
<g transform="translate(0.000000,50.000000) scale(1.000000,-1.000000)" fill="rgb(128,128,128)" stroke="none">
<path d="M33 30 c-1 0 0 -1 1 -1 0 0 1 1 0 1 0 1 0 1 0 1 -1 0 -1 0 -1 -1z"/>
</g>
<g transform="translate(0.000000,50.000000) scale(1.000000,-1.000000)" fill="rgb(133,133,133)" stroke="none">
<path d=""/>
</g>
<g transform="translate(0.000000,50.000000) scale(1.000000,-1.000000)" fill="rgb(195,195,195)" stroke="none">
<path d="M25 40 c-1 -1 -1 -1 0 -1 0 0 1 0 2 1 0 1 0 1 -2 0z M36 35 c0 -2 0 -3 1 -3 0 0 0 1 0 3 0 2 0 3 -1 3 0 0 0 -1 0 -3z M35 24 c0 -1 1 -2 1 -3 1 0 2 -1 2 0 0 0 0 1 -1 2 -1 0 -1 1 0 1 0 1 0 1 0 1 -1 0 -1 0 -2 -1z M26 23 c-2 -3 -2 -4 -1 -3 1 0 1 -1 1 -4 -1 -2 -1 -3 0 -2 0 0 1 1 1 0 0 0 1 0 2 1 0 1 0 1 -1 1 -1 -1 -1 0 -1 1 0 1 0 3 -1 4 0 1 0 1 1 1 0 -1 1 0 1 1 1 1 0 1 -2 0z"/>
</g>
<g transform="translate(0.000000,50.000000) scale(1.000000,-1.000000)" fill="rgb(67,67,67)" stroke="none">
<path d=""/>
</g>
<g transform="translate(0.000000,50.000000) scale(1.000000,-1.000000)" fill="rgb(173,173,173)" stroke="none">
<path d="M37 20 c0 -1 1 -1 2 -1 0 -1 1 -1 0 0 0 1 -2 1 -2 1z M31 17 c0 -1 0 -1 1 0 0 1 0 1 0 2 -1 0 -1 -1 -1 -2z"/>
</g>
<g transform="translate(0.000000,50.000000) scale(1.000000,-1.000000)" fill="rgb(131,131,133)" stroke="none">
<path d=""/>
</g>
<g transform="translate(0.000000,50.000000) scale(1.000000,-1.000000)" fill="rgb(63,63,63)" stroke="none">
<path d=""/>
</g>
<g transform="translate(0.000000,50.000000) scale(1.000000,-1.000000)" fill="rgb(114,114,114)" stroke="none">
<path d=""/>
</g>
<g transform="translate(0.000000,50.000000) scale(1.000000,-1.000000)" fill="rgb(206,206,208)" stroke="none">
<path d=""/>
</g>
</svg>
