<?xml version="1.0" standalone="no"?>
<!DOCTYPE svg PUBLIC "-//W3C//DTD SVG 20010904//EN"
 "http://www.w3.org/TR/2001/REC-SVG-20010904/DTD/svg10.dtd">
<svg version="1.0" xmlns="http://www.w3.org/2000/svg"
 width="370.000000pt" height="463.000000pt" viewBox="0 0 370.000000 463.000000"
 preserveAspectRatio="xMidYMid meet">
<metadata>
Created by potrace 1.16, written by Peter Selinger 2001-2019
</metadata>
<g transform="translate(0.000000,463.000000) scale(1.000000,-1.000000)"
fill="#000000" stroke="none">
<path d="M0 384 l0 -79 2 4 c2 2 5 7 7 10 4 5 5 10 11 29 2 8 9 27 13 35 4 7
12 15 19 18 2 1 6 4 8 6 2 3 5 5 6 5 0 0 3 2 5 4 6 5 18 14 21 16 2 1 5 2 7 4
1 1 4 2 7 3 2 1 6 3 8 5 3 2 6 3 8 4 1 0 5 0 7 1 10 2 11 2 16 0 l4 -2 -4 0
c-3 1 -3 1 -4 -2 0 -4 0 -4 1 -4 1 0 2 -1 2 -3 3 -3 7 -4 11 -1 2 1 3 2 3 1 0
0 1 0 1 1 1 1 3 1 5 1 5 0 8 1 9 4 0 3 0 5 -3 6 -3 1 -4 0 -4 -3 -1 -4 -2 -6
-4 -6 -1 0 -2 -1 -3 -1 -1 -1 -1 -1 -1 0 0 0 -1 1 -2 1 -2 0 -2 1 -2 3 0 3 -1
4 -2 5 -1 1 -1 1 1 3 4 2 11 3 15 1 2 -1 4 -1 5 -1 2 1 9 1 11 0 2 -1 2 -1 1
-2 -3 -2 -3 -7 -1 -10 1 -1 2 -2 1 -3 0 -2 2 -3 9 -3 3 0 7 -1 10 -2 3 -1 5
-2 5 -1 1 1 -3 7 -4 7 -1 0 -3 2 -4 4 -3 4 -7 7 -9 5 -1 0 -2 0 -3 1 -1 1 -1
1 2 1 3 0 6 -1 9 -3 4 -3 5 -3 10 -3 7 0 8 0 18 -9 4 -4 10 -9 14 -12 8 -6 24
-23 31 -33 2 -3 6 -6 7 -7 7 -3 22 -22 29 -38 4 -7 4 -9 4 -13 -1 -4 -1 -6 1
-9 1 -4 2 -6 2 -8 -1 -1 -1 -12 -1 -23 -1 -15 0 -21 0 -24 1 -1 2 -7 3 -12 0
-5 1 -9 2 -11 4 -7 2 -18 -6 -29 -3 -5 -5 -9 -5 -9 0 -1 -4 -7 -10 -13 -7 -9
-10 -14 -11 -17 0 -2 -2 -5 -4 -7 -3 -4 -10 -8 -14 -8 -2 0 -3 -1 -9 -11 -4
-7 -5 -9 -3 -9 6 2 9 2 13 0 6 -3 17 -11 21 -17 2 -2 5 -4 6 -4 2 0 7 -2 11
-5 3 -2 5 -3 22 -3 15 -1 22 -1 28 -3 5 -1 10 -2 10 -2 1 0 1 70 1 178 l0 178
-185 0 -185 0 0 -79z M112 441 c-1 -2 -2 -4 -2 -5 -1 -2 -1 -2 -2 -1 -1 1 -1
1 -2 0 0 0 -1 -1 -2 0 -1 0 -1 -1 -1 -5 0 -5 0 -5 -2 -6 -4 -1 -4 -1 -4 0 0 1
-1 2 -1 1 -1 0 -2 0 -2 1 0 1 0 1 -1 1 -1 0 -1 -1 -1 -1 0 -1 1 -2 1 -2 1 0 1
0 0 -2 -1 -1 -1 -1 1 0 1 0 1 0 0 -1 -1 -1 -2 -2 -2 -2 -1 1 -3 -3 -3 -5 0 0
1 0 2 0 1 0 2 0 1 -1 0 -1 0 -1 2 0 1 1 2 2 3 2 0 1 0 1 -2 0 -1 -1 -1 -1 0 0
0 1 2 2 3 1 1 0 3 1 5 2 1 0 2 1 2 0 1 0 4 5 4 7 0 1 -1 1 -2 1 -3 0 -4 2 -2
5 1 2 1 2 2 0 2 -1 2 -1 2 1 1 1 1 1 2 0 1 -2 3 0 6 4 2 4 2 5 2 6 -2 2 -4 1
-7 -1z M213 440 c0 -1 -1 -1 -1 -1 -1 1 -2 0 -3 0 -2 -1 -1 -4 1 -4 2 0 2 0 1
-3 -1 -2 -1 -3 0 -3 0 1 1 0 2 -2 1 -1 2 -2 2 -1 0 0 0 0 1 -1 1 -1 1 0 1 2 1
2 2 3 2 3 1 0 1 0 1 -1 -1 -1 0 -1 1 -1 1 0 2 -1 2 -1 0 -1 1 -2 2 -3 1 -1 2
-2 2 -4 0 -5 1 -1 2 5 0 6 0 6 -3 8 -3 3 -6 4 -6 2 0 -1 -1 -2 -2 -4 l-2 -2 0
2 c-1 1 -1 4 -2 7 0 2 -1 3 -1 2z M231 426 c-2 -4 -2 -7 -1 -7 2 0 1 -2 -1 -3
-1 -1 -4 -2 -5 -2 -3 -1 -3 -1 -2 1 0 1 -1 0 -2 -1 -2 -2 -3 -3 -4 -2 -2 0 -2
1 -1 2 1 1 1 1 0 1 -1 -1 -2 -1 -2 0 0 1 -2 2 -5 2 -2 1 -6 2 -9 2 -3 1 -7 2
-9 2 -2 0 -4 1 -5 1 -3 2 -13 3 -18 2 -2 -1 -4 -3 -3 -5 0 -1 1 -1 3 0 6 2 11
0 10 -4 0 -3 5 -6 6 -5 1 0 1 0 2 -1 0 -1 0 -1 -1 -1 0 1 -1 1 -1 0 0 0 -2 -1
-4 -2 -4 -1 -9 -7 -6 -7 1 0 4 1 7 3 4 2 8 3 13 3 8 1 8 1 8 -1 -1 -1 -1 -3
-2 -4 0 -2 0 -2 3 -1 2 1 5 2 8 2 5 0 6 0 6 -2 0 -1 1 -2 2 -2 2 -1 2 -1 0 -3
0 -2 -1 -3 0 -3 0 -1 -1 -2 -3 -3 -4 -2 -11 -2 -18 0 -3 1 -6 2 -7 2 -4 0 -5
0 -5 2 -1 2 2 6 3 6 2 0 3 1 3 2 -1 0 -2 0 -3 -1 -1 0 -3 -1 -4 -1 0 0 -1 0
-1 -1 1 0 -2 -1 -5 -1 -3 0 -5 0 -6 0 0 -1 -7 -1 -7 0 0 1 0 1 1 1 0 -1 0 0 0
2 0 1 -1 2 -1 3 -1 0 -6 1 -7 1 -2 0 -1 3 2 4 2 1 3 2 3 2 0 1 -8 0 -14 -1 -2
-1 -5 -1 -5 -2 -4 0 -7 -2 -12 -4 -2 -1 -6 -2 -7 -2 -1 1 -2 1 -1 0 0 0 1 -1
1 -2 0 -1 0 -1 1 0 1 1 1 0 0 -2 0 -4 0 -4 2 -3 1 0 2 1 3 1 0 1 3 1 6 1 3 -1
5 -1 8 2 l5 2 0 -3 c0 -2 -1 -2 -3 -4 -2 0 -5 -1 -7 -1 -1 0 -2 -1 -3 -2 0 -2
-1 -2 -6 -2 -10 0 -13 1 -13 3 1 1 0 2 -1 1 -3 -1 0 -6 6 -10 2 -1 2 -2 0 -3
-2 -1 -8 1 -9 4 -1 2 -8 4 -15 3 -3 -1 -4 -1 -4 0 1 1 11 5 11 4 0 0 1 1 2 1
2 2 2 3 1 4 -1 1 0 4 3 4 0 0 1 1 2 2 1 2 2 3 5 4 3 0 5 1 6 2 2 3 1 4 -3 2
-2 -1 -6 -2 -8 -3 -3 -1 -5 -2 -6 -4 -2 -3 -3 -3 -7 -3 -3 1 -7 0 -8 0 -3 -1
-9 0 -10 2 0 1 -1 2 -1 1 -1 0 -1 1 0 2 1 1 2 2 2 2 1 0 1 1 1 1 0 2 4 6 5 5
1 0 1 0 1 1 0 1 0 1 -1 1 0 0 -2 0 -3 1 -1 0 -3 -1 -3 -2 -1 -1 -2 -1 -3 0 -1
0 -2 0 -2 0 -1 1 -2 2 -1 2 1 0 1 1 0 3 -1 1 -1 1 -2 0 -2 -1 -2 -1 0 -4 1 -1
3 -2 3 -1 1 0 1 0 1 0 0 -2 -6 -4 -9 -3 -2 0 -4 0 -5 0 -2 0 -14 -12 -14 -13
0 -1 -2 -4 -4 -7 -3 -4 -6 -10 -7 -15 -2 -4 -4 -9 -4 -11 -2 -3 -7 -18 -9 -24
0 -3 -1 -6 -2 -8 -1 -3 -1 -3 0 -6 2 -3 2 -5 -1 -5 -2 0 -4 -1 -5 -2 -2 -2 -9
-13 -9 -15 0 0 -1 -3 -2 -5 -3 -6 -2 -14 1 -20 3 -3 3 -5 3 -8 -2 -13 -2 -18
0 -23 1 -2 2 -8 3 -11 1 -4 3 -10 5 -13 5 -12 6 -15 5 -18 0 -1 -1 -1 -1 3 -1
4 -2 5 -6 5 -5 2 -9 7 -11 19 -1 4 -3 10 -5 14 l-3 8 0 -82 c0 -66 0 -82 1
-82 1 0 5 4 10 9 9 10 19 18 27 23 7 4 13 9 14 11 0 1 -2 2 -5 3 -8 2 -9 3
-14 12 l-5 8 1 5 1 5 -6 10 c-7 13 -8 16 -7 22 2 4 2 5 6 5 l4 0 0 -6 c0 -6 2
-12 7 -20 1 -2 2 -4 2 -5 1 -3 2 -4 6 -4 3 0 4 0 4 -2 0 -2 -1 -2 -4 -2 -1 0
-4 -5 -4 -8 0 -1 2 -4 12 -17 l5 -6 -3 -3 c-1 -2 -3 -3 -3 -3 -2 0 -2 0 -1 -1
1 -1 1 -1 0 -1 -2 1 -10 -5 -8 -6 2 -1 0 -4 -2 -4 -1 0 -2 -1 -2 -2 -1 -1 -2
-2 -3 -2 -2 0 -4 -2 -6 -3 -3 -3 -4 -4 -6 -3 -2 0 -3 -1 -6 -4 -4 -4 -5 -6 -3
-6 1 0 0 -1 -2 -2 -10 -9 -10 -10 -10 -22 0 -6 0 -10 1 -10 1 0 1 1 1 1 0 1 0
1 1 2 2 0 1 -1 -1 -6 -2 -4 -2 -6 -2 -31 l0 -27 81 0 c65 0 81 0 81 1 0 2 6 8
8 8 2 0 6 4 5 5 0 1 0 1 2 0 1 -1 2 -1 2 0 0 1 1 2 2 1 1 -1 1 -1 -1 -3 -2 -1
-3 -4 -4 -6 -1 -2 -2 -3 -3 -3 0 1 -2 0 -3 -1 -1 -2 -1 -2 99 -2 l101 0 0 30
0 29 -2 0 c-1 0 -3 0 -4 0 -2 0 -4 1 -6 2 -1 1 -4 2 -5 2 -2 1 -4 1 -5 2 -1 1
-4 1 -6 2 -6 0 -8 1 -8 3 0 1 -1 1 -1 1 -3 -1 -5 0 -5 3 0 1 1 2 2 2 2 0 3 0
4 -1 0 -1 1 -1 1 0 1 0 1 0 1 -1 0 -1 10 -5 17 -6 8 -1 13 -4 13 -6 0 -2 1 -3
3 -1 1 1 1 6 1 18 l0 16 -8 2 c-10 3 -22 4 -38 4 l-12 0 -8 6 c-8 6 -28 21
-32 23 -1 0 -4 2 -7 2 -6 2 -12 4 -12 5 0 1 2 6 5 11 3 7 6 11 12 17 5 6 7 9
9 13 1 3 4 9 10 17 5 6 9 12 9 12 0 0 2 4 5 7 5 6 7 11 10 22 1 5 1 5 -2 10
-3 5 -4 8 -2 14 1 2 0 3 -1 5 -1 1 -3 3 -4 6 -2 4 -2 4 0 9 2 4 2 4 1 9 -2 4
-2 6 -1 7 2 3 1 5 -1 7 -3 2 -4 7 -2 6 1 -1 4 0 4 1 -1 0 0 1 1 1 2 1 1 3 -2
3 -2 1 -2 3 1 3 2 0 2 1 2 3 0 5 -4 18 -7 22 -1 1 -2 3 -2 4 0 2 -9 18 -13 21
-1 1 -2 4 -3 6 -2 5 -4 7 -10 14 -3 3 -8 9 -12 14 -8 9 -22 23 -25 25 -3 1 -4
1 -4 0z m-146 -35 c0 -1 -2 -2 -4 -2 -5 -1 -10 0 -8 2 0 1 12 1 12 0z m73 0
c0 -1 3 -2 7 -2 5 0 5 -2 1 -3 -3 -1 -9 -1 -10 1 -1 0 -2 1 -3 1 -2 0 -3 2 -3
3 1 0 3 1 5 1 2 0 4 -1 3 -1z m-61 -22 c4 -1 7 -3 6 -5 -1 -1 -4 -1 -8 -1 -6
0 -8 0 -12 3 -2 2 -4 3 -3 3 2 1 12 0 17 0z m-30 -31 c2 0 3 -1 5 -1 2 0 3 -1
2 -3 -1 -2 -2 -2 -7 -2 -3 0 -6 0 -7 -1 0 -1 -4 -1 -8 0 -2 1 -4 5 -3 7 0 1 3
1 7 1 4 0 7 0 8 0 1 1 1 1 3 -1z m171 -21 c-1 -1 -6 0 -8 2 -1 1 0 1 3 1 3 0
6 -1 5 -3z m-9 -2 c1 -1 3 -2 4 -4 2 -4 0 -6 -5 -7 -4 0 -5 -2 -2 -4 1 -2 11
-2 12 -1 1 1 1 1 3 0 1 0 3 -2 5 -3 2 0 3 -2 3 -2 0 -1 1 -1 1 -1 3 0 9 -10
10 -15 1 -2 1 -3 -1 -2 0 0 -1 1 -1 1 0 1 -1 2 -2 3 -2 0 -3 2 -3 2 0 1 0 1
-1 1 0 -1 -2 0 -3 2 -2 2 -5 4 -11 5 -4 1 -8 3 -9 3 -1 1 -3 1 -3 1 -1 0 -2 0
-2 1 0 1 -2 1 -5 1 -4 0 -5 0 -9 -4 -4 -5 -4 -5 -7 -5 -2 0 -3 -1 -4 -3 -3 -5
-4 -3 -4 6 0 1 -1 2 -2 2 0 0 -1 -1 -1 -1 0 -2 -3 -3 -5 -3 -1 1 -1 0 -2 0 0
-3 -3 -1 -4 2 -1 2 0 3 2 5 5 5 6 5 8 4 1 -1 2 -2 2 -3 0 0 0 -1 1 -1 1 0 1 1
1 2 0 1 4 7 6 9 1 0 1 1 0 2 -1 1 -2 1 -3 1 -1 -1 -1 -1 -1 0 0 1 -1 1 -1 0
-1 0 -1 0 -1 0 1 1 1 1 1 1 1 0 2 1 4 2 2 1 6 2 14 3 7 0 13 1 13 1 0 0 1 0 2
-1z m-69 -2 c1 0 4 -2 7 -3 9 -2 13 -4 14 -7 1 -3 -1 -5 -4 -5 -1 0 -6 -1 -10
-1 -5 -1 -13 -2 -20 -2 -9 0 -11 0 -13 -2 -1 -1 -3 -2 -5 -3 -2 -1 -5 -3 -7
-5 -3 -2 -5 -4 -5 -4 -1 1 -4 -2 -4 -3 0 -1 1 -1 2 1 1 1 1 1 0 0 0 -1 0 -3 1
-4 2 -2 2 -7 0 -7 -1 0 -1 -1 0 -2 0 -1 0 -1 -1 0 -2 2 -7 -2 -7 -6 0 -1 -1
-2 -1 -3 -1 0 -1 0 -1 1 1 1 -1 1 -2 0 0 -2 1 -3 4 -3 1 0 5 1 9 2 16 6 16 6
20 3 3 -2 3 -2 2 -4 -1 0 -2 -1 -2 0 -1 0 -1 -1 -1 -2 0 -1 0 -2 1 -2 1 0 1 0
2 0 1 -1 2 -1 3 -1 2 0 0 -2 -3 -2 -4 -1 -6 -2 -6 -3 0 -1 2 -2 7 -2 3 0 6 0
7 0 0 -1 0 -1 -1 -1 0 1 -1 0 -3 -2 -1 -1 -3 -2 -3 -1 -1 0 -1 0 -1 -1 0 0 -1
0 -3 1 -2 0 -4 1 -4 0 0 -1 12 -4 15 -3 2 0 4 0 4 0 0 1 1 1 3 2 1 1 2 1 3 0
1 -1 1 -1 1 0 -1 0 -1 1 0 1 1 0 1 -1 1 -1 0 -2 3 1 3 3 1 3 7 11 10 13 2 1 5
3 6 6 4 5 7 7 13 7 4 1 4 1 7 -2 3 -2 4 -6 6 -10 2 -8 4 -12 6 -11 1 0 1 0 1
-2 -1 -1 0 -3 1 -4 2 -2 2 -2 4 -1 2 2 2 2 6 0 2 -2 4 -3 5 -3 0 1 4 1 8 1 4
0 9 1 10 2 2 0 3 1 3 0 1 0 1 0 1 1 0 0 0 1 -1 1 0 0 0 1 0 3 1 3 4 3 9 0 2
-1 4 -1 4 -1 0 1 1 1 2 1 2 0 2 0 2 -2 -1 -1 -1 -3 -1 -4 0 0 -1 -1 -1 0 -1 0
-2 -1 -1 -3 0 -2 0 -3 -3 -5 -3 -3 -6 -4 -9 -2 -2 1 -2 1 -3 0 -1 -1 -3 -2 -5
-1 -3 0 -5 -2 -3 -4 1 -1 1 -1 -1 -2 -5 -5 -7 -7 -7 -8 -1 -2 -8 3 -11 7 -1 2
-2 3 -2 3 -1 0 -6 8 -6 10 0 1 -1 2 -1 3 -1 0 -1 1 -1 1 1 0 0 2 -1 4 -1 3 -2
5 -2 5 0 1 -1 1 -1 2 -1 0 -1 -2 -1 -4 0 -2 1 -4 1 -4 1 0 1 -1 0 -1 0 -1 0
-2 1 -2 0 0 1 -1 2 -3 0 -2 0 -4 1 -5 0 0 1 -4 3 -7 1 -3 3 -6 3 -7 0 -3 -3
-2 -4 0 0 2 -1 2 -6 2 -3 -1 -5 -1 -5 0 -1 1 -2 1 -3 0 0 -1 -4 -1 -7 -1 -5 0
-6 0 -6 1 -1 2 -4 3 -5 1 -1 -1 -1 -1 0 -1 0 1 1 1 1 0 1 0 -1 -1 -4 -1 -3 0
-6 -2 -8 -3 -3 -2 -5 -3 -5 -3 -1 0 0 9 2 13 1 2 3 5 5 7 3 3 2 4 -2 3 -2 -1
-13 -11 -12 -12 0 0 -3 -4 -7 -7 -11 -10 -25 -28 -29 -37 -1 -3 -1 -6 -1 -6 0
0 -1 -1 -2 -1 -2 -1 -3 -3 -3 -6 0 -3 -1 -3 -4 -3 -4 0 -5 0 -6 -2 l-2 -2 -3
3 c-2 2 -3 5 -4 7 0 1 -1 4 -2 5 -3 6 -5 11 -5 13 1 2 0 3 -2 4 -2 1 -2 1 -2
11 0 5 0 12 0 16 1 4 1 6 -1 8 -2 3 -3 4 -4 2 0 -1 -1 1 -1 3 0 3 0 4 1 3 1
-2 1 -2 1 0 0 2 0 2 1 1 1 -1 1 0 1 3 0 2 0 5 0 6 1 1 1 4 1 6 -1 1 0 3 0 4 1
0 1 1 1 2 -1 0 0 1 0 1 1 0 1 1 1 2 -1 1 0 2 1 3 1 1 2 2 1 2 0 1 0 1 1 1 0 0
1 1 1 1 0 1 1 4 3 6 2 4 4 9 10 22 2 4 3 6 5 7 1 1 3 1 3 2 2 2 8 5 13 8 4 2
6 3 15 3 6 1 11 1 11 2 2 1 10 1 10 0z m-69 -5 c0 -1 0 -2 -1 -2 0 0 -2 -3 -4
-6 -2 -6 -2 -6 -3 -4 0 1 1 4 3 7 2 2 3 4 3 5 0 1 0 1 1 1 1 0 1 -1 1 -1z
m154 -1 c3 -2 2 -3 -1 -4 -3 0 -3 0 -3 3 1 3 2 4 4 1z m-117 -34 c-1 -2 -3 -4
-3 -4 0 0 -1 -1 -2 -2 -2 -1 -3 -1 -4 0 0 1 0 1 1 1 0 -1 1 -1 1 0 0 1 0 1 1
1 0 -1 1 0 1 0 0 2 -1 2 -2 1 -2 -1 -2 0 1 2 5 6 6 7 8 6 2 -1 1 -2 -2 -5z
m136 -24 c1 -3 1 -4 -1 -3 -2 0 -3 3 -2 9 l0 4 2 -3 c0 -2 1 -5 1 -7z m-31 -3
c1 0 4 0 8 0 5 0 6 -1 5 -2 -2 -4 -19 -2 -19 2 0 2 2 2 6 0z m-177 -30 c1 -2
0 -5 -2 -5 -2 0 -6 5 -5 6 0 1 6 0 7 -1z m-11 -6 c0 -1 1 -1 1 -1 1 0 3 -2 4
-4 2 -3 2 -3 6 -3 4 0 5 0 5 2 1 1 2 2 2 2 5 0 0 -15 -5 -16 -2 0 -9 3 -9 5 0
0 -1 2 -3 3 -1 2 -2 3 -1 3 0 0 0 1 -1 2 -1 0 -1 1 0 1 0 0 0 1 -1 1 0 1 -1 2
-1 4 -1 1 0 2 1 2 1 0 2 -1 2 -1z m116 -5 c1 -1 9 -6 13 -7 3 -1 5 -2 5 -3 0
-1 -5 -3 -9 -3 -2 0 -4 0 -4 -1 -2 -2 -7 -4 -12 -4 -2 0 -5 -1 -6 -2 -4 -3 -9
-3 -10 -1 0 1 2 5 10 12 9 9 12 11 13 9z m54 -5 c1 -1 2 -5 3 -9 3 -8 3 -11 0
-10 -2 0 -3 1 -4 2 -1 0 -2 1 -2 1 -5 0 -6 2 -4 6 1 2 2 4 2 6 0 3 2 5 4 5 0
0 1 -1 1 -1z m-130 -27 c-1 0 0 -1 0 -1 1 -1 1 -1 0 -2 0 0 -1 -1 -1 -1 1 0 0
-1 0 -1 -1 0 -2 1 -1 1 0 1 0 1 -1 2 -1 0 -1 1 -1 2 1 0 1 1 0 1 0 0 0 1 0 3
l1 3 2 -3 c1 -1 1 -3 1 -4z m78 4 c1 -2 0 -4 -1 -4 -2 0 -3 3 -2 4 2 1 3 1 3
0z m2 -17 c0 -1 -1 -2 -2 -3 -1 -1 -1 -1 -1 0 1 0 0 1 -3 0 -5 0 -9 -2 -10 -5
-1 0 -2 -1 -3 -1 -3 0 -6 -2 -6 -4 1 -2 -1 -2 -5 -1 -2 0 -3 1 -2 2 1 1 1 1 2
0 1 -1 1 -1 3 1 1 1 2 2 2 3 -1 1 4 3 5 2 1 0 1 0 1 1 0 1 0 1 1 1 2 0 3 0 3
1 -1 0 0 2 2 3 4 3 12 4 13 0z m-45 -4 c0 -4 0 -4 -2 -3 -4 1 -5 3 -3 5 3 3 5
2 5 -2z m-36 -2 c1 -2 1 -3 0 -3 0 0 -1 -2 0 -4 0 -3 0 -3 -1 -2 -1 1 -2 4 -2
7 0 5 1 7 3 2z m55 -16 c2 0 6 -2 8 -2 2 -1 6 -2 7 -4 2 -2 3 -2 5 -1 7 4 33
6 38 3 5 -3 9 -3 11 -1 3 3 4 2 7 0 2 -2 2 -2 0 -4 -1 -1 -2 -2 -2 -1 -1 0 -1
-1 -1 -1 1 0 1 -1 0 -2 -1 -1 -1 -1 1 0 2 1 2 1 1 -1 0 -1 -1 -2 -3 -2 -2 0
-3 1 -2 1 1 1 1 3 0 4 -1 0 -1 0 -1 -1 0 -1 0 -1 -1 -2 -1 0 -1 0 -1 1 1 1 0
1 -2 0 -2 0 -3 -1 -3 0 0 0 -1 0 -2 -1 -1 -2 -1 -2 -5 -1 -2 1 -4 1 -5 0 -1 0
-19 -1 -21 0 0 1 -2 1 -3 0 -2 0 -3 0 -3 1 0 1 -1 1 -1 1 -1 -1 -2 0 -3 0 0 1
-12 0 -13 -1 -2 -2 -3 -1 -3 1 1 1 0 2 -3 3 -2 1 -4 2 -4 1 -1 0 -1 0 -1 1 2
2 -1 1 -3 -1 -1 -1 -1 -1 0 1 0 2 0 2 -3 2 -6 -1 -7 5 -1 7 4 1 7 1 12 -1z
m-76 -14 c0 -1 0 -1 -1 -1 -1 0 -1 -1 0 -1 0 -1 0 -1 0 -1 -1 1 -3 0 -4 -1 -1
-1 -3 -2 -3 -1 -1 0 -2 0 -2 -1 -1 -2 -3 0 -3 3 l-1 3 3 -2 c1 -1 2 -2 2 -1 0
0 0 0 1 -1 1 -1 1 -1 1 1 0 1 1 3 2 3 2 2 5 2 5 0z m-2 -14 c0 0 1 -1 2 -2 1
-2 1 -4 0 -6 -3 -2 -5 -1 -6 2 l0 2 -4 -2 c-2 -2 -3 -2 -4 -1 -1 1 -3 1 -5 0
-3 -2 -7 -5 -6 -5 1 0 1 -1 0 -2 -1 -2 -1 -2 0 -3 1 0 2 -1 1 -1 0 -2 -2 -1
-2 1 0 1 -2 1 -7 0 -10 -3 -11 -3 -11 -2 0 1 -1 1 -1 0 -1 0 -1 0 -1 1 1 1 2
1 2 0 1 0 1 0 1 1 0 1 2 3 4 4 2 1 6 4 8 5 1 2 5 4 7 5 3 1 6 3 7 4 2 2 2 2 4
1 0 -1 1 -2 0 -2 0 -2 3 -1 4 0 3 3 5 4 7 2 0 -1 1 -2 0 -2z m263 -30 c2 -1 2
-3 -1 -3 -2 0 -7 4 -6 5 0 1 3 0 7 -2z m-265 -13 c8 -7 14 -13 23 -20 4 -2 11
-9 17 -14 5 -5 13 -13 18 -17 8 -7 10 -10 3 -6 -3 2 -15 12 -22 19 -6 5 -24
21 -31 26 -7 6 -16 15 -16 17 0 2 1 1 8 -5z m202 5 c1 -1 -1 -9 -3 -9 -1 0 -1
1 -1 2 1 0 1 3 1 5 0 2 0 3 1 3 1 0 2 0 2 -1z m-57 -34 c0 -3 -6 -12 -9 -12 0
0 -1 -1 -2 -2 -2 -1 -4 -2 -5 -2 -2 -1 -3 -1 -2 0 1 0 0 1 -2 2 -2 3 -2 3 -1
5 2 3 3 3 5 3 4 -1 9 0 8 1 0 1 1 1 2 1 2 -1 2 0 3 2 1 3 3 4 3 2z M204 304
c-1 -2 -2 -3 -2 -4 1 -1 0 -2 0 -2 -1 0 -1 0 0 -1 2 -2 6 1 7 7 0 2 -3 2 -5 0z
M153 306 c0 0 -1 -1 -1 -2 0 -1 1 -1 4 -1 5 0 6 1 2 3 -2 1 -3 1 -5 0z M118
248 c0 -1 2 -3 5 -5 4 -2 5 -3 5 -1 -1 0 -1 1 0 1 1 0 0 1 -2 2 l-3 2 2 -2 c1
-1 2 -2 1 -2 -2 0 -7 4 -6 5 0 1 0 1 -1 1 -1 0 -1 0 -1 -1z M217 233 c-1 0 0
-2 2 -4 3 -3 3 -3 3 -1 0 2 -5 7 -5 5z M118 230 c1 -1 -1 -2 -5 -2 -2 0 -2 0
0 -1 2 0 4 -1 4 -3 2 -2 2 -1 5 3 1 2 1 2 -1 3 -2 1 -3 1 -3 0z M128 215 c0
-1 0 -2 1 -3 0 -2 0 -2 2 -1 0 1 1 3 1 3 0 2 -3 3 -4 1z M143 423 c-1 0 -3 -1
-4 -2 -2 -1 -2 -1 1 -1 2 0 4 0 5 0 0 1 4 1 5 0 1 -2 0 -2 -2 -3 -2 -1 -4 -2
-4 -2 0 -1 1 -1 6 0 2 1 4 2 4 2 0 0 0 0 -1 1 -2 1 -2 2 -1 3 2 3 -2 4 -9 2z"/>
</g>
</svg>
