<?xml version="1.0" standalone="no"?>
<!DOCTYPE svg PUBLIC "-//W3C//DTD SVG 20010904//EN"
 "http://www.w3.org/TR/2001/REC-SVG-20010904/DTD/svg10.dtd">
<svg version="1.0" xmlns="http://www.w3.org/2000/svg"
 width="370.000000pt" height="463.000000pt" viewBox="0 0 370.000000 463.000000"
 preserveAspectRatio="xMidYMid meet">
<metadata>
Created by potrace 1.16, written by Peter Selinger 2001-2019
</metadata>
<g transform="translate(0.000000,463.000000) scale(1.000000,-1.000000)"
fill="#000000" stroke="none">
<path d="M119 461 c-2 0 -5 -2 -6 -3 -2 -2 -6 -4 -10 -6 -7 -4 -16 -9 -22 -14
-7 -6 -27 -24 -27 -25 0 -1 2 1 4 3 5 4 10 5 10 2 0 -3 2 -2 6 1 1 2 3 3 3 3
1 0 4 2 7 4 10 8 16 11 21 13 3 1 6 3 7 3 4 4 11 6 19 8 9 1 10 1 13 -1 3 -1
3 -1 9 2 5 3 6 3 11 3 2 -1 8 -1 12 -1 6 0 8 0 10 -2 2 -1 4 -2 6 -2 2 0 5 -1
7 -3 3 -1 5 -2 11 -2 8 -1 7 0 19 -11 5 -5 7 -5 10 -3 3 1 8 -2 19 -13 11 -10
9 -7 -8 10 -6 6 -13 13 -15 14 -2 2 -7 6 -10 8 -3 4 -7 6 -10 7 -3 1 -8 3 -12
5 -6 2 -7 2 -44 2 -30 0 -37 0 -40 -2z M185 447 c-1 -5 0 -5 3 -6 1 0 2 -1 1
-1 -2 0 -2 0 0 -3 3 -2 3 -2 5 -1 1 1 3 1 4 0 2 0 3 0 3 3 0 2 -1 4 -3 5 -2 1
-3 2 -3 1 1 -1 1 -1 -1 -1 -2 1 -3 1 -3 0 0 -1 -1 0 -1 2 -2 3 -5 4 -5 1z
M147 446 c-1 -1 -2 -5 -1 -7 1 -1 3 -2 4 -2 2 0 3 0 3 2 0 1 -1 3 -1 3 -1 1
-2 2 -2 3 0 1 -1 2 -3 1z M222 433 c0 -2 1 -5 4 -5 2 1 2 1 -1 4 -2 2 -2 2 -3
1z M169 423 c-1 -1 -2 -2 -2 -2 0 -1 1 -1 3 0 3 2 12 -4 11 -6 -1 -1 -1 -1 0
-1 1 0 1 -1 0 -1 0 -1 0 -1 1 -1 2 1 5 -1 5 -2 0 -2 -4 -4 -7 -4 -1 0 -3 -1
-4 -2 -2 -2 -2 -2 -1 -2 1 -1 4 0 6 1 4 2 19 4 20 3 1 -1 1 -2 0 -3 -1 -3 -1
-3 4 -2 13 1 13 1 13 -1 0 -1 1 -2 2 -2 1 0 2 -1 3 -1 3 -3 13 -4 15 -2 0 1
-3 5 -5 5 0 0 -1 1 -1 2 -1 2 -1 2 -3 2 -2 -1 -5 2 -4 4 0 1 -2 2 -6 1 -4 0
-9 2 -9 4 0 1 -1 2 -3 3 -2 0 -5 2 -6 3 -2 0 -6 1 -9 2 -3 0 -7 0 -7 1 -1 0
-3 0 -5 1 -2 0 -5 0 -6 0 -1 1 -4 0 -5 0z M238 416 c-1 -2 0 -4 2 -4 1 0 2 0
2 -1 0 0 1 -2 3 -4 3 -3 4 -3 6 -2 1 2 1 2 -3 6 -2 2 -4 4 -5 4 0 -1 -1 0 -2
1 -1 1 -3 1 -3 0z M65 407 c1 0 0 -1 0 -1 -1 0 -1 -2 -1 -3 0 -2 -1 -3 -3 -4
-2 -1 -4 -2 -4 -2 0 0 0 -1 1 -1 0 -1 2 -1 4 -1 3 1 3 2 3 5 l0 4 2 -3 c0 -1
1 -2 1 -1 0 0 0 1 1 1 2 0 3 0 3 1 0 1 1 2 2 2 3 1 3 3 0 3 -1 0 -4 0 -6 0 -2
1 -3 1 -3 0z M144 406 c-4 -1 -9 -3 -12 -4 -4 -2 -4 -3 -5 -6 0 -3 0 -3 4 -2
2 1 5 2 7 2 3 0 4 0 7 3 2 2 5 4 6 4 2 1 3 2 3 2 0 1 0 1 1 1 1 -1 1 0 1 0 0
2 -4 2 -12 0z M236 405 c-1 0 0 -1 0 -3 1 -2 3 -3 8 -5 3 -1 5 -4 4 -5 -1 0
-2 0 -4 -1 -3 0 -7 -1 -7 -2 0 -2 2 -3 5 -1 2 1 3 1 4 -1 1 -2 2 -3 2 -5 -1
-2 -1 -2 1 -2 1 1 3 0 5 -3 2 -2 4 -5 4 -6 1 -1 2 -2 3 -2 1 1 2 0 3 -2 1 -2
2 -3 2 -3 5 -1 7 -2 7 -5 0 -1 -2 -2 -3 -2 -2 0 -4 0 -4 -1 0 0 0 -1 -1 -1 -1
0 -12 11 -12 12 0 0 -1 2 -2 4 -2 1 -3 4 -4 5 -1 4 -14 10 -14 7 0 0 0 -1 1
-2 2 -1 -2 -2 -7 -1 -5 0 -5 2 1 3 3 0 4 1 3 2 -2 2 -2 2 -4 1 -4 -1 -4 -1 -4
1 1 3 1 3 -1 2 -9 -3 -13 -4 -19 -4 -4 0 -7 1 -7 1 0 0 -2 1 -5 0 -3 0 -6 1
-6 2 -1 0 -2 1 -3 1 -1 0 -1 2 0 3 2 0 1 4 0 4 -1 0 -2 0 -2 -1 -1 0 -2 -1 -4
-1 -2 1 -5 0 -6 -1 -2 0 -4 -1 -5 -1 -4 0 -2 -2 2 -2 2 -1 4 -2 5 -2 0 -1 -4
-3 -10 -4 -3 0 -6 -1 -7 -2 -3 -2 -6 -2 -7 0 0 1 1 2 3 3 l3 1 -4 2 c-4 3 -7
3 -11 0 -3 -2 -11 -3 -17 -1 -4 1 -5 2 -5 1 0 -3 5 -6 13 -8 2 -1 4 -2 4 -2 0
-3 1 -3 -11 -1 -9 1 -11 2 -11 5 0 3 -11 3 -17 0 -5 -3 -6 -3 -7 -1 -2 1 -2 1
-7 0 -2 -1 -6 -3 -8 -3 -2 -1 -3 -2 -3 -2 0 -1 -1 -1 -1 -1 -1 0 -2 0 -2 1 0
1 1 1 1 0 1 0 1 1 1 3 -1 1 0 3 0 4 1 1 1 2 0 4 -1 2 -1 3 1 5 2 1 4 2 5 2 1
-1 2 0 3 1 1 1 1 2 0 3 -1 1 -1 1 -2 0 -1 -2 -5 -3 -10 -3 -1 0 -4 -2 -5 -3
-1 -1 -2 -2 -3 -1 0 0 -2 0 -4 -1 -3 -1 -4 -1 -3 -4 0 -2 0 -2 1 -1 1 1 1 1 1
0 0 -1 -1 -2 -5 -2 -3 -1 -4 -3 -2 -4 2 0 2 -2 1 -2 -3 0 -9 -14 -16 -34 -3
-12 -3 -13 -2 -15 2 -1 2 -2 2 -4 -1 -4 -3 -6 -6 -6 -3 0 -3 -1 -3 -3 1 -3 1
-3 -2 -4 -2 0 -4 -1 -4 -3 -2 -3 -2 -3 0 -4 2 -2 2 -2 -1 -4 -4 -2 -7 -6 -5
-8 0 -1 1 -1 1 0 1 0 2 -1 3 -2 1 -1 1 -1 -1 -3 -1 -1 -3 -2 -3 -1 -1 0 -1 0
-1 -1 0 -2 3 -5 3 -4 1 1 5 -2 4 -3 0 -1 0 -1 2 -1 1 1 2 1 3 0 0 -2 -2 -5 -4
-5 0 1 -1 0 -1 0 0 -1 0 -1 -1 0 -2 1 -1 -2 1 -4 1 -1 2 -2 2 -2 -3 -2 -5 -3
-5 -5 0 -3 0 -3 2 -3 3 1 4 -1 1 -3 l-3 -2 3 -2 c3 -1 3 -1 1 -2 -1 0 -2 0 -1
-3 1 -1 2 -2 3 -2 2 0 2 0 0 -2 -2 -2 -2 -3 -1 -4 1 -1 1 -3 1 -4 0 -2 0 -3 1
-2 1 0 1 0 1 -2 -1 -2 0 -3 2 -6 1 -3 3 -5 2 -6 0 0 1 -1 2 -2 4 -3 4 -5 3 -7
-2 -2 -3 -8 -2 -12 0 0 1 -1 2 -1 2 0 3 0 4 -1 0 -1 -1 -1 -2 -1 -4 0 -4 -2
-1 -7 1 -2 2 -4 2 -5 1 -1 2 -2 4 -2 3 0 8 -4 8 -7 0 0 1 -2 2 -3 2 -1 3 -2 3
-3 -1 -2 -1 -3 -1 -4 0 -2 -4 -6 -6 -5 -2 0 -4 -3 -3 -4 1 0 3 0 4 0 3 0 3 -1
3 -4 0 -4 0 -4 3 -5 1 -1 3 -2 4 -3 0 0 2 -2 3 -2 3 -2 4 -4 1 -4 -1 0 -2 0
-2 -1 -1 -1 0 -1 0 -1 1 0 2 0 2 0 1 0 3 -1 6 -2 3 -1 5 -1 6 -1 1 1 2 1 3 1
3 0 2 -3 -2 -4 -1 -1 -5 -4 -7 -6 -3 -3 -6 -5 -7 -5 0 0 -1 0 -1 -1 0 -1 0 -1
-1 -1 -1 1 -1 0 -1 0 0 -1 0 -2 -1 -2 -1 0 -1 0 -1 -1 1 0 0 -1 0 -1 -1 -1 -1
-1 0 -1 1 0 2 0 2 1 0 1 5 3 7 3 1 0 2 1 2 2 1 1 2 1 3 1 2 -2 1 -3 -1 -4 -3
-1 -4 -4 -2 -5 3 0 2 -4 0 -6 -3 -3 -6 -3 -7 1 0 2 -2 3 -2 1 0 0 -1 -1 -2 -2
-1 -1 -2 -1 -4 0 -1 1 -2 1 -5 0 -3 -2 -4 -2 -4 -5 0 -3 0 -3 2 -3 3 0 5 -2 3
-2 -1 0 -3 -1 -6 -2 -1 0 -2 0 -2 2 -1 2 -1 2 -6 0 -3 -1 -9 -2 -14 -4 -7 -1
-10 -3 -13 -5 -3 -3 -3 -4 -3 -11 0 -4 0 -7 1 -7 0 0 2 2 3 4 2 3 3 3 4 1 1
-1 1 -2 -2 -9 -2 -4 -5 -7 -5 -7 -1 0 -1 -12 -1 -27 l0 -27 74 0 c48 0 73 0
72 1 0 1 0 1 1 1 1 0 2 1 4 1 0 0 1 0 1 0 1 0 1 2 1 5 0 4 -1 4 -3 5 -2 0 -2
0 -1 -1 1 -2 -1 -5 -4 -5 -3 0 -4 2 -4 7 -1 2 -1 6 -2 7 0 2 0 3 1 3 1 -1 1
-1 1 0 0 1 1 0 2 -2 0 -3 1 -4 1 -3 0 1 0 1 1 1 1 -1 1 0 0 2 -1 1 -2 3 -3 4
-4 2 -11 8 -11 10 0 2 3 3 8 3 2 -1 3 0 3 1 0 2 0 2 -1 0 -2 -1 -2 -1 -1 2 0
2 0 3 -2 4 -2 1 -3 3 -3 7 -1 2 -1 5 -2 5 -2 1 2 2 6 1 l4 0 -1 -5 c0 -4 0 -5
1 -5 1 0 4 2 7 4 5 5 6 5 9 2 2 -2 2 -2 1 -4 -2 -1 -2 -1 0 -1 1 0 4 1 6 2 6
2 8 1 11 -6 2 -5 5 -7 9 -7 2 1 4 1 4 2 0 0 1 1 2 1 3 1 6 3 6 5 0 0 1 1 2 2
1 0 2 1 2 2 0 1 1 2 3 4 3 2 3 3 3 6 -1 3 -1 3 3 5 2 1 4 2 5 3 0 1 1 3 3 4 1
1 2 3 2 4 0 2 2 3 4 4 0 0 0 0 0 1 0 1 1 2 2 3 2 2 2 3 3 8 0 2 1 3 1 3 3 0 4
-6 3 -11 -1 -2 -1 -7 -1 -12 0 -5 -1 -9 -1 -10 -1 -2 -6 -7 -13 -13 -2 -2 -7
-8 -11 -13 -4 -5 -11 -11 -14 -14 -8 -6 -15 -14 -18 -19 l-2 -4 98 0 98 0 0
29 0 29 -3 0 c-3 0 -13 3 -15 4 -1 1 -1 1 -1 0 0 0 -2 0 -3 1 -2 1 -4 2 -5 2
-2 -1 -7 1 -9 3 -1 1 -2 2 -4 2 -1 0 -2 1 -3 3 -1 2 -3 3 -5 3 -4 1 -9 6 -9 8
1 2 3 2 5 1 1 -1 4 -3 8 -4 3 -2 6 -4 6 -4 0 -1 1 -1 2 -1 2 0 3 -1 4 -2 1 -1
3 -2 3 -1 1 0 1 0 1 -1 0 -1 0 -1 1 0 1 1 1 1 1 0 0 -1 6 -3 7 -3 2 1 12 -3
14 -4 1 -1 2 -2 3 -2 1 0 2 3 2 15 l0 15 -8 1 c-4 1 -9 3 -10 3 -1 1 -3 1 -4
0 0 -1 -1 -1 -1 0 -1 1 -4 1 -7 1 -4 0 -10 0 -14 1 -3 0 -8 1 -10 0 -3 0 -3
-1 -2 -3 0 -2 0 -2 -1 0 -1 2 -14 14 -15 14 -1 -1 -1 -1 -1 -2 0 -1 0 -3 0 -4
0 -3 0 -3 -2 -3 -3 0 -3 0 -3 2 0 2 -1 2 -3 1 -2 0 -3 0 -3 1 -1 1 1 5 3 7 1
0 1 1 1 2 -1 0 -1 0 -1 -1 0 -1 -1 -1 -2 1 0 1 -1 2 -1 3 1 0 -1 2 -3 2 -5 2
-6 2 -6 1 0 -2 -4 -2 -7 -2 -1 1 -1 1 0 2 0 1 1 3 1 5 0 3 -1 4 -9 6 -2 1 -5
2 -5 2 -2 2 -6 1 -8 -1 -1 -1 -1 -2 0 -2 0 0 2 0 3 -1 2 -2 3 -3 2 -4 -1 0 -2
-1 -2 -1 0 1 -2 0 -4 0 -3 -1 -4 -1 -8 1 -3 1 -5 3 -5 3 0 2 6 4 13 6 2 0 3 1
3 1 -1 0 0 2 1 3 0 2 1 4 1 5 0 1 -4 2 -9 2 -8 1 -10 6 -6 11 3 3 3 5 0 8 -2
1 -2 2 -2 7 1 3 1 6 0 7 0 1 0 2 0 3 1 1 0 2 -1 4 0 1 -1 2 -1 3 0 1 0 2 -1 2
0 0 -1 1 0 2 0 1 -1 2 -1 2 -1 0 -1 1 -1 1 0 1 -1 3 -2 3 -1 1 -2 2 -2 3 1 0
0 1 -1 2 -1 1 -2 2 -2 2 0 1 -1 2 -1 3 -1 1 -2 2 -2 3 0 1 0 2 -1 2 -1 0 -1 0
0 -1 0 -1 -1 -1 -1 -1 -1 0 -2 -1 -2 -1 0 -3 -3 -2 -5 0 -2 3 -3 3 -7 2 -3 -1
-6 -1 -8 -1 -1 1 -3 0 -4 0 -1 -1 -10 -2 -10 -1 0 0 -1 1 -3 2 -4 1 -8 0 -13
-5 l-2 -3 3 -1 c3 -2 7 -2 12 0 5 2 9 2 9 0 0 -2 -2 -5 -3 -5 0 1 -1 0 -1 -2
0 -4 -2 -5 -5 -4 -3 0 -4 0 -5 -2 -1 -1 -2 -2 -2 -1 -2 2 -6 0 -9 -3 -1 -1 -2
-3 -1 -3 0 0 1 -1 0 -1 0 -2 3 -4 6 -4 1 0 2 -1 3 -1 2 -2 2 -2 -1 -4 -2 -1
-4 -2 -5 -2 0 1 -1 1 -1 0 0 -1 -11 -1 -13 1 -1 0 -2 1 -2 1 0 1 1 1 2 0 1 -1
1 -1 1 0 0 1 2 3 4 4 3 2 4 4 1 6 -3 3 -8 3 -11 0 -2 -2 -3 -4 -3 -4 1 0 0 -1
0 -1 -3 0 -5 -1 -6 -3 -1 -2 -2 -3 -3 -3 -1 0 -1 -1 -1 -2 0 -1 0 -2 -1 -2 0
-1 0 -3 0 -5 0 -3 -1 -4 -2 -5 -1 0 -1 3 -1 10 0 0 0 2 0 3 1 1 1 2 0 3 -2 0
-4 -1 -4 -3 0 -1 -1 -3 -2 -4 -1 -1 -1 -2 0 -2 0 0 0 -1 -1 -1 -2 -2 -2 -2 -1
-5 1 -2 1 -4 2 -5 0 -5 1 -6 2 -6 3 0 4 2 4 5 0 2 1 3 2 3 1 0 1 0 1 1 -1 1
-1 1 0 1 1 0 1 0 1 -1 0 -1 0 -1 1 0 1 0 3 0 6 0 3 0 4 1 4 2 0 0 0 1 1 1 1 0
1 1 1 1 0 2 0 2 9 3 6 0 11 -1 18 -4 2 -1 6 -1 9 -1 4 -1 6 -1 7 -1 0 -1 0 -1
-1 -1 -1 0 -1 0 0 -1 1 0 4 -1 8 0 5 0 7 0 9 -1 1 -2 1 -2 0 -3 -4 -3 -12 -4
-25 -3 -7 0 -13 1 -14 1 -1 -1 -2 -2 -3 -4 0 -2 -1 -3 -1 -2 -1 1 -1 1 -1 0 0
-1 -1 -1 -1 0 -1 0 -1 0 -1 -1 1 -1 2 -1 2 0 1 0 1 0 1 -1 0 -1 0 -1 1 -1 0 1
1 0 0 -1 0 -2 3 -3 20 -4 10 0 12 0 13 1 2 2 3 2 8 2 3 -1 6 -1 7 -2 1 0 2 1
4 1 2 2 2 2 2 -1 0 -2 0 -3 1 -3 0 0 1 1 0 3 0 2 0 2 2 1 1 0 1 0 1 1 -1 1 0
1 0 2 1 0 2 1 1 1 0 1 0 1 1 1 1 -1 1 -1 1 -2 0 0 0 -1 1 -1 1 0 1 0 0 -1 0
-1 0 -3 1 -5 2 -6 1 -8 -7 -12 -3 -2 -7 -4 -7 -4 -1 0 -3 0 -5 -1 -3 -1 -3 -1
-4 0 -2 2 -3 2 -13 2 -6 0 -12 0 -12 -1 -2 -1 -7 0 -6 1 0 1 0 1 -1 1 -1 -1
-4 -1 -6 -1 -2 0 -3 0 -3 -1 0 -1 0 -2 1 -2 0 0 1 -1 2 -1 2 -1 2 -2 -1 -2 -1
0 -3 1 -4 1 -1 1 -1 1 -1 1 1 -2 -2 -4 -5 -4 -2 0 -5 1 -7 2 -2 1 -4 2 -4 2
-1 0 -3 2 -5 5 -1 0 -2 0 -3 0 -1 0 -2 0 -2 1 0 1 -1 1 -1 0 -1 0 -1 0 0 1 1
1 1 2 -1 2 -1 1 -1 1 0 0 0 -1 -1 -1 -2 1 -1 1 -2 1 -2 0 1 -1 1 -1 -1 0 -1 1
-2 1 -3 0 -1 -2 -5 -2 -6 0 0 1 -2 2 -2 2 -2 0 -14 12 -16 16 -1 1 -4 5 -7 8
-3 4 -6 7 -5 7 0 1 0 1 -1 1 -1 0 -2 -1 -2 -2 0 -1 0 -1 1 0 1 0 1 0 1 -2 -1
-1 0 -2 0 -2 1 0 1 0 1 -1 -1 0 0 -2 4 -6 1 -1 2 -3 2 -3 0 -1 1 -1 2 -1 2 0
3 -1 3 -1 0 -1 2 -3 4 -5 1 -2 3 -4 3 -4 0 -2 10 -11 12 -11 1 0 1 -1 1 -3 -1
-2 -2 -4 -2 -5 -2 -1 -2 -1 -4 0 -1 1 -2 3 -2 4 0 1 -1 2 -1 2 -1 0 -2 0 -2 1
0 0 -1 1 -2 1 0 0 -1 -1 -1 -1 1 0 0 -1 0 -2 -1 -1 -1 -1 0 -1 1 0 2 -1 2 -1
0 -1 2 -4 4 -6 2 -2 4 -5 4 -5 0 -1 1 -2 2 -3 1 -1 1 -1 0 0 -1 0 -1 0 -1 -1
1 -1 2 -1 3 0 1 1 3 1 4 1 1 0 5 0 8 1 5 0 6 0 8 -2 1 -1 2 -2 2 -2 0 -2 -6
-10 -9 -12 -4 -3 -8 -10 -8 -13 0 -1 0 -1 -1 -1 -1 0 -1 -1 -1 -3 0 -2 -1 -3
-1 -4 -3 0 -2 -3 0 -3 1 -1 2 -2 2 -8 0 -4 2 -9 3 -12 3 -6 2 -7 -3 -7 -1 0
-3 -1 -4 -1 -3 -2 -10 0 -12 2 -2 3 -2 6 -1 7 0 1 1 3 1 4 1 1 1 3 2 4 0 2 0
2 -1 1 -1 0 -1 0 -1 1 1 1 0 2 0 2 -1 0 -1 1 0 1 0 1 0 1 -1 1 0 -1 -1 0 -2 0
0 1 -1 2 -3 2 -1 -1 -2 0 -2 0 0 1 -1 1 -2 1 0 0 -1 0 -1 1 1 1 -3 5 -4 5 -1
0 -2 2 -3 4 -1 2 -2 4 -1 4 2 -2 1 1 -1 3 -2 1 -3 2 -3 1 -1 0 -1 0 -1 1 0 1
-3 -3 -3 -4 0 -1 1 -1 3 -2 1 -1 2 -2 3 -3 1 -2 2 -3 2 -3 1 0 1 0 0 -1 -1 0
-1 -2 -1 -3 1 -1 1 -2 -1 -3 -3 -2 -5 -1 -8 1 -2 3 -2 3 -1 6 1 3 1 3 -1 4 -1
0 -2 0 -3 -1 0 -1 -1 -2 -2 -2 -3 0 -2 4 0 7 1 1 3 3 5 4 2 2 3 3 4 2 1 0 2 0
2 1 1 1 1 1 0 1 0 0 -1 2 -1 4 0 2 0 4 0 5 -1 0 -1 1 -1 1 1 0 0 1 -1 1 0 1
-1 1 0 0 0 -1 -5 -6 -6 -5 -1 0 -1 2 2 9 3 6 4 10 4 16 0 3 1 7 1 9 1 2 1 3 0
4 0 1 -1 10 -1 34 -1 6 -1 9 -2 11 -2 2 -4 7 -6 19 -1 3 -2 6 -2 7 -1 2 -1 2
1 2 4 0 6 4 6 10 0 5 -1 6 -2 6 -2 0 -3 0 -3 2 -1 2 -1 3 0 3 1 -2 6 6 5 9 -1
0 -1 1 0 1 0 -1 1 1 1 2 -1 2 0 4 0 4 0 0 1 1 0 3 0 1 1 2 1 2 1 0 1 1 1 3 -1
2 0 3 0 4 0 0 1 1 0 2 0 1 0 2 1 2 0 0 1 1 1 1 0 2 2 10 3 13 0 1 0 2 1 3 0 4
5 12 6 12 1 0 1 0 0 1 -1 0 0 1 1 2 3 2 4 1 2 -2 -1 -2 -1 -2 1 -3 2 0 2 0 2
3 0 2 1 3 1 2 0 0 2 2 3 5 2 5 7 12 10 12 0 0 2 1 3 2 1 2 3 3 3 2 0 0 1 1 1
2 1 0 1 1 2 1 1 -1 1 0 1 2 0 1 1 1 2 1 1 0 2 1 3 2 1 1 1 1 1 0 -1 -1 0 -1 0
0 2 2 2 2 2 1 0 -1 0 -1 1 0 0 0 6 0 15 0 8 0 15 1 18 2 2 0 4 1 3 1 -2 0 -2
0 -1 1 2 2 13 4 12 2 -1 0 0 -1 1 -2 1 -1 1 -1 -3 -1 -2 1 -4 1 -3 0 1 0 2 -1
1 -1 -1 -2 7 0 9 2 2 1 2 1 2 0 0 -1 0 -1 1 0 1 1 2 2 3 2 1 0 1 0 1 1 -1 0 2
0 5 0 5 0 5 0 4 1 -2 1 -1 2 1 4 2 1 6 2 9 2 2 1 5 1 5 1 0 0 1 0 1 0 1 0 1 0
1 1 0 1 1 1 2 1 5 0 14 1 14 2 1 2 10 3 17 2 1 0 3 -3 5 -7 4 -6 4 -8 4 -12 0
-3 0 -6 -1 -6 -1 -1 -1 -2 0 -2 1 0 2 -4 1 -5 -1 0 -1 -7 0 -8 1 0 1 -1 0 -2
0 -1 0 -3 1 -6 4 -10 5 -14 5 -18 1 -3 2 -10 2 -16 2 -12 2 -16 -1 -38 -1 -3
-1 -6 -2 -8 0 -3 -1 -5 -1 -5 -1 -2 -2 -5 -3 -10 0 -3 0 -4 1 -3 1 0 1 -1 0
-2 -2 -1 -2 -2 -2 -3 0 0 0 0 0 0 0 0 0 -2 -1 -3 0 -1 0 -5 -1 -8 -1 -7 -1 -8
4 -7 3 0 4 0 4 -2 1 -1 1 -1 -1 0 -1 1 -1 1 0 -1 1 -1 3 -2 3 -2 1 0 11 10 11
12 1 2 0 2 -3 3 -2 0 -4 0 -5 0 -1 0 -2 2 -3 3 -1 2 -1 3 1 4 1 1 2 1 4 -2 4
-4 4 -4 8 0 3 4 4 6 3 7 -1 0 -1 0 0 -1 0 -1 0 -1 -1 -1 -1 1 0 3 2 3 1 0 3 1
4 3 1 1 2 2 1 2 0 -1 -1 0 -1 1 -1 2 0 3 3 3 1 0 3 1 4 3 1 2 2 4 1 4 -2 0 -1
5 1 9 2 3 5 3 6 2 1 -1 1 -1 2 0 0 0 1 1 1 1 0 -1 1 0 2 1 1 0 1 1 1 1 -1 0
-1 1 0 1 1 1 0 2 -1 4 -3 3 -4 7 -1 8 1 1 1 2 1 3 -1 3 0 6 2 5 0 -1 1 0 2 0
1 1 1 1 0 2 -1 2 -7 -1 -6 -3 0 -1 0 -1 -2 0 -1 1 -2 3 -2 4 0 1 -1 2 -1 1 -2
0 -1 2 1 5 0 1 2 2 3 2 1 0 1 0 0 1 -1 1 -2 1 -3 1 0 -1 -3 2 -3 4 0 0 1 1 2
1 3 0 3 1 0 4 -3 2 -4 5 -4 12 -1 2 0 3 0 3 1 0 1 0 1 1 -1 0 0 1 2 3 3 2 4 3
1 3 -2 0 -3 1 -1 4 1 2 1 2 -1 2 -2 0 -3 2 -2 4 1 0 1 3 1 7 1 3 1 6 2 7 0 1
0 4 1 8 0 5 0 6 -1 4 -1 -2 -1 -3 -2 -3 -2 0 -5 5 -6 9 0 5 1 5 4 1 l2 -2 3 2
c2 1 4 2 4 3 0 3 -6 12 -9 13 -2 1 -2 1 0 2 1 1 1 1 -2 2 -2 0 -3 1 -3 4 -2
11 -6 18 -11 14 -2 -1 -3 -1 -3 1 0 0 -2 2 -3 3 -2 1 -4 2 -5 3 0 1 -1 2 -1 2
-1 0 -3 1 -4 3 -2 1 -4 3 -5 4 -1 1 -2 3 -2 5 -2 6 -5 11 -8 11 -2 1 -4 2 -6
4 -3 3 -5 4 -5 2z m-52 -22 c0 -1 -7 -3 -8 -2 -1 0 -1 1 0 2 3 2 8 2 8 0z
m-40 -12 c4 -2 4 -3 2 -3 -4 -2 -27 1 -29 3 -2 2 -1 2 5 2 2 0 5 0 6 1 2 1 10
-1 16 -3z m-47 -2 c8 -2 12 -2 12 -1 0 1 0 1 1 1 2 -2 1 -3 -1 -3 -2 0 -5 -2
-4 -3 0 -1 0 -1 -1 -1 -1 0 -4 0 -8 0 -6 0 -6 0 -5 -2 0 -2 0 -2 -3 -2 -3 0
-3 0 -3 3 0 4 -1 5 -8 5 -6 1 -8 4 -3 4 4 1 17 0 23 -1z m120 -4 c1 -1 2 -2 1
-3 -2 -2 -4 -1 -5 1 -2 4 1 5 4 2z m-93 0 c2 0 3 0 3 -2 0 -2 5 -4 11 -4 5 0
5 -3 1 -3 -3 -1 -17 -2 -25 -2 0 0 -1 -1 -1 -1 1 -2 10 -2 13 -1 3 1 5 0 3 -2
-1 -1 -3 -2 -8 -1 -4 0 -8 0 -9 -1 -2 -1 -2 -1 2 -1 3 -1 9 -1 13 -1 6 0 8 -1
8 -2 0 -1 0 -1 -1 -1 0 1 -1 0 -1 -1 -1 -2 -17 -2 -23 1 -5 2 -6 3 -3 4 2 1 1
1 -2 2 -3 0 -13 4 -13 5 0 1 1 1 3 1 4 -1 5 0 7 3 1 3 2 3 4 3 2 -1 3 -1 4 0
1 1 2 2 2 2 1 0 2 1 3 2 1 1 2 1 3 1 2 -1 4 -1 6 -1z m148 -19 c5 -2 6 -6 2
-6 -4 0 -11 7 -11 10 l0 3 3 -3 c1 -1 4 -3 6 -4z m-199 -8 c4 0 5 0 6 2 1 2
14 3 18 0 2 0 6 -1 10 -1 7 0 9 -2 7 -5 -1 -1 -2 -2 -2 -3 0 -1 5 -2 6 -1 1 1
1 1 1 1 0 -1 1 -1 1 0 2 1 12 4 13 4 0 -1 -2 -3 -5 -5 -1 -1 -1 -1 0 -2 1 -1
9 1 15 4 3 2 5 2 4 -1 -1 -1 -2 -1 -4 -1 -1 1 -2 0 -3 -1 -1 -1 -3 -2 -6 -2
-3 -1 -6 -1 -6 -2 -1 -1 -5 -2 -14 0 -5 0 -6 0 -9 -2 -3 -2 -5 -2 -12 -2 -5 0
-12 1 -15 2 -4 0 -7 1 -8 2 -4 0 -4 2 -1 1 3 0 4 2 3 4 -2 1 -6 1 -13 0 -3 0
-6 0 -7 1 -2 1 -3 0 -2 -2 1 -1 1 -1 0 -3 -2 -1 -2 -1 -4 0 -4 1 -4 3 0 4 1 1
2 2 2 3 1 7 0 7 7 6 5 0 7 0 8 1 1 2 2 2 3 0 2 -1 4 -2 7 -2z m210 0 c2 -3 2
-3 -1 -3 -3 0 -5 2 -5 5 0 2 5 1 6 -2z m-123 -9 c-1 -2 -6 -4 -10 -4 -3 0 -2
2 1 3 1 0 3 1 4 2 1 1 3 2 4 2 3 0 3 -1 1 -3z m-67 -20 c0 -1 -1 -3 -2 -4 -1
-2 -2 -5 -3 -7 0 -4 -3 -9 -4 -10 0 0 -2 -3 -4 -7 -4 -7 -5 -7 -6 -5 -1 2 -1
2 1 4 1 1 2 4 2 7 1 2 2 6 3 9 2 3 4 7 6 10 2 4 3 5 5 5 1 0 2 -1 2 -2z m-19
-43 c-1 -2 -1 -2 -3 -1 -1 1 -1 1 0 -1 1 -1 1 -2 -2 -7 -1 -3 -3 -7 -3 -8 -1
-2 -2 -3 -3 -4 -2 -1 -4 -3 -4 -5 0 -2 -2 -4 -4 -3 0 1 1 2 1 4 1 2 2 4 2 4 0
1 1 3 2 4 3 4 5 8 5 9 0 1 1 2 2 3 1 0 2 2 2 4 1 2 2 4 3 4 2 1 2 0 2 -3z
m-44 -10 c-1 -2 -1 -4 0 -7 1 -3 1 -5 0 -6 -2 -2 -3 1 -2 4 1 3 0 6 -2 5 -1
-1 -1 0 -1 2 0 3 0 4 2 5 3 1 4 0 3 -3z m12 -5 c-1 0 0 -1 0 -2 0 -2 0 -4 -1
-7 0 -2 -1 -7 -1 -10 0 -3 0 -5 -1 -5 -1 0 -1 0 -1 1 0 1 -1 1 -2 1 0 0 -2 1
-2 3 -1 1 -2 2 -2 2 -2 0 1 6 4 8 1 1 2 2 2 4 0 4 1 6 3 6 0 0 1 0 1 -1z m28
-13 c0 -3 -1 -7 -2 -8 0 -2 -1 -3 0 -3 0 -1 0 -1 -1 -2 -1 0 -1 0 -1 1 1 1 -3
4 -4 4 -2 -1 -2 -1 -1 1 0 1 1 3 1 4 1 3 5 8 7 8 0 0 1 -2 1 -5z m-21 -16 c1
-1 3 -2 4 -2 2 -1 4 -2 4 -4 1 -2 2 -3 4 -3 1 0 2 -1 3 -1 1 -1 1 -2 1 -2 -1
0 0 -2 1 -4 2 -2 2 -4 1 -5 -1 -3 -3 -8 -3 -10 0 -2 -5 -4 -8 -3 -5 1 -14 11
-14 15 0 1 -1 3 -2 5 -3 4 -3 6 -2 8 1 1 1 1 3 -1 2 -2 3 -2 5 -1 1 1 1 2 -1
4 0 2 -1 4 -1 4 0 2 4 1 5 0z m167 -21 c1 -2 5 -11 5 -11 0 -1 1 -2 2 -4 2 -2
2 -4 2 -5 -1 -2 0 -4 2 -5 2 -2 3 -3 3 -4 0 -2 -3 -1 -5 1 -1 1 -2 2 -3 2 0 0
-2 1 -3 2 -2 1 -3 2 -3 1 0 0 -1 0 -1 1 -1 1 -2 1 -2 1 0 -1 -2 1 -4 3 -4 3
-4 5 -2 8 1 1 2 3 2 5 1 6 5 9 7 5z m57 -8 c0 -1 -3 -1 -4 1 0 0 0 2 0 3 1 1
1 1 3 0 0 -2 1 -3 1 -4z m-78 -11 c1 -1 2 -3 2 -4 2 -3 1 -5 -4 -6 -2 -1 -4
-1 -6 1 -2 0 -3 1 -4 1 0 0 -1 0 -1 1 0 1 0 1 1 1 2 -2 6 1 8 5 1 4 3 4 4 1z
m19 -36 c1 -2 1 -2 0 -3 -1 -1 -2 -2 -2 -1 -1 0 -1 -1 -1 -1 0 -1 -1 -2 -3 -2
-2 0 -3 1 -2 1 1 2 1 4 0 4 0 -1 -1 0 -2 0 0 1 0 1 0 1 1 -1 2 0 3 1 2 1 5 1
7 0z m69 -34 c0 -1 -5 -1 -6 0 0 1 0 3 1 4 l1 2 2 -2 c1 -1 2 -3 2 -4z m-7 -3
c1 -2 0 -5 -2 -5 -1 0 -2 1 -2 2 -1 1 1 4 2 4 0 0 1 -1 2 -1z m-6 -6 c-1 -3
-3 -3 -4 -1 0 3 1 5 3 4 1 0 1 -1 1 -3z m-228 -23 c2 -2 2 -2 1 -4 -2 -1 -3
-1 -5 1 -2 2 -2 2 -1 4 2 1 3 1 5 -1z m17 -12 c8 -7 15 -14 26 -22 4 -4 10 -9
14 -12 7 -7 9 -9 20 -19 8 -7 9 -8 8 -9 -1 -2 -10 5 -37 29 -10 9 -18 16 -22
19 -1 1 -6 5 -11 10 -6 6 -8 8 -8 9 1 3 2 2 10 -5z m203 3 c0 -4 -4 -12 -6
-13 -1 0 -1 6 1 12 1 3 2 4 3 4 2 0 2 -1 2 -3z m-123 1 c0 -1 -1 -1 -2 -2 -1
0 -3 0 -4 0 -2 -1 -3 0 0 2 2 1 6 1 6 0z M77 334 c-2 -2 -3 -5 -1 -5 1 -1 2 0
2 1 1 2 2 3 3 3 1 0 3 0 5 0 2 0 5 1 8 1 2 0 4 0 4 1 0 1 -11 0 -16 0 -2 -1
-3 0 -3 0 0 1 -1 0 -2 -1z M103 330 c-3 -2 -6 -3 -6 -2 -1 0 -1 0 -1 -1 0 -1
1 -1 6 0 4 1 7 3 7 5 0 1 -1 1 -6 -2z M58 210 c0 0 -1 -1 -1 -1 -3 0 -2 -2 0
-4 1 -2 2 -2 3 -1 1 2 1 7 -1 7 0 1 -1 0 -1 -1z M155 397 c-5 -2 -4 -4 1 -4 4
0 5 1 5 3 0 1 0 1 -1 0 -1 -1 -1 -1 -1 0 0 1 -1 1 -4 1z M258 393 c0 -2 0 -4
1 -4 1 0 2 5 1 6 -1 2 -2 1 -2 -2z M92 394 c1 -1 1 -3 -1 -5 -1 -2 -2 -3 -2
-2 0 2 -7 1 -12 -1 -3 -1 -4 -4 -1 -3 1 0 4 1 6 2 3 0 6 1 7 0 2 0 4 0 6 2 1
1 5 2 7 3 6 1 7 2 4 3 -2 1 -3 0 -3 0 0 -1 -1 -1 -2 0 -1 1 -1 1 0 0 0 -2 0
-2 -1 -1 -1 0 -2 1 -2 2 1 1 -1 1 -3 0 -1 -1 -1 -1 -2 0 0 0 -1 1 -1 1 -1 0
-1 -1 0 -1z M267 383 c-2 -1 -1 -2 2 -5 2 -1 3 -4 3 -5 1 -2 3 -3 6 -1 2 2 2
2 -1 5 -2 2 -4 3 -4 3 -1 0 -1 1 -1 2 0 1 0 2 -2 2 -1 0 -3 0 -3 -1z M201 316
c-1 -1 -5 -2 -8 -2 -1 0 -1 0 -1 -1 1 0 0 -1 -1 -1 -1 -1 -1 -1 1 -1 2 0 10 3
10 5 0 0 -1 0 -1 0z M226 302 c0 -3 8 -4 9 -1 0 1 -1 2 -4 2 -3 0 -5 -1 -5 -1z
M167 293 c-5 -2 -5 -2 -6 -1 -1 1 -3 1 -9 1 -4 0 -7 0 -6 0 0 1 -2 1 -4 1 -4
0 -5 0 -5 -2 0 -1 1 -2 2 -2 1 0 2 0 2 -1 -1 -1 0 -1 1 0 1 0 1 0 0 -1 -3 -2
-2 -5 1 -5 1 0 2 0 2 -1 -1 -1 -1 -1 0 -1 4 0 6 -1 8 -3 2 -3 1 -4 -5 -6 -7
-2 -8 -2 -8 0 l-1 2 -4 -2 c-3 -1 -6 -3 -7 -4 -1 0 -6 -3 -9 -4 -10 -5 -9 -7
4 -3 3 1 8 1 11 1 4 0 6 1 5 2 0 1 0 1 2 1 2 0 3 -1 3 -3 0 -1 2 -2 6 -3 7 -2
8 -3 9 -6 0 -1 -1 -1 -2 -1 0 1 -1 1 0 0 0 -1 0 -1 -1 -1 -1 0 -1 0 0 -1 1 -1
1 -1 1 -1 -1 0 -1 -1 0 -1 1 -1 1 -2 0 -2 0 0 -2 -1 -3 -2 -2 -2 -4 -3 -6 -4
-5 -1 -6 -1 -2 -2 2 0 4 0 5 1 1 1 3 2 5 2 2 1 4 3 6 5 2 3 6 7 9 10 5 4 5 6
5 9 0 2 1 4 1 4 1 0 1 1 0 1 0 1 0 1 1 1 0 -1 1 -2 0 -2 0 -1 1 -2 3 -1 1 0 3
0 3 0 0 0 0 0 1 1 1 0 1 0 1 0 0 0 2 0 5 0 4 1 5 0 7 -2 2 -2 5 -7 6 -10 2 -6
4 -8 7 -10 1 -1 3 -2 3 -3 0 -1 1 -1 2 -1 1 0 2 0 2 -1 0 -1 0 -1 1 -1 0 0 2
0 4 -1 1 -1 3 -1 3 -2 0 0 1 0 2 0 4 -2 10 -2 13 -1 l3 2 -3 1 c-2 0 -4 1 -5
1 -2 0 -4 1 -7 2 -2 1 -4 1 -5 1 -1 0 -3 2 -4 4 0 1 1 2 2 3 2 2 2 2 8 1 3 -1
5 -2 4 -2 -1 0 -1 -1 0 -2 2 -2 7 -2 9 0 1 1 12 -1 15 -3 1 -1 2 -1 2 0 0 1 0
1 -1 1 -2 0 -2 5 -1 7 1 0 1 1 0 1 -3 0 -6 7 -3 8 1 1 1 1 0 1 0 0 -1 0 -1 1
0 0 1 1 3 0 1 0 2 0 1 1 -1 1 -5 8 -5 10 0 2 0 2 -1 -1 -1 -2 -1 -4 -1 -4 1 0
0 -2 -1 -3 -1 -2 -2 -2 -2 -1 0 1 0 1 -1 1 -1 -1 -4 3 -5 9 -2 4 -2 5 -1 5 1
0 2 -1 3 -1 1 -2 4 0 4 2 -1 3 -8 7 -16 7 -1 1 -2 1 -3 1 0 1 -2 1 -4 2 -1 0
-3 1 -4 2 -3 2 -9 -1 -10 -4 -1 -2 -2 -4 -3 -5 -1 -2 -1 -2 0 -1 1 0 1 0 0 -1
-1 -1 -2 -2 -2 -1 -1 0 -2 -1 -3 -3 -3 -4 -6 -6 -9 -5 -1 1 -2 2 -1 2 0 1 0 1
-1 1 0 0 -1 0 -2 0 -1 0 -1 0 0 1 1 1 1 1 0 1 -1 0 -1 0 0 2 1 1 1 1 -1 0 -1
-1 -2 -2 -1 -2 0 -1 -1 -2 -2 -2 -1 -2 -1 -2 0 -2 1 -1 2 -1 3 -1 1 -1 0 -1
-2 -1 -2 0 -4 -1 -5 -1 -1 -1 -1 -1 -1 0 0 1 -1 1 -3 0 -3 -1 -3 -1 -5 1 -3 4
-3 7 -1 9 1 1 2 2 2 1 0 -2 3 -2 5 0 1 2 1 3 0 2 -1 0 -1 0 -1 1 1 0 1 2 0 3
-1 2 -2 3 -2 6 0 1 -3 1 -9 -2z m69 -23 c2 -2 2 -2 -1 -2 -3 0 -5 1 -5 3 1 1
4 1 6 -1z M166 229 c-1 0 -8 -10 -8 -12 0 0 -3 -4 -8 -8 -8 -8 -19 -21 -20
-24 -1 -1 -1 -2 -2 -2 -1 -1 -1 -5 0 -5 2 -1 4 0 8 5 2 3 6 8 9 11 3 3 7 8 9
10 3 3 5 5 6 5 1 0 2 1 2 4 1 2 2 6 4 10 4 7 4 8 0 6z M250 218 c0 -2 1 -3 1
-3 1 0 1 -6 0 -6 -1 -1 -1 -2 0 -2 2 -2 5 1 5 6 1 3 0 4 -1 3 -1 0 -1 0 0 1 1
2 1 2 -1 2 -1 0 -2 0 -2 1 0 1 0 1 -1 1 0 0 -1 -1 -1 -3z M253 155 c-1 -1 -2
-2 0 -2 2 -1 4 1 4 3 0 3 -1 2 -4 -1z M30 132 c-3 -2 -12 -10 -18 -16 l-12
-11 0 -5 c0 -5 0 -5 3 -5 2 0 4 2 10 7 8 7 18 16 24 19 2 1 5 3 6 5 1 1 3 2 3
2 1 0 1 1 2 2 1 1 0 2 -5 4 l-6 3 -7 -5z M53 129 c0 -1 0 -2 -1 -1 -2 0 -1 -2
1 -3 1 -1 1 -2 1 -2 0 0 1 1 2 2 1 1 1 2 -1 4 -2 1 -2 1 -2 0z M41 113 c-1 0
-2 -1 -3 -1 -1 -1 -2 -1 -2 -2 1 0 0 -1 -2 -1 -1 -1 -2 -2 -2 -2 0 -1 -1 -2
-2 -3 -1 -1 -1 -1 -1 0 1 0 -1 1 -4 1 -3 -1 -5 -1 -6 -3 -1 -1 -2 -2 -3 -2 0
0 -1 -1 -2 -1 -1 -1 -1 -2 1 -4 1 -1 2 -1 2 0 0 1 1 1 1 1 1 -1 3 0 5 1 2 2 5
3 6 4 2 0 3 2 3 2 0 1 2 3 5 4 3 1 6 2 5 2 0 1 0 1 1 1 1 -1 2 -1 2 0 0 0 0 1
0 2 1 2 -1 3 -4 1z M163 31 c-3 -3 -3 -5 1 -4 3 0 5 3 4 5 -1 1 -2 1 -5 -1z"/>
</g>
</svg>
