<?xml version="1.0" standalone="no"?>
<!DOCTYPE svg PUBLIC "-//W3C//DTD SVG 20010904//EN"
 "http://www.w3.org/TR/2001/REC-SVG-20010904/DTD/svg10.dtd">
<svg version="1.0" xmlns="http://www.w3.org/2000/svg"
 width="370.000000pt" height="463.000000pt" viewBox="0 0 370.000000 463.000000"
 preserveAspectRatio="xMidYMid meet">
<metadata>
Created by potrace 1.16, written by Peter Selinger 2001-2019
</metadata>
<g transform="translate(0.000000,463.000000) scale(1.000000,-1.000000)"
fill="#000000" stroke="none">
<path d="M119 461 c-2 0 -5 -2 -6 -3 -2 -2 -6 -4 -10 -6 -7 -4 -16 -9 -22 -14
-7 -6 -27 -24 -27 -25 0 -1 2 1 4 3 5 4 10 5 10 2 0 -3 2 -2 6 1 1 2 3 3 3 3
1 0 4 2 7 4 10 8 16 11 21 13 3 1 6 3 7 3 4 4 11 6 19 8 9 1 10 1 13 -1 3 -1
3 -1 9 2 5 3 6 3 11 3 2 -1 8 -1 12 -1 6 0 8 0 10 -2 2 -1 4 -2 6 -2 2 0 5 -1
7 -3 3 -1 5 -2 9 -2 3 -1 6 -1 8 -1 1 0 5 -3 10 -7 8 -8 9 -8 13 -6 3 1 8 -2
19 -13 11 -10 9 -7 -8 10 -6 6 -13 13 -15 14 -2 2 -7 6 -10 8 -3 4 -7 6 -10 7
-3 1 -8 3 -12 5 -6 2 -7 2 -44 2 -30 0 -37 0 -40 -2z M185 447 c-1 -4 0 -6 3
-6 1 0 2 0 1 -1 -2 0 -2 0 1 -3 2 -2 2 -2 4 -1 2 1 3 2 4 1 1 -2 3 -1 3 2 0 2
-1 4 -3 5 -2 1 -3 2 -3 1 1 -1 1 -1 -1 -1 -2 1 -3 1 -3 0 0 -1 -1 0 -1 2 -2 4
-5 4 -5 1z M147 445 c-2 -3 -1 -6 2 -7 1 -1 3 -1 3 -1 1 0 0 5 -1 6 -1 0 -1 1
-1 2 0 2 -2 2 -3 0z M169 423 c-1 -1 -2 -2 -1 -2 0 -1 1 -1 2 0 0 1 2 1 3 0 3
0 8 -5 8 -6 -1 -1 -1 -1 0 -1 1 0 1 -1 0 -1 0 -1 0 -1 1 -1 2 1 5 -1 5 -2 0
-2 -4 -4 -7 -4 -1 0 -3 -1 -4 -2 -2 -2 -2 -2 -1 -2 1 -1 4 0 6 1 5 2 19 4 20
3 1 -1 1 -2 0 -3 -1 -3 -1 -3 4 -2 14 1 13 1 13 -1 0 -2 0 -2 2 -2 1 1 2 0 2
0 1 0 3 -2 5 -3 4 -2 9 -2 11 0 0 2 -2 4 -4 4 -1 0 -2 1 -3 3 -1 1 -2 2 -3 2
-1 -1 -5 2 -4 4 0 1 -4 2 -7 1 -3 0 -8 2 -8 5 0 0 -1 1 -2 2 -1 0 -3 1 -4 2
-1 1 -2 1 -2 1 0 -1 -1 -1 -1 0 -1 1 -5 1 -8 1 -3 1 -7 1 -7 2 -1 0 -3 0 -5 1
-2 0 -5 0 -6 0 -1 1 -4 0 -5 0z M242 414 c-1 -1 -1 -1 0 -3 2 -3 6 -5 7 -3 1
0 0 2 -2 4 -3 3 -3 3 -5 2z M66 406 c-2 0 -2 -2 -2 -3 0 -1 -1 -2 -2 -3 -1 -1
-2 -2 -1 -3 2 -2 4 -1 4 3 0 2 0 3 1 3 1 -2 5 -2 5 -1 0 1 1 2 3 2 3 1 2 2 -2
3 -1 0 -3 0 -3 0 0 1 -2 0 -3 -1z M150 407 c-1 0 -2 0 -3 -1 -7 -1 -9 -1 -14
-4 -4 -2 -5 -3 -5 -5 -1 -4 -1 -5 2 -3 2 1 5 2 8 2 4 0 5 0 7 3 2 2 5 4 6 4 2
1 3 2 3 3 0 0 0 1 1 1 1 -1 1 -1 1 0 0 1 -6 1 -6 0z M236 404 c0 -2 3 -5 7 -6
6 -3 6 -7 0 -7 -3 0 -7 -2 -5 -3 0 -1 2 -1 4 0 3 1 3 1 4 -1 1 -1 2 -3 2 -5 0
-1 0 -2 1 -1 2 0 7 -5 9 -9 1 -2 2 -3 3 -2 1 0 2 -1 3 -3 1 -2 2 -3 2 -3 4 -1
6 -1 7 -3 0 0 1 -1 2 -1 2 0 1 -3 -1 -4 -1 -1 -1 -1 -2 0 -2 1 -5 1 -6 -1 -1
-4 5 -11 10 -10 1 1 2 0 1 0 0 -1 2 -4 3 -3 1 0 5 -3 5 -5 0 -2 -1 -2 -3 -2
-2 0 -4 0 -4 1 0 1 -2 2 -4 3 -6 2 -11 8 -12 14 -1 3 -2 5 -5 9 -2 2 -4 4 -4
5 0 0 -1 2 -2 3 -1 1 -3 4 -4 6 -1 2 -3 4 -7 6 -3 1 -6 2 -7 2 0 -1 0 -2 1 -2
2 -1 2 -1 -1 -3 -2 -1 -4 -1 -6 0 -5 1 -4 3 1 4 4 0 4 1 3 2 -2 2 -2 2 -4 1
-1 -1 -3 -1 -3 -1 -2 0 -2 0 -1 2 1 2 1 2 -2 1 -1 0 -4 -1 -7 -2 -4 -1 -19 -1
-18 0 0 1 -8 0 -9 -1 -1 0 -1 0 -1 1 0 1 0 1 -1 1 -1 0 -2 1 -4 2 -2 1 -3 2
-2 2 1 -1 2 0 3 2 2 2 1 4 -2 2 -1 0 -2 0 -3 0 -3 -1 -14 -3 -14 -4 0 -1 1 -1
2 -1 3 0 5 -1 6 -2 2 -1 -3 -3 -10 -4 -3 0 -5 -1 -7 -3 -2 -2 -6 -3 -6 0 -1 2
1 4 3 4 1 0 2 0 2 1 0 1 -1 1 -2 1 0 0 -2 1 -3 2 -1 1 -2 2 -5 1 -2 0 -4 -2
-5 -2 -2 -2 -9 -3 -16 -1 -10 3 -4 -4 8 -7 4 -1 7 -4 5 -4 -2 0 -4 0 -13 1 -8
1 -9 1 -10 4 -1 3 -1 3 -7 3 -4 0 -7 -1 -11 -3 -5 -2 -5 -2 -7 -1 -1 3 -4 2
-12 -3 -7 -4 -10 -3 -9 1 1 2 0 3 -1 3 -1 1 -1 4 1 4 0 0 1 -1 1 -2 0 0 0 -1
1 -1 1 0 2 3 1 4 -2 2 1 8 5 8 1 0 3 1 4 1 2 2 2 2 0 3 -1 1 -2 1 -2 0 -1 -2
-7 -4 -10 -4 -1 1 -2 0 -2 -2 -1 -2 -1 -2 -5 -2 -3 1 -5 1 -6 0 -1 -1 0 -1 3
-1 5 0 5 0 0 -1 -3 -1 -3 -1 -2 -2 1 -1 0 -2 -2 -3 -1 -1 -2 -2 -2 -3 1 -2 -3
-7 -5 -7 -1 0 -2 -1 -3 -3 0 -1 -1 -5 -2 -7 -2 -5 -2 -8 -1 -7 1 0 1 0 1 -1 1
-1 0 -1 -1 -1 -2 0 -3 -1 -4 -5 -1 -2 -3 -5 -3 -6 -1 -3 -1 -3 1 -4 l2 -1 -2
-1 c-2 -1 -2 -1 -2 0 0 1 -1 0 -2 -2 -1 -3 -1 -4 1 -6 1 -3 2 -4 1 -7 -1 -3
-2 -5 -4 -5 -2 0 -2 -1 -2 -3 0 -2 0 -3 -2 -3 -2 -1 -4 -5 -3 -7 1 -2 -2 -5
-4 -5 -2 0 -4 -1 -4 -2 -2 -3 -2 -4 -1 -3 2 1 4 -2 4 -5 0 -3 -1 -5 -3 -5 -3
-1 -2 -1 3 -2 2 -1 3 -2 3 -3 1 -1 1 -1 4 2 2 2 3 3 3 3 0 -1 -3 -9 -4 -11 -1
-2 -1 -4 -1 -5 0 -2 0 -3 -3 -4 -5 -2 -5 -5 -2 -5 3 0 4 -2 3 -5 -1 -2 -1 -2
0 -3 1 0 1 -1 0 -2 0 -1 0 -2 1 -2 0 0 1 -1 0 -2 0 0 0 -1 2 -1 1 0 1 0 0 -2
-2 -1 -2 -1 -1 -2 1 0 3 0 4 0 1 1 2 2 2 9 0 8 0 9 2 10 2 1 3 0 2 -3 -1 -3
-1 -5 0 -8 1 -2 2 -4 1 -5 -1 0 -1 -1 -1 -3 0 -2 0 -2 1 -1 1 1 2 2 2 2 0 1 0
2 2 2 1 1 2 3 3 5 0 3 1 4 3 4 1 0 1 -1 1 -5 0 -19 0 -23 2 -22 0 0 2 0 2 -1
4 -3 5 -4 7 -4 2 0 3 -2 4 -4 1 -1 2 -3 3 -3 2 1 5 -1 5 -4 0 -1 0 -2 1 -2 2
1 2 -3 0 -11 -2 -7 -5 -10 -10 -9 -4 1 -12 10 -14 16 -1 3 -3 6 -3 6 -2 2 -2
6 -1 8 1 0 2 -1 3 -2 2 -2 3 -2 5 -1 1 1 0 2 -1 5 -1 4 -2 4 -3 3 -3 -3 -5 -2
-6 2 -1 2 -2 4 -3 5 0 1 -1 2 -1 3 0 1 -1 2 -2 3 -2 0 -3 1 -3 2 -1 1 -1 1 -1
0 0 0 0 -1 1 -1 2 -2 1 -3 -1 -2 -1 0 -2 0 -2 -1 -1 -1 -1 -1 0 -1 0 0 1 -1 1
-1 0 -1 -1 -2 -2 -2 -1 0 -2 -1 -2 -1 0 -2 2 -4 4 -4 1 0 2 -1 1 -1 0 -1 1 -2
1 -3 2 -1 2 -2 1 -3 -1 -1 -1 -2 1 -4 3 -2 3 -5 1 -5 -1 0 -1 -3 0 -5 1 -1 1
-1 0 -1 -1 1 -2 -1 -2 -3 1 -1 2 -2 4 -2 4 -1 4 -3 0 -4 -1 -1 -2 -1 -1 0 0 1
0 1 -1 1 -2 0 -1 -4 1 -5 1 -1 3 -3 5 -3 4 -1 5 -4 2 -4 -2 1 -3 0 -2 0 0 -1
1 -1 2 -1 3 1 5 -2 7 -7 1 -3 3 -4 4 -4 1 0 2 0 1 -4 -1 -7 -3 -10 -8 -9 -1 0
-1 0 -1 -1 0 -1 2 -2 3 -2 5 0 5 0 5 -4 0 -2 0 -4 0 -4 4 0 5 0 6 -2 0 -1 1
-3 3 -4 3 -1 3 -3 0 -4 -3 0 -3 -2 0 -2 1 0 4 -1 7 -2 3 -1 4 -1 7 0 1 1 2 1
3 0 1 -1 1 -2 -1 -4 -2 -1 -4 -2 -5 -2 0 0 -1 -1 -2 -1 -1 -2 -9 -8 -10 -8 -1
0 -1 0 -1 -1 0 -1 0 -1 -1 -1 -1 1 -1 0 -1 0 0 -1 0 -2 -1 -2 -1 0 -1 0 -1 -1
1 0 0 -1 0 -1 -1 -1 -1 -1 0 -1 1 0 2 1 3 1 0 1 2 2 4 3 1 0 3 1 4 2 1 1 2 1
3 1 2 -2 1 -4 -2 -4 -2 -1 -3 -4 -1 -5 3 -1 2 -4 -1 -7 -2 -2 -2 -2 -4 -1 -1
0 -2 2 -2 3 0 2 -2 3 -2 1 0 -2 -4 -3 -6 -2 -1 1 -2 1 -5 0 -3 -2 -4 -2 -4 -5
0 -3 0 -3 3 -3 1 0 3 0 4 0 0 0 0 0 -1 -1 0 -1 -1 -1 -2 -1 -1 0 -2 -1 -3 -2
-2 -1 -3 0 -4 2 -1 2 -1 2 -6 1 -2 -1 -6 -2 -7 -3 -1 0 -3 -1 -5 -1 -4 -1 -9
-3 -7 -3 1 0 1 0 0 -1 -1 -1 -3 -1 -3 -1 -1 1 -3 0 -5 -2 -3 -3 -3 -4 -3 -10
0 -4 0 -7 1 -7 1 0 5 6 5 7 0 2 2 0 3 -2 0 -2 -7 -16 -8 -16 -1 0 -1 -12 -1
-27 l0 -27 71 0 c41 0 70 0 70 1 0 0 -1 1 -3 2 -2 0 -3 2 -3 2 0 1 -1 3 -3 4
-3 4 -3 6 1 7 3 0 5 2 5 5 0 1 -1 1 -1 0 -1 0 -1 0 -1 1 1 1 1 2 0 2 -2 -1 -4
2 -4 4 1 1 1 1 2 0 0 -1 1 -1 2 -1 0 0 1 -1 2 -2 0 -2 1 -2 1 -1 0 1 0 1 1 0
1 -2 1 0 0 2 -1 1 -1 2 -2 2 0 -1 -1 0 -1 1 -1 0 -1 1 -2 1 0 -1 -1 -1 -1 0
-1 1 -2 1 -6 -1 -2 0 -3 -1 -4 -1 -1 -1 -2 -2 -3 -3 -1 -2 -1 -2 -7 3 -5 4 -7
7 -9 12 -2 3 -4 7 -6 8 -1 0 -2 2 -3 4 -2 4 -5 6 -8 6 -6 0 -20 10 -20 14 0 0
2 3 5 6 4 4 6 6 7 5 1 -1 1 -1 2 0 1 1 1 1 0 1 0 0 -1 2 -1 4 0 3 0 5 -1 6 -1
1 -2 2 -2 1 1 -1 -3 -7 -4 -7 -2 1 -2 6 -1 8 4 4 6 11 6 19 0 3 0 7 1 9 0 1 1
3 0 3 0 1 -1 13 -1 33 -1 7 -1 11 -2 12 -1 1 -4 8 -6 17 0 4 -2 8 -2 9 -1 3 0
4 3 4 1 1 2 1 2 2 0 0 0 1 1 1 1 0 1 7 0 10 0 1 -1 2 -2 2 -1 0 -2 1 -3 4 -1
2 -1 2 -2 1 -1 -1 -2 -2 -3 -3 -1 -2 -1 -2 -2 2 0 4 -1 5 -2 5 -2 1 -2 2 -2 5
0 3 0 4 -2 5 -1 0 -2 1 -2 1 0 2 4 12 6 15 2 3 3 5 3 7 -1 1 0 3 2 4 1 2 2 3
1 5 0 2 0 3 2 4 2 1 3 2 3 4 0 2 2 7 3 7 0 0 1 1 1 3 1 2 0 3 -1 3 0 -1 -1 0
0 1 0 0 1 1 1 1 1 0 4 4 6 9 6 12 9 14 11 10 1 -1 0 -2 -1 -4 -1 -2 -3 -6 -4
-10 -1 -3 -2 -7 -3 -8 -1 -1 -3 -4 -4 -6 -3 -6 -5 -10 -6 -11 0 0 -1 -2 -1 -4
-1 -2 -2 -6 -4 -9 -4 -8 -5 -13 -2 -13 2 0 2 -1 2 -6 0 -3 0 -5 -2 -10 0 -2 0
-3 1 -3 1 0 2 0 2 -1 0 -2 0 -3 0 -3 0 -1 1 0 2 1 1 1 2 3 2 4 -1 0 -1 1 0 1
0 0 1 1 1 2 1 1 0 2 0 1 -1 0 -1 0 -1 1 1 1 2 7 2 12 0 2 1 3 1 3 0 0 1 1 1 1
0 2 3 16 5 20 0 1 0 2 1 3 0 4 5 12 6 12 1 0 1 0 0 1 -1 0 -1 1 0 1 1 1 1 1 1
2 -1 0 0 1 1 2 2 2 2 2 2 -3 -1 -4 0 -5 1 -5 1 0 1 0 0 2 -1 1 -1 1 0 1 0 0 1
1 1 2 0 0 0 1 1 1 1 -1 3 3 3 5 0 2 5 9 9 11 2 1 5 3 6 4 2 2 3 3 4 3 1 0 1 1
1 2 -1 1 0 1 1 1 1 0 2 1 3 2 0 0 1 1 2 1 0 -1 1 -1 1 0 0 0 1 1 1 1 1 0 3 0
5 0 2 1 2 1 0 0 -2 0 1 -1 8 0 5 0 10 0 11 0 2 0 5 0 10 1 2 0 4 1 3 1 -2 0
-2 0 -1 2 1 0 2 1 3 1 0 0 1 1 2 1 2 2 12 5 14 5 0 -1 3 0 5 1 3 0 8 2 13 4 4
1 10 3 12 4 5 2 12 2 11 -1 0 0 0 -1 1 -1 3 -1 5 -1 4 0 0 1 1 1 1 1 1 0 2 0
3 1 1 0 2 0 3 0 0 0 1 0 1 1 -1 1 3 1 5 0 1 -1 1 -1 1 0 0 1 1 1 2 1 2 -1 4
-3 7 -9 5 -8 5 -9 5 -13 -1 -2 -2 -5 -2 -6 -1 -1 -1 -1 0 -1 0 0 1 -1 1 -1 0
-1 1 -2 1 -2 1 -1 1 -1 0 -2 -1 0 -1 -1 0 -1 0 0 0 0 -1 -1 -1 0 -1 -1 0 -4 1
-2 1 -4 0 -4 -1 -1 0 -4 3 -11 2 -5 4 -11 4 -18 3 -20 3 -25 3 -31 -1 -4 -1
-8 -2 -8 0 -1 -1 -6 -2 -14 0 -4 -1 -8 -2 -11 -1 -2 -2 -6 -2 -9 -1 -2 -1 -5
-1 -5 0 0 0 0 0 -1 -1 -1 -1 -1 -1 -1 0 0 0 -2 -1 -3 0 -1 0 -5 -1 -8 -1 -7 0
-9 2 -6 1 1 3 0 8 -3 2 -1 3 -1 6 3 3 3 5 5 5 6 0 2 -7 4 -9 2 -1 0 -1 0 -1 0
1 1 0 2 -1 4 0 2 -1 3 0 4 2 3 3 3 7 1 4 -4 5 -4 7 -1 2 2 2 2 1 4 -2 1 -2 2
0 3 0 0 1 1 2 1 1 0 2 1 2 2 0 1 0 3 0 4 0 1 1 2 2 2 2 0 4 1 6 3 1 1 2 2 1 2
-2 -2 -3 2 -2 6 1 1 2 3 3 3 1 1 1 6 0 6 -1 0 -1 1 -1 2 0 1 1 2 1 2 1 -1 1
-1 1 -2 0 -2 4 -4 7 -4 2 0 3 1 4 2 1 2 1 3 -1 5 -2 2 -3 6 -1 9 2 2 0 6 -2 6
-1 0 -4 3 -5 5 0 1 0 3 1 4 1 0 1 1 0 1 0 0 0 0 1 1 1 1 1 1 0 3 -1 1 -2 2 -3
2 -2 0 -1 2 1 3 1 1 2 1 3 0 0 -1 2 0 2 1 0 1 -1 1 -2 2 -4 1 -6 5 -7 13 0 3
1 4 2 4 3 2 3 4 0 9 -2 5 -2 6 -1 7 1 2 2 4 1 8 0 6 0 6 2 7 2 0 2 1 2 2 -1 2
-1 4 -1 6 0 2 0 2 -1 1 -2 -2 -6 3 -7 8 0 4 0 5 4 3 2 -2 5 -2 5 -1 -1 1 -1 2
0 2 4 -1 4 1 0 7 -2 4 -4 5 -5 5 -3 0 -4 3 -1 4 0 1 -1 1 -2 1 -2 0 -2 1 -2 3
l0 2 -2 -2 -2 -2 1 2 c3 5 2 9 -2 14 -3 3 -4 3 -6 0 -2 -2 -2 -2 -13 8 -7 8
-10 12 -11 14 -1 2 -2 4 -2 4 -1 0 -1 1 -1 2 0 3 -1 5 -4 5 -2 1 -4 2 -6 4 -4
4 -5 4 -5 1z m-52 -20 c1 -2 -1 -3 -6 -4 -3 0 -4 0 -4 1 1 3 8 5 10 3z m-40
-13 c2 -1 4 -2 4 -1 1 0 1 0 1 -1 0 -2 -6 -3 -14 -2 -4 1 -9 1 -12 1 -4 1 -9
4 -7 5 1 1 3 1 6 0 2 0 4 0 5 1 3 1 12 0 17 -3z m-48 -1 c2 -1 5 -1 6 -2 3 -1
5 -1 5 0 0 2 3 1 4 -1 2 -2 2 -2 -1 -1 -3 0 -4 0 -5 -2 -1 -3 -1 -3 1 -3 1 -1
3 0 4 1 1 0 2 1 3 1 0 0 1 1 1 1 0 1 1 2 3 2 1 -1 4 -1 6 -1 3 0 4 0 5 -2 0
-1 1 -2 4 -3 3 0 5 0 5 -1 1 0 2 0 3 0 3 0 3 -3 0 -4 -1 0 -6 -1 -12 -1 -13 0
-15 0 -15 -1 1 -2 9 -2 12 -1 3 1 4 1 5 -1 1 -1 1 -2 0 -2 -1 -2 -1 -3 0 -2 2
1 6 -1 6 -3 0 -3 -3 -5 -7 -5 -2 1 -6 2 -10 2 -13 2 -15 2 -16 4 -1 1 -1 1 0
2 1 1 0 2 -1 2 -3 0 -10 4 -11 6 0 1 0 1 2 0 5 -2 8 0 8 4 0 2 0 2 -5 3 -5 0
-5 0 -5 -2 1 -3 -1 -3 -4 -2 -2 1 -3 1 -2 3 1 3 -2 5 -8 5 -4 0 -5 0 -6 2 0 0
0 2 1 2 1 1 16 1 24 0z m122 -5 l2 -2 -2 -1 c-3 -1 -3 -1 -5 0 -1 2 -1 5 1 5
1 0 2 -1 4 -2z m-43 -14 c1 -1 1 -3 -1 -3 -1 0 -3 1 -3 2 -2 2 -2 2 0 2 1 0 3
0 4 -1z m41 -4 c4 -1 4 -3 1 -3 -3 0 -9 3 -7 3 1 0 2 1 3 0 0 0 2 0 3 0z
m-125 -2 c1 -3 11 -6 17 -6 3 1 5 0 7 -1 3 -2 3 -2 1 -3 -1 -1 -2 -2 -2 -3 0
-2 4 -2 11 1 7 3 10 3 6 -1 -1 -2 -2 -3 -2 -3 1 -1 11 2 13 3 0 0 1 1 3 1 1 1
2 1 2 -1 1 -3 4 -4 8 -1 3 1 7 1 7 0 0 -1 0 -1 -1 -1 -1 0 -1 -1 -1 -1 0 -2
-4 -4 -10 -4 -4 0 -6 0 -7 -2 -2 -2 -5 -3 -5 -1 -1 0 -2 1 -2 0 -1 0 -7 1 -15
1 -12 1 -13 1 -15 0 -2 -1 -4 -2 -9 -2 -3 0 -7 0 -8 -1 -1 -1 -3 -1 -3 0 -1 0
-4 1 -7 2 -3 1 -6 1 -7 2 -2 1 -3 1 -4 1 -3 0 -2 2 1 2 2 0 3 0 2 2 0 2 -6 3
-10 1 -2 -1 -3 -1 -6 0 -5 1 -7 1 -5 0 2 -3 -1 -5 -4 -5 -4 1 -5 4 -1 5 2 0 3
1 3 4 0 6 0 6 7 5 5 0 6 0 8 1 2 2 2 2 3 0 3 -3 10 -3 14 1 4 4 9 6 11 4z
m-53 -47 c0 -2 -4 -3 -6 -2 -2 1 0 3 3 3 2 0 3 -1 3 -1z m257 -51 c2 -1 1 -4
-1 -4 -3 0 -4 2 -4 3 1 2 3 2 5 1z m-22 -53 c0 -2 -2 -4 -3 -4 -1 0 -1 6 0 7
1 1 3 -2 3 -3z m-231 -114 c2 -2 2 -2 1 -3 -2 -3 -3 -2 -5 0 -2 2 -2 2 -1 3 2
2 2 2 5 0z m19 -13 c3 -4 12 -11 19 -17 6 -5 12 -10 13 -10 0 -1 5 -5 10 -10
5 -5 11 -10 13 -12 11 -9 14 -13 11 -13 -2 0 -13 7 -14 9 -1 1 -4 4 -7 7 -4 3
-9 7 -11 10 -3 2 -8 7 -12 10 -4 3 -8 7 -10 9 -3 2 -6 5 -8 6 -5 4 -16 15 -16
16 0 4 2 3 12 -5z M112 348 c-2 -1 -2 -1 1 -1 5 -1 14 -1 12 0 -2 1 -10 2 -13
1z M85 335 c-4 0 -3 -2 2 -2 2 0 3 0 3 2 0 0 0 1 -1 1 0 0 -2 -1 -4 -1z M107
331 c-1 0 -1 -1 -2 -1 0 1 -3 0 -5 -2 l-4 -2 4 1 c4 0 8 3 8 5 0 1 -1 1 -1 -1z
M155 397 c-4 -2 -4 -4 1 -4 3 0 4 0 3 3 0 1 0 2 0 2 0 0 -2 -1 -4 -1z M92 390
c-3 -5 -2 -6 2 -4 2 2 6 3 8 4 3 0 5 1 5 2 0 0 -1 0 -2 0 0 0 -1 1 -1 1 0 1 0
1 -1 0 -1 -2 -4 -2 -6 0 -2 1 -2 1 -5 -3z M78 387 c-2 -2 -4 -4 -3 -4 1 0 11
3 11 3 -1 0 -1 0 0 1 2 1 -5 1 -8 0z M194 328 c2 0 0 -2 -2 -2 -1 0 -2 -1 -3
-2 -1 -1 -1 -1 -1 0 0 1 -1 1 -4 0 -3 0 -5 -1 -6 -1 -2 -1 -2 -1 0 -3 1 -1 1
-1 -3 -1 -2 1 -4 1 -3 0 1 0 2 -1 1 -1 -1 -2 7 0 9 2 2 1 2 1 2 0 0 -1 0 -1 1
0 2 2 6 4 10 3 2 0 3 1 3 1 0 1 0 1 -1 1 -1 0 -1 1 -1 1 1 2 -1 3 -3 3 0 0 0
0 1 -1z M226 302 c0 -1 3 -3 6 -3 1 0 3 2 3 3 0 0 -2 1 -4 1 -3 0 -5 -1 -5 -1z
M171 295 c0 -1 -1 -1 -1 -1 0 1 -1 0 -3 -1 -3 -2 -5 -3 -7 -1 -1 1 -2 2 -4 1
-2 -1 -4 -1 -5 0 0 0 -2 0 -4 0 -2 -1 -2 -1 -1 -2 1 -1 1 -1 0 -2 -1 -1 -2 -2
-2 -1 0 2 -2 -1 -3 -3 -1 -1 -1 -2 0 -2 3 0 4 0 4 -1 -1 -1 1 -2 3 -1 1 1 9
-1 10 -3 1 -2 -3 -5 -10 -7 -7 -1 -7 -1 -8 0 -1 2 -2 2 -5 1 -1 -1 -3 -2 -4
-2 -1 0 -3 -1 -5 -3 -4 -2 -9 -5 -13 -6 -1 -1 -1 -1 0 -2 1 0 5 1 8 2 4 0 9 1
11 1 4 0 6 1 7 2 2 2 2 2 4 1 0 -1 1 -2 1 -3 0 -2 1 -2 4 -3 3 0 5 0 5 0 1 0
2 0 4 0 1 -1 2 -2 2 -4 0 -1 -1 -3 -1 -3 -1 -1 -1 -1 0 -1 0 0 1 -1 1 -1 0 -1
0 -2 -1 -2 -1 0 -1 0 0 -1 0 -1 -1 -1 -1 -1 -1 0 -2 0 -2 -1 0 -1 -4 -4 -9 -6
l-3 -1 3 0 c1 0 3 0 4 1 0 1 2 2 5 2 3 1 5 2 8 7 3 3 7 7 9 9 5 5 6 13 1 15
-1 0 -2 1 -1 1 0 1 0 1 -1 1 0 0 -2 2 -4 3 -2 2 -4 4 -6 4 -2 0 -3 1 -2 3 0 1
2 1 6 1 3 0 5 -1 5 -1 0 -1 0 -1 1 0 1 0 1 0 1 -1 0 -1 1 -1 1 1 1 1 1 1 1 0
0 -2 3 -3 4 -2 0 0 1 1 1 3 0 2 -1 3 -1 2 -1 0 -1 0 -1 1 1 1 0 2 -1 3 0 1 -1
3 0 3 0 1 -1 1 -2 0 -1 0 -1 0 -1 1 1 1 0 1 -2 0z M139 293 c-1 0 -2 -1 -2 -2
0 -1 4 -1 5 0 0 1 1 2 3 2 1 1 1 1 -1 1 -2 0 -4 0 -5 -1z M213 292 c-1 -1 -2
-2 -2 -3 0 -2 -1 -4 -2 -6 -1 -2 -2 -4 -1 -4 0 -1 -1 -1 -2 1 -1 1 -1 1 -1 1
0 0 -1 -1 -3 -3 -2 -2 -3 -4 -2 -5 0 0 0 -1 -1 -1 0 0 -1 1 -1 1 -1 1 -1 1 -1
0 0 -1 -3 0 -6 3 -1 1 -1 2 -1 2 1 1 1 1 0 1 -1 0 -1 0 -1 1 1 1 0 1 0 0 -1 0
-2 -1 -1 -1 0 -1 -1 -2 -2 -2 -1 -2 -1 -2 0 -2 1 -1 2 -1 3 -1 1 -1 0 -1 -2
-1 -4 0 -4 0 -3 -2 0 -2 0 -2 -1 -1 -2 2 -3 2 -4 1 -1 -1 -2 -2 -1 -2 0 -1 1
-1 2 0 1 2 1 2 2 1 1 -1 2 -2 2 -1 0 0 3 0 7 0 5 1 5 1 8 -2 1 -1 4 -6 5 -9 2
-6 3 -8 7 -11 4 -3 11 -8 10 -6 -1 2 1 1 3 -1 2 -2 2 -2 9 -3 4 -1 9 0 9 2 0
1 -2 1 -4 1 -4 1 -14 4 -16 5 -1 0 -1 2 -1 4 0 4 2 5 8 3 2 0 5 -1 6 0 1 0 2
0 2 -1 0 -1 1 -1 1 0 1 0 1 0 1 -1 -1 0 -2 -1 -4 0 l-2 0 2 -2 c1 -1 2 -2 4
-1 3 0 3 0 2 2 -1 2 -1 2 0 1 1 0 4 -2 8 -2 4 -1 8 -2 9 -3 2 0 2 0 1 1 -1 1
-2 3 -2 4 0 2 -1 4 -2 7 -2 3 -2 4 0 5 1 0 1 1 0 1 0 0 -1 0 -1 1 0 0 1 1 2 0
2 0 2 0 -1 5 -2 5 -3 6 -4 4 0 -2 0 -3 0 -3 1 0 1 -1 0 -1 0 -1 0 -2 1 -2 1
-2 0 -6 -1 -6 -1 0 -3 2 -6 4 -3 3 -5 4 -6 3 -5 -1 -10 1 -9 3 0 1 1 1 4 1 4
-1 4 -1 5 2 1 1 1 3 1 5 1 3 1 3 3 2 1 -1 2 -2 3 -1 2 0 2 1 1 3 -2 3 -5 5
-10 6 -5 0 -5 0 -11 2 -2 1 -4 1 -5 2 0 2 -6 1 -8 -1z m-1 -14 c0 0 -1 -1 -2
-2 -1 -1 -2 -3 -1 -3 0 -1 0 -2 -1 -2 -1 -1 -1 -1 -1 0 0 1 0 1 -1 0 -1 0 0 2
2 4 2 4 4 5 4 3z M166 229 c-2 -2 -8 -11 -8 -12 0 -1 -1 -2 -3 -3 -4 -4 -12
-12 -12 -13 0 -1 -1 -1 -1 -2 -2 -1 -9 -9 -12 -15 -5 -7 0 -9 5 -1 2 2 6 8 10
12 4 3 8 8 10 10 1 2 3 4 5 4 1 1 2 2 2 4 1 2 2 6 4 10 4 7 4 9 0 6z M250 217
c0 -1 0 -2 1 -2 1 0 1 -7 0 -7 -1 0 -1 -1 0 -1 2 -1 2 -1 4 0 1 2 2 8 1 8 0
-1 -1 0 -2 2 -2 2 -3 3 -4 0z M169 208 l-3 -3 2 -2 c3 -2 6 -2 12 0 6 3 9 2
10 0 0 -2 0 -3 0 -3 -1 0 -1 -1 0 -2 0 -1 1 -2 1 -1 1 0 2 0 3 -1 2 0 3 -3 1
-5 -2 -1 -2 -3 -1 -6 1 -1 2 -3 2 -4 1 -2 2 -4 3 -5 1 -2 1 -2 -5 -4 -4 -1 -7
-2 -7 -1 -2 0 -9 -1 -8 -2 0 -1 -1 -1 -1 0 -1 0 -2 1 -2 1 0 1 -1 2 -2 2 -1 1
-2 1 -1 0 0 -1 -1 -1 -4 -1 -2 0 -4 0 -4 0 0 -1 -9 -1 -15 0 -3 0 -1 3 4 5 5
2 5 2 5 5 0 1 -1 2 -2 2 0 0 -1 0 -1 1 0 2 -6 1 -9 -2 -2 -1 -3 -3 -2 -3 0 0
-1 -1 -2 -1 0 0 -2 0 -2 0 -1 0 -2 -1 -2 -2 0 0 -1 -2 -2 -3 -3 -2 -3 -3 -3
-10 l0 -5 4 -1 c5 0 9 2 9 5 0 2 15 3 19 1 10 -4 20 -5 22 -4 0 1 1 1 1 0 -1
0 0 -1 1 -2 1 -1 7 -2 10 0 2 1 3 1 7 0 3 -1 7 -2 8 -2 2 -1 4 -2 5 -4 0 -2 3
-5 5 -7 2 -2 3 -4 3 -6 0 -1 0 -3 0 -4 0 0 1 -2 1 -3 0 -2 0 -4 0 -4 2 -1 0
-3 -4 -3 -2 -1 -5 -2 -7 -3 -2 -1 -4 -2 -5 -3 -1 0 -3 0 -5 -1 -3 -1 -3 -1 -4
0 -1 1 -3 1 -11 1 -5 0 -12 0 -15 0 -4 0 -5 0 -5 1 0 1 0 1 -2 1 0 -1 -3 -1
-5 -1 -2 0 -3 0 -3 -1 1 0 3 0 5 0 l4 0 -4 -1 c-1 -1 -3 -2 -4 -2 0 -1 0 -1 2
0 1 1 2 0 2 -1 0 -1 -1 -2 -1 -3 -1 0 -1 1 0 2 0 1 0 1 -2 1 -1 -1 -3 -1 -4 0
-1 1 -1 1 -1 0 1 0 0 -2 -1 -3 l-2 -2 -5 2 c-3 2 -6 3 -6 4 -1 1 -1 1 -2 1 0
-1 -2 0 -3 1 -1 1 -2 2 -2 2 0 -1 -1 0 -3 0 -1 1 -3 2 -3 1 -1 0 -1 0 -1 1 0
0 1 1 1 2 1 1 0 1 -3 1 -1 0 -2 0 -2 1 1 0 0 1 -1 1 -2 0 -3 -1 -2 -1 0 -1 0
-1 -1 -1 -1 0 -2 0 -3 0 -1 -1 -2 0 -2 0 0 1 0 1 -1 1 -1 0 -3 1 -8 6 -2 2 -4
4 -5 4 0 0 1 -1 1 -3 3 -4 9 -10 12 -11 2 -1 3 -2 3 -2 0 -1 1 -1 2 0 1 0 2 0
2 -1 0 0 1 -1 3 -1 1 -1 5 -2 8 -4 4 -2 5 -3 5 -5 0 -1 1 -3 2 -5 1 -3 1 -3 0
-6 -1 -2 -3 -3 -4 -3 0 0 -1 -1 -2 -2 0 -1 -2 -3 -5 -5 -3 -3 -5 -5 -6 -9 -2
-3 -3 -5 -3 -5 -1 0 -1 -1 -1 -3 0 -2 -1 -3 -1 -4 -3 0 -2 -2 0 -4 2 0 2 -1 2
-4 0 -3 0 -4 1 -4 1 0 1 0 0 -1 -1 -1 -1 -1 0 -2 1 -1 2 -2 1 -3 0 0 0 -1 1
-1 1 0 1 0 1 -1 -1 -1 4 -5 6 -5 3 -1 6 2 5 4 -1 0 -1 0 -2 -1 -2 -3 -5 14 -3
18 2 4 3 4 7 3 2 -1 4 -1 5 -2 1 0 1 -5 0 -7 -2 -2 -2 -5 -1 -5 1 0 1 -1 0 -1
-2 -1 -2 -1 -1 -1 1 0 3 1 5 3 7 8 8 9 12 4 2 -2 2 -2 0 -4 -1 -2 -1 -2 2 -2
2 1 5 2 8 4 2 1 5 3 7 3 2 1 2 1 0 -3 -2 -7 1 -14 5 -13 2 0 2 0 1 -1 -1 -1
-1 -1 2 -1 2 0 4 1 4 1 0 1 2 2 5 3 2 1 4 2 4 3 -1 0 0 2 1 3 2 0 3 2 2 3 0 0
1 2 2 4 1 1 2 4 2 5 0 1 1 4 3 6 2 2 4 4 4 4 0 1 1 4 2 7 0 2 1 5 2 6 0 2 5 4
7 2 1 -1 2 -1 2 0 0 1 1 1 2 1 0 -1 1 -1 1 0 -1 0 -1 1 0 1 0 0 0 1 -1 0 -1 0
-1 0 0 1 1 1 2 2 2 2 0 2 1 5 3 5 3 0 4 -6 2 -12 -1 -3 -1 -7 -1 -10 0 -11 1
-10 -12 -23 -6 -6 -13 -13 -15 -15 -4 -7 -6 -8 -13 -14 -7 -5 -15 -14 -18 -19
l-1 -3 98 0 98 0 0 29 0 29 -3 0 c-2 0 -6 1 -9 2 -4 1 -6 2 -7 2 0 0 -2 0 -4
1 -1 1 -3 2 -4 2 -2 -1 -7 1 -9 3 -1 1 -2 2 -4 2 -1 0 -2 1 -3 3 -1 2 -3 3 -5
3 -3 1 -10 8 -9 9 0 2 4 1 5 -1 1 0 2 -1 3 -1 1 1 1 1 1 0 0 -1 0 -1 1 -1 0 1
1 0 1 -1 1 0 1 -1 2 -1 1 1 1 1 1 0 0 0 1 -1 2 -2 1 0 3 -1 3 -1 0 0 1 -1 3
-1 1 0 2 -1 3 -2 1 -1 2 -1 5 -1 0 0 1 0 1 -1 0 0 3 -1 6 -2 3 -1 6 -1 7 -1 0
0 1 -1 2 -1 0 -1 1 -1 1 -1 0 1 2 0 4 -1 3 -2 5 -3 5 -2 1 0 1 7 1 14 0 14 0
15 -2 15 -1 0 -4 0 -5 1 -2 0 -3 0 -3 -1 1 0 0 -1 0 -2 -1 -1 -2 -1 -3 2 -1 2
-1 3 -4 3 -2 0 -3 0 -2 1 0 1 -1 1 -1 0 -1 -2 -2 -3 -2 -3 0 -1 0 -1 -1 -1 -1
0 -1 1 -1 2 0 2 -4 3 -15 3 -5 0 -10 1 -11 1 -2 1 -5 -1 -5 -3 1 -1 1 -1 0 -1
-1 0 -1 -1 0 -1 0 -1 0 -1 -1 0 -1 1 -1 2 -1 2 0 1 -1 1 -2 1 -4 0 -4 0 -4 -1
1 0 0 -1 -1 -1 -2 -1 -3 0 -4 1 -3 3 -1 5 4 3 2 0 4 -1 4 -1 0 1 -3 4 -8 9 -3
3 -4 3 -5 2 -1 -1 -1 -1 0 -1 1 1 2 0 1 -2 0 -3 1 -4 3 -2 1 1 1 1 1 0 -1 -2
-6 -4 -8 -4 -1 0 -2 1 -3 2 0 1 -1 2 -3 2 -3 1 -4 4 -2 6 2 1 2 2 0 5 -1 3 -5
5 -3 1 0 0 1 -1 1 -1 2 0 1 -3 -2 -4 -5 -1 -5 0 -5 4 1 4 1 4 -4 2 -1 0 -2 1
-3 2 -2 1 -2 1 -1 2 2 2 3 8 1 7 0 -1 -1 -1 -1 0 -1 2 -18 6 -18 4 0 -1 1 -1
1 -1 3 0 3 -4 2 -6 -3 -2 -11 -2 -15 0 -3 1 -4 2 -4 5 0 2 1 3 2 3 0 1 1 0 0
0 0 -2 1 -2 3 -1 8 2 10 3 11 7 2 5 2 5 0 4 -2 0 -2 0 -1 1 1 1 1 1 0 1 -1 0
-2 0 -3 0 -1 0 -1 0 -1 0 0 -1 0 -2 -1 -2 -1 -1 -1 -1 1 -2 2 -1 2 -3 -1 -3 0
0 -3 1 -4 2 -2 1 -4 2 -5 2 -2 -1 -3 2 -3 9 -1 6 0 6 2 5 2 0 5 2 5 4 0 1 -2
3 -3 5 -4 3 -5 4 -2 4 1 0 2 1 2 4 0 2 -1 4 -1 5 0 1 0 2 0 3 1 1 0 2 -1 4 0
1 -1 3 -1 3 0 1 0 2 -1 2 0 0 -1 1 0 2 0 1 -1 2 -1 2 -1 0 -1 1 -1 1 0 1 -1 3
-2 3 -1 1 -2 2 -2 3 1 0 0 1 -1 2 -1 1 -2 2 -2 2 0 2 -4 6 -5 6 -1 0 -2 0 -2
-1 1 0 0 -1 -1 -2 -1 -1 -1 -1 -3 1 -3 3 -5 3 -27 1 -1 -1 -4 0 -5 1 -5 2 -8
1 -12 -3z m47 -7 c5 -9 9 -19 9 -21 -1 -1 0 -2 2 -4 3 -2 4 -5 2 -5 -2 0 -7 3
-9 5 -2 1 -3 2 -3 2 0 0 -1 0 -2 1 -1 1 -2 1 -2 0 0 0 -1 1 -2 2 -1 2 -3 3 -3
3 -3 0 -3 3 -1 6 1 2 2 5 2 6 0 5 5 9 7 5z m-6 -28 c2 0 3 -2 4 -4 0 0 -8 2
-11 4 -1 0 1 2 3 1 1 0 3 0 4 -1z m66 -64 c1 -2 0 -5 -2 -5 -3 0 -4 3 -2 5 2
1 2 1 4 0z m-6 -6 c-1 -3 -3 -3 -4 -1 0 3 1 5 3 4 1 0 1 -1 1 -3z m41 -11 c0
-3 -2 -3 -5 0 -1 2 -1 2 0 2 1 -1 2 0 2 0 0 2 2 0 3 -2z m-49 -19 c2 -4 -3
-15 -6 -15 -1 0 0 10 1 14 2 3 4 3 5 1z m-121 0 c0 -2 -12 -7 -12 -4 0 2 4 4
7 4 2 0 3 0 3 0 0 1 0 1 1 1 1 0 1 0 1 -1z m200 -66 c16 0 20 0 20 -1 -1 -1
-6 -1 -23 -1 -13 0 -23 0 -23 0 0 2 3 3 4 2 2 0 11 0 22 0z M57 208 c-1 -1 -2
-2 -1 -2 0 1 1 1 1 0 0 -1 1 -1 2 -1 1 0 2 1 1 5 0 2 -1 1 -3 -2z M187 197 c0
-1 0 -1 -1 0 -1 0 -1 -1 0 -2 0 -3 -1 -4 -6 -3 -3 0 -4 0 -5 -2 -1 -1 -2 -2
-2 -1 -1 0 -2 1 -3 0 -3 0 -9 -6 -7 -6 1 0 1 0 1 -1 -1 -1 2 -4 4 -4 1 1 4 0
6 -1 3 -1 5 -1 8 0 2 1 3 1 4 1 0 -1 1 -1 2 0 1 1 2 2 2 5 0 3 0 5 0 6 0 3 0
6 -1 6 0 -1 -1 0 0 1 0 1 0 2 -1 2 0 0 -1 0 -1 -1z M127 173 c-1 -1 -2 -3 -1
-4 0 0 0 -1 -1 -1 0 0 -1 -1 0 -2 0 -1 0 -1 -1 -1 -1 1 -1 1 0 0 0 -1 1 -2 1
-1 1 0 1 0 1 -1 0 -1 -2 -1 -3 0 -1 2 -2 0 -1 -3 1 -1 2 -5 2 -7 1 -3 1 -5 1
-6 0 0 2 1 3 2 2 2 2 2 2 10 0 9 0 10 0 12 1 3 -1 4 -3 2z M253 155 c-1 -1 -2
-2 0 -2 2 -1 4 1 4 3 0 3 -1 2 -4 -1z M87 155 c0 -2 4 -8 6 -10 1 -1 2 -2 1
-2 0 -1 0 -1 2 0 1 1 1 1 1 0 -1 -1 -1 -1 0 -1 2 0 2 3 0 3 0 1 -1 1 -1 2 0 1
-1 2 -2 3 -2 1 -4 2 -4 3 0 1 -1 2 -2 3 -1 1 -1 1 -1 -1z M165 149 c-1 -2 -1
-9 0 -8 1 0 1 -1 1 -1 0 -2 4 -3 18 -3 10 -1 12 -1 13 1 2 1 3 1 6 1 3 -1 4
-1 3 0 -1 1 -1 1 0 2 1 1 1 1 0 2 -2 1 -2 1 0 3 2 3 0 4 -7 3 -3 -1 -9 -1 -13
0 -17 1 -20 1 -21 0z M218 144 c1 -3 0 -3 -2 -1 0 1 -1 1 -1 0 1 0 1 -1 0 -1
-3 0 -5 -3 -3 -4 1 -1 2 -1 3 0 3 2 3 2 3 -1 0 -3 0 -3 1 -1 0 2 1 3 2 2 1 0
1 0 0 1 0 1 -1 2 -1 1 -1 0 -1 0 -1 1 0 1 1 1 1 1 1 0 1 0 0 1 -1 1 -1 1 0 1
1 0 1 0 1 1 -2 2 -3 1 -3 -1z M30 132 c-3 -2 -12 -10 -18 -16 l-12 -11 0 -5
c0 -5 0 -5 3 -5 2 0 4 2 10 7 8 7 18 16 24 19 2 1 5 3 6 5 1 1 3 2 3 2 1 0 1
1 2 2 1 1 0 2 -5 4 l-6 3 -7 -5z M107 120 c-2 -2 1 -8 4 -9 1 -1 2 -2 2 -2 0
-1 1 -2 2 -4 2 -1 2 -2 2 -3 -2 -1 0 -2 2 -1 1 0 3 1 5 1 3 0 8 2 8 3 0 0 1 1
2 1 1 -1 1 -1 0 0 0 0 -1 1 -1 1 0 2 -6 5 -8 5 -1 0 -2 -1 -3 -1 -2 -2 -6 -2
-6 0 0 1 -1 1 -1 1 -2 0 -4 3 -4 5 0 2 0 2 -1 1 -2 -1 -2 -1 -2 1 0 2 -1 2 -1
1z M42 113 c0 -1 -1 -1 -2 -2 -2 0 -3 -1 -3 -1 0 0 -1 -1 -2 -1 -2 -1 -3 -2
-3 -2 0 -1 -1 -2 -2 -3 -1 -1 -1 -1 -1 0 1 1 0 1 -2 1 -3 -1 -5 -2 -3 -2 1 0
1 0 0 -2 -1 -1 -2 -1 -2 0 0 1 -2 1 -4 0 -5 -2 -5 -3 -3 -6 1 -1 2 -1 2 0 0 1
1 1 1 1 1 -1 3 0 5 1 2 2 5 3 6 4 2 0 3 2 3 2 0 1 2 3 5 4 3 1 6 2 5 2 0 1 0
1 1 1 1 -1 2 -1 2 0 0 0 0 1 0 2 1 1 0 2 -1 2 -1 0 -2 0 -2 -1z M82 80 c-2 -4
-1 -6 1 -6 1 0 2 -1 3 -2 0 -1 1 -2 3 -4 2 -1 2 -2 1 -2 -3 1 -2 -1 1 -3 4 -2
13 -9 13 -10 0 0 0 -1 -1 -2 -1 0 0 -2 2 -2 1 1 1 0 1 -1 0 -2 1 -1 2 2 1 4 1
4 0 4 0 -1 -1 0 -1 1 -1 2 -6 5 -7 4 -1 0 -4 2 -4 3 1 1 -1 3 -4 5 -2 1 -5 7
-4 8 1 1 0 1 -1 1 -2 0 -3 1 -4 3 0 2 -1 2 -1 1z M217 76 c-2 -2 -5 -7 -5 -8
1 -1 9 8 8 9 0 1 -1 0 -3 -1z M74 70 c-2 -2 -2 -2 -1 -3 2 -1 4 1 4 4 0 2 -1
1 -3 -1z M163 31 c-3 -3 -3 -4 0 -4 3 0 5 2 5 4 -1 2 -2 2 -5 0z M137 12 c0
-2 4 -8 5 -8 0 1 -4 9 -5 9 0 0 0 -1 0 -1z M150 12 c0 -1 0 -2 -1 -2 -1 -1 -1
-2 -1 -2 1 0 0 -1 -1 -1 -2 -1 -2 -2 -1 -3 1 -2 2 -2 5 0 3 1 2 8 0 9 -1 0 -2
-1 -1 -1z"/>
</g>
</svg>
