<?xml version="1.0" standalone="no"?>
<!DOCTYPE svg PUBLIC "-//W3C//DTD SVG 20010904//EN"
 "http://www.w3.org/TR/2001/REC-SVG-20010904/DTD/svg10.dtd">
<svg version="1.0" xmlns="http://www.w3.org/2000/svg"
 width="370.000000pt" height="463.000000pt" viewBox="0 0 370.000000 463.000000"
 preserveAspectRatio="xMidYMid meet">
<metadata>
Created by potrace 1.16, written by Peter Selinger 2001-2019
</metadata>
<g transform="translate(0.000000,463.000000) scale(1.000000,-1.000000)"
fill="#000000" stroke="none">
<path d="M0 262 c0 -121 0 -201 1 -201 0 0 1 1 1 1 1 1 1 1 1 1 1 0 0 -2 -1
-5 -2 -3 -2 -6 -2 -31 l0 -27 185 0 185 0 0 232 0 231 -185 0 -185 0 0 -201z
m166 191 c2 -1 1 -1 -3 -1 -2 0 -5 0 -6 0 0 -1 -1 -1 -1 0 0 2 6 2 10 1z m16
-1 c1 -1 -10 -2 -11 -1 0 0 1 0 2 1 3 1 9 1 9 0z m-40 -2 c1 -1 1 -1 -1 -2 -1
0 -4 0 -5 -1 -8 0 -18 -2 -19 -3 -1 0 -1 1 1 1 1 1 2 2 4 2 1 1 5 1 9 2 9 2 9
2 11 1z m68 -7 c3 0 6 -1 7 -1 1 -1 1 -1 -1 -1 -1 1 -3 0 -4 0 -2 -1 -3 -1 -3
0 -1 1 -2 1 -3 0 -2 -1 -3 -1 -5 3 l-2 2 3 -1 c1 -1 5 -2 8 -2z m-68 -7 c1 -2
1 -3 0 -3 -1 -1 -1 -1 0 -1 1 -1 1 -1 1 -2 -1 0 2 -1 5 -1 4 0 6 0 6 -1 0 -1
0 -2 -1 -2 0 0 -2 0 -3 -1 -1 0 -1 0 0 1 1 0 1 1 0 1 0 0 -1 0 -1 -1 -1 0 -1
-1 -2 -1 0 0 -2 0 -3 -1 -1 -1 -5 -1 -8 -1 -4 0 -6 -1 -6 -2 0 0 1 -1 3 -1 1
0 4 0 7 -1 3 0 4 -1 4 -2 0 -1 0 -2 -1 -2 -1 1 -7 -1 -6 -2 0 -1 1 -1 3 0 1 0
3 1 5 1 2 0 4 1 5 1 0 1 1 1 1 1 0 -1 1 -1 2 0 0 1 1 1 1 1 0 -1 1 0 0 2 0 4
0 5 7 9 5 2 6 3 12 2 6 0 9 1 9 5 0 3 1 3 3 0 0 -1 1 -2 2 -2 4 1 7 1 12 0 10
-4 13 -6 12 -10 -2 -4 -3 -5 -8 -4 -3 1 -8 3 -12 4 -5 0 -8 1 -8 2 1 0 -2 3
-3 3 -1 0 -1 -1 -1 -2 0 -1 -1 -1 -6 -1 -3 1 -7 1 -7 2 -3 1 -4 -2 -3 -8 0 0
2 -1 4 -1 8 0 9 0 9 -2 -1 0 -1 -2 -3 -2 -1 -2 -1 -2 0 -3 1 -1 2 -2 3 -2 6 0
6 0 5 -1 0 -1 -2 -1 -3 -2 -2 0 -4 0 -4 0 0 0 -2 0 -4 0 -2 1 -3 1 -5 -1 -2
-2 -2 -2 -3 -1 0 1 0 2 1 2 0 0 1 1 1 2 1 2 0 2 -6 1 -8 0 -23 -4 -26 -6 -1 0
-3 -1 -5 -1 -1 0 -2 0 -1 1 0 0 1 1 0 2 0 1 0 3 1 3 0 0 1 1 0 2 0 1 -1 1 -3
0 -4 -2 -11 -4 -12 -4 -1 1 1 5 3 5 2 0 2 2 0 2 -2 0 -8 -3 -9 -4 0 -2 -8 -5
-12 -6 -3 -1 -4 1 -1 2 1 1 1 2 1 3 -1 3 3 7 8 8 2 1 5 2 6 2 0 0 0 0 0 0 0 0
3 1 5 2 2 1 5 2 5 2 0 0 1 1 0 3 0 2 1 3 1 2 1 0 1 0 1 1 0 1 0 1 1 1 0 -1 1
0 2 0 1 1 4 2 8 2 5 0 7 0 7 1 0 2 -4 4 -5 2 -1 -1 -12 -2 -12 -1 0 2 3 4 5 3
1 0 3 0 3 1 1 1 4 2 7 2 5 0 5 0 6 -3z m24 2 c4 -1 4 -2 1 -4 -3 -2 -5 -2 -8
-1 -2 1 -2 1 0 4 3 2 3 2 7 1z m86 -26 c16 -15 29 -32 32 -38 1 -5 0 -5 -2 1
-1 2 -4 6 -7 9 -2 3 -6 7 -7 9 -4 5 -22 24 -28 30 -3 2 -5 4 -4 4 0 0 8 -7 16
-15z m-173 9 c-1 -1 -4 -3 -6 -5 -3 -3 -3 -3 -2 -4 1 -1 2 -2 2 -2 0 -1 -1 -1
-2 0 -2 2 -2 2 -5 1 -2 -2 -12 -12 -16 -17 -2 -2 -2 -2 0 1 2 4 9 12 15 16 2
2 6 5 9 7 2 2 5 4 5 4 1 0 1 -1 0 -1z m143 -3 c0 -1 0 -1 -1 -1 0 1 -1 0 -2
-1 -1 -1 -1 -1 -2 0 -1 0 -2 1 -2 0 -1 0 -1 0 -1 1 0 0 0 1 1 1 0 1 6 1 7 0z
m-21 -14 c0 -1 -3 -4 -6 -6 -2 -1 -2 -1 -2 1 1 1 1 3 1 4 0 1 1 2 2 2 3 1 5 0
5 -1z m-9 -1 c1 -1 0 -2 -6 -4 -7 -2 -12 -3 -10 -1 1 2 10 6 14 7 0 0 1 -1 2
-2z m23 -7 c2 -4 1 -7 -4 -7 -1 -1 -5 -1 -6 -2 -3 0 -4 0 -4 1 0 1 1 2 2 2 2
1 0 3 -2 3 -2 0 -4 0 -5 0 -2 0 -2 0 -1 2 2 2 9 5 14 5 4 0 5 0 6 -4z m-91 -2
c0 -3 4 -3 6 -2 2 1 4 2 6 2 2 0 5 0 7 0 2 1 3 1 3 0 0 -1 -5 -2 -6 -2 0 1 -2
0 -3 -2 -2 -3 -2 -3 -9 -3 -6 1 -10 3 -7 4 1 0 1 1 -1 2 0 0 -1 2 -1 2 0 2 4
1 5 -1z m69 1 c0 -1 0 -1 -1 -1 0 1 -1 0 -3 -1 -2 -2 -4 -2 -3 0 1 3 5 4 7 2z
m-30 -6 c5 -1 5 -2 3 -2 -2 -1 -9 0 -10 1 0 1 -1 1 -3 1 -1 0 -2 0 -2 1 0 1 3
1 12 -1z m-49 -2 c1 -1 2 -2 2 -3 0 -1 1 -1 2 -1 0 0 2 -1 4 -2 2 -2 2 -2 1
-3 -2 0 -9 3 -9 4 0 2 -3 3 -9 3 -5 0 -7 1 -3 3 4 2 10 1 12 -1z m-19 -19 c2
0 4 -1 5 -2 2 -2 -1 -3 -7 -2 -5 0 -7 1 -8 2 -2 2 -2 2 0 3 1 1 3 1 5 0 1 0 3
0 5 -1z m-26 -31 c2 -1 4 -1 4 -2 0 -2 -4 -3 -8 -3 -2 0 -5 0 -7 0 -3 -1 -4
-1 -6 1 -2 2 -3 3 -3 4 1 2 2 2 9 1 4 0 9 -1 11 -1z m241 -20 c2 -8 2 -9 -1
-12 -1 -2 -2 -5 -2 -6 0 -2 0 -3 -1 -3 -1 -1 0 8 2 10 1 2 1 15 -2 21 -2 5 -1
6 1 2 1 -1 3 -7 3 -12z m-287 9 c-1 -1 -2 -3 -3 -5 -1 -3 -1 -3 -2 -1 0 1 1 3
2 6 4 4 4 4 3 0z m140 -16 c2 -1 2 -2 1 -2 -1 1 -2 0 -3 0 0 -2 -3 -1 -5 1 -1
1 -3 2 -4 1 -2 0 -2 0 -1 1 1 2 9 1 12 -1z m63 -1 c0 -2 -1 -4 -2 -3 0 0 -1 0
-1 -1 -1 -1 -2 -1 -4 0 -1 1 -3 1 -3 1 0 0 0 1 0 1 0 2 6 4 8 3 1 -1 2 -1 2
-1z m-87 0 c-1 0 -1 -1 -1 -2 0 0 -1 -1 -2 -1 -1 0 -2 0 -2 -1 1 0 0 -1 -1 -1
-1 0 -2 0 -2 -1 0 0 -1 -1 -1 -1 0 0 0 0 0 0 0 0 0 1 -1 2 -1 1 0 1 2 2 2 1 4
2 5 2 1 0 1 0 0 1 -2 1 -2 1 1 1 2 0 3 0 2 -1z m37 -4 c2 -2 1 -4 -3 -5 -3 -1
-5 -1 -6 -2 -4 -1 -1 1 2 3 3 0 3 1 3 3 0 2 2 3 4 1z m-14 -5 c1 -2 0 -4 -2
-2 -1 0 -1 0 -1 -1 0 -1 0 -1 -1 0 -1 0 -2 0 -2 -1 -1 0 -2 -1 -3 0 -1 1 -4 1
-7 0 -6 0 -11 1 -10 3 0 2 3 3 15 3 7 0 9 -1 11 -2z m60 1 c1 0 1 0 1 -1 0 -1
-2 -2 -5 -2 -4 -1 -9 -4 -9 -6 -1 -2 -5 -3 -5 -1 0 1 0 1 1 1 0 -1 1 0 0 1 0
3 3 5 8 6 3 0 5 0 5 1 1 2 2 2 2 1 1 -1 2 -1 2 0z m-89 -4 c0 -1 0 -1 1 0 1 0
1 0 1 0 0 -1 -1 -2 -3 -3 -2 -1 -4 -1 -6 0 -1 0 -2 1 -1 1 0 0 1 1 2 2 1 3 1
3 3 2 2 -1 3 -2 3 -2z m67 -1 c-1 -5 -4 -6 -4 -1 0 1 1 2 2 2 1 0 2 -1 2 -1z
m41 -1 c1 -1 2 -2 2 -1 0 1 1 0 2 0 0 -1 1 -2 1 -3 -1 -1 -5 -1 -5 0 0 0 -2 1
-4 1 -4 0 -9 2 -11 4 -1 2 12 1 15 -1z m68 -29 c1 -1 2 -2 2 -3 0 -2 -4 3 -6
7 -2 5 -1 5 1 1 1 -2 3 -4 3 -5z m-112 0 c2 -1 5 -6 5 -9 0 -7 1 -17 3 -22 3
-7 3 -11 0 -13 -1 -1 -2 -2 -1 -2 0 -1 -1 -1 -3 0 -3 1 -23 1 -27 -1 -4 0 -6
-2 -5 -3 1 -1 -2 -5 -4 -4 -1 0 0 7 3 11 1 2 3 4 3 4 0 0 2 1 3 3 3 2 3 2 2 4
-3 3 -10 0 -14 -6 -1 -2 -3 -3 -4 -4 -1 0 -4 -2 -7 -3 -6 -4 -10 -4 -13 0 -2
2 -3 3 -5 3 -4 0 -5 2 -1 5 4 4 9 4 10 1 1 -2 3 -3 5 -1 0 1 0 2 -1 3 -1 1 -1
1 0 1 1 0 1 0 0 1 -1 1 -1 1 1 1 2 0 3 0 3 -1 -1 -1 6 -1 8 0 2 1 3 2 4 3 5 4
7 6 7 7 -1 0 -2 0 -2 -1 -1 -1 -1 -1 -1 2 0 4 4 8 6 6 1 -1 1 -2 -1 -2 -1 -1
-1 -1 1 -3 1 -1 2 -2 3 -2 2 0 8 11 8 16 1 3 2 5 3 6 2 1 8 1 11 0z m-100 -4
c1 -1 1 -2 0 -2 -2 0 -3 -4 -2 -6 1 -2 1 -2 -1 0 0 1 -2 1 -2 1 -1 0 -1 0 1 4
2 4 3 5 4 3z m26 -6 c-4 -2 -4 -2 -4 -1 1 2 3 4 6 3 2 0 2 0 -2 -2z m-9 -13
c-1 -3 -4 -5 -6 -4 -3 2 -2 5 2 6 2 0 4 1 4 1 0 0 0 -1 0 -3z m143 -3 c-1 0
-1 -1 0 -1 1 -1 1 -2 1 -4 0 -3 -4 -5 -9 -5 -2 -1 -5 -1 -5 -2 -1 -1 -1 -1 -3
0 -1 1 -3 1 -5 1 -2 0 -6 3 -6 5 0 1 3 1 7 1 3 0 6 0 6 0 0 0 1 1 2 1 8 0 9 0
8 1 -1 2 -1 2 1 3 3 1 3 1 3 0z m-131 -1 c1 0 2 0 2 -1 2 0 2 -1 6 -1 4 0 2
-2 -2 -2 -3 0 -5 1 -5 1 0 2 -3 1 -3 0 -1 -1 -1 -1 -2 0 -1 1 -1 1 0 1 1 0 1
0 0 2 -1 1 -1 1 1 0 1 -1 2 -1 3 0z m95 -3 c1 -2 3 -3 5 -4 2 0 4 -1 4 -2 0 0
0 -1 0 -2 0 -1 0 -1 1 -1 1 0 2 -1 3 -2 2 -1 2 -1 0 -3 -2 -1 -6 0 -8 3 -1 1
-1 1 0 1 1 -1 1 -1 -1 1 -1 1 -2 3 -2 4 0 1 -1 2 -1 2 -1 0 -2 1 -3 3 -1 3 0
3 2 0z m-62 -35 c-1 0 -2 -1 -1 -2 0 -1 0 -3 -1 -3 -2 -1 -2 -2 0 -3 1 -1 2 0
4 2 1 1 3 2 3 1 2 0 3 -2 1 -2 -1 0 -1 0 0 -1 1 -1 1 -1 -1 0 -2 0 -4 0 -5 -1
-1 -1 -4 -2 -6 -3 -3 -1 -6 -2 -7 -3 -2 -2 -6 -2 -6 0 0 1 1 2 3 3 1 1 3 3 4
4 1 2 3 4 5 6 3 3 4 4 7 3 2 0 2 0 0 -1z m-98 -2 c2 0 1 -3 -1 -5 -3 -3 -3 -3
-6 1 -2 1 -3 2 -2 2 1 0 2 1 2 2 1 1 2 1 3 1 1 -1 3 -1 4 -1z m110 -4 c1 -1 1
-1 0 0 -1 0 -2 1 -2 0 -1 0 -4 3 -4 4 0 2 6 -2 6 -4z m44 1 c0 -1 -1 -2 -2 -2
-1 0 -2 2 -1 4 0 3 3 1 3 -2z m-179 -26 c0 0 1 -1 2 -2 0 -1 1 -2 1 -4 0 -1 0
-2 -1 -1 -1 0 -7 15 -7 16 0 1 5 -8 5 -9z m231 -10 c-1 -2 -3 -5 -4 -6 -2 -2
-3 -4 -3 -5 0 -1 -1 -3 -2 -5 -1 -2 -3 -5 -3 -6 -1 -2 -1 -2 -1 -1 0 3 7 17
11 22 4 5 5 5 2 1z m-72 -27 c1 0 3 -1 6 -2 4 -1 6 -4 2 -4 -1 0 -4 0 -5 0 -2
0 -3 0 -3 0 0 1 1 1 2 1 1 0 2 0 1 1 0 0 -1 1 0 1 0 1 0 1 0 1 -1 -1 -3 0 -4
0 -3 1 -10 -1 -10 -3 0 -1 -7 1 -8 2 0 2 -2 1 -2 -1 1 -1 0 -2 0 -2 -2 0 -2 2
0 5 1 2 2 2 4 2 1 -1 3 0 4 0 2 1 12 1 13 -1z m100 -17 c1 -1 4 -3 6 -4 3 -3
-9 5 -15 9 l-2 2 4 -2 c2 -1 5 -3 7 -5z m-261 1 c-2 -2 -3 -3 -3 -2 -1 0 -3
-2 -6 -4 l-4 -3 4 4 c4 3 10 8 11 7 0 0 -1 -1 -2 -2z m27 -6 c-1 -2 -1 -3 1
-3 2 -1 3 -3 0 -5 -2 -2 -4 -1 -4 2 -1 1 -1 2 -1 2 0 0 -1 -1 -3 -1 -2 -1 -4
-2 -5 -2 -4 0 -8 -2 -11 -6 -3 -2 -6 -4 -11 -5 -4 -2 -8 -3 -8 -2 0 0 0 0 1 1
1 0 3 2 4 3 2 2 5 3 6 4 1 0 3 1 3 2 2 3 11 7 15 7 2 -1 4 0 7 2 5 4 6 4 6 1z
m-52 -16 c-1 -2 -3 -5 -5 -6 -2 -3 -2 -3 -2 -1 1 1 2 3 2 4 1 0 3 2 4 4 4 4 5
4 1 -1z m325 -20 c0 -1 1 -1 1 0 0 0 0 0 1 -1 1 -1 11 -5 14 -5 2 0 3 0 3 -1
-1 0 0 -1 2 -1 4 0 11 -3 11 -5 0 -1 -1 -1 -3 -1 -2 0 -4 1 -4 1 0 1 -1 1 -1
1 -1 0 -5 1 -6 3 -2 1 -2 1 -2 0 0 -1 0 -1 -1 -1 -13 3 -14 4 -14 5 0 1 -1 1
-3 1 -3 0 -4 1 -4 4 1 1 4 1 6 0z m-259 -23 c4 -2 20 -16 23 -19 1 -1 2 -3 4
-5 l4 -4 -4 3 c-3 1 -9 7 -14 12 -16 13 -19 16 -13 13z m39 -34 c4 -4 7 -7 2
-4 -3 2 -8 7 -7 7 0 0 2 -1 5 -3z"/>
</g>
</svg>
