<?xml version="1.0" standalone="no"?>
<!DOCTYPE svg PUBLIC "-//W3C//DTD SVG 20010904//EN"
 "http://www.w3.org/TR/2001/REC-SVG-20010904/DTD/svg10.dtd">
<svg version="1.0" xmlns="http://www.w3.org/2000/svg"
 width="370.000000pt" height="463.000000pt" viewBox="0 0 370.000000 463.000000"
 preserveAspectRatio="xMidYMid meet">
<metadata>
Created by potrace 1.16, written by Peter Selinger 2001-2019
</metadata>
<g transform="translate(0.000000,463.000000) scale(1.000000,-1.000000)"
fill="#000000" stroke="none">
<path d="M0 384 l0 -79 2 4 c2 2 5 7 7 10 4 5 5 10 11 29 2 8 9 27 13 35 4 7
12 15 19 18 2 2 6 5 8 7 3 2 5 4 5 4 1 0 4 2 6 5 3 3 6 5 6 5 1 0 4 2 6 4 3 2
7 5 9 6 2 1 5 2 7 4 1 1 4 2 7 3 2 1 6 3 8 5 3 2 6 3 8 4 1 0 5 0 7 1 11 2 12
2 15 1 1 -1 3 -2 4 -1 2 0 2 0 2 -1 -1 -1 -2 -1 -3 -1 0 0 -1 0 -1 -1 0 -1 -1
-1 -3 0 -2 0 -2 0 -2 -2 1 -3 5 -7 9 -8 1 0 3 0 3 0 0 1 1 1 1 1 2 0 5 3 4 4
-1 0 -2 0 -2 -1 -2 -1 -3 1 -2 5 0 2 0 3 -1 4 -2 1 -2 1 0 3 4 2 11 3 15 1 2
-1 4 -1 5 -1 2 1 9 1 11 0 2 -1 3 -3 1 -3 -2 1 -2 -6 0 -9 1 -1 1 -3 1 -3 0
-1 1 -1 1 -1 1 0 2 0 2 -1 0 0 2 0 4 0 2 1 4 1 4 0 0 -1 1 -1 3 -1 2 0 2 0 2
3 0 5 -4 10 -7 10 -2 0 -3 -1 -2 -1 1 -2 -2 -1 -3 1 -2 2 -2 2 1 2 3 0 6 -1 8
-3 3 -2 6 -3 11 -3 7 0 7 0 23 -13 4 -4 10 -9 12 -10 5 -4 20 -20 27 -29 5 -7
6 -10 1 -6 -1 2 -4 3 -5 4 -2 1 -3 1 -3 3 1 2 -2 6 -20 24 -9 10 -13 12 -14 7
0 -2 0 -3 2 -6 2 -3 2 -4 0 -3 -1 0 -5 -1 -9 -1 l-8 -2 -3 2 c-3 3 -5 4 -6 3
0 0 -1 0 -2 1 -2 2 -10 4 -15 4 -2 0 -4 1 -6 1 -2 1 -5 2 -10 1 -10 0 -10 0
-10 -2 0 -2 1 -2 4 -1 6 0 9 -1 10 -3 1 -2 1 -2 0 -2 -2 1 -1 -1 1 -2 0 -1 2
-2 4 -2 1 0 2 0 2 -1 1 -1 -1 -3 -3 -3 -5 -1 -7 -3 -9 -5 -1 -4 -1 -4 7 0 4 2
8 3 12 4 10 0 11 0 8 -4 -1 -3 -1 -3 1 -2 1 0 5 1 9 1 6 0 7 0 7 -1 -1 -1 0
-2 1 -3 2 0 3 -3 1 -3 0 0 -1 -1 -1 -2 -1 -1 -1 -1 1 0 1 1 2 1 2 -1 1 -1 1
-1 1 -1 -2 -1 -11 -4 -14 -4 -1 -1 -5 0 -8 1 -2 0 -5 1 -5 1 0 0 0 0 0 0 0 0
-3 0 -5 1 -7 0 -9 4 -4 8 1 0 1 1 0 1 0 0 -1 0 -1 -1 -1 0 -2 -1 -3 -1 -5 -1
-12 -2 -15 -3 -2 0 -3 0 -3 1 0 1 0 3 0 4 -1 1 0 2 1 2 0 0 1 0 1 1 -1 1 -3 1
-5 1 -2 0 -4 0 -5 1 -1 1 -1 1 6 5 3 2 -10 1 -18 -2 -7 -2 -15 -5 -16 -6 0 -1
-1 -1 -2 0 -1 0 -1 0 0 -1 1 0 1 -2 0 -3 0 -3 0 -3 2 -3 1 0 2 0 3 1 0 1 4 1
7 2 6 0 7 0 9 2 2 3 4 4 7 2 1 -2 1 -2 0 -2 -1 0 -3 -1 -3 -2 -1 -3 -6 -5 -9
-5 -1 0 -3 -1 -4 -3 -3 -2 -4 -2 -8 -2 -11 2 -12 2 -12 4 1 1 0 2 -1 1 -2 0
-1 -5 2 -6 4 -3 6 -6 6 -7 -1 0 -2 -1 -2 -1 -8 2 -9 2 -10 5 -1 1 -2 2 -7 2
-2 1 -6 1 -7 0 -2 0 -3 0 -4 0 -2 1 0 2 7 5 8 2 9 3 5 5 -2 1 -4 2 -6 2 -2 -1
-3 0 -3 0 0 0 -2 0 -4 0 -2 -1 -4 -1 -5 -1 0 1 -1 0 -2 0 -2 -1 -3 -1 -4 1 -4
4 -5 9 -2 10 1 0 1 1 1 2 -1 2 -1 2 -5 1 -4 -2 -5 -2 -7 0 -2 1 -3 1 -5 -1 -3
-1 -13 -12 -13 -13 0 -1 -2 -4 -4 -6 -3 -4 -5 -9 -7 -16 -2 -5 -6 -15 -8 -21
-2 -6 -4 -12 -4 -13 0 -1 -1 -3 -2 -4 -2 -4 -2 -9 0 -8 1 0 1 -1 1 -4 0 -3 -1
-4 -3 -4 -4 0 -5 -1 -9 -7 -4 -5 -9 -19 -9 -23 0 -2 1 -6 3 -10 l3 -6 -1 -8
c-1 -8 -1 -15 0 -15 1 0 1 0 1 -1 -1 0 -1 -1 0 -1 1 -1 1 -3 4 -15 1 -2 3 -9
6 -13 4 -9 4 -10 4 -19 0 -9 0 -10 3 -17 4 -6 6 -9 9 -8 0 0 1 0 1 0 0 -1 -1
-2 -2 -2 -1 0 -1 0 -1 0 0 -4 1 -5 3 -5 5 0 7 -1 7 -3 0 -2 -1 -3 -4 -3 -2 0
-3 -1 -4 -4 -1 -4 -1 -4 1 -7 2 -1 4 -5 6 -7 1 -2 5 -6 7 -9 l4 -4 -3 -2 c-2
-1 -3 -2 -3 -3 0 -1 -1 -2 -1 -1 -2 1 -1 -2 1 -3 1 -1 1 -1 1 0 -1 1 0 0 1 -1
3 -2 3 -2 3 0 0 1 1 2 4 4 4 2 6 0 3 -3 -1 -1 -2 -2 -1 -1 0 1 -1 0 -4 -2 -2
-2 -4 -4 -4 -4 0 -1 -1 -2 -2 -4 -3 -4 -1 -4 4 0 2 2 3 2 5 1 0 -1 1 -2 1 -3
0 -1 1 -2 2 -3 1 -1 1 -1 0 -3 -2 -4 -7 -4 -7 -1 0 2 -2 3 -4 1 -1 -2 -2 -2
-5 -1 -5 0 -9 -2 -10 -6 0 -2 1 -4 1 -4 1 -1 1 -1 0 -2 -1 -1 -2 0 -2 1 -1 2
-2 2 -5 1 -2 0 -4 -1 -5 -1 -2 -1 -4 -1 -7 -2 -4 0 -4 0 -3 2 1 1 2 3 4 3 4 2
10 6 12 8 1 1 4 3 7 4 3 1 5 3 5 3 0 1 0 1 0 2 0 0 1 1 2 2 2 2 1 3 -1 2 -1
-1 -2 -1 -2 1 -1 2 -3 1 -4 -1 0 -1 -1 -2 -2 -2 -2 1 -3 -1 -3 -3 1 0 -1 -1
-2 -1 -2 -1 -5 -2 -6 -3 -2 -2 -4 -3 -5 -2 -2 0 -3 0 -4 -2 -1 -1 -2 -2 -3 -2
0 0 -1 -1 -2 -3 -2 -2 -2 -3 -1 -3 1 0 1 -1 -1 -3 -1 -1 -4 -3 -7 -6 l-4 -4 0
-10 c0 -8 0 -9 2 -8 3 0 3 -2 0 -7 -2 -3 -2 -5 -2 -30 l0 -27 80 0 c79 0 79 0
79 2 0 3 4 8 9 11 6 4 9 4 12 3 l2 -1 -2 -4 c-1 -2 -3 -4 -4 -5 -1 -1 -2 -3
-2 -4 -1 -2 1 -2 98 -2 l98 0 0 29 0 30 -5 0 c-3 1 -7 1 -8 2 -2 1 -4 1 -5 2
-1 0 -4 1 -7 2 -2 1 -5 2 -6 2 -1 -1 -5 1 -5 3 0 0 -1 1 -3 1 -2 0 -3 0 -3 2
0 3 0 3 4 3 2 -1 4 -1 4 -2 1 -1 10 -4 20 -6 4 -1 8 -3 10 -4 4 -4 4 -3 4 14
l0 17 -10 2 c-9 2 -14 3 -48 4 0 0 -2 1 -4 3 -1 1 -6 4 -10 7 -4 3 -11 8 -16
12 -5 4 -9 6 -9 6 0 0 -1 1 -2 1 -2 0 -6 2 -10 3 -4 1 -8 3 -8 3 -1 0 0 2 1 5
1 2 2 5 2 6 0 1 0 2 1 2 0 0 2 3 3 6 2 2 4 5 4 5 4 2 13 13 14 15 1 6 3 9 10
18 4 5 8 12 10 14 1 2 4 6 6 8 6 6 10 19 5 17 -1 0 -1 0 0 1 1 1 3 3 4 5 1 3
1 3 -2 7 -2 3 -4 12 -3 13 2 1 1 6 -1 7 -1 1 -2 2 -2 3 0 1 -1 2 -1 3 -2 2 -2
6 -1 9 2 2 2 5 1 10 -1 3 -1 5 0 7 1 3 0 6 -2 6 -3 0 -4 5 -1 7 2 2 2 3 1 4
-2 2 -1 4 2 4 2 0 3 3 1 9 0 2 -1 5 -2 7 0 2 0 4 -1 4 -1 1 -5 9 -4 9 0 0 -1
1 -2 3 -1 2 -2 3 -2 4 0 1 0 1 -1 1 -1 0 -1 1 -1 2 0 0 0 1 -1 1 0 0 -1 1 -1
2 -1 2 -2 4 -4 6 -2 2 -4 6 -5 8 -1 2 -3 5 -4 6 -2 3 1 3 5 1 8 -5 20 -22 27
-37 4 -7 4 -9 4 -13 -1 -4 -1 -6 1 -9 1 -4 2 -6 2 -8 -1 -1 -1 -12 -1 -23 -1
-15 0 -21 0 -24 1 -1 2 -7 3 -12 0 -5 1 -9 2 -11 4 -7 2 -18 -6 -29 -3 -5 -5
-9 -5 -9 0 -1 -4 -7 -10 -13 -7 -9 -10 -14 -11 -17 0 -2 -2 -5 -4 -7 -3 -4
-10 -8 -14 -8 -2 0 -3 -1 -9 -11 -4 -7 -5 -9 -3 -9 6 2 9 2 13 0 6 -3 17 -11
21 -17 2 -2 5 -4 6 -4 2 0 7 -2 11 -5 3 -2 5 -3 22 -3 15 -1 22 -1 28 -3 5 -1
10 -2 10 -2 1 0 1 70 1 178 l0 178 -185 0 -185 0 0 -79z m85 8 c-1 -1 -1 -1 0
-1 4 0 -3 -2 -7 -2 -4 0 -5 0 -5 1 0 1 1 2 5 2 3 0 6 1 6 1 1 0 1 0 1 -1z m77
0 c-3 -1 -1 -2 4 -3 7 -1 3 -4 -6 -4 -3 0 -4 0 -5 2 0 0 -1 1 -3 1 -1 0 -2 0
-2 1 0 1 0 1 0 2 -1 1 4 1 10 2 2 0 3 0 2 -1z m68 0 c1 -2 -1 -5 -3 -5 -3 0
-2 6 1 6 0 0 1 -1 2 -1z m16 -7 c1 -1 1 -2 -1 -3 -1 -1 -1 -1 -3 0 -1 2 -1 4
1 4 1 0 2 -1 3 -1z m10 -12 c1 -3 2 -5 1 -5 -2 -2 -4 0 -6 4 -4 8 0 9 5 1z
m-122 -1 c3 0 2 -2 -1 -2 -3 -1 -6 1 -6 2 1 1 3 1 7 0z m-38 -3 c10 -2 9 -7 0
-6 -3 0 -6 0 -6 -1 -1 -1 -3 -1 -3 0 0 1 -2 3 -4 4 -3 1 -5 3 -4 3 0 1 8 2 10
1 1 0 4 0 7 -1z m-29 -29 c0 -1 2 -2 4 -2 7 -2 4 -7 -5 -6 -3 0 -5 -1 -6 -1 0
-1 -4 -1 -8 0 -2 1 -3 2 -3 4 -1 4 1 5 7 4 4 0 6 0 6 1 1 1 4 1 5 0z m181 -7
c-1 0 0 -1 1 -2 1 -2 1 -2 0 -3 0 0 -1 -1 -1 -2 0 -1 0 -1 -1 1 -1 1 -2 2 -3
2 -2 0 -4 2 -4 4 0 0 1 -1 3 -1 2 -1 3 -2 3 -1 0 1 -1 1 -1 1 -1 0 -1 0 0 1 2
1 4 1 3 0z m-155 -2 c1 -1 -1 -2 -5 -2 -2 0 -3 1 -1 2 1 1 6 1 6 0z m148 -11
c2 -2 4 -3 4 -4 0 -2 -1 -2 -6 -2 -4 1 -5 1 -5 0 1 -1 1 -1 2 -1 0 0 1 0 1 -1
0 -1 1 -1 1 -1 1 1 3 0 4 -1 2 0 3 -1 4 -1 1 0 1 -1 9 -18 6 -11 8 -21 6 -20
-1 1 -2 1 -2 2 0 3 -5 8 -7 8 0 0 -1 0 -1 1 0 0 -2 2 -5 4 -5 3 -9 4 -15 5 -1
0 -2 1 -2 1 -3 2 -12 3 -14 3 -1 -1 -3 -2 -5 -4 -1 -2 -4 -5 -6 -6 -3 -1 -6
-3 -6 -4 -2 -2 -4 -3 -4 -1 0 1 0 3 0 4 -1 3 -1 3 -3 2 -1 -1 -3 -1 -6 0 -3 1
-4 2 -6 5 -2 6 -4 7 -10 4 -4 -1 -7 -1 -18 0 -14 0 -15 0 -17 -2 -1 -1 -3 -2
-3 -2 -1 0 -1 0 0 -1 0 -1 0 -1 -1 -1 -1 0 -2 0 -3 0 -2 0 -2 0 -1 -1 1 -2 1
-2 -1 -3 -4 -1 -9 -7 -6 -7 1 0 1 1 1 2 0 1 0 1 1 0 1 -1 1 -1 1 0 0 0 1 1 2
0 1 0 2 0 2 1 1 1 0 2 0 2 -1 0 0 1 1 2 1 2 2 3 1 3 0 1 0 1 1 1 0 -1 1 -2 0
-2 0 -1 0 -1 2 -1 2 1 2 0 2 -4 1 -6 1 -6 0 -7 -1 0 -1 0 -1 -1 0 0 -1 -1 -1
-1 -1 0 -3 -2 -5 -3 -3 -4 -7 -6 -13 -6 -5 -1 -6 -1 -4 -4 2 -3 2 -3 0 -3 -1
0 -2 0 -2 -1 0 -2 2 -1 8 1 6 3 14 5 18 5 2 0 4 -1 5 -2 3 -3 6 -11 5 -12 -1
0 -3 0 -5 -1 -5 0 -6 -1 -5 -2 1 0 4 0 6 0 0 0 3 0 5 0 6 0 6 -2 1 -5 -1 0 -2
-1 -2 0 1 1 1 1 -1 0 -1 -1 -2 -2 -1 -2 0 -1 9 -1 9 0 0 0 2 1 5 2 2 0 4 0 4
0 0 -1 0 -1 1 -1 1 0 1 0 1 1 -1 1 -1 1 0 1 0 0 1 1 1 3 1 3 7 10 11 13 2 1 4
3 5 4 0 1 0 2 1 2 0 -1 1 0 2 2 2 2 9 4 13 4 3 0 7 -5 9 -11 1 -3 3 -7 3 -8 2
-4 8 -8 12 -10 3 0 5 -2 6 -3 1 -2 2 -2 3 -1 1 0 3 1 6 0 3 0 7 0 10 1 2 1 5
1 5 1 2 0 1 2 0 2 -1 0 -4 1 -7 1 -7 0 -11 2 -15 5 -2 2 -3 3 -3 3 0 1 2 1 4
1 1 0 3 0 3 -1 -1 -2 5 -3 13 -3 5 0 10 -1 13 -1 2 -1 5 -1 6 -1 1 1 1 1 0 2
-1 1 -2 2 -2 3 0 0 0 1 -1 1 0 -1 0 0 1 2 1 3 1 3 -1 4 -1 2 -1 2 0 5 2 3 4 4
4 2 0 -1 0 -2 0 -3 1 -2 2 -11 2 -14 0 -10 -5 -24 -8 -24 -1 0 -3 1 -5 3 -2 2
-4 3 -5 3 -1 -1 -1 -4 0 -4 1 -1 1 -1 0 -1 -1 0 -2 1 -2 1 0 1 -1 2 -3 1 -4
-1 -5 -3 -1 -3 2 1 3 0 2 0 0 -1 -1 -1 -1 0 -1 0 -1 -1 0 -2 0 -2 0 -4 -3 -6
-2 -1 -4 -4 -4 -7 -2 -3 -2 -4 0 -5 1 -1 1 -1 0 -1 -1 0 -4 3 -8 7 -4 4 -7 7
-8 7 0 0 -1 1 -1 2 1 1 0 2 0 3 -1 1 -1 1 0 0 1 0 0 2 -2 4 -2 2 -4 5 -4 5 0
1 -1 1 -1 0 -1 -2 1 -7 5 -10 1 -2 2 -3 1 -4 0 -1 -1 -2 0 -3 1 -2 -2 -2 -4 0
-1 2 -2 2 -7 2 -3 0 -6 0 -6 1 0 0 0 1 0 1 -1 0 -1 -1 -1 -1 0 0 -3 -1 -6 -2
-4 -1 -7 -1 -12 0 -4 1 -7 1 -6 1 0 -1 0 -1 -1 -1 -1 1 -2 1 -2 0 0 0 -2 -2
-4 -4 -2 -1 -4 -3 -4 -3 0 -2 5 -6 9 -7 3 -1 5 -2 6 -3 2 -1 2 -1 1 -2 -1 -1
-2 -1 -2 -1 0 1 -1 0 -3 0 -2 -1 -4 -2 -5 -2 -1 0 -4 -1 -5 -3 -3 -2 -4 -3 -6
-3 -1 0 -2 1 -1 1 0 0 -1 1 -3 1 -1 -1 -3 -1 -4 -1 0 0 -2 -1 -3 -2 -1 -1 -3
-2 -6 -2 -2 0 -5 -1 -5 -1 0 -2 -2 -6 -3 -6 -2 0 -1 3 2 5 1 2 2 3 2 4 -1 1 3
6 17 20 1 1 3 2 5 3 3 0 3 1 3 5 0 4 2 10 7 16 2 3 3 4 0 4 -1 0 -13 -11 -13
-13 0 -1 -7 -9 -11 -11 -2 -2 -4 -4 -4 -4 0 -1 -2 -3 -4 -5 -5 -6 -5 -6 -9
-13 -2 -4 -4 -7 -4 -8 0 -1 -1 -3 -2 -5 0 -2 -1 -4 0 -4 0 0 -1 -1 -2 -3 -2
-2 -2 -3 -1 -7 0 -2 0 -5 0 -6 -1 -4 -5 -4 -8 0 -2 2 -2 2 -4 1 0 -2 -1 -3 -1
-5 0 -2 -1 -3 -5 -1 -2 1 -3 2 -4 5 -2 6 -7 11 -13 13 -3 1 -5 3 -4 3 0 1 0 1
-1 1 -1 0 -1 0 0 1 1 1 1 1 0 1 -1 0 -1 0 -1 1 1 1 -1 6 -2 6 -1 0 -2 1 -3 2
-1 2 -1 3 1 4 1 1 1 3 1 8 0 4 0 8 1 11 2 3 2 7 2 16 0 8 1 16 2 25 2 8 3 15
2 15 0 1 0 1 1 1 1 0 1 1 1 2 -1 1 -1 1 0 0 1 0 1 0 1 2 -1 1 0 2 0 1 1 0 1 0
1 1 0 1 0 2 1 3 0 1 1 2 0 2 0 0 2 1 3 0 2 0 4 0 4 1 0 0 0 1 0 3 1 3 9 19 11
22 2 1 4 3 6 4 2 2 6 4 10 7 7 4 8 4 16 3 3 0 5 0 5 0 0 1 1 1 1 1 1 -1 2 0 3
1 3 1 14 2 14 0 0 -1 0 -1 1 0 1 0 1 0 1 -1 0 0 1 -1 2 -1 1 0 5 -1 8 -2 3 -1
6 -2 6 -1 -1 0 3 1 7 1 7 0 9 0 13 2 3 2 7 3 15 3 8 1 11 2 12 3 0 1 0 1 -1 1
-1 -1 0 0 1 1 3 3 10 3 15 0z m12 -6 c0 -6 -2 -9 -2 -5 0 2 0 3 -1 3 0 -1 -1
0 0 1 0 2 0 2 1 1 1 -1 1 -1 1 1 -1 2 -1 3 0 3 1 0 1 -2 1 -4z m-161 -5 c0 -1
0 -2 -1 -3 -1 0 -2 -3 -4 -6 -3 -8 -6 -10 -5 -4 1 2 2 5 3 6 1 2 2 3 2 4 0 1
0 1 1 1 1 0 1 1 1 2 0 0 1 1 2 1 0 0 1 -1 1 -1z m-37 -92 c3 -3 2 -5 0 -6 -3
-1 -5 -5 -3 -6 1 0 1 0 1 -1 -1 -1 6 0 9 1 3 3 4 1 3 -4 -1 -9 -5 -13 -11 -11
-3 1 -8 6 -10 11 -3 6 -3 9 1 10 2 1 3 2 3 5 0 2 0 3 3 3 2 0 3 -1 4 -2z m205
-11 c-1 -1 -2 -3 -3 -4 0 -1 -1 -3 -1 -5 1 -4 0 -5 -2 -4 -1 0 -1 2 0 3 0 1 0
3 0 4 1 4 4 9 7 9 0 0 -1 -1 -1 -3z m-45 -5 c0 -1 2 -5 4 -8 1 -4 3 -8 3 -9 1
0 0 -2 -1 -3 -2 -2 -2 -2 -5 0 -1 1 -4 2 -5 2 -4 1 -5 4 -3 7 1 2 2 5 2 6 0 5
3 7 5 5z m22 -4 c-1 0 0 -1 1 -2 1 0 2 -1 2 -2 0 -1 -2 -1 -3 0 0 1 0 1 -1 1
0 -1 -1 1 -1 3 0 1 1 3 1 2 1 0 1 -1 1 -2z m4 -17 c0 -1 0 -3 1 -5 1 -2 2 -3
1 -3 -1 -1 -2 0 -2 3 -1 5 -1 7 0 7 0 -1 1 -2 0 -2z m-76 -5 c-1 -2 -7 -3 -7
-1 0 1 1 3 2 4 2 2 2 2 4 0 0 -1 1 -2 1 -3z m30 3 c1 -1 1 -1 0 -3 -3 -1 -4 0
-3 2 0 2 1 2 3 1z m-29 -16 c2 -2 -4 -9 -8 -9 -3 0 -7 -5 -8 -10 -1 -4 -1 -6
2 -6 1 0 2 -1 3 -2 1 -2 2 -2 8 -1 3 1 12 2 20 2 19 0 18 0 17 1 0 1 0 1 2 1
1 0 2 -1 2 -2 0 -2 0 -2 -2 -2 -1 1 -2 0 -3 0 -1 -1 -1 -1 0 -1 1 0 3 0 4 -1
3 0 5 1 3 2 -1 1 -1 1 1 1 1 0 3 0 4 0 3 0 7 -3 6 -5 0 -1 -1 -2 -1 -2 0 0 -1
-1 0 -2 0 -1 1 -2 1 -1 1 0 1 0 0 -1 -1 -2 -7 -3 -11 -2 -2 1 -4 1 -5 0 -3 -1
-30 -1 -38 0 -7 1 -8 1 -11 -1 -3 -1 -4 -1 -7 0 -2 1 -5 2 -6 4 -2 1 -4 2 -6
3 -7 1 -11 3 -12 6 0 3 2 5 8 7 3 1 5 1 5 2 0 0 -1 1 -2 2 -2 2 -2 5 0 3 1 0
2 1 3 2 2 2 5 3 7 4 3 1 6 3 7 5 1 1 3 2 4 3 3 1 11 1 13 0z m-81 -10 c0 -2 1
-3 1 -3 1 -1 2 -2 3 -4 1 -2 2 -3 1 -3 -1 1 -1 0 -1 -2 l0 -2 -2 2 -2 2 0 -3
c0 -1 0 -4 0 -5 0 -3 0 -3 -2 -2 -1 1 -1 2 -1 4 1 1 1 2 0 2 0 0 -1 1 -1 2 0
1 0 5 -1 9 0 3 0 7 0 9 l1 2 2 -3 c1 -1 2 -4 2 -5z m94 5 c1 0 3 0 5 -1 2 0 3
-4 1 -5 -1 0 -3 0 -4 1 -1 1 -3 1 -5 0 -3 0 -3 0 -1 1 1 1 1 1 -2 1 -4 0 -5 0
-5 1 0 2 0 2 1 2 1 -1 1 -2 0 -2 0 -1 0 -1 1 -1 1 1 1 2 1 3 -1 1 0 2 2 2 2
-1 4 -1 6 -2z m67 -28 c0 0 0 -1 0 -2 1 -1 0 -2 0 -1 -1 0 -1 0 -1 -1 0 -1 0
-1 -1 0 -2 1 -2 1 -4 1 -2 0 -3 3 -1 3 2 1 7 1 7 0z m-164 -18 c-1 -1 -1 0 -1
3 0 7 1 9 2 3 0 -3 0 -6 -1 -6z m22 1 c0 -3 -3 2 -4 6 l0 4 2 -5 c1 -2 2 -5 2
-5z m30 -20 c0 -2 -5 -6 -7 -6 -1 0 -1 0 0 1 1 0 1 1 0 3 -1 2 -1 2 1 5 3 2 3
2 5 1 0 -1 1 -3 1 -4z m190 -12 c3 -2 3 -3 -1 -3 -2 0 -7 3 -7 5 0 1 5 0 8 -2z
m-283 0 c2 -2 2 -4 0 -4 -2 0 -3 2 -3 4 0 1 1 1 3 0z m36 -4 c-1 0 -1 -2 -1
-2 0 -1 -1 -1 -1 -1 -1 0 -2 0 -2 -1 0 -1 0 -1 -1 -1 -1 0 -1 4 0 5 1 0 2 1 2
0 1 0 1 0 1 1 0 0 0 1 1 1 1 0 1 -1 1 -2z m184 -3 c1 -2 -1 -9 -3 -11 -1 -1
-1 -1 -1 4 1 4 1 7 2 7 0 1 2 1 2 0z m-201 -7 c4 -4 13 -11 19 -16 6 -5 16
-14 22 -19 6 -6 14 -13 18 -17 3 -3 6 -6 6 -7 -1 -1 -12 7 -23 18 -7 6 -17 15
-24 21 -14 11 -28 25 -28 26 0 2 3 0 10 -6z m107 -18 c1 0 2 -1 1 -1 0 -1 1
-1 1 0 1 0 2 -1 2 -1 1 -1 1 -2 0 -1 -1 0 -1 0 -1 -1 0 0 -1 -1 -2 -1 -2 -1
-5 2 -4 4 0 1 0 1 -2 1 -2 -1 -2 -1 -1 0 2 1 4 1 6 0z m37 -13 c-5 -8 -13 -14
-17 -14 -3 -1 -4 -1 -6 1 -2 3 -2 5 1 9 1 2 4 3 6 4 2 0 5 1 6 1 3 1 3 1 5 -1
1 -1 1 -1 2 0 1 1 1 2 1 3 -1 2 0 2 1 2 1 -1 1 -1 1 0 -1 0 -2 1 -3 1 -2 1 -1
1 1 0 3 0 4 0 5 1 0 1 1 1 1 0 0 -1 -2 -4 -4 -7z m-52 -12 c1 0 1 -1 1 -2 0
-3 -3 -2 -4 1 -1 1 -1 2 1 1 1 0 2 0 2 0z M193 305 c-1 -1 -1 -2 -1 -5 2 -4 3
-4 3 -1 2 7 1 10 -2 6z M234 305 c-1 -1 -4 -1 -6 -1 -4 0 -5 -2 -3 -4 3 -2 9
-2 11 -1 1 1 1 1 2 1 0 0 0 0 0 0 0 0 0 1 1 3 1 1 1 2 0 3 -2 1 -2 1 -5 -1z
M205 305 c0 -1 0 -1 1 -1 0 0 -1 -1 -2 -2 -2 -1 -2 -5 0 -5 2 0 3 2 4 6 1 2
-2 4 -3 2z M242 299 c1 -1 3 -2 3 -2 1 0 1 1 1 2 0 2 -1 2 -3 2 l-3 0 2 -2z
M140 144 c-5 0 -6 -2 -1 -4 3 -1 4 0 6 1 1 1 1 4 0 4 -1 0 -3 -1 -5 -1z M168
449 c-1 0 -1 -1 -1 -2 0 -1 -1 -3 -2 -3 -2 -2 -1 -4 2 -4 5 0 8 5 4 8 -2 2 -2
2 -3 1z M115 442 c-1 -1 -3 -3 -4 -5 0 -1 -1 -3 -2 -3 -1 0 -1 0 -1 -1 0 -1 1
-1 3 0 1 0 2 0 2 -1 -1 -1 -1 -1 0 0 1 0 3 2 4 4 2 4 2 5 2 6 -2 1 -2 1 -4 0z
M205 437 c0 -1 0 -2 -1 -1 -1 0 0 -1 1 -2 2 -4 3 -4 2 0 0 3 -2 5 -2 3z M220
434 c-1 -1 -2 -3 -2 -4 l-2 -2 -1 3 -2 3 0 -2 c0 -2 0 -3 0 -4 1 -1 1 -1 1 0
0 0 1 -1 2 -2 1 -2 1 -2 1 0 l0 2 1 -2 c0 -2 1 -3 0 -3 0 -1 0 -1 1 -1 1 0 1
1 1 2 -2 4 -2 6 -1 6 1 0 1 0 1 -1 -1 -1 0 -1 1 -1 1 0 2 -1 2 -1 0 -2 4 -4 4
-3 2 1 1 7 0 8 -1 2 -2 2 -3 2 -2 -1 -2 -1 -2 0 1 1 0 2 0 2 -1 0 -2 -1 -2 -2z
M92 426 c0 -1 1 -2 1 -2 1 0 1 0 0 -2 -1 -1 -1 -1 1 0 1 0 3 1 3 2 0 1 0 2 -1
1 -1 0 -2 0 -2 1 0 1 0 1 -1 1 -1 0 -1 -1 -1 -1z M103 424 c-1 -1 -3 -1 -4 -2
-2 -1 -3 -2 -3 -2 1 -1 0 -2 -1 -3 -2 -1 -2 -1 -3 1 0 2 0 2 -2 -1 -1 -2 -3
-4 -3 -3 -1 0 -2 -1 -3 -2 -1 -2 -1 -7 0 -7 1 0 1 1 1 1 0 1 1 3 3 4 1 2 2 3
1 3 -1 0 2 2 3 2 1 0 1 -1 1 -2 -1 -1 -1 -1 0 0 1 2 2 2 2 1 0 0 1 0 2 2 1 1
2 2 2 1 1 0 2 1 3 2 2 1 2 1 2 0 -1 -1 -1 -1 0 0 1 1 2 2 3 1 0 0 0 0 -1 1 -1
1 -1 3 -1 3 1 1 -1 1 -2 0z M123 408 c-1 -1 -8 -3 -10 -3 -2 0 -6 -4 -6 -5 0
0 1 -1 3 -1 1 -1 2 0 3 1 2 2 9 5 10 5 0 -1 1 0 2 2 1 1 1 2 0 2 -1 0 -2 0 -2
-1z M0 172 c0 -69 0 -82 1 -82 1 0 4 3 6 6 6 7 19 18 27 23 3 2 6 4 7 5 0 0 3
2 5 4 3 2 5 5 6 5 0 1 -2 2 -5 3 -8 2 -9 3 -14 12 l-5 8 1 5 1 5 -5 9 c-7 12
-9 16 -8 22 1 6 2 7 5 7 l3 -1 0 4 c-1 5 -2 6 -6 6 -4 0 -9 8 -11 19 -1 4 -3
10 -5 14 l-3 8 0 -82z"/>
</g>
</svg>
