<?xml version="1.0" standalone="no"?>
<!DOCTYPE svg PUBLIC "-//W3C//DTD SVG 20010904//EN"
 "http://www.w3.org/TR/2001/REC-SVG-20010904/DTD/svg10.dtd">
<svg version="1.0" xmlns="http://www.w3.org/2000/svg"
 width="370.000000pt" height="463.000000pt" viewBox="0 0 370.000000 463.000000"
 preserveAspectRatio="xMidYMid meet">
<metadata>
Created by potrace 1.16, written by Peter Selinger 2001-2019
</metadata>
<g transform="translate(0.000000,463.000000) scale(1.000000,-1.000000)"
fill="#000000" stroke="none">
<path d="M0 382 l0 -80 3 5 c1 3 4 8 7 11 2 4 4 7 5 9 1 7 7 27 10 33 1 3 3 9
5 14 2 5 5 11 7 14 4 6 12 13 15 13 1 0 4 2 6 5 2 2 6 5 7 6 2 0 5 3 8 5 6 5
7 6 7 4 0 -1 -1 -2 -2 -1 0 0 -2 -2 -3 -3 -3 -4 -3 -4 -1 -4 2 0 3 -2 1 -4 -1
-1 -2 -1 -4 1 -4 1 -4 1 -7 -1 -4 -3 -8 -8 -13 -15 -6 -7 -12 -20 -12 -23 0
-1 -1 -4 -3 -7 -3 -6 -8 -22 -8 -25 0 0 -1 -2 -1 -4 -1 -2 -2 -5 -3 -7 0 -3 0
-4 1 -4 3 0 2 -3 -1 -4 -3 0 -5 -2 -9 -8 -5 -7 -8 -15 -9 -21 0 -4 0 -6 3 -11
3 -6 3 -8 3 -11 -2 -13 -2 -14 0 -20 1 -3 3 -8 3 -12 1 -4 4 -11 6 -16 3 -7 5
-12 5 -14 0 -4 0 -4 -2 3 -1 3 -1 4 -5 4 -6 1 -9 6 -11 18 -1 3 -3 10 -4 13
-3 8 -4 13 -2 22 1 6 1 7 0 10 -2 2 -2 -5 -2 -92 0 -66 0 -95 1 -95 1 0 6 5
13 12 11 11 17 16 27 21 4 2 10 8 11 10 0 1 -2 2 -5 3 -3 1 -7 2 -8 3 -2 3
-10 16 -10 18 0 1 1 3 2 5 l2 4 -5 7 c-7 9 -11 17 -11 22 0 4 1 5 6 5 l4 1 -1
-5 c0 -4 0 -6 4 -12 2 -4 4 -7 4 -8 0 0 1 -2 2 -4 1 -2 2 -4 3 -5 1 -2 1 -2 0
-7 -2 -4 -2 -4 0 -7 1 -1 4 -5 5 -7 2 -3 5 -7 7 -8 2 -2 3 -4 3 -5 0 0 -4 -4
-8 -8 -4 -3 -9 -7 -9 -8 -1 -2 -1 -2 -2 -1 -2 1 -2 1 -3 -1 -1 -1 -2 -2 -3 -3
-5 -1 -17 -12 -18 -16 -1 -2 -2 -3 -2 -3 -1 0 -1 0 -1 -1 1 0 0 -1 -1 -1 -1
-1 -3 -3 -4 -5 -3 -4 -3 -5 -3 -15 0 -6 0 -10 1 -10 1 0 1 1 1 1 0 1 0 1 1 2
2 0 1 -1 -1 -6 -2 -4 -2 -6 -2 -31 l0 -27 185 0 185 0 0 30 c0 23 0 30 -1 30
-1 0 -1 0 0 1 1 1 1 6 1 18 l0 17 -9 2 c-7 2 -12 2 -28 3 -11 0 -21 1 -22 1
-1 1 -4 3 -7 6 -7 5 -23 16 -30 21 -2 2 -7 4 -11 4 -11 3 -11 2 -6 13 4 8 6
12 12 18 6 6 8 9 10 14 2 4 5 9 10 16 4 4 8 10 9 12 1 2 4 6 7 9 4 5 5 7 6 12
1 3 2 7 2 9 1 4 1 7 0 8 -1 1 -2 2 -2 2 0 1 -1 2 -1 3 -2 1 -2 6 -1 10 1 3 1
4 -1 6 -2 2 -3 5 -4 7 -1 4 -1 4 0 7 2 3 2 4 1 7 0 3 0 7 0 11 0 4 0 6 -1 7
-1 0 -2 1 -2 2 -1 1 -1 1 1 0 1 -2 2 -2 2 -1 0 1 0 1 1 1 1 -2 3 3 2 6 0 2 -1
5 0 7 0 3 -4 17 -7 21 0 1 -2 4 -3 6 -1 4 -4 8 -11 20 -2 1 -4 5 -5 8 -3 6
-10 14 -29 34 -8 9 -15 16 -18 18 -3 1 -5 3 -5 4 1 0 7 -3 13 -9 7 -6 24 -24
30 -32 3 -3 6 -6 7 -7 7 -3 20 -19 28 -37 5 -9 5 -10 5 -14 -1 -4 -1 -6 0 -8
2 -3 2 -11 -1 -12 0 0 -1 -1 0 -1 0 -1 0 -2 -1 -3 -1 -1 0 -2 1 -3 1 0 1 -3 1
-14 0 -7 0 -14 0 -16 0 -1 1 -5 2 -8 1 -3 2 -6 1 -11 0 -6 1 -8 3 -11 2 -4 2
-5 2 -11 -1 -7 -3 -12 -7 -18 -2 -2 -5 -6 -5 -8 -1 -2 -6 -8 -10 -13 -10 -13
-11 -15 -11 -18 0 -5 -9 -13 -16 -15 -5 0 -4 0 -11 -11 -5 -8 -5 -9 -3 -9 9 3
9 3 20 -5 5 -4 12 -9 14 -11 3 -3 5 -5 7 -5 1 0 4 -2 8 -4 l6 -4 20 -1 c15 -1
21 -1 27 -3 4 -1 8 -2 9 -2 1 0 1 36 1 179 l0 178 -185 0 -185 0 0 -81z m168
70 c2 -1 4 -1 5 0 2 1 9 1 11 0 2 -1 2 -1 1 -2 -2 -2 -3 -7 -1 -10 0 -1 1 -3
1 -4 0 -2 1 -2 6 -2 3 0 6 0 7 0 1 0 2 0 2 -1 0 -1 0 -1 1 -1 0 1 3 0 5 -1 2
-1 4 -2 5 -2 0 1 1 0 2 -1 1 -2 2 -3 2 -2 0 0 1 -1 2 -3 0 -2 2 -3 2 -3 1 0 2
0 2 -1 0 -1 1 -1 1 0 1 0 1 0 1 -1 -1 0 0 -1 3 0 1 0 3 -1 3 -1 0 -1 -3 -2 -6
-1 -3 1 -5 1 -3 0 1 0 0 -1 -2 -1 -2 0 -4 0 -3 0 1 2 -2 3 -7 4 -4 0 -18 2
-23 4 -3 1 -14 1 -18 1 -2 0 -5 -4 -4 -5 0 -1 2 0 4 0 2 1 5 1 7 1 2 -1 2 -2
2 -4 -1 -3 2 -7 6 -7 l2 -1 -2 0 c-2 -1 -5 -2 -8 -4 -4 -2 -5 -2 -9 -1 -2 0
-4 1 -5 0 -1 0 -2 1 -2 1 0 1 3 4 5 4 0 0 1 0 1 1 -1 1 -10 0 -15 -1 -2 -1 -4
-1 -4 -1 -4 -1 -8 -2 -12 -4 -2 -1 -5 -2 -7 -2 -4 0 -5 -1 -2 -4 1 -1 2 -3 1
-3 0 -3 2 -3 5 -2 1 1 4 2 6 2 5 0 13 2 12 3 0 1 0 1 1 1 1 0 1 0 0 -2 0 -2
-6 -5 -8 -5 -3 0 -4 0 -4 -2 -1 -2 -2 -2 -6 -2 -11 0 -12 1 -13 11 -1 4 0 6 4
6 1 -1 2 0 2 1 0 0 0 1 1 1 1 0 1 1 1 2 0 2 0 2 -4 0 -8 -3 -18 -6 -24 -7 -4
0 -7 -1 -7 -1 0 -1 0 -1 -1 -1 -1 0 -1 0 0 1 0 1 -1 1 -3 1 -1 0 0 6 1 9 1 1
2 2 2 1 1 0 1 0 1 1 -1 1 0 2 1 2 0 0 1 -1 0 -1 0 -1 3 0 5 2 2 1 15 6 17 6 1
0 1 1 1 2 0 1 0 2 1 3 2 3 0 2 -4 -1 -2 -2 -3 -2 -3 -1 0 1 -1 2 -2 2 -3 0 -4
2 -2 5 1 2 1 2 2 0 2 -1 2 -1 2 1 1 1 1 1 2 0 1 -2 3 0 6 4 2 4 2 5 2 6 -2 2
-4 1 -8 -2 -2 -2 -4 -4 -4 -4 -1 0 -1 0 -1 -1 0 -1 -1 -1 -1 0 -2 0 -13 -5
-18 -9 -2 -1 -3 -2 -3 -1 0 1 2 2 5 4 2 2 6 4 7 5 2 1 5 3 8 4 3 1 8 4 10 6 3
2 6 3 8 4 1 0 5 0 7 1 10 2 11 2 16 0 3 -2 3 -2 0 -2 -3 1 -3 1 -4 -1 0 -3 0
-3 -3 -1 -1 0 -3 1 -4 0 -2 -1 -1 -3 2 -4 7 0 7 -1 8 -3 0 -1 0 -2 0 -3 1 0 1
0 1 1 -1 2 -1 2 2 0 3 -1 5 -1 8 1 2 1 4 2 4 2 0 0 1 0 2 1 0 0 2 0 3 0 3 -1
7 1 8 2 1 1 1 3 1 4 0 3 -3 5 -5 3 -1 0 -1 0 0 1 0 1 0 1 -1 1 0 -1 -1 -2 -1
-3 0 -1 0 -1 -1 1 -1 1 -1 1 -1 -1 0 -6 0 -7 -2 -7 -1 0 -2 0 -3 -1 0 -1 -1 0
-2 1 0 0 -2 1 -2 0 -1 0 -1 1 -1 3 0 2 0 4 -1 5 -2 1 -1 2 2 3 4 2 9 2 13 0z
m42 -9 c5 0 6 0 12 -4 3 -3 6 -6 7 -7 1 -1 -1 1 -4 3 -4 3 -7 5 -7 4 -1 0 -1
-2 -1 -5 0 -3 0 -4 -1 -2 0 1 -1 3 -1 5 0 3 0 4 -1 4 -1 0 -2 0 -2 -1 0 0 -1
-1 -2 -1 -1 0 -2 1 -2 1 0 1 -3 1 -4 -1 0 -1 -1 0 -2 2 -1 2 -2 3 -2 3 0 0 -1
1 -1 1 -1 2 0 1 2 0 2 -1 5 -2 9 -2z m-109 -18 c-2 -1 -4 -1 -4 0 0 0 0 2 -1
2 0 2 0 2 4 1 3 -1 3 -2 1 -3z m-16 -10 c0 -2 -3 -2 -4 -1 -2 3 -1 4 2 3 1 -1
2 -2 2 -2z m115 -11 c0 -1 0 -3 -1 -4 0 -2 0 -2 3 -1 1 1 5 1 7 1 5 0 5 0 7
-2 2 -4 1 -7 -2 -9 -3 -2 -12 -3 -14 0 -1 1 -1 1 0 1 1 0 2 0 2 1 1 0 -2 1 -7
1 -4 0 -7 -1 -8 -1 -1 -2 -2 1 -1 3 0 1 1 2 3 3 2 1 3 2 3 2 0 2 -4 1 -7 -1
-3 -1 -12 -2 -14 -1 0 1 1 1 2 1 2 0 3 0 4 1 1 2 8 5 13 5 2 0 4 1 5 1 1 2 6
1 5 -1z m-42 -13 c2 -1 4 -2 6 -2 1 0 3 0 4 -1 1 0 1 0 0 -1 -2 -1 -12 -1 -12
0 0 0 -1 1 -3 1 -3 1 -4 3 -1 3 1 1 2 1 2 1 0 0 2 -1 4 -1z m-43 -4 c0 -1 1
-2 1 -3 0 0 1 -1 2 -1 2 0 6 -3 6 -4 0 -1 -1 -1 -2 -1 -5 0 -7 1 -8 4 0 2 -3
3 -10 3 -6 0 -6 2 0 4 5 1 9 0 11 -2z m-21 -18 c8 -2 10 -3 8 -5 -2 -2 -14 -1
-18 2 -2 2 -2 2 0 3 2 1 2 1 10 0z m-27 -31 c4 -1 7 -2 8 -2 0 -1 -1 -2 -2 -2
-2 -1 -6 -2 -12 -2 -8 0 -9 0 -10 2 -3 4 -3 5 3 5 3 0 9 -1 13 -1z m161 -24
c0 -1 1 -2 1 -4 -1 -1 0 -3 0 -3 1 -1 -1 -1 -3 -2 -3 -1 -5 -2 -6 -2 0 -1 0
-1 0 -1 1 1 4 -1 4 -3 0 -1 7 -2 17 -2 2 -1 8 -4 11 -8 4 -3 4 -4 3 -5 -2 0
-4 1 -8 3 -1 1 -3 2 -4 2 -4 2 -4 1 -8 2 -6 1 -13 5 -12 6 0 1 0 1 -1 1 -1 -1
-3 -1 -5 -1 -1 0 -4 -2 -7 -5 -3 -3 -5 -4 -6 -3 -1 0 -2 1 -2 1 0 2 4 8 7 9 4
2 8 3 9 3 1 0 1 0 1 1 0 1 -1 1 -4 1 -2 0 -2 3 -1 5 1 1 4 2 7 2 0 0 1 1 1 2
1 2 4 2 6 1z m-64 -4 c3 -2 5 -3 5 -2 0 1 1 1 2 0 1 -1 3 -1 3 -1 0 0 1 0 2
-1 2 0 3 -1 3 -4 0 -4 0 -4 -4 -4 -2 1 -5 0 -6 0 -4 -2 -11 -2 -22 -2 -9 0
-11 0 -14 -2 -2 -1 -4 -2 -6 -2 -3 0 -10 -5 -10 -7 0 0 -1 -1 -1 -2 -1 0 -1 0
-1 1 0 1 -4 3 -6 3 0 0 -1 -2 -2 -3 -1 -4 -3 -5 -3 -3 0 1 0 1 -1 0 -1 -1 0
-2 1 -2 1 -1 1 -3 1 -7 0 -5 0 -6 -2 -6 -2 -2 -3 -3 0 -7 2 -5 8 -8 9 -5 1 1
11 6 12 6 0 -1 2 0 4 1 5 1 7 1 7 -2 1 -2 0 -3 -4 -3 -3 1 -4 0 -4 -1 -1 -1
-2 -1 -6 -1 -6 0 -6 0 -5 -2 1 -1 1 -3 1 -5 -1 -1 0 -2 1 -2 0 0 1 0 1 -1 0 0
5 -2 11 -5 9 -2 13 -3 18 -3 4 0 7 0 7 1 0 0 1 1 3 0 3 0 6 3 7 8 2 6 4 8 11
9 1 0 2 2 4 5 5 7 6 8 11 8 5 1 7 0 10 -5 2 -4 4 -11 3 -15 0 -6 0 -10 1 -10
0 0 2 -3 4 -8 1 -4 3 -9 5 -12 1 -2 2 -4 1 -4 -1 0 -1 1 -2 2 0 2 -1 2 -3 2
-1 0 -2 1 -2 2 -1 0 -1 0 -1 -1 0 0 -2 0 -5 0 -3 0 -6 0 -6 0 -1 -1 -3 -1 -9
-1 -6 1 -17 0 -17 -2 1 -1 -4 -5 -5 -5 -1 0 -1 2 -1 4 0 3 2 8 5 11 0 1 1 2 1
2 0 1 1 2 2 3 1 1 2 2 1 2 -1 1 -7 -1 -10 -4 -1 -1 -5 -5 -8 -8 -4 -3 -7 -6
-6 -6 0 0 -1 -1 -2 -2 0 -1 -1 -1 -1 0 0 0 -2 -2 -4 -4 -3 -3 -5 -6 -5 -7 0 0
0 -1 -1 -1 -1 0 -1 0 -1 1 0 1 0 1 -1 0 -1 0 -1 0 0 -1 1 -1 1 -2 -1 -4 -1 -2
-2 -4 -3 -4 0 -1 -1 -2 -1 -3 0 -1 0 -1 -1 -1 0 1 -1 -1 -3 -3 -1 -2 -3 -3 -4
-3 0 1 -1 0 -2 -1 -2 -2 -6 0 -8 5 -1 2 -3 3 -4 4 -3 1 -3 1 -1 4 1 3 1 3 -1
5 -2 2 -2 2 -1 3 1 1 2 1 3 -1 1 -1 3 -2 4 -2 2 0 3 0 3 -1 1 0 3 0 5 -1 4 0
5 0 8 4 2 2 3 4 3 5 0 0 1 3 2 5 2 6 2 8 -2 6 -3 -2 -6 0 -6 4 -1 4 0 10 1 8
1 -1 1 -1 2 0 1 1 2 2 2 2 0 0 -6 0 -12 0 -9 0 -13 1 -15 2 -3 2 -7 8 -5 9 1
1 1 3 1 4 0 2 -1 3 -2 2 -2 -1 -2 -2 -2 -4 0 -4 0 -4 -2 -2 -2 1 -2 2 -2 4 1
1 0 4 0 7 0 2 0 4 1 7 1 2 2 4 1 4 0 0 0 1 2 2 1 0 1 1 0 0 -1 0 -1 1 1 4 0 2
3 8 5 14 4 9 5 11 12 16 1 1 3 2 4 2 1 0 2 1 3 2 1 2 4 3 4 1 0 -1 1 -1 2 0 1
0 1 1 0 1 -1 0 0 1 1 2 2 1 3 2 4 1 1 -1 2 -1 3 0 0 1 2 1 4 1 2 0 4 0 5 0 1
1 4 1 4 0 0 -1 4 -2 5 -1 0 0 0 1 -1 1 -1 1 -1 1 0 2 3 3 9 2 14 -2z m48 3 c0
-1 -1 -1 -1 -1 -1 0 -2 -1 -3 -1 -1 -2 -7 -3 -7 -1 -1 1 0 2 4 3 5 1 7 1 7 0z
m6 0 c1 -1 -5 -4 -7 -3 -1 1 -1 1 1 1 2 1 3 1 3 2 -1 0 0 1 1 1 1 0 2 0 2 -1z
m-16 -10 c0 0 -1 -1 -2 -1 -2 -1 -2 -1 -1 -3 2 -3 2 -7 0 -7 -1 0 -1 -1 -1 -3
1 -3 -1 -4 -3 -2 0 1 0 1 1 1 1 -1 1 -1 0 0 -2 4 -1 10 3 14 1 2 3 3 3 1z
m-11 -9 c0 0 -1 -1 -2 -2 -1 0 -2 -2 -1 -2 0 -1 -1 -1 -3 -1 -2 1 -2 1 -2 3 0
1 1 2 1 2 2 1 7 1 7 0z m-103 -50 c0 -3 0 -5 -1 -5 -1 0 -1 2 -1 4 0 3 0 3 -1
2 -1 -1 -1 -1 -1 1 0 2 0 3 2 3 1 0 2 -2 2 -5z m152 1 c2 0 4 0 4 -1 -1 0 0
-1 0 -1 1 -1 -1 -1 -4 -1 -6 0 -11 2 -11 4 0 0 1 1 4 0 2 -1 5 -1 7 -1z m17
-2 c1 0 2 -1 1 -2 0 -1 0 -1 2 -1 1 0 2 0 2 -3 0 -5 -1 -7 -2 -7 -3 0 -6 0 -6
-1 1 0 -1 0 -3 0 -3 1 -4 0 -5 -1 -1 0 -3 -1 -6 -1 -3 0 -3 -1 -3 -3 0 -3 -1
-3 -6 -3 -5 -1 -9 1 -7 4 0 1 0 2 -1 2 -1 1 -1 2 -1 3 0 0 -1 3 -3 4 -3 4 -4
5 -1 5 2 0 6 -4 6 -5 0 -1 5 -1 5 0 0 1 10 2 16 2 1 0 2 1 2 1 0 1 1 1 1 0 2
-1 2 -1 2 0 1 1 1 2 2 4 0 1 0 2 0 2 0 1 3 1 5 0z m-40 -15 c2 -1 3 -3 3 -4 0
-2 -1 -2 -3 2 -6 5 -5 7 0 2z m-125 -6 c2 0 1 -4 0 -4 -1 -1 -2 0 -2 1 0 0 -1
2 -1 3 -1 2 -1 2 0 3 1 1 2 0 2 -1 0 -1 1 -2 1 -2z m136 -4 c1 -2 0 -5 -1 -5
0 0 -2 1 -3 2 -1 2 -1 2 0 1 2 -1 3 0 1 2 -1 1 -1 1 1 1 1 0 2 -1 2 -1z m-172
-3 c0 -3 -3 -4 -5 -1 -3 2 -1 3 2 3 2 0 3 -1 3 -2z m-7 -10 c1 -1 1 -2 0 -2
-2 -2 -1 -3 1 -2 1 0 2 0 3 -1 0 -1 0 -1 -1 0 -1 0 -1 0 -1 -1 1 -1 2 -1 3 0
1 1 3 2 4 2 2 0 3 1 4 3 0 2 1 2 2 1 0 -1 1 -2 0 -3 0 -1 -1 -3 -1 -5 -1 -4
-4 -7 -7 -7 0 0 -1 1 -1 1 0 1 0 1 -1 1 0 -1 -2 1 -3 3 -2 2 -3 4 -4 5 0 0 -1
1 0 1 0 1 0 1 -1 2 -2 0 -2 0 -1 2 2 1 2 1 4 0z m112 -1 c1 0 1 0 1 -1 -1 -1
-1 -1 0 -1 3 0 10 -3 12 -5 1 -1 2 -2 2 -1 1 0 1 0 1 -1 0 -1 -1 -1 -1 -1 -1
1 -2 0 -3 -1 -1 -1 -1 -1 -4 0 -1 1 -2 1 -2 0 1 -1 -2 -3 -6 -4 -2 0 -4 0 -5
0 -5 -2 -8 -2 -8 -4 -1 0 -3 -1 -5 -1 -5 -1 -5 1 0 7 3 2 7 6 9 9 3 3 5 5 7 4
1 0 2 0 2 0z m54 -5 c1 -2 1 -10 0 -11 0 -1 -1 -2 -2 -2 0 0 -1 0 -1 -1 1 -1
-2 -1 -3 1 -1 1 0 4 1 4 1 -1 2 2 1 5 0 4 0 6 2 5 1 0 2 -1 2 -1z m-118 -22
c1 -2 2 -3 2 -3 1 0 2 -1 2 -2 0 -2 0 -3 1 -3 1 0 1 0 0 -1 -1 -2 -3 0 -5 4 0
2 -1 6 -2 7 0 1 0 2 1 2 0 -1 1 -2 1 -4z m24 3 c0 -1 0 -2 -1 -3 -1 -1 0 -2 0
-2 1 -1 1 -1 0 -1 -1 0 -2 -1 -3 -1 -1 -2 -7 -2 -8 0 0 1 0 1 1 1 3 -1 5 0 7
4 2 3 4 4 4 2z m43 -20 c1 -1 0 -2 -2 -2 -3 1 -4 2 -2 3 1 2 4 2 4 -1z m-24
-24 c0 -1 -1 -1 -3 0 -2 2 -3 2 -4 0 -1 -1 -2 -2 -3 -2 -1 1 -2 0 -1 0 0 -1 0
-1 -1 -1 -3 1 -2 3 1 5 3 2 4 2 7 1 2 -1 4 -2 4 -3z m58 -3 c2 -1 4 -2 4 -2 0
1 1 0 3 0 2 -1 3 -2 3 -3 0 -1 -3 -3 -6 -3 -1 0 -3 -1 -3 -2 -2 -1 -2 -1 -5 1
-3 2 -3 2 -1 3 1 1 2 2 1 3 -1 0 -2 1 -3 1 -2 0 -6 -4 -6 -5 1 -1 -2 -2 -5 -1
-2 1 -3 1 -3 0 0 -1 -1 -1 -2 -1 -2 0 -3 0 -2 0 0 -1 0 -1 -1 -1 -1 0 -1 1 -1
2 1 2 1 3 0 4 -1 0 -1 0 -1 -1 1 -1 0 -1 -1 -1 -1 1 -3 0 -4 -1 -2 -1 -2 -1
-2 -1 1 1 0 2 -1 4 -1 1 -2 2 -1 2 2 2 9 3 16 4 3 0 7 0 7 1 1 1 11 -1 14 -3z
m-45 0 c2 -3 1 -6 -4 -6 -1 0 -4 3 -3 4 0 1 4 3 5 3 0 0 1 -1 2 -1z m60 0 c1
-1 0 -3 -2 -3 -3 0 -3 2 -1 3 2 1 2 1 3 0z m-152 -22 c-1 -1 0 -2 1 -3 2 -1 3
-4 1 -6 -3 -2 -6 -1 -5 3 0 1 -1 1 -3 0 -1 0 -4 -1 -6 -1 -3 0 -6 -1 -7 -2 -3
-1 -6 -5 -5 -6 0 -1 0 -1 -1 -1 0 1 -1 1 -1 0 0 -1 0 -1 -1 -1 0 1 -3 0 -5 -1
-6 -2 -10 -3 -10 -1 -1 0 -1 1 0 1 0 -1 3 1 5 3 10 9 20 15 26 13 3 0 4 0 5 2
3 3 6 3 6 0z m264 -31 c0 0 0 -1 0 -1 0 -3 -3 -2 -6 0 -4 3 -3 4 2 2 2 0 3 -1
4 -1z m9 -5 c0 -1 1 -1 1 0 0 0 0 0 1 -1 1 -1 11 -5 14 -5 2 0 3 0 3 -1 -1 0
0 -1 2 -1 4 0 10 -3 11 -6 1 -1 0 -2 -2 -2 -2 0 -5 2 -11 6 -2 1 -3 2 -3 1 1
-1 -1 -1 -5 0 -2 1 -5 1 -6 1 -2 0 -3 1 -4 2 -1 1 -3 2 -4 2 -4 1 -4 5 -1 5 2
0 3 -1 4 -1z m-73 -5 c0 -3 -1 -5 -2 -5 -1 0 -1 3 0 5 0 3 2 2 2 0z m-200 -6
c4 -4 10 -9 14 -11 3 -2 6 -5 6 -5 0 0 3 -3 6 -5 3 -3 9 -8 13 -12 4 -4 10 -9
12 -11 4 -3 11 -10 11 -10 0 -1 -1 -1 -2 0 -2 0 -11 8 -24 20 -5 4 -10 9 -13
11 -14 12 -34 30 -32 30 1 0 5 -3 9 -7z m137 -35 c-1 -2 -3 -3 -4 -3 0 0 -1
-1 -2 -1 0 -1 -2 -2 -3 -2 -2 -1 -2 -1 -2 0 1 1 2 1 2 1 2 0 7 6 8 8 0 2 1 2
2 1 2 -1 2 -1 -1 -4z m-10 -1 c1 -2 1 -2 0 -3 -3 -1 -5 2 -4 4 2 1 2 1 4 -1z
m-9 -16 c0 0 -2 -3 -3 -5 -3 -4 -3 -4 -3 -2 1 6 3 9 5 8 1 0 2 -1 1 -1z M126
444 c-1 -2 0 -5 1 -5 0 0 1 1 2 2 0 3 -1 5 -3 3z M141 423 c-1 -1 -4 -1 -5 -1
-5 0 -2 -2 4 -3 4 0 5 0 5 1 0 1 1 1 2 1 3 -1 3 -3 0 -4 -2 0 -3 -1 -3 -1 0
-1 0 -1 -1 -1 0 1 -2 0 -3 0 -1 -2 -1 -2 4 -1 2 0 6 1 7 2 2 0 3 1 3 0 0 0 1
1 1 2 0 0 -1 1 -2 1 -1 -1 -2 1 -1 2 1 1 1 2 0 2 -1 1 -8 1 -11 0z M110 411
c-2 -1 -3 -2 -2 -2 1 -1 1 -1 2 0 1 1 2 1 2 1 0 -1 1 0 2 0 2 3 0 4 -4 1z
M150 305 c2 -2 6 -3 9 -2 3 1 3 3 0 3 -8 1 -10 1 -9 -1z M159 199 c0 -1 0 -3
-1 -4 l0 -2 2 2 c1 1 2 2 3 2 0 0 0 1 -2 2 -1 1 -2 1 -2 0z"/>
</g>
</svg>
