<?xml version="1.0" standalone="no"?>
<!DOCTYPE svg PUBLIC "-//W3C//DTD SVG 20010904//EN"
 "http://www.w3.org/TR/2001/REC-SVG-20010904/DTD/svg10.dtd">
<svg version="1.0" xmlns="http://www.w3.org/2000/svg"
 width="370.000000pt" height="463.000000pt" viewBox="0 0 370.000000 463.000000"
 preserveAspectRatio="xMidYMid meet">
<metadata>
Created by potrace 1.16, written by Peter Selinger 2001-2019
</metadata>
<g transform="translate(0.000000,463.000000) scale(1.000000,-1.000000)"
fill="#000000" stroke="none">
<path d="M119 461 c-2 0 -5 -2 -6 -3 -2 -2 -6 -4 -10 -6 -7 -4 -16 -9 -22 -14
-7 -6 -27 -24 -27 -25 0 -1 2 1 4 3 6 5 10 5 10 1 l1 -2 4 3 c2 2 4 4 4 4 1 0
4 2 7 4 10 7 16 11 22 13 3 1 5 3 6 3 1 2 8 5 13 6 2 0 6 1 9 2 6 1 7 1 10 0
3 -2 3 -2 9 1 5 3 6 3 11 3 2 -1 8 -1 12 -1 6 0 8 0 10 -2 2 -1 4 -2 6 -2 2 0
5 -1 7 -3 3 -1 5 -2 11 -2 8 -1 7 0 19 -11 5 -5 7 -5 10 -3 3 1 8 -2 20 -13
11 -11 8 -7 -9 10 -6 6 -13 13 -15 14 -2 2 -7 6 -10 8 -3 4 -7 6 -10 7 -3 1
-8 3 -12 5 -6 2 -7 2 -44 2 -30 0 -37 0 -40 -2z M185 448 c0 -1 0 -3 0 -4 -1
-1 0 -2 1 -3 1 0 2 -1 1 -1 0 -1 0 -1 1 -1 1 0 1 -1 1 -1 0 -2 2 -3 7 -2 4 0
5 0 5 3 0 2 -1 3 -3 5 -3 2 -4 3 -3 1 0 -1 0 -1 -2 -1 -1 1 -2 1 -2 0 0 -1 -1
0 -1 2 -2 3 -5 4 -5 2z M169 446 c0 -1 -1 -2 -2 -3 -1 -1 -1 -1 0 -1 0 1 1 1
1 0 0 -1 0 -1 2 0 1 1 2 6 0 6 -1 0 -1 -1 -1 -2z M146 446 c0 -1 0 -3 0 -3 -1
-3 1 -5 4 -6 3 0 3 0 3 2 0 2 0 3 -1 4 -1 0 -1 1 -1 2 0 2 -4 3 -5 1z M222
433 c0 -2 2 -5 4 -5 2 1 2 3 -1 5 -2 1 -2 1 -3 0z M233 424 c-2 0 -2 -1 -1 -4
l2 -2 0 3 c1 4 1 4 -1 3z M168 422 c-2 -1 -1 -1 3 -1 6 0 11 -4 8 -6 -1 -1 -2
-3 0 -3 0 1 1 1 1 0 1 0 2 -1 3 0 0 0 2 0 3 -1 2 -2 0 -4 -5 -5 -5 -1 -8 -3
-6 -5 1 0 3 1 6 2 5 2 18 4 20 3 1 0 1 -2 0 -3 -1 -4 -1 -4 1 -3 2 1 11 1 15
1 1 0 1 -1 1 -1 -1 -2 0 -2 1 -2 2 0 3 -1 4 -1 1 -1 2 -2 3 -2 1 0 2 0 3 -1 1
-2 7 -1 9 1 3 3 8 2 9 -1 0 -2 -1 -3 -3 -2 -1 0 -3 0 -4 -1 -3 -1 -4 -5 0 -4
5 1 5 0 7 -2 1 -2 1 -3 0 -4 -1 -1 -3 -1 -7 1 -3 1 -6 2 -7 2 -1 0 -2 1 -2 2
-1 1 -2 1 -7 -1 -1 0 -1 0 -1 2 1 3 2 3 -9 -1 -4 -1 -10 -1 -15 0 -5 2 -10 2
-11 1 0 -1 -1 0 -3 1 -2 1 -3 2 -2 5 0 4 0 5 -3 3 -1 0 -3 -1 -5 -1 -6 -1 -13
-3 -13 -4 0 0 2 -1 5 -1 7 -2 4 -5 -6 -6 -4 0 -6 -1 -7 -2 -1 -2 -5 -3 -6 0 0
1 2 3 4 3 3 -2 2 1 -2 3 -4 3 -8 3 -12 0 -4 -3 -20 -2 -20 2 0 1 0 1 -1 0 -2
-1 1 -6 4 -7 1 0 2 -1 3 -2 1 0 2 -1 3 -1 3 0 5 -1 4 -3 0 -1 -2 -1 -9 0 -8 1
-8 2 -9 4 -1 3 -2 3 -8 3 -4 0 -7 0 -7 -1 -2 -1 -9 -3 -9 -2 -2 2 11 9 17 9 1
0 2 1 2 1 0 2 -4 3 -5 2 -1 -1 -1 -1 -1 0 0 1 -5 2 -7 1 -1 -1 -1 -1 -2 0 0 0
-1 1 -1 1 -1 0 -1 -1 0 -2 1 -1 1 -2 -1 -2 0 -1 -1 -2 -1 -3 0 -1 0 -2 -1 -1
0 2 -8 1 -11 -1 -4 -2 -4 -2 -4 -3 1 0 3 0 7 1 4 1 7 2 7 1 2 0 -3 -3 -6 -3
-1 0 -2 -1 -3 -1 -1 -1 -3 -2 -5 -3 -2 0 -4 -1 -4 -1 0 -1 -1 0 -1 2 1 3 2 5
3 4 1 0 1 0 1 1 0 1 -1 2 -2 2 -2 1 -3 4 -1 6 1 0 3 1 4 1 3 0 7 3 5 5 -1 0
-1 1 -1 3 1 1 0 2 -1 2 -1 0 -1 -1 -1 -1 1 -2 -2 -6 -4 -6 0 1 -1 1 -1 0 0 -1
-5 -1 -6 0 0 1 3 5 5 4 0 0 2 1 4 3 1 2 3 3 3 2 1 0 1 0 1 1 0 0 1 1 2 1 0 0
1 0 1 1 0 0 -1 0 -4 0 -2 -1 -5 -1 -7 0 -4 0 -4 0 -7 -3 -1 -2 -2 -4 -2 -4 0
0 -1 -1 -2 -1 -3 -1 -3 -3 0 -6 2 -2 2 -2 1 -2 -5 2 -6 2 -7 1 -1 -1 -1 -2 -1
-2 0 -1 0 -2 -1 -2 -2 -2 -2 -2 -1 -3 2 -1 0 -3 -1 -3 -3 1 -4 -1 -7 -10 -2
-5 -5 -14 -7 -19 -2 -5 -4 -11 -4 -13 -1 -2 -2 -5 -3 -7 -1 -3 -1 -3 1 -5 2
-3 2 -4 0 -8 -1 -2 -2 -3 -4 -3 -3 0 -4 -1 -8 -6 -2 -3 -4 -7 -4 -7 0 -1 -1
-4 -3 -7 -2 -5 -2 -6 1 -7 3 -1 3 -3 0 -4 -5 -1 0 -10 6 -10 2 0 3 0 3 -2 0
-1 -2 -2 -3 -2 -2 0 -3 -1 -3 -4 -1 -2 -1 -5 -2 -7 0 -4 0 -4 2 -5 2 0 2 0 0
-2 -1 -1 -1 -1 0 -3 1 -2 1 -3 1 -5 1 -1 1 -2 1 -2 0 0 0 -1 0 -1 0 -1 1 -1 2
0 1 0 1 0 0 -2 -2 -4 5 -24 10 -30 2 -2 2 -2 1 -3 -1 -1 -1 -3 -1 -7 0 -3 0
-7 0 -9 0 -2 1 -5 2 -7 2 -2 3 -4 3 -5 0 -1 2 -2 5 -2 3 0 6 -3 7 -6 0 -2 1
-3 2 -3 1 0 2 -2 2 -5 0 -3 -4 -6 -6 -6 0 1 -1 1 0 0 0 -1 -1 -1 -1 -1 -1 0
-2 0 -3 -1 -1 -2 3 -5 5 -4 2 0 4 -2 2 -3 -1 -1 -1 -1 0 -3 2 -4 6 -8 7 -7 1
0 1 0 1 -1 0 -1 1 -1 2 -1 1 0 1 -2 0 -2 -2 -1 1 -3 4 -3 3 0 6 -2 6 -3 -1 0
0 -1 1 -1 1 0 2 1 2 1 0 1 1 1 3 1 1 0 2 0 2 -1 0 -1 -4 -3 -5 -3 0 1 -2 -1
-3 -3 -2 -2 -6 -5 -8 -6 -2 -1 -4 -3 -4 -4 0 0 0 -1 -1 -1 -1 0 -1 0 -1 -1 1
0 0 -1 0 -1 -1 -1 -1 -1 0 -1 1 0 2 0 2 1 0 1 5 3 7 3 1 0 2 0 2 1 0 1 3 1 4
0 0 -1 -1 -1 -2 -2 -3 -1 -4 -4 -1 -5 0 0 1 -1 1 -2 0 -2 -3 -6 -5 -6 -2 0 -4
2 -4 4 1 2 -1 1 -3 -1 -2 -1 -3 -2 -4 -1 -2 1 -4 1 -6 0 -3 -2 -4 -2 -4 -5 0
-2 0 -3 3 -3 l3 -1 -4 -1 c-3 -2 -3 -2 -5 0 -1 2 -1 2 -6 1 -2 -1 -6 -2 -7 -3
-2 0 -6 -1 -9 0 -3 0 -5 0 -5 -1 1 0 -1 -3 -3 -3 0 0 -2 -1 -3 -3 -3 -3 -3 -4
-3 -11 l0 -8 3 2 c4 4 5 4 5 0 -1 -1 -2 -4 -3 -5 -1 -2 -2 -3 -2 -4 0 0 -1 -1
-2 -2 -1 -1 -1 -5 -1 -28 l0 -27 75 0 c73 0 74 0 76 2 1 1 2 3 2 6 0 3 0 4 1
3 1 0 1 0 1 1 -1 1 -2 1 -4 1 -4 0 -6 2 -6 5 0 3 0 5 -3 10 -4 5 -4 5 -2 6 1
1 2 2 2 2 0 1 1 2 2 4 1 1 3 4 4 6 l3 5 10 -1 c11 0 13 -1 15 -6 0 -2 1 -3 3
-4 3 -1 10 -1 11 1 1 0 2 1 3 1 1 0 3 1 5 3 2 1 5 3 8 3 3 1 6 1 6 2 1 0 1 3
2 5 1 6 3 8 6 8 1 -1 2 0 3 0 0 1 0 1 -1 1 -1 -1 -2 -1 -1 0 0 1 0 2 -1 3 -1
2 -1 3 2 8 5 6 8 12 8 16 1 4 3 3 4 0 1 -3 1 -4 0 -5 -1 -1 -2 -5 -2 -12 l0
-11 -6 -6 c-4 -4 -8 -8 -10 -8 -1 -1 -3 -3 -4 -4 -1 -4 -12 -16 -17 -21 -11
-8 -16 -13 -19 -21 l-2 -3 98 0 98 0 0 29 0 29 -3 0 c-2 0 -10 2 -14 4 -1 0
-2 0 -3 1 -1 0 -3 1 -5 1 -3 1 -6 2 -7 2 -1 0 -3 1 -3 2 -1 1 -2 2 -3 2 -3 0
-4 1 -6 4 0 1 -2 2 -4 2 -3 1 -9 6 -8 8 1 1 8 -1 10 -3 2 -2 19 -10 19 -10 0
1 1 0 3 0 2 -1 4 -2 6 -2 3 0 11 -3 13 -4 1 -1 2 -2 3 -2 2 0 2 1 2 15 l0 16
-9 2 c-10 2 -37 4 -45 3 -5 0 -9 2 -7 4 0 1 0 1 -1 1 -1 -1 -3 1 -6 3 -3 2 -5
4 -6 4 0 -1 0 -3 1 -5 1 -3 0 -6 -2 -6 -3 0 -4 2 -2 7 1 4 0 7 -3 7 0 0 -2 1
-3 2 -1 3 -7 7 -6 5 1 -1 0 0 -1 1 -2 3 -7 6 -6 4 2 -2 0 -1 -3 1 -2 3 -4 4
-12 5 -2 1 -3 1 -3 2 1 0 0 1 -2 1 -3 -1 -3 1 -1 5 0 2 1 3 0 3 0 1 0 1 1 1 0
0 1 0 1 1 0 1 -4 2 -13 4 -4 0 -5 2 -3 7 2 4 2 4 0 7 -2 2 -2 4 -2 11 0 9 -2
17 -7 23 -1 2 -2 4 -2 4 0 1 -1 2 -2 2 -1 1 -3 5 -4 8 -1 1 -2 2 -3 2 -1 0 -2
0 -2 -1 1 0 -1 -4 -2 -4 -1 0 -2 1 -3 2 -2 3 -3 3 -6 2 -2 0 -5 0 -7 1 -2 1
-3 1 -3 0 0 -1 -1 -1 -3 -1 -1 0 -2 -1 -4 -2 -1 -1 -2 -1 -3 0 0 1 -1 1 -1 1
-1 -1 -3 0 -5 1 -2 1 -4 1 -4 1 0 -1 -1 -1 -1 0 -1 0 -4 -2 -6 -4 l-4 -4 2 -2
c2 -2 3 -2 7 -1 3 0 7 1 8 1 4 2 6 2 6 -1 0 -1 0 -1 -1 0 0 1 -1 1 -2 -1 0 -1
-2 -2 -3 -2 -1 0 -1 0 1 -1 2 -2 0 -5 -4 -6 -2 0 -4 -1 -4 -2 -1 -1 -2 -2 -2
-1 -2 2 -6 1 -8 -2 -4 -5 -2 -9 6 -11 4 0 4 -1 -1 -2 -2 -1 -4 -1 -4 -2 -1 -1
-7 -1 -10 0 -2 0 -1 3 2 5 1 1 2 3 2 3 0 3 -3 5 -6 5 -3 1 -5 0 -12 -7 -1 0
-2 -1 -2 -1 0 1 -1 0 -2 -2 -2 -3 -5 -4 -8 -2 -1 1 -2 1 -3 0 -1 -1 -2 -2 -2
-3 0 0 -1 -3 -2 -5 -3 -3 -3 -3 -1 -5 0 -2 1 -5 2 -7 0 -2 0 -5 1 -5 1 -1 5 2
5 5 1 3 2 4 10 4 4 0 5 0 5 2 0 0 1 1 1 1 1 0 2 1 1 1 0 2 0 2 9 3 6 0 8 0 14
-3 4 -1 10 -3 12 -3 3 0 6 -1 6 -2 1 -1 3 -1 9 -1 7 0 9 -1 9 -2 0 -3 -10 -4
-25 -3 -13 0 -14 0 -16 -2 -2 -2 -2 -13 0 -13 0 0 1 0 1 1 1 0 7 1 15 0 11 0
14 0 17 1 2 1 4 2 8 1 8 0 8 0 10 0 2 1 2 1 2 -1 0 -2 0 -3 1 -3 0 0 1 1 0 2
0 2 0 2 1 2 4 -3 6 -6 6 -8 0 -3 -1 -4 -4 -6 -2 -2 -5 -3 -5 -3 0 0 -1 0 -1
-1 -1 -2 -13 -3 -12 -1 0 1 -2 1 -12 1 -10 -1 -12 -1 -12 0 1 1 0 1 -1 -1 -1
-1 -2 -2 -4 -1 -2 0 -3 1 -3 1 1 0 -1 1 -3 1 -3 0 -7 0 -9 0 -3 1 -4 1 -3 0 1
0 3 -1 4 -1 1 0 2 -1 2 -1 0 -2 2 -3 3 -1 0 1 1 1 3 1 2 0 2 0 1 -1 -2 0 -3 0
-4 -1 -9 -3 -15 -4 -19 -1 -2 0 -3 1 -4 1 0 0 -2 1 -4 4 -1 0 -2 0 -3 0 -1 0
-2 0 -2 1 0 1 -1 1 -1 0 -1 0 -1 0 0 1 1 2 1 2 -1 3 -3 1 -4 1 -3 0 0 -1 -1
-1 -2 0 -2 1 -2 1 -3 0 0 0 -1 -1 -2 -1 -2 0 -11 6 -14 9 -1 1 -3 4 -5 6 -2 2
-4 4 -4 5 1 0 0 2 -6 7 -5 5 -6 10 -1 5 l3 -1 -2 2 c-2 1 -3 2 -4 2 0 -1 -1 0
-2 1 0 1 0 1 -1 0 -1 -2 -1 -4 0 -3 1 0 1 0 1 -2 -1 -1 0 -2 0 -2 1 0 1 0 0
-1 0 -1 0 -1 1 -1 1 0 1 -1 1 -1 0 -2 14 -16 15 -15 0 0 1 -1 2 -3 1 -1 2 -4
4 -5 4 -4 4 -8 1 -8 -2 0 -3 0 -3 1 0 0 -1 1 -1 1 -1 0 -2 -1 -2 -1 1 0 0 -1
0 -2 -1 -1 -1 -1 0 -1 1 0 2 -1 2 -2 0 0 1 -3 3 -4 2 -2 4 -6 5 -8 l1 -5 4 1
c11 2 16 0 16 -5 0 -3 -5 -9 -7 -9 -1 0 -8 -12 -10 -17 -1 -2 -1 -4 0 -6 0 -1
1 -6 1 -11 1 -7 1 -8 -1 -9 -3 -1 -6 2 -9 9 -2 7 -3 8 -7 10 -5 2 -13 9 -13
12 -1 1 -2 4 -4 6 -3 3 -5 9 -5 11 1 1 1 2 0 2 0 1 0 2 0 2 0 1 -1 2 -2 2 -2
0 -2 -1 -3 -3 0 -3 -2 -5 -4 -3 0 1 1 2 1 4 5 8 6 14 7 33 0 3 -1 36 -2 41 0
2 -1 4 -1 5 -2 2 -4 8 -6 16 0 5 -1 9 -2 9 -1 2 -1 3 0 3 1 -1 7 2 7 4 1 4 0
10 -2 12 -2 3 -2 3 0 8 1 2 2 4 2 5 -1 1 0 2 0 1 0 0 1 2 1 3 -1 2 0 4 0 4 0
0 1 1 0 3 0 1 1 2 1 2 1 0 1 1 1 3 -1 2 0 3 0 4 0 0 1 1 0 2 0 1 0 2 1 2 0 0
1 1 1 1 0 2 2 10 3 13 0 1 0 2 1 3 0 4 5 12 6 12 1 0 1 0 0 1 0 0 0 1 2 2 2 2
2 2 1 0 -1 -5 -1 -7 1 -7 0 0 1 1 0 1 0 1 0 1 1 1 1 0 2 3 7 14 1 3 7 9 7 7 0
-1 1 -1 1 0 1 1 2 2 2 1 1 0 1 0 1 1 0 1 2 2 4 4 2 1 4 3 4 4 0 0 0 1 1 0 1 0
1 1 2 1 0 1 1 2 1 1 1 0 1 1 2 2 1 1 1 1 1 0 0 -1 0 -1 1 0 1 1 1 1 2 0 1 0 2
-1 4 -1 1 0 2 0 3 -1 1 -2 4 -1 6 1 2 2 3 2 7 2 5 -1 17 1 14 2 -2 1 -2 1 1 1
4 0 7 -1 6 -2 0 -1 7 0 9 1 0 1 1 1 2 1 0 0 1 0 3 1 1 0 4 1 7 2 3 0 6 1 7 2
1 1 2 2 3 2 1 0 4 1 6 2 2 0 7 1 10 2 3 0 8 1 10 2 5 2 15 4 18 3 1 0 3 -3 5
-7 3 -6 3 -8 3 -13 0 -3 0 -6 0 -6 1 0 1 -3 1 -6 -1 -3 0 -6 0 -7 1 0 1 -1 0
-2 -1 -2 0 -4 3 -11 1 -3 2 -9 3 -13 0 -5 1 -9 1 -10 1 -1 2 -13 2 -19 0 -8 0
-14 -2 -22 -1 -4 -3 -10 -3 -13 -1 -4 -1 -7 -2 -7 0 -1 0 -3 -1 -6 0 -2 -1 -6
-1 -7 -1 -4 -3 -13 -3 -16 0 -2 1 -5 2 -7 1 -2 2 -4 2 -5 0 -1 1 -1 3 0 1 1 1
1 -1 3 l-1 2 2 -1 c3 -2 3 -1 9 4 4 4 5 5 7 11 2 5 3 8 10 17 9 10 10 13 8 15
-1 1 -1 2 0 4 1 2 2 3 1 3 0 1 1 1 1 1 1 1 2 0 2 0 0 -2 3 -2 6 1 3 3 4 6 1 8
-3 2 -3 7 0 8 2 0 2 1 1 2 -2 2 -1 3 2 4 3 0 4 1 2 3 -2 1 -2 1 -5 0 -3 -1 -4
-1 -5 -1 -2 1 -3 3 -1 3 1 0 1 0 2 1 0 1 0 1 -1 1 0 -1 -1 -1 -1 0 -2 2 0 4 3
4 5 1 5 3 0 3 -2 0 -4 1 -4 2 0 1 0 1 1 1 0 -1 1 -1 1 0 0 1 2 1 3 1 5 1 6 4
1 4 -2 0 -5 1 -5 2 -2 1 -2 3 -1 3 1 0 1 0 1 1 0 0 -1 1 -2 1 -3 -1 -4 3 -2 5
2 1 2 1 1 1 -1 1 -2 1 -2 2 0 1 4 5 5 5 3 0 4 0 4 2 0 1 -1 2 -1 2 -3 0 -4 0
-4 2 0 1 1 1 2 1 1 -1 1 0 1 1 0 1 -1 1 -2 2 -4 0 -5 1 -4 2 1 1 1 4 1 7 0 2
0 6 1 8 1 1 1 3 1 4 -1 2 0 8 2 9 2 1 2 1 0 2 -1 2 -1 2 0 4 2 3 3 6 2 6 0 -1
-2 2 -4 6 -4 6 -7 9 -9 8 0 0 -1 1 -1 2 0 6 -1 10 -4 14 -2 4 -4 5 -7 4 -2 0
-3 0 -3 1 -1 1 0 1 4 1 2 0 1 3 -1 5 -1 1 -2 2 -1 2 0 0 -1 2 -3 4 -2 3 -3 4
-6 3 -1 0 -3 0 -4 1 -1 2 -2 2 -2 1 -1 -1 0 -3 2 -3 1 0 2 -1 2 -3 1 -2 2 -4
2 -4 1 0 2 0 3 -1 1 -1 2 -5 1 -5 -1 0 -4 3 -4 4 0 0 -1 1 -2 1 -2 1 -4 2 -4
3 -1 2 -2 3 -2 3 -1 0 -2 1 -3 4 -1 2 -3 5 -4 6 0 2 -1 3 -1 4 1 0 5 -3 5 -5
0 -1 0 -2 1 -3 1 -1 1 -1 2 0 1 1 2 2 1 2 0 1 0 2 1 3 2 3 -1 5 -5 5 -2 -1 -4
0 -6 1 -1 0 -3 1 -4 1 -1 0 -3 1 -5 3 -3 3 -9 4 -8 2 1 0 0 -1 -1 -1 -1 0 -2
1 -2 1 0 1 -1 1 -2 0 -3 0 -3 0 -4 3 -1 2 -1 2 -5 2 -5 -1 -8 0 -10 3 0 1 -2
3 -4 3 -2 1 -3 1 -3 2 0 1 -10 3 -14 3 -1 0 -3 0 -5 1 -4 2 -14 2 -16 0z m64
-40 c2 -2 0 -3 -4 -2 -5 0 -5 3 -1 3 2 0 4 0 5 -1z m22 -4 c1 -1 2 -3 2 -5 1
-1 2 -2 2 -3 1 -1 2 -2 1 -3 0 -1 1 -2 4 -3 3 -1 5 -2 6 -2 2 0 4 -3 3 -3 -2
-2 -10 0 -12 1 0 1 -1 2 -1 2 -3 0 -12 13 -12 17 0 2 5 1 7 -1z m-114 -6 c6
-2 8 -5 2 -4 -8 0 -20 1 -22 1 -3 1 -3 2 -3 3 1 2 15 2 23 0z m-43 -3 c3 -1 6
-1 7 -1 2 -1 3 -4 1 -4 -1 0 -1 0 -1 -1 1 0 -2 -1 -6 -1 -7 0 -7 0 -7 -2 0 -2
-1 -2 -3 -2 -3 0 -3 0 -3 3 0 4 -3 6 -10 6 -4 0 -3 2 0 3 1 0 2 0 3 0 0 1 13
0 19 -1z m30 -6 c-1 0 -1 -1 -2 -1 -2 0 -3 -1 -3 -4 0 -3 0 -3 -4 -4 -2 0 -6
0 -9 0 -4 0 -5 -1 -6 -2 0 -2 -2 -2 -5 -1 -1 1 -1 3 0 3 1 0 2 2 3 4 2 2 2 3
4 2 1 0 5 1 8 2 5 2 15 3 14 1z m14 -5 c2 -1 -3 -3 -8 -3 -2 1 -4 1 -5 1 -1 0
-2 1 -2 2 0 2 1 2 7 1 4 0 8 -1 8 -1z m127 -9 c0 -1 2 -2 4 -3 4 -3 5 -6 2 -6
-3 0 -11 7 -11 10 0 2 0 2 2 1 1 -1 2 -1 3 -2z m-146 -4 c2 0 5 -1 7 -1 2 -2
2 -2 2 -1 0 2 3 3 4 2 0 -1 0 -1 -1 -1 -1 1 -1 1 -1 0 0 -1 -1 -2 -1 -2 -3 -1
-16 0 -19 1 -4 1 -3 3 1 2 2 0 5 0 8 0z m-55 -5 c1 -2 10 -3 11 -1 1 0 4 1 7
0 4 0 6 0 6 1 0 1 1 1 1 1 2 0 4 -4 4 -5 -1 0 -5 -1 -9 -1 -6 0 -9 0 -10 -1
-3 -2 -3 -5 -1 -5 1 -1 3 1 3 3 0 1 2 1 4 1 5 -1 16 1 18 3 2 2 5 0 4 -3 0 -2
-7 -5 -10 -5 -1 0 -1 -1 0 -1 1 -1 3 -1 6 -1 3 0 5 0 5 0 -1 -3 -2 -4 -14 -4
-16 1 -21 2 -19 6 0 1 0 2 -1 2 0 -1 -1 -1 -1 0 0 1 -2 1 -5 1 -15 -1 -17 0
-18 4 0 4 1 5 8 4 4 0 6 0 6 1 1 1 4 1 5 0z m214 -1 c2 -2 2 -3 0 -3 -1 0 -4
3 -4 4 0 2 3 1 4 -1z m-168 -1 c0 -1 1 -2 1 -2 0 -1 0 -1 -1 0 -1 1 -1 1 -1 0
0 -2 -2 -3 -4 -1 -1 1 -1 2 1 3 2 1 2 1 4 0z m19 -4 c0 -1 -4 -4 -5 -3 -1 0
-1 -1 -1 -4 0 -2 -1 -2 -5 -2 -3 0 -8 0 -10 1 l-4 1 5 1 c7 1 7 1 13 4 6 3 7
3 7 2z m26 -6 c-3 -2 -7 -3 -7 -1 0 1 1 1 3 1 1 0 1 0 1 1 0 1 4 3 5 2 1 0 0
-1 -2 -3z m-108 1 c2 -2 0 -3 -4 -3 -3 1 -4 2 -1 4 3 1 4 1 5 -1z m245 -1 c0
-1 1 -2 1 -2 1 0 1 -1 1 -3 0 -2 0 -2 -2 -1 -3 2 -5 7 -5 8 1 1 4 0 5 -2z
m-156 1 c0 -2 -2 -2 -4 -2 l-4 0 3 2 c5 1 6 1 5 0z m-46 -20 c0 0 -1 -3 -2 -5
-2 -2 -3 -5 -3 -6 0 -1 0 -2 -1 -3 -1 0 -1 -2 -1 -3 0 -1 -2 -3 -3 -4 -1 -2
-3 -4 -3 -5 0 -3 -3 -7 -4 -6 -2 0 -1 4 1 5 1 1 2 3 2 6 0 3 0 6 1 6 0 0 1 2
1 3 1 1 2 4 3 5 1 2 2 3 2 4 0 1 3 5 5 5 0 0 1 -1 2 -2z m-21 -45 c1 -2 -10
-21 -13 -21 -1 0 0 4 2 7 1 2 3 4 3 4 0 2 2 6 3 7 1 1 2 2 2 3 0 1 2 1 3 0z
m-30 -15 c1 -2 0 -3 0 -6 -1 -1 -2 -3 -3 -4 l0 -2 -1 2 c0 1 -1 2 0 2 0 1 0 3
0 5 1 5 1 5 2 5 0 0 1 -1 2 -2z m27 -13 c-1 -4 -3 -5 -3 -2 0 2 0 3 1 4 1 0 1
1 0 1 0 1 1 1 1 1 1 0 2 -1 1 -4z m-33 -2 c0 -3 0 -3 -2 -2 -1 3 -1 6 1 6 1 0
1 -1 1 -4z m16 -14 c4 -2 6 -4 7 -7 0 0 1 0 2 -1 2 0 5 -2 4 -2 -1 0 0 -2 1
-3 l2 -4 -2 -4 c-1 -3 -2 -5 -2 -6 1 -4 -4 -6 -8 -5 -4 1 -11 9 -13 15 -1 2
-3 5 -3 6 -3 3 -3 5 -1 6 1 1 1 1 2 0 3 -3 7 -1 5 2 -1 2 -1 3 0 4 2 1 2 1 6
-1z m166 -24 c2 -3 4 -8 5 -9 0 -2 1 -5 1 -7 0 -3 1 -4 2 -5 l3 -2 -3 0 c-1 0
-2 1 -2 1 0 1 -1 2 -3 3 -1 0 -3 1 -4 2 -1 1 -2 1 -3 1 -2 -1 -9 6 -8 8 0 1 1
2 1 3 1 1 2 3 2 5 1 4 3 7 5 7 1 0 2 -3 4 -7z m-22 -16 c2 -4 2 -4 1 -6 -4 -3
-10 -2 -10 1 0 1 0 1 1 0 1 -1 1 0 1 2 1 2 2 3 2 3 1 0 1 0 1 1 -1 4 1 4 4 -1z
m52 -50 c0 -2 0 -2 2 -2 2 1 0 -3 -3 -4 -3 -2 -11 2 -11 4 0 2 1 3 4 3 2 0 4
1 5 1 1 2 3 1 3 -2z m27 -8 c0 -2 -2 -4 -3 -4 -2 1 -2 2 0 4 2 2 3 2 3 0z m1
-13 c1 -2 0 -5 -2 -5 -1 0 -2 1 -2 2 -1 1 1 4 2 4 0 0 1 -1 2 -1z m14 0 c0 0
0 -1 0 -2 1 -2 -3 -4 -4 -2 -1 2 1 5 3 5 0 0 1 0 1 -1z m-20 -5 c0 -2 0 -3 -1
-3 -1 -1 -3 2 -2 3 1 3 3 2 3 0z m-228 -24 c2 -2 2 -2 1 -4 -2 -1 -3 -1 -5 1
-2 2 -2 2 -1 3 2 2 3 2 5 0z m37 -4 c0 -2 0 -3 -1 -3 0 1 -2 0 -4 -2 -4 -2 -5
-2 -5 1 0 2 2 4 6 6 4 3 4 2 4 -2z m-20 -9 c9 -8 11 -9 23 -19 5 -4 13 -11 18
-16 4 -4 12 -11 17 -15 9 -8 12 -11 9 -11 -3 0 -12 7 -34 27 -3 4 -12 11 -18
16 -13 11 -25 22 -25 24 0 3 4 1 10 -6z m203 4 c0 -3 -3 -12 -5 -12 -2 0 -1
11 1 14 2 2 3 1 4 -2z m-178 -7 c1 -4 1 -4 -1 -4 -2 0 -6 4 -6 5 1 0 1 1 1 2
1 3 4 1 6 -3z M57 211 c0 -1 -1 -2 -2 -3 -1 0 -2 -2 -1 -2 0 -1 1 -2 1 -1 1 0
2 0 2 -1 2 -1 4 1 4 5 -1 3 -4 4 -4 2z M239 417 c-1 0 -2 -2 -2 -2 0 -1 3 -4
4 -3 1 0 1 0 1 -1 0 0 1 -2 3 -4 4 -4 7 -4 7 -1 0 2 -7 9 -9 9 -1 0 -1 0 0 1
0 1 -1 1 -1 1 -1 0 -2 0 -1 1 0 2 -1 1 -2 -1z M155 408 c-13 -2 -28 -7 -27
-10 0 -1 0 -2 -1 -3 -2 -2 0 -2 4 -1 2 1 5 2 7 2 3 0 5 0 7 3 3 3 4 3 5 3 1
-1 3 -1 5 -2 4 -2 4 -3 -2 -3 0 0 -1 -1 -1 -2 0 -2 1 -2 5 -2 3 0 4 0 4 2 0 1
0 2 1 2 1 -1 1 0 0 1 0 2 -1 3 0 3 0 0 -1 1 -3 0 -1 0 -4 1 -5 1 l-2 1 3 2 c2
1 4 3 3 3 0 1 0 1 0 1 0 0 -2 0 -3 -1z M319 316 c-1 -3 -1 -8 -1 -10 l-1 -5 2
5 c0 2 1 7 1 10 l0 6 -1 -6z M210 318 c-1 -1 -4 -1 -5 -2 -8 0 -11 -1 -13 -2
-1 -1 -1 -1 0 -1 1 0 1 0 0 -1 -4 -2 3 0 8 1 2 1 7 2 10 3 8 0 9 1 7 2 -2 1
-4 1 -7 0z M237 305 c-1 0 -2 -1 -8 -2 -4 0 -4 -1 -3 -2 1 -1 3 -2 5 -2 3 0 7
3 7 6 0 0 -1 1 -1 0z M169 295 c-2 -2 -8 -4 -8 -2 0 0 -6 1 -12 1 -9 0 -12 -1
-12 -2 0 0 -1 -1 -2 0 0 0 -1 0 -1 -1 0 -1 0 -3 1 -2 0 0 2 0 3 0 2 1 2 1 2
-2 -1 -4 -1 -4 1 -4 2 0 3 -1 3 -2 1 -1 2 -2 3 -3 1 0 3 -1 4 -2 0 0 2 -1 3 0
1 0 1 0 0 -1 -1 -1 -4 -2 -7 -3 -5 -1 -6 -1 -7 0 -1 2 -3 2 -11 -3 -7 -4 -14
-7 -15 -7 -1 0 -2 -1 -2 -2 0 -2 0 -2 2 -2 8 3 15 4 20 4 3 0 6 1 6 1 0 2 0 2
2 1 1 -1 2 -2 2 -3 0 0 1 -1 1 -1 3 0 11 -8 10 -11 0 -1 0 -1 1 -1 1 0 0 -1
-1 -2 -2 -2 -3 -3 -2 -3 0 -1 -2 -1 -4 -2 -3 -1 -5 -2 -5 -2 1 -2 5 -1 9 1 3
1 5 2 5 1 1 0 2 1 3 3 3 5 12 14 14 16 1 0 2 2 2 3 1 4 1 4 5 5 2 0 5 0 7 1 7
2 12 -2 15 -13 2 -6 4 -9 6 -9 1 0 2 -1 3 -2 1 -2 2 -3 3 -3 1 0 5 -1 5 -2 0
-1 1 -1 1 -1 1 1 2 0 3 0 0 -1 3 -2 5 -2 2 0 4 0 5 -1 1 0 3 1 6 1 l4 2 -3 1
c-2 1 -4 1 -6 1 -1 0 -4 1 -7 2 -2 1 -4 2 -4 2 0 0 -2 0 -3 0 -2 1 -2 1 0 4 1
3 1 3 6 3 3 -1 6 -1 7 -1 0 0 0 0 -1 -1 -1 -1 -1 -1 0 -2 2 -2 3 -2 5 -1 5 1
14 1 15 -1 1 0 3 -1 5 -1 l3 -1 -3 2 c-2 3 -3 5 -1 7 1 0 0 1 -1 2 -3 2 -3 5
0 8 2 2 2 2 1 3 0 0 -1 1 -1 1 0 1 -1 3 -2 4 -1 0 -2 2 -2 4 0 2 0 2 -1 0 0
-3 -4 -4 -7 0 -3 3 -4 5 -1 5 3 -1 5 0 4 2 0 2 -5 6 -6 6 -8 1 -13 2 -15 3 -1
1 -3 2 -4 1 0 0 -1 0 -1 1 0 2 -3 2 -6 1 -3 -1 -6 -4 -5 -5 0 0 -1 -2 -2 -3
-1 -1 -2 -2 -2 -3 1 0 1 -1 0 -1 0 -1 -1 0 -2 1 -1 1 -1 1 -1 -1 0 -1 -5 -8
-7 -8 0 0 -2 1 -3 3 -2 1 -3 2 -2 2 1 -1 1 0 1 1 0 2 -2 4 -3 2 0 0 -1 -1 -2
-1 -1 0 -1 -1 -1 -2 1 -1 0 -2 -1 -2 0 -1 -1 -1 -1 -2 2 -2 -6 -4 -8 -2 -1 2
-1 7 1 8 0 0 1 2 1 3 1 2 1 2 0 1 -1 0 -1 0 0 1 1 2 1 2 -1 3 0 1 -1 2 0 2 0
0 0 1 -2 2 -1 0 -1 1 0 1 1 -1 1 -1 0 0 0 2 -6 2 -7 1z M166 229 c-2 -1 -8
-10 -8 -11 0 0 -3 -4 -7 -7 -7 -7 -17 -19 -22 -26 -2 -4 -3 -5 -2 -6 2 -3 5
-1 9 4 1 3 6 8 11 13 4 5 8 9 8 9 0 1 2 2 3 3 3 1 4 2 5 7 1 3 2 7 4 8 3 6 3
8 -1 6z M249 219 c0 -1 0 -3 1 -4 2 -2 3 -6 1 -7 -1 0 -1 -1 0 -2 2 -2 5 2 5
7 1 3 0 4 -1 3 -1 0 -1 0 0 1 1 2 1 2 -1 3 -1 0 -2 1 -1 1 0 1 -1 1 -1 1 -1 0
-2 -1 -3 -3z M20 179 c0 -1 1 -4 3 -7 2 -4 3 -8 3 -10 l0 -4 1 4 c1 3 1 4 -3
11 -2 3 -4 6 -4 6z M253 155 c-1 -1 -2 -2 0 -2 2 -1 4 1 4 3 0 3 -1 2 -4 -1z
M30 132 c-3 -2 -12 -10 -18 -16 l-12 -11 0 -5 c1 -8 3 -8 12 1 9 8 19 17 25
20 2 1 4 3 4 3 0 0 2 2 4 3 2 2 4 4 4 4 0 1 -3 2 -6 3 l-6 3 -7 -5z M58 130
c-2 0 -3 -1 -4 0 0 0 -1 -1 -1 -1 0 -1 0 -2 -1 -1 -2 0 -1 -2 1 -3 1 -2 1 -2
3 0 1 1 1 3 1 3 0 1 1 1 1 0 1 0 2 0 2 1 1 1 0 2 -2 1z M42 113 c-2 0 -3 -1
-5 -1 -1 0 -2 0 -1 -1 0 -1 -1 -2 -2 -2 -2 -1 -3 -2 -3 -2 0 -1 0 -2 -1 -2 -1
0 -2 0 -2 0 -1 0 -3 -1 -5 0 -2 0 -3 -1 -4 -3 -1 -1 -2 -2 -3 -2 -2 0 -2 -1
-2 -3 0 -1 0 -2 0 -3 0 -1 3 -1 3 1 0 1 0 1 1 0 0 -1 8 3 8 4 0 1 0 1 1 1 1
-1 6 3 5 4 0 1 1 1 2 1 1 0 2 0 3 1 0 0 2 1 4 2 2 1 4 1 4 2 0 0 0 1 0 2 1 2
-1 3 -3 1z M162 31 c-1 -1 -1 -3 -1 -3 0 -3 6 -1 7 1 0 3 -2 5 -4 3 -1 -1 -1
-1 -1 0 1 0 1 1 1 1 -1 0 -1 -1 -2 -2z"/>
</g>
</svg>
