<?xml version="1.0" standalone="no"?>
<!DOCTYPE svg PUBLIC "-//W3C//DTD SVG 20010904//EN"
 "http://www.w3.org/TR/2001/REC-SVG-20010904/DTD/svg10.dtd">
<svg version="1.0" xmlns="http://www.w3.org/2000/svg"
 width="370.000000pt" height="463.000000pt" viewBox="0 0 370.000000 463.000000"
 preserveAspectRatio="xMidYMid meet">
<metadata>
Created by potrace 1.16, written by Peter Selinger 2001-2019
</metadata>
<g transform="translate(0.000000,463.000000) scale(1.000000,-1.000000)"
fill="#000000" stroke="none">
<path d="M119 461 c-2 0 -5 -2 -6 -3 -2 -2 -6 -4 -10 -6 -7 -4 -16 -9 -22 -14
-7 -6 -27 -24 -27 -25 0 -1 2 1 4 3 6 5 10 5 10 1 l1 -2 4 3 c2 2 4 4 4 4 1 0
4 2 7 4 10 7 16 11 22 13 3 1 5 3 6 3 1 2 8 5 13 6 2 0 6 1 9 2 6 1 7 1 10 0
3 -2 3 -2 9 1 5 3 6 3 11 3 2 -1 8 -1 12 -1 6 0 8 0 10 -2 2 -1 4 -2 6 -2 2 0
5 -1 7 -3 3 -1 5 -2 11 -2 8 -1 7 0 19 -11 5 -5 7 -5 10 -3 3 1 8 -2 20 -13
11 -11 8 -7 -9 10 -6 6 -13 13 -15 14 -2 2 -7 6 -10 8 -3 4 -7 6 -10 7 -3 1
-8 3 -12 5 -6 2 -7 2 -44 2 -30 0 -37 0 -40 -2z M185 448 c-1 0 -1 -2 -1 -3 0
-2 1 -3 2 -4 1 0 2 -1 2 -1 -1 0 -1 0 0 -1 1 -1 1 -1 0 -2 -2 -1 1 -2 5 -2 2
1 4 0 4 0 0 -1 1 -1 2 -1 2 0 2 1 2 4 0 5 -3 8 -6 8 -2 1 -3 0 -3 0 1 0 0 -1
0 -1 -1 -1 -2 -1 -3 1 -1 3 -3 4 -4 2z M169 447 c-1 0 -1 -1 0 -2 0 -1 0 -1
-1 -1 0 1 -1 0 -1 0 -1 -2 1 -3 3 -2 1 1 2 5 0 6 0 0 -1 0 -1 -1z M146 445 c0
-1 -1 -2 -1 -1 0 1 0 1 -1 1 -1 -1 3 -8 5 -8 2 -1 7 1 5 2 0 0 -1 2 -2 4 -1 4
-4 5 -6 2z M223 433 c-1 -2 0 -8 2 -8 1 0 1 0 0 2 -1 1 -1 1 1 1 1 0 2 1 2 2
0 2 -5 4 -5 3z M232 424 c-1 0 -1 -1 0 -4 l2 -3 1 2 c2 5 0 7 -3 5z M167 422
c-2 -2 -2 -2 2 -1 6 0 10 -2 10 -6 0 -1 0 -1 -1 0 -2 0 -1 -1 1 -2 1 -1 2 -2
3 -1 1 0 3 0 4 -1 2 -2 0 -4 -6 -5 -5 -1 -7 -4 -5 -5 1 0 3 0 6 2 2 1 7 2 11
3 3 0 6 0 7 0 0 1 1 0 2 0 1 -1 1 -1 0 -4 -2 -3 -2 -3 0 -2 2 0 14 2 16 1 0 0
1 -1 0 -2 0 -1 0 -1 2 -1 1 0 2 0 3 -1 0 -1 2 -2 5 -3 4 -2 5 -3 3 -5 -2 -3
-5 -3 -6 -1 0 1 -1 2 -1 1 -4 -2 -20 -4 -22 -3 -2 1 -11 2 -13 1 -1 -1 -6 3
-5 4 1 2 1 5 0 6 -1 0 -2 0 -3 -1 -1 0 -3 -1 -5 -1 -6 -1 -13 -3 -13 -4 0 -1
1 -1 1 -1 11 -1 9 -5 -3 -6 -4 0 -6 0 -6 -2 -1 -2 -5 -3 -5 -1 -1 2 2 4 4 3 0
0 1 1 1 1 0 1 -1 2 -1 2 -1 0 -3 1 -4 2 -3 2 -7 2 -11 -1 -2 -2 -4 -2 -9 -2
-9 1 -11 2 -11 4 0 1 0 1 -1 0 -3 -2 6 -10 11 -10 1 0 2 -1 2 -1 -1 -1 -3 -1
-6 -1 -8 0 -11 1 -12 4 0 2 -1 2 -6 2 -4 0 -8 0 -10 -1 -3 -1 -3 -1 -3 1 1 2
8 6 12 6 4 0 5 3 1 4 -4 1 -7 0 -6 -1 0 -1 0 -1 -1 -1 -1 1 -1 1 -1 2 1 0 -1
1 -3 1 -3 0 -4 -1 -4 -2 0 -3 -3 -5 -7 -5 -1 0 -4 0 -6 -1 -5 -1 -7 0 -7 3 0
3 0 3 3 3 3 0 7 3 5 4 -1 1 -1 2 -1 3 0 2 0 2 1 1 1 -1 1 -1 1 0 0 1 -1 1 -2
2 -2 0 -2 1 0 3 0 1 2 1 3 1 0 -1 1 0 1 1 0 1 -1 1 -3 0 -6 -1 -8 -1 -10 0 -2
1 -6 0 -7 -3 0 -1 -2 -3 -3 -4 -2 -2 -4 -4 -4 -4 0 -1 0 -1 0 -2 0 -1 0 -1 -1
-1 0 1 -2 -1 -4 -3 -1 -3 -3 -6 -5 -8 -1 -2 -3 -6 -3 -9 -1 -3 -3 -7 -4 -9 -3
-6 -8 -22 -8 -24 0 -2 -1 -4 -2 -5 -1 -4 -1 -6 0 -8 4 -3 1 -9 -4 -10 -3 0 -7
-4 -10 -10 -7 -15 -8 -18 -4 -18 1 0 2 0 2 -1 0 -1 -1 -1 -2 -1 -3 0 -2 -6 2
-10 2 -2 4 -3 5 -2 0 0 1 0 1 -1 0 0 -1 -1 -2 -1 -3 -1 -5 -17 -3 -23 2 -5 2
-5 3 -10 1 -7 4 -13 6 -19 2 -3 3 -6 3 -6 0 -1 1 -3 2 -4 2 -1 2 -2 2 -3 -1 0
-2 -4 -1 -10 0 -8 0 -10 3 -14 2 -4 4 -6 6 -7 1 0 3 0 4 -1 1 0 3 -5 2 -6 0
-1 0 -1 1 -1 2 1 4 -1 4 -4 0 -3 -1 -3 -4 -5 -6 -2 -6 -5 -3 -9 1 -1 4 -4 6
-7 1 -3 4 -6 5 -7 2 0 3 -2 2 -3 0 -1 1 -1 4 -2 2 0 5 -1 6 -2 1 -1 2 -2 3 -2
2 -1 -1 -5 -7 -9 -6 -5 -10 -10 -8 -10 1 0 2 0 2 1 0 1 5 3 7 3 1 0 2 0 2 1 0
1 1 1 2 1 2 0 1 -3 -1 -3 -2 -1 -3 -4 0 -5 0 0 1 -1 1 -2 0 -2 -3 -6 -5 -6 -2
0 -4 2 -4 4 1 2 -1 1 -3 -1 -1 -1 -2 -1 -4 -1 -2 1 -5 0 -7 0 -2 -2 -3 -2 -3
-5 0 -2 0 -3 2 -3 2 0 2 -1 0 -2 -3 -2 -3 -2 -5 0 -1 2 -2 2 -6 0 -8 -2 -14
-3 -14 -2 0 1 -6 0 -7 -1 0 0 -1 -1 -2 -1 0 0 -1 0 -1 -1 0 0 -1 -2 -3 -4 -3
-3 -3 -3 -3 -11 0 -4 0 -8 1 -8 0 0 2 1 3 2 2 3 4 4 4 2 0 -1 0 -2 -1 -2 0 0
-1 -1 -1 -2 -1 -2 -2 -4 -3 -6 l-3 -4 0 -27 0 -27 77 0 c85 0 78 -1 78 7 0 4
2 8 4 8 0 0 1 0 0 -1 -1 -2 3 0 5 3 1 1 2 3 3 5 0 2 0 4 1 4 0 1 1 3 1 4 1 2
2 3 3 3 2 0 4 0 5 1 1 0 1 0 0 -1 -2 -2 -2 -2 -1 -2 2 0 4 2 3 4 0 0 0 0 1 -1
2 -1 2 -1 1 1 0 1 1 2 5 3 5 1 16 7 16 8 0 1 2 0 3 -1 4 -2 4 -2 4 0 1 1 1 1
1 -1 0 -4 -8 -14 -17 -22 -8 -6 -14 -12 -17 -19 l-2 -3 98 0 98 0 0 29 c0 27
0 29 -2 29 -1 0 -4 1 -7 2 -3 0 -6 1 -7 1 -1 1 -1 1 -1 1 0 0 -2 0 -3 0 -1 1
-3 1 -3 2 -1 1 -1 1 -1 1 0 -1 -1 -1 -1 0 -1 0 -3 1 -5 1 -2 0 -4 1 -5 2 -1 1
-3 2 -4 2 -2 0 -3 2 -4 4 -1 2 -2 3 -4 3 -1 0 -4 1 -6 3 -4 3 -3 6 1 3 1 0 3
-1 4 -1 0 0 2 -1 3 -2 0 -1 2 -2 2 -2 1 0 5 -2 9 -3 7 -4 10 -5 20 -7 3 -1 7
-2 8 -3 6 -4 6 -3 6 13 l0 16 -8 2 c-10 3 -44 6 -47 4 -1 -1 -5 1 -8 4 -4 3
-9 7 -10 7 -1 0 -3 1 -4 3 -1 1 -3 2 -3 2 -1 0 -4 2 -7 5 -7 6 -15 10 -20 11
-2 0 -5 1 -5 2 -1 0 -2 1 -2 0 -1 0 -2 0 -3 0 l-2 1 2 5 c1 3 2 7 2 8 -1 1 0
2 1 3 0 0 2 2 4 4 3 5 6 9 8 9 1 0 1 0 1 1 0 1 1 1 1 0 1 0 1 0 1 1 -1 0 0 2
2 3 3 3 5 6 5 11 1 3 3 7 8 13 10 11 11 13 11 16 0 2 1 3 2 4 3 1 8 6 9 9 1 4
1 5 -1 5 -1 1 -2 2 -2 4 -1 2 0 2 2 3 3 1 3 1 2 3 -3 2 -2 3 0 3 3 -1 4 0 3 3
-1 2 -5 3 -8 1 -2 -1 -3 0 -1 2 1 2 1 2 -1 2 -1 0 -2 0 -2 1 0 1 3 3 5 3 1 0
2 0 2 3 0 1 0 3 1 5 1 2 1 2 -1 3 -1 1 -2 1 -3 1 -3 -1 -4 0 -4 3 1 3 0 3 -2
4 -3 0 -2 2 1 3 2 0 3 3 1 3 -3 0 -3 2 0 3 4 2 6 4 4 6 0 1 -1 2 -1 4 0 1 -1
2 -2 3 -2 1 -3 2 -2 4 0 2 0 4 -1 4 -1 2 -1 3 0 7 1 3 2 6 1 7 0 2 1 3 3 6 3
3 3 3 2 7 -1 2 -1 4 -1 5 1 1 1 2 0 2 0 -1 -1 1 -2 3 -2 3 -4 6 -5 8 -1 2 -2
4 -1 4 0 0 0 1 -1 1 -1 1 -1 2 -1 3 1 1 1 1 0 0 -2 0 -5 4 -3 6 0 1 0 1 -1 0
-1 0 -1 0 -1 1 1 2 1 2 0 1 -1 0 -1 0 -1 1 1 1 1 2 0 2 -1 -1 -7 7 -7 9 -1 3
-6 10 -9 11 -1 1 -4 2 -6 2 -3 1 -4 3 -3 6 1 1 1 2 0 3 -2 2 -6 3 -6 2 0 -2
-3 -1 -4 1 -1 1 -1 1 0 1 1 0 1 0 1 1 -1 1 -1 1 0 1 1 0 1 0 0 2 -1 1 -1 1 0
1 2 0 1 1 -3 6 -2 2 -4 4 -6 4 -1 0 -2 0 -1 1 0 1 -1 1 -1 1 -1 0 -2 0 -2 1 1
1 0 1 0 0 -3 -1 -4 -4 -2 -6 3 -1 2 -3 -3 -3 -3 -1 -5 -2 -6 -3 -2 -2 -3 -1
-3 1 0 2 -2 3 -8 3 -3 0 -5 0 -7 3 -1 2 -3 3 -4 3 -1 0 -3 1 -3 2 -1 1 -5 2
-10 2 -5 1 -9 2 -10 2 0 1 -4 1 -8 1 -6 1 -7 0 -9 -1z m80 -19 c1 -1 1 -2 1
-3 -1 -1 -6 2 -7 5 -1 1 -2 2 -3 2 -1 0 -1 0 1 1 2 1 6 -2 8 -5z m-172 -3 c0
-2 -1 -3 -1 -3 -1 -1 -4 0 -4 2 0 0 0 1 1 1 0 -1 1 0 1 1 1 1 1 2 2 1 2 0 2
-1 1 -2z m172 -6 c0 -2 0 -2 -3 -2 -2 1 -4 1 -4 0 -1 -1 -2 -1 -4 -1 l-2 0 3
2 c4 3 9 4 10 1z m13 -7 c1 1 1 0 1 0 0 -1 1 -3 3 -5 3 -2 3 -3 2 -4 -1 -2 -8
6 -9 10 -1 2 -1 2 0 1 1 -1 2 -2 3 -2z m-24 0 c2 -2 4 -3 6 -1 1 2 4 1 5 -2 1
-3 -2 -4 -6 -2 -2 1 -5 2 -6 2 0 0 -2 1 -3 1 -2 1 -2 1 0 3 2 1 3 1 4 -1z
m-159 -5 c3 0 3 -1 -1 -3 -3 -1 -5 -1 -6 1 -1 1 -1 1 0 2 1 0 2 1 3 0 1 0 3
-1 4 0z m153 0 c4 -1 3 -3 -1 -2 -4 0 -5 1 -4 2 0 1 2 1 5 0z m24 -4 c1 -2 2
-4 2 -5 0 0 1 -2 2 -3 0 -1 1 -2 1 -3 -1 -2 1 -4 7 -4 5 -1 8 -3 5 -4 -2 -1
-9 0 -10 2 -1 0 -2 1 -2 1 -1 0 -6 5 -6 6 0 0 -1 2 -2 3 -3 3 -4 9 -2 9 1 0 3
-1 5 -2z m-115 -7 c2 0 4 -1 5 -1 0 0 1 0 1 -1 0 -1 -2 -1 -3 -1 -1 0 -4 0 -6
0 -3 0 -6 0 -6 1 -1 0 -4 0 -6 1 -3 0 -5 0 -6 1 -1 2 2 3 4 1 1 -1 2 -1 3 0 5
2 9 2 14 -1z m-45 -1 c7 -2 11 -3 11 -5 0 -2 -4 -3 -9 -3 -5 0 -5 0 -5 -2 0
-2 -1 -3 -4 -1 -1 1 -2 2 -2 4 0 2 -2 4 -8 4 -5 1 -3 2 3 3 3 0 6 1 6 1 0 0 4
-1 8 -1z m29 -8 c-2 -2 -4 -2 -6 -1 l-3 0 2 2 c1 0 4 1 7 1 l4 0 -4 -2z m11
-3 c0 0 0 0 -1 -1 0 -1 -1 -2 0 -2 0 0 -1 0 -3 0 -3 0 -4 1 -4 3 1 0 2 1 4 0
2 0 3 -1 4 0z m-15 -1 c1 0 2 -1 2 -2 1 -1 -1 -1 -8 -1 -4 0 -8 1 -8 1 0 1 0
1 -1 1 -1 0 -2 0 -2 1 1 0 8 0 17 0z m156 -16 c0 -2 -2 -2 -5 0 -4 3 -6 5 -6
7 0 2 1 1 6 -2 3 -2 5 -5 5 -5z m-153 3 c4 0 9 -2 7 -3 0 -1 -13 0 -16 1 -4 1
-3 3 1 2 2 0 5 0 8 0z m-55 -5 c0 -2 2 -2 5 -2 5 0 6 -1 3 -7 -1 -2 -2 -3 -2
-2 0 1 0 1 -1 1 0 -1 -1 0 -2 0 -1 1 -2 2 -5 1 -5 0 -12 0 -14 0 -2 1 -3 2 -3
4 0 4 1 5 8 4 4 0 6 0 6 1 1 1 4 1 5 0z m27 -1 c1 -2 -1 -3 -3 -2 -1 0 0 4 2
4 0 0 1 -1 1 -2z m9 -7 c-2 -2 -4 -3 -6 -3 -1 1 -2 0 -3 -1 -1 -2 1 -3 5 -3 4
1 6 0 5 -2 0 -2 -10 -1 -10 1 0 0 -1 1 -2 1 -1 0 -2 1 -2 2 0 0 -1 1 -2 1 -2
0 -3 1 -3 2 0 2 1 2 5 2 5 0 12 2 12 4 0 1 1 1 2 0 2 -1 2 -1 -1 -4z m147 -2
c4 -7 5 -11 5 -21 1 -15 2 -19 4 -24 1 -2 3 -8 3 -12 0 -4 2 -11 2 -16 2 -9 3
-19 2 -24 -1 -2 -2 -8 -3 -13 l-2 -9 -2 3 c-1 2 -3 3 -3 3 -1 0 -1 0 0 1 0 1
-1 1 -2 2 -1 0 -2 1 -2 1 0 2 0 4 -2 5 -2 1 -4 0 -2 -2 1 -1 1 -2 1 -3 -1 -1
0 -3 1 -5 0 -1 1 -4 1 -5 -1 -5 1 -7 3 -4 1 1 3 1 4 2 3 0 3 0 2 -2 0 -2 -1
-5 -2 -9 -1 -4 -2 -8 -3 -11 0 -2 -1 -5 -1 -6 1 0 1 -1 0 -1 -1 -1 -1 -2 -2
-13 0 -4 -1 -7 -3 -9 -2 -4 -3 -3 -7 3 -2 3 -4 5 -5 4 0 0 0 0 1 1 2 3 1 18
-2 24 -3 5 -11 17 -13 18 -1 0 -1 1 -1 2 0 2 -1 3 -3 4 l-2 2 0 -2 c0 -2 0 -4
-1 -5 -1 -1 -1 -1 -3 1 -3 3 -4 3 -8 3 -3 0 -6 0 -7 1 -1 0 -2 -1 -3 -1 -1 -1
-2 -2 -2 -1 -1 1 -2 0 -3 -1 -2 -2 -2 -2 -4 -1 0 1 -1 1 -2 1 0 -1 -2 0 -4 1
-5 2 -5 2 -5 1 1 0 0 -1 -1 0 -2 0 -9 -7 -9 -9 0 -2 6 -4 8 -3 1 1 2 1 2 0 0
0 1 -1 2 0 0 0 1 0 1 -1 0 -1 0 -1 1 -1 0 1 1 0 2 -2 1 -2 1 -2 0 -4 -2 0 -3
-1 -4 -1 -1 0 -2 -1 -3 -1 0 -1 -2 -2 -4 -1 -2 0 -3 -1 -5 -3 -3 -3 -3 -3 -1
-7 1 -3 2 -4 4 -4 1 0 3 0 3 0 0 -1 -1 -2 -2 -2 -1 0 -3 0 -3 -1 -2 -1 -9 -1
-10 0 0 1 1 2 2 4 2 3 2 4 1 6 -2 4 -7 4 -11 0 -2 -2 -5 -3 -7 -4 -2 -1 -4 -3
-5 -4 -1 -1 -2 -2 -4 -1 -4 0 -7 -1 -7 -4 0 -1 -1 -2 -2 -3 -2 -2 -3 -5 -1 -8
1 -1 1 -5 1 -7 1 -3 1 -5 1 -6 1 0 3 2 5 4 5 5 8 7 13 7 2 0 3 1 3 2 0 0 1 1
2 1 0 0 1 0 1 1 0 1 5 3 10 3 4 0 7 -1 12 -3 3 -2 8 -3 10 -4 3 0 5 -1 7 -2 1
-1 3 -2 3 -2 1 1 5 1 8 1 6 1 7 1 7 0 0 -2 -1 -3 -5 -4 -5 0 -4 0 -21 1 l-13
0 -3 -3 c-4 -4 -4 -4 -1 -7 1 -1 2 -2 2 -3 0 -1 -3 -2 -4 -1 -2 2 -3 1 -3 -1
-1 -2 2 -4 3 -2 0 0 2 1 3 1 1 0 3 0 3 0 0 1 7 1 15 1 12 0 15 0 17 1 2 2 4 2
8 1 3 0 7 0 8 0 1 0 3 -1 4 -3 1 -1 2 -2 2 -1 1 0 2 -1 3 -3 1 -2 2 -2 2 -1 1
1 1 1 1 -1 0 -1 -1 -2 -2 -3 -1 0 -4 -1 -6 -3 -4 -3 -9 -5 -13 -5 -1 0 -2 0
-1 1 0 1 0 1 -1 1 -1 0 -1 1 1 1 1 0 1 1 0 1 -1 0 -2 0 -3 -1 -2 -1 -22 -2
-20 -1 1 1 1 1 0 1 0 0 -1 -1 -2 -2 0 0 -2 -1 -4 -1 -2 0 -3 0 -3 1 1 0 -1 1
-4 1 -7 0 -8 0 -8 1 0 1 -1 1 -2 1 -1 0 -2 0 -2 -1 0 -1 2 -2 5 -2 1 0 2 0 2
-1 0 -1 -5 -2 -12 -2 -5 0 -6 0 -11 3 -3 2 -6 4 -6 4 0 0 -1 1 -2 2 -2 1 -2 1
-2 0 1 -1 1 -1 0 0 -1 0 -3 1 -6 0 -3 0 -5 1 -9 4 -3 2 -6 4 -7 5 0 1 0 2 -1
2 0 -1 -8 7 -7 8 0 0 0 1 -1 1 -1 0 -1 1 -1 2 -1 1 -1 2 -1 2 -1 -1 -6 4 -7 6
-1 1 -1 2 0 3 1 0 1 0 1 -1 -1 -1 -1 -1 0 -1 2 0 2 0 1 -1 -1 0 0 -1 1 -2 2
-1 2 -1 1 0 -1 1 -1 2 -1 2 2 0 -1 3 -4 4 -2 1 -3 2 -3 2 -1 0 -1 -1 -1 -3 0
-1 0 -2 1 -1 1 0 1 0 1 -2 -1 -1 0 -2 0 -2 1 0 1 0 1 -1 -1 -1 -1 -1 0 -1 1 0
2 -4 2 -5 0 -1 0 -1 1 -1 1 1 1 0 2 0 0 -1 3 -4 6 -7 4 -3 8 -7 9 -10 l3 -5
-3 -1 c-3 -1 -5 -5 -3 -5 0 0 2 -3 4 -6 3 -6 3 -7 3 -12 -1 -2 -1 -6 -2 -6 0
-2 1 -2 4 -2 2 0 4 0 6 0 1 -1 2 -1 1 1 0 2 4 6 8 6 2 0 6 -3 6 -6 0 -2 -4 -6
-7 -6 -1 0 -3 -2 -3 -4 -1 -3 -3 -6 -5 -8 -1 -1 -2 -2 -2 -3 1 -2 0 -3 -1 -4
-1 -1 -2 -2 -1 -2 0 -1 1 -3 1 -5 0 -10 1 -13 2 -11 1 1 1 1 1 -1 0 -4 -1 -5
-4 -4 -1 0 -1 1 -1 1 1 0 0 1 0 1 -1 1 -2 2 -2 1 -1 0 -1 1 0 2 0 1 0 1 -1 1
0 -1 -1 0 0 2 0 1 0 2 -1 2 -1 -1 -1 0 0 1 1 2 0 3 -2 6 -2 4 -3 4 -5 4 -1 -1
-2 0 -4 1 -1 1 -3 2 -5 3 -2 1 -3 3 -4 5 0 2 -2 5 -4 7 -3 4 -4 6 -4 9 -1 3
-2 6 -3 7 -1 1 -1 4 0 12 0 6 1 12 1 13 1 2 1 7 0 14 -1 7 -1 16 -1 22 0 8 -1
10 -3 15 -2 4 -4 10 -5 15 -1 5 -2 10 -3 11 -1 1 0 2 2 2 4 0 6 2 5 9 -1 14 0
20 2 29 0 1 0 4 0 6 1 2 1 4 1 5 1 0 1 2 1 5 2 9 7 22 12 29 2 1 2 1 2 -2 -1
-1 0 -3 0 -5 1 -2 0 -2 5 10 4 8 4 9 6 12 1 1 3 2 4 2 1 0 2 0 2 1 0 1 1 1 1
1 1 0 2 1 3 1 0 1 2 3 4 4 3 2 4 4 3 4 0 1 0 1 0 1 1 -1 2 0 4 1 3 2 11 2 13
-1 1 -1 1 -1 4 0 2 1 3 1 3 1 0 -1 0 -1 0 1 1 2 1 2 25 2 7 0 11 0 16 2 3 1 7
2 9 2 5 0 10 1 16 5 4 2 4 2 10 1 3 0 6 0 5 0 -1 2 9 7 14 7 2 0 4 1 4 1 0 1
1 1 1 1 1 0 3 -3 4 -6z m-120 3 c-1 -1 -2 -2 -3 -2 0 0 -1 -1 -1 -1 0 -1 0 -2
-1 -2 0 -1 0 -2 0 -3 0 -1 -1 -1 -4 -1 -2 1 -5 1 -6 1 -2 1 -4 1 -6 2 -2 0 -2
0 3 1 6 1 7 1 11 3 7 3 11 4 7 2z m-80 -3 c1 -2 1 -2 0 -3 -2 -1 -6 -1 -7 1 0
0 1 1 2 2 3 1 3 1 5 0z m246 -7 c-1 -1 -3 1 -5 5 0 2 0 2 3 -1 2 -2 3 -3 2 -4z
m-216 3 c0 -1 1 -1 3 -2 3 -1 3 -1 1 -1 -2 -1 -9 1 -10 3 0 1 1 1 3 1 2 0 3 0
3 -1z m10 -23 c-1 -1 -3 -5 -4 -8 -1 -4 -3 -7 -4 -8 -1 -1 -2 -3 -2 -4 0 -1 0
-2 -1 -3 -1 0 -1 -1 0 -1 0 0 0 -1 -1 -1 0 -1 -1 0 -1 2 0 2 0 3 1 3 0 0 0 2
0 4 0 1 0 3 1 3 0 0 1 2 2 5 1 2 2 6 3 7 1 1 2 4 2 5 1 1 2 2 3 3 2 1 3 0 3
-2 0 -1 -1 -3 -2 -5z m-24 -50 c-4 -7 -6 -9 -5 -4 1 1 2 3 2 3 1 0 1 1 1 1 0
1 1 2 2 3 1 1 2 2 2 2 -1 0 -1 1 0 1 0 1 0 1 1 0 0 0 -1 -3 -3 -6z m3 -17 c0
-3 -3 -6 -3 -3 0 2 2 7 3 7 0 0 0 -2 0 -4z m-16 -17 c3 -1 7 -7 5 -7 -1 0 -1
-1 -1 -1 0 -1 -1 -2 -2 -2 -3 -1 -3 -5 1 -5 4 -1 5 1 5 5 0 3 0 3 2 1 1 -1 2
-3 3 -4 2 -3 2 -3 0 -7 -1 -3 -2 -5 -2 -6 0 -2 0 -3 -3 -4 -3 -2 -3 -2 -7 0
-5 2 -9 8 -12 14 0 2 -2 5 -3 6 -2 2 -1 6 2 5 3 -1 6 -1 5 2 0 4 2 5 7 3z
m165 -22 c4 -9 5 -12 5 -15 0 -3 -1 -4 -2 -4 -5 1 -8 2 -7 3 0 1 0 1 -1 1 -1
-1 -2 0 -4 2 -3 3 -3 3 -2 6 1 2 2 4 2 5 0 3 3 7 5 7 1 0 2 -3 4 -5z m-21 -20
c0 -3 -1 -4 -5 -4 -3 -1 -3 -1 -3 1 0 2 1 3 1 3 1 0 1 0 1 1 0 0 0 2 1 3 l0 2
3 -2 c1 -1 2 -3 2 -4z m45 -24 c1 -1 1 -2 0 -2 0 0 -1 0 -2 0 -2 -1 -3 2 -1 3
1 1 3 1 3 -1z m5 -22 c0 -1 0 -2 1 -3 1 0 1 -2 1 -3 -1 -1 -2 -1 -6 -1 -2 1
-5 1 -6 2 -2 2 -1 5 3 5 1 0 3 0 4 1 2 1 4 1 3 -1z m29 -24 c0 -2 -2 -4 -3 -2
-1 1 -1 4 1 4 1 0 1 -1 2 -2z m20 -4 c0 -1 -1 -2 -2 -2 -2 0 -3 1 -1 4 1 3 3
2 3 -2z m-220 -10 c0 -1 -1 -3 -2 -3 -1 0 -1 3 0 5 2 3 3 1 2 -2z m157 -9 c-1
-2 -1 -8 -1 -12 l0 -8 -6 -7 c-3 -3 -6 -6 -8 -7 -1 0 -2 -1 -2 -1 0 -1 -1 -1
-1 -1 -1 0 -2 -1 -3 -2 0 -3 -1 -2 0 1 0 2 1 3 2 3 0 0 1 1 1 3 1 1 2 2 3 2 1
0 2 1 2 2 1 2 2 3 3 4 4 0 6 4 6 9 0 4 0 5 -2 5 -1 1 -1 1 0 3 1 1 1 2 2 3 0
2 0 4 1 7 1 3 1 4 3 2 1 -1 1 -2 0 -6z m-191 -4 c2 -2 1 -4 -1 -4 -2 0 -4 2
-4 4 1 1 3 1 5 0z m37 -4 c-1 -2 -8 -6 -9 -6 -2 2 0 5 4 8 4 2 6 2 5 -2z m-18
-10 c4 -4 13 -12 18 -16 6 -5 14 -12 19 -16 5 -5 11 -11 15 -13 13 -11 17 -16
10 -14 -3 1 -16 12 -28 24 -5 5 -16 14 -23 20 -19 15 -26 23 -21 23 1 0 5 -4
10 -8z m200 3 c0 -5 -3 -10 -4 -8 -1 2 0 10 1 12 2 2 4 0 3 -4z m-178 -5 c1
-3 1 -3 -2 -3 -3 1 -4 2 -3 5 0 2 4 1 5 -2z m88 -16 c0 1 1 1 1 0 1 -1 2 -2 1
-3 0 -1 0 -1 1 -1 0 1 0 0 0 -2 -1 -1 -2 -2 -3 -3 -1 0 -3 -2 -6 -4 -3 -3 -3
-4 -4 -10 0 -6 0 -7 2 -7 2 1 1 0 -1 -2 -1 -1 -2 -1 -2 0 0 1 -1 1 -1 1 -1 0
-2 0 -2 -1 0 -2 -4 -1 -7 1 -2 1 -3 3 -3 4 0 1 -1 3 -2 5 -1 2 -2 4 -2 4 0 3
3 8 5 8 0 1 1 2 1 2 0 2 5 6 8 8 3 1 12 2 13 1 1 -1 1 -1 1 -1z M210 318 c-4
-1 -7 -2 -13 -3 -4 0 -8 -2 -5 -2 1 0 1 0 0 -1 -5 -2 1 -1 7 1 6 2 21 4 22 3
1 0 1 0 0 1 0 1 0 1 1 1 1 -1 2 -1 2 0 0 1 -11 1 -14 0z M169 312 c0 -1 5 -2
6 -1 1 0 1 0 1 -1 0 0 1 -1 2 0 0 0 1 1 0 1 -1 1 -9 2 -9 1z M194 305 c-2 -1
-2 -4 0 -4 1 0 1 0 0 -1 -1 0 -1 -1 0 -1 1 -1 2 3 2 6 0 2 -1 2 -2 0z M236
305 c0 0 -1 -1 -1 -1 -1 0 -3 0 -5 0 -5 -1 -6 -1 -3 -3 2 -2 7 -2 9 0 2 1 3 5
1 5 -1 0 -1 0 -1 -1z M205 303 c-2 -1 -2 -2 -2 -3 1 -3 4 -1 4 2 0 2 0 2 -2 1z
M169 295 c-3 -1 -19 -2 -19 -1 0 0 -3 1 -6 0 -5 0 -7 0 -9 -3 -3 -2 -4 -5 -2
-3 1 0 1 0 1 -1 0 -1 0 -1 1 0 0 0 1 1 3 1 1 0 1 0 1 -2 0 -2 0 -3 1 -3 1 0 3
-4 2 -5 0 -1 -1 -2 -1 -2 -1 0 -3 -1 -4 -2 -2 -2 -5 -4 -7 -4 -2 -1 -6 -3 -8
-5 -2 -1 -6 -2 -7 -2 -4 0 -5 -2 -3 -4 1 -1 2 -1 5 0 2 0 6 2 9 3 7 1 13 1 17
-2 6 -4 9 -11 5 -11 -1 0 -2 0 -3 -1 0 -1 -1 -1 -1 -1 -1 0 -2 0 -3 0 -1 0 -1
0 0 -1 2 0 3 0 5 1 1 0 3 1 5 1 2 -1 3 0 3 0 0 1 1 1 2 0 1 0 0 -1 -3 -4 -3
-1 -5 -3 -6 -3 -2 0 -5 -3 -4 -4 1 0 13 3 13 4 0 0 1 1 2 0 1 0 2 1 4 4 3 5 9
11 13 14 1 1 2 2 2 3 0 0 0 1 1 1 1 0 1 1 1 2 0 2 0 2 2 2 1 -1 3 0 4 1 4 2
10 1 13 -1 3 -2 4 -5 7 -14 1 -3 3 -5 5 -6 1 0 2 -2 3 -2 0 -2 9 -6 10 -6 1 1
3 -2 2 -2 0 -1 0 -1 1 -1 1 0 2 0 2 1 -1 0 1 0 4 0 3 -1 6 0 8 0 1 1 2 1 3 1
0 0 1 0 2 0 2 0 -5 3 -8 3 -2 0 -5 1 -8 2 -2 1 -4 2 -5 2 0 0 -1 2 -1 4 0 3 0
3 3 2 5 -1 6 -1 8 -3 1 -1 3 -2 3 -2 5 2 11 2 17 0 3 -1 6 -2 7 -2 0 1 -1 1
-2 2 -2 3 -3 5 -1 7 1 1 1 1 0 2 -1 2 -1 5 0 7 3 2 3 8 1 9 -1 1 -2 2 -1 2 0
1 0 1 -1 1 0 -1 -1 -1 -1 0 0 1 0 1 -1 0 -1 0 -1 1 -2 1 0 1 -1 2 -1 1 -1 0
-1 1 -1 2 0 1 0 1 -1 0 0 -1 -1 -1 -2 0 -1 1 -1 1 0 2 1 0 0 3 -1 5 -2 2 -7 4
-8 4 0 -1 -2 0 -4 1 -2 0 -4 1 -4 0 -1 0 -3 1 -6 3 -5 2 -9 2 -12 0 -1 -1 -5
-7 -6 -9 0 -2 -2 -3 -2 -1 -1 1 -1 0 -1 -1 0 -1 -1 -3 -3 -3 -2 -1 -3 -2 -3
-3 0 -2 0 -2 -3 0 -2 1 -3 2 -2 4 0 2 -2 4 -3 2 0 0 -1 -1 -2 -1 0 0 -1 0 -1
-1 0 -1 -4 0 -6 1 0 1 -1 3 -1 4 0 1 -1 4 -2 7 -1 3 -2 4 -4 4 -2 0 -4 -1 -5
-1z m-17 -20 c0 -1 -3 -3 -8 -3 -2 -1 -3 -1 -3 0 0 2 3 4 6 4 1 0 2 0 2 1 0 1
1 0 2 0 0 -1 1 -2 1 -2z M164 227 c-5 -6 -6 -7 -6 -8 0 -1 -3 -5 -8 -8 -4 -4
-8 -8 -8 -8 0 -1 -7 -10 -8 -11 -2 -1 -7 -11 -7 -12 0 0 -1 -1 -1 -1 -1 0 -1
0 0 -1 2 -2 6 0 9 4 2 3 6 8 10 12 4 4 8 9 9 10 1 1 3 2 5 3 2 2 3 3 4 7 1 3
2 8 4 10 5 8 3 10 -3 3z M211 228 c0 -2 5 -11 6 -11 1 0 0 4 -1 5 -1 1 -2 3
-3 4 -1 1 -2 2 -2 2z M125 143 c-2 0 -3 -1 -2 -1 6 -1 8 -1 7 0 0 1 -1 1 -2 1
0 -1 -1 0 0 1 0 1 0 1 -3 -1z M144 144 c0 -1 -1 -2 -2 -2 0 0 -1 0 0 1 0 2 -5
1 -6 0 -1 -1 0 -2 2 -2 2 -1 4 -1 5 -1 1 0 3 4 2 4 -1 1 -1 0 -1 0z M117 80
c0 -2 0 -3 2 -3 3 1 4 2 1 4 -2 3 -3 2 -3 -1z M152 408 c-12 -2 -24 -7 -25
-10 0 -1 0 -2 0 -3 -2 -2 0 -2 4 -1 3 1 6 2 8 2 2 0 4 0 6 2 3 3 5 4 10 2 3
-2 3 -2 1 -3 -1 -1 -2 -1 -3 0 -1 0 -1 -1 -1 -2 0 -2 1 -2 5 -2 4 0 5 0 5 2 0
0 0 1 0 1 0 0 0 2 1 4 2 2 2 2 1 1 -1 -1 -2 -1 -2 0 0 0 -1 1 -3 1 -4 0 -6 2
-4 3 2 1 4 3 3 3 0 0 -3 0 -6 0z M319 316 c-1 -3 -1 -8 -1 -10 l-1 -5 2 5 c0
2 1 7 1 10 l0 6 -1 -6z M20 179 c0 -1 1 -4 3 -7 2 -4 3 -8 3 -10 l0 -4 1 4 c1
3 1 4 -3 11 -2 3 -4 6 -4 6z M31 133 c-3 -2 -12 -9 -19 -16 l-12 -12 0 -5 c1
-8 3 -8 12 1 9 8 19 17 25 20 2 1 4 3 4 3 0 0 2 2 4 3 2 2 4 4 4 4 0 1 -3 2
-6 3 l-6 3 -6 -4z M57 131 c-6 -3 -7 -4 -4 -7 1 -1 1 -1 2 0 1 1 2 2 3 2 1 0
2 0 3 1 0 1 0 1 1 1 0 -1 1 0 1 1 0 0 -1 1 -1 1 0 -1 -1 0 -1 0 -1 1 -2 1 -4
1z M45 115 c0 -1 -1 -1 -1 -1 0 1 -1 0 -2 0 -1 -1 -3 -2 -5 -2 -1 0 -2 0 -1
-1 0 -1 -1 -1 -2 -2 -2 -1 -3 -2 -3 -2 0 -1 0 -2 -1 -2 -1 0 -2 0 -2 0 -1 0
-3 -1 -5 0 -2 0 -3 -1 -4 -3 -1 -1 -2 -2 -3 -2 -3 0 -5 -4 -2 -4 0 -1 1 -1 1
-2 -1 0 0 -1 1 -1 0 0 1 1 1 1 0 1 0 1 1 1 0 -1 10 4 13 7 1 1 2 2 1 2 0 1 0
1 1 1 1 -1 12 4 12 5 0 2 0 3 2 4 1 2 0 3 -2 1z"/>
</g>
</svg>
