<?xml version="1.0" standalone="no"?>
<!DOCTYPE svg PUBLIC "-//W3C//DTD SVG 20010904//EN"
 "http://www.w3.org/TR/2001/REC-SVG-20010904/DTD/svg10.dtd">
<svg version="1.0" xmlns="http://www.w3.org/2000/svg"
 width="370.000000pt" height="463.000000pt" viewBox="0 0 370.000000 463.000000"
 preserveAspectRatio="xMidYMid meet">
<metadata>
Created by potrace 1.16, written by Peter Selinger 2001-2019
</metadata>
<g transform="translate(0.000000,463.000000) scale(1.000000,-1.000000)"
fill="#000000" stroke="none">
<path d="M0 384 l0 -79 2 4 c2 2 5 7 7 10 4 5 5 10 11 29 1 6 9 26 13 34 3 8
11 15 23 23 1 0 4 3 7 5 9 8 13 11 16 13 1 1 4 3 7 4 8 6 16 11 20 12 2 1 6 3
8 5 3 2 6 3 8 4 1 0 5 0 7 1 10 2 12 2 15 0 3 -1 3 -1 8 2 7 3 11 4 16 2 2 -1
4 -1 5 -1 3 2 9 1 13 -1 1 -1 4 -2 6 -2 2 0 5 -1 7 -3 3 -1 5 -2 10 -3 8 0 9
0 18 -8 4 -4 8 -7 9 -7 1 1 26 -26 36 -37 3 -4 5 -7 4 -8 0 -1 0 -1 1 0 6 2
23 -20 32 -39 4 -7 4 -9 4 -13 -1 -4 -1 -6 1 -9 1 -4 2 -6 2 -8 -1 -1 -1 -12
-1 -23 -1 -15 0 -21 0 -24 1 -1 2 -7 3 -12 0 -5 1 -9 2 -11 4 -7 2 -18 -6 -29
-3 -5 -5 -9 -5 -9 0 -1 -4 -7 -10 -13 -7 -9 -10 -14 -11 -17 0 -2 -2 -5 -4 -7
-3 -4 -10 -8 -14 -8 -2 0 -3 -1 -9 -11 -4 -7 -5 -9 -3 -9 6 2 9 2 13 0 6 -3
17 -11 21 -17 2 -2 5 -4 6 -4 2 0 7 -2 11 -5 3 -2 5 -3 22 -3 15 -1 22 -1 28
-3 5 -1 10 -2 10 -2 1 0 1 70 1 178 l0 178 -185 0 -185 0 0 -79z M169 448 c0
-1 0 -1 -1 -1 -1 0 -1 -1 -1 -2 0 -1 0 -2 -1 -2 -1 0 -1 -1 -1 -1 0 -2 5 -1 7
0 1 1 1 3 0 2 -1 0 -1 0 -1 1 0 3 0 4 -2 4 0 0 -1 0 0 -1z M184 448 c0 -1 0
-3 0 -4 0 -2 0 -3 2 -3 1 0 2 -1 1 -1 -2 -4 0 -5 6 -5 2 1 4 0 4 0 0 -1 1 -1
2 -1 3 0 3 0 2 4 0 5 -3 8 -6 8 -2 1 -3 0 -3 0 1 0 0 -1 0 -1 -1 -1 -2 -1 -3
1 -1 3 -4 4 -5 2z M146 446 c-2 -1 -3 -3 -3 -3 0 -1 0 -1 1 -1 1 1 1 0 0 0 0
-1 0 -2 1 -2 1 0 1 0 1 -1 -1 -1 1 -2 4 -3 3 0 7 2 7 4 0 1 0 1 -1 0 0 -1 -1
-1 -2 -1 -1 1 -3 7 -2 8 0 2 -2 1 -6 -1z M114 439 c-1 -1 -2 -3 -2 -3 0 0 1
-1 1 -2 1 -1 1 0 3 2 2 5 0 8 -2 3z M220 434 c-1 -3 0 -6 2 -6 0 0 1 -1 1 -1
0 -1 1 -2 2 -2 1 0 1 0 0 2 -1 1 -1 1 1 1 3 0 3 2 0 5 -2 1 -2 1 -4 -1 -1 -1
-1 -1 -1 1 1 4 -1 4 -1 1z M232 425 c1 0 0 -1 0 -1 -1 -1 -1 -2 0 -5 l2 -3 1
2 c1 4 1 6 -1 7 -1 1 -2 1 -2 0z M167 422 c-4 -2 -4 -2 1 -2 6 0 10 -1 10 -3
1 -1 0 -2 0 -2 -1 0 0 -1 0 -2 1 -1 3 -2 4 -2 2 1 4 0 4 -1 0 -2 -3 -3 -8 -5
-1 0 -3 -1 -4 -2 -2 -3 2 -3 7 0 2 1 7 2 11 3 3 0 6 0 7 0 0 1 1 0 2 0 1 -1 1
-1 0 -4 -2 -3 -2 -3 0 -2 2 0 14 2 16 1 0 0 1 -1 0 -2 0 -1 0 -1 2 -1 2 0 3
-1 4 -5 0 -3 -2 -6 -4 -5 0 1 -1 0 -2 0 -4 -2 -12 -3 -16 -2 -3 1 -5 1 -6 1 0
0 -1 0 -1 1 0 1 -1 1 -1 0 -2 -1 -5 -1 -8 0 -2 1 -2 2 -2 5 1 3 0 5 -3 3 -1 0
-3 -1 -5 -1 -5 -1 -13 -3 -14 -4 0 -1 1 -1 2 -1 1 0 2 0 3 0 1 -1 2 -1 3 -1 0
0 1 -1 1 -1 0 -1 -2 -2 -7 -3 -6 -1 -6 -1 -8 1 -1 1 -3 2 -4 2 -1 0 -2 1 -3 2
0 1 -1 1 -4 0 -3 0 -5 -1 -5 -2 -2 -2 -7 -2 -15 -1 -4 1 -6 2 -6 3 0 0 0 1 -1
1 -2 0 0 -5 2 -6 1 -1 3 -2 5 -4 1 -1 3 -2 3 -1 1 0 1 -1 1 -1 1 -2 -4 -2 -10
-1 -4 1 -5 2 -6 4 0 2 -1 2 -4 2 -6 0 -5 0 -10 0 -3 -1 -4 -1 -4 0 0 2 6 5 11
6 4 0 5 2 1 5 -2 1 -2 1 -5 -1 -2 0 -3 -1 -3 0 1 0 -1 1 -3 1 -2 0 -4 -1 -3
-1 0 0 -1 -2 -3 -3 -3 -2 -5 -2 -10 -2 -6 0 -6 0 -6 1 0 2 0 3 2 3 3 0 5 3 4
4 -1 1 -1 2 -1 3 0 2 0 2 1 1 1 -1 1 -1 1 0 0 1 -1 1 -2 2 -2 0 -3 2 -1 2 2 0
5 1 5 3 0 2 -1 2 -5 0 -3 -1 -4 -1 -7 0 -4 1 -7 0 -9 -4 0 -1 -2 -2 -3 -3 -1
0 -13 -17 -15 -22 -1 -2 -2 -5 -2 -7 -1 -3 -2 -6 -3 -9 -2 -2 -4 -9 -5 -13 -2
-5 -4 -12 -5 -15 -2 -5 -2 -5 -1 -7 4 -3 2 -9 -2 -9 -1 0 -3 -1 -4 -1 -2 -2
-9 -12 -9 -13 0 -1 -1 -4 -2 -7 -2 -3 -3 -7 -2 -8 0 -1 0 -3 0 -5 1 -2 2 -5 3
-7 3 -2 3 -3 2 -9 -1 -6 -1 -13 -1 -19 0 -1 1 -2 1 -1 0 0 2 -5 3 -11 3 -9 8
-22 11 -26 1 -1 1 -2 0 -4 0 -2 -1 -3 0 -3 0 0 1 -3 1 -8 0 -6 0 -8 3 -13 3
-5 3 -6 7 -6 4 -1 4 -1 4 -4 0 -3 0 -3 -2 -3 0 1 -1 1 0 0 0 -1 1 -1 1 -1 2 1
7 -2 7 -4 0 -2 -2 -4 -5 -4 -1 0 -2 -1 -3 -3 -2 -3 -2 -3 0 -5 1 -2 3 -5 5 -8
5 -8 11 -13 13 -13 2 0 3 0 4 -1 0 0 -1 -1 -3 -1 -5 0 -8 -3 -7 -5 0 -3 3 -3
4 -1 1 0 3 1 3 1 1 0 3 1 3 2 2 1 2 1 3 0 2 -2 0 -4 -5 -8 -6 -5 -11 -11 -9
-11 1 0 2 1 3 1 1 2 5 4 7 4 1 0 2 0 3 1 0 1 1 1 1 0 1 0 1 -1 0 -1 0 -1 -1
-1 -1 -1 0 1 -1 0 -2 -1 0 -2 0 -3 2 -4 1 -1 1 -1 0 -4 -2 -4 -8 -4 -7 0 0 2
-3 1 -4 -1 -1 -1 -2 -1 -4 -1 -4 1 -10 -1 -10 -4 0 -2 0 -3 1 -4 1 -1 1 -2 0
-3 -2 -1 -4 -1 -4 2 0 1 -3 1 -10 -1 -5 -2 -8 -2 -11 -1 -3 1 -10 -3 -13 -8
-2 -3 -2 -5 -2 -11 0 -5 0 -8 1 -8 1 0 1 1 2 1 0 2 3 2 3 0 0 -1 -4 -9 -5 -9
-1 -1 -1 -11 -1 -29 l0 -27 78 0 79 0 0 4 c0 5 1 6 5 9 4 3 9 9 9 12 0 1 1 3
3 4 2 1 5 3 8 5 2 1 5 3 6 3 0 0 3 1 7 3 3 1 6 2 8 2 1 -1 2 0 2 0 0 1 1 1 2
1 1 0 2 1 2 2 1 1 1 0 1 -2 0 -2 -1 -3 -2 -5 -1 -1 -3 -3 -4 -4 -4 -5 -9 -10
-15 -14 -6 -4 -10 -9 -14 -17 l-1 -3 98 0 98 0 0 29 0 29 -4 1 c-3 0 -7 1 -10
2 -3 1 -6 2 -6 1 -1 0 -1 0 -1 1 0 1 0 1 -1 1 0 -1 -1 -1 -1 0 0 1 -3 1 -6 2
-2 0 -5 1 -6 2 -1 1 -3 2 -4 2 -2 0 -3 2 -4 4 -1 2 -2 3 -4 3 -3 0 -7 3 -7 5
0 2 6 0 9 -2 1 -1 2 -2 2 -2 1 0 5 -2 9 -3 7 -4 10 -5 20 -7 3 -1 7 -2 8 -3 1
-1 3 -1 3 -1 1 0 1 0 1 -1 0 -1 0 -1 1 0 1 0 1 6 1 15 l0 16 -8 2 c-8 2 -21 4
-38 4 -12 0 -14 1 -18 5 -4 4 -15 11 -17 11 0 0 -1 0 -1 1 0 1 -11 9 -16 12
-2 1 -5 2 -6 2 -2 1 -5 1 -6 2 -2 1 -4 1 -5 1 -3 1 -3 2 -2 6 1 3 2 6 2 7 0 1
1 3 3 5 2 2 3 4 3 5 0 0 1 2 3 4 2 1 4 3 5 4 0 0 1 1 1 1 1 -1 7 8 8 12 1 3 3
7 6 11 13 16 14 18 14 21 0 2 0 3 1 3 1 -1 10 9 10 11 0 1 0 3 1 4 0 1 0 1 -1
1 -2 -1 -2 0 -3 2 -1 3 -1 3 2 3 3 0 5 3 3 4 -1 1 -1 1 1 2 1 1 1 1 0 3 -1 3
-4 4 -6 2 -3 -1 -3 -1 -3 1 0 0 0 1 1 1 1 0 1 0 1 1 0 1 0 1 -1 1 -2 0 -3 0
-3 1 0 1 1 1 2 1 4 0 5 2 4 4 -1 2 -1 3 1 4 2 2 1 5 -2 5 -6 0 -8 2 -4 4 1 1
1 2 0 3 0 1 0 2 -1 3 0 2 0 3 0 4 0 1 0 1 1 1 2 0 3 5 2 9 -1 2 -2 4 -2 4 -1
1 0 2 0 4 2 3 2 4 -2 6 -2 1 -2 2 -1 4 0 2 1 4 1 5 1 1 1 3 0 4 -1 2 1 5 3 4
1 0 1 0 0 1 -1 2 0 3 2 2 1 0 1 1 0 4 0 1 -1 3 -1 5 0 2 -1 4 -2 5 -1 2 -8 16
-8 18 0 0 -1 1 -2 1 0 1 -1 1 -1 2 1 0 0 1 -1 1 0 1 -1 1 -1 2 1 1 1 1 0 1 -1
0 -1 0 0 1 0 1 0 1 -1 1 -1 0 -1 0 -1 1 1 0 0 1 -1 2 -3 2 -6 7 -6 10 0 1 -11
13 -13 13 -2 0 -4 2 -3 4 0 2 -7 11 -9 10 0 0 -1 1 -1 1 1 1 -7 12 -12 14 -2
1 -4 0 -5 -3 -1 -3 -2 -3 -9 -3 -13 -1 -14 -1 -17 2 -2 1 -4 2 -4 2 -1 0 -2 1
-3 2 -1 1 -5 2 -9 2 -3 1 -8 2 -9 2 -5 2 -16 2 -19 0z m76 -17 c6 -4 6 -6 2
-4 -2 1 -3 2 -3 3 -1 1 -2 2 -3 3 -1 0 -2 1 -1 1 1 0 3 -1 5 -3z m4 -11 c0 -1
-1 -1 -4 -1 -1 0 -3 0 -4 -1 0 -1 -1 -1 -3 -1 -2 0 -2 0 2 3 4 2 9 2 9 0z
m-18 -2 c2 -1 1 -4 -2 -5 -1 -1 -2 0 -2 2 0 2 2 5 3 5 0 0 1 -1 1 -2z m8 -6
c1 -1 1 -1 4 0 3 1 4 1 5 -1 3 -4 0 -6 -5 -3 -1 1 -3 2 -5 2 -3 0 -5 1 -5 3 0
2 5 1 6 -1z m16 -9 c2 -1 3 -3 3 -3 -1 0 0 -2 1 -3 1 -1 2 -3 2 -4 -1 -2 1 -4
6 -5 6 -1 8 -3 3 -3 -4 0 -12 5 -15 9 -1 2 -3 4 -3 4 -2 1 -2 8 -1 8 0 0 2 -1
4 -3z m-115 -6 c1 0 3 -1 4 -1 1 0 2 0 2 -1 0 -1 -13 -1 -15 0 0 1 -1 1 -2 1
-2 -1 -9 0 -9 2 0 1 1 1 3 0 2 -1 3 -1 4 0 3 2 9 2 13 -1z m-43 -2 c3 0 6 -1
7 -2 2 -2 2 -2 1 -4 -2 -1 -4 -1 -7 -1 -5 1 -8 0 -6 -2 1 -1 1 -1 -1 -1 -3 0
-4 1 -3 2 0 0 0 1 -1 3 -1 1 -3 2 -5 3 -2 1 -4 2 -3 2 1 1 9 2 12 1 0 0 3 0 6
-1z m26 -8 c0 -1 -1 -1 -2 -1 -2 1 -3 1 -4 1 -3 0 1 2 4 2 2 0 3 0 2 -2z m-3
-4 c1 -1 2 -1 2 0 1 0 1 0 1 -1 0 -1 -2 -1 -8 -1 -6 0 -10 2 -10 3 0 1 14 0
15 -1z m151 -10 c1 -1 2 -3 3 -3 1 -1 2 -2 1 -2 -1 -1 -8 4 -8 6 -1 2 0 2 4
-1z m-202 -7 c0 -1 2 -2 5 -2 3 0 4 -1 4 -3 0 -1 -1 -3 -2 -4 -2 -2 -2 -2 -4
-1 -1 1 -2 2 -5 1 -6 0 -12 -1 -14 0 -1 0 -1 0 -1 -2 0 -1 -1 -2 -2 -2 -3 0
-4 0 -4 1 0 0 1 1 3 2 2 1 2 1 1 4 0 5 1 6 8 5 4 0 6 0 6 1 1 1 4 1 5 0z m38
-5 c0 -1 -5 -5 -7 -6 -1 0 -2 0 -3 1 0 1 -1 1 -1 0 -1 0 -3 -1 -5 -1 -4 -1 -4
-1 -4 1 0 1 2 2 6 2 3 0 6 1 8 2 4 2 5 2 6 1z m145 -3 c1 -3 1 -4 0 -4 -1 0
-2 -2 -2 -4 -1 -4 0 -4 2 -5 3 -1 3 -1 3 -14 1 -6 3 -16 6 -22 1 -2 2 -7 3
-11 0 -4 1 -8 1 -9 1 -1 2 -13 2 -22 0 -6 0 -10 -1 -14 -1 -3 -2 -6 -2 -6 0 0
-1 -1 -2 -1 -2 -1 -7 1 -7 2 1 2 -5 6 -6 5 -1 -1 0 -2 1 -3 0 -1 1 -3 1 -4 -2
-5 -2 -9 -1 -10 1 0 1 -1 1 -2 0 -2 4 -6 6 -5 0 0 1 1 1 2 0 2 1 3 4 4 1 0 1
-1 0 -2 -1 -1 -1 -3 -2 -5 -1 -7 -2 -9 -3 -9 -1 0 -1 -1 0 -1 2 -2 2 -2 1 -2
-1 0 -3 2 -4 5 -1 3 -3 6 -4 6 0 1 -1 2 -1 2 0 3 -4 2 -7 -1 -2 -3 -3 -4 -1
-7 1 -2 1 -2 0 -3 -2 -1 -3 0 -4 3 0 1 -3 5 -6 9 -4 3 -7 7 -7 8 0 1 0 2 -1 2
0 -1 -1 0 -2 1 -1 1 -2 1 -2 -2 0 -2 -3 -5 -3 -3 0 0 -1 1 -2 2 -1 0 -2 1 -1
1 0 1 -2 1 -5 1 -3 0 -5 0 -6 0 0 1 -6 -1 -6 -2 0 -1 -1 -1 -1 0 -2 1 -2 1 -2
0 0 -2 -7 -1 -10 1 -4 2 -8 1 -13 -4 -4 -4 -4 -4 -2 -6 1 -1 4 -2 7 -3 3 -1 6
-3 7 -4 2 -2 2 -2 -2 -3 -2 -1 -4 -1 -5 -2 0 -1 -1 -1 -3 -1 -2 0 -4 -1 -6 -3
-3 -3 -7 -4 -6 -1 0 2 -7 0 -10 -3 -1 -1 -4 -2 -6 -3 -4 0 -6 -2 -6 -4 0 -2
-1 -3 -3 -2 -1 1 -1 1 0 3 1 1 2 4 3 6 1 2 3 4 3 4 1 0 1 0 1 1 0 1 18 19 19
19 2 0 4 3 4 7 0 1 1 5 3 7 1 2 2 6 3 7 1 1 2 2 2 2 1 0 1 0 1 1 -1 1 -6 -1
-9 -5 -1 -1 -3 -4 -4 -5 -5 -6 -10 -12 -14 -14 -1 -1 -3 -3 -3 -4 0 -1 -1 -2
-1 -3 -2 -1 -11 -12 -12 -14 0 -1 -1 -2 -1 -2 0 0 -1 -1 -1 -2 -1 -1 -1 -2 -1
-3 -1 -2 -1 -2 0 -2 1 0 2 0 2 -1 -2 -4 -6 -11 -7 -11 0 -1 -1 -2 0 -4 0 -2 0
-7 0 -10 0 -9 2 -9 10 -2 3 3 7 6 10 6 2 1 6 3 8 5 3 3 4 3 9 3 5 0 7 0 8 -2
1 -1 2 -2 2 -2 -1 0 1 -1 3 -1 9 0 13 -1 15 -2 1 -1 2 -2 1 -1 -1 0 -1 0 0 -1
0 -2 1 -2 3 -1 3 1 11 1 13 0 1 0 0 -1 -4 -2 -5 -2 -11 -1 -16 0 -2 1 -5 1 -7
1 -4 0 -4 0 -2 1 1 1 0 1 -3 0 -9 -1 -13 -3 -14 -9 0 -2 1 -3 3 -5 1 -2 2 -3
1 -3 -1 1 -2 1 -3 2 -1 0 -2 1 -3 3 0 2 0 2 -1 1 l0 -2 -1 2 c-1 1 -1 1 -1 -1
0 -2 0 -2 -2 -2 -1 1 -1 1 0 0 1 -1 2 -2 2 -1 2 0 4 -2 4 -3 0 -1 1 -2 2 -2 1
0 2 0 2 1 0 1 1 1 3 0 2 0 3 0 3 1 1 1 6 1 16 1 9 0 15 0 15 1 3 2 15 0 19 -2
1 -1 3 -3 4 -4 0 -3 -3 -8 -7 -10 -3 -1 -13 -2 -9 0 1 1 1 1 -1 0 -5 -1 -16
-2 -18 -1 -2 1 -4 1 -5 0 -2 -1 -4 -1 -7 -1 -2 1 -6 1 -8 1 -3 0 -5 1 -5 1 0
1 -1 1 -2 1 -1 0 -2 0 -2 -1 0 -1 -3 -3 -7 -3 -2 -1 -4 0 -9 3 -7 5 -16 8 -19
7 -1 0 -2 0 -3 2 -1 4 -1 8 0 8 0 -1 1 1 1 2 -1 4 -3 4 -4 1 -1 0 -3 -1 -5 -2
-3 0 -4 0 -7 4 -2 2 -5 4 -5 6 -3 6 -6 9 -10 11 -4 2 -5 4 -9 12 -3 5 -5 12
-6 14 0 2 -1 5 -1 6 -1 1 -1 1 0 1 1 -1 1 -1 1 0 0 1 0 2 -1 2 0 0 -1 1 -1 2
0 1 1 2 1 1 0 0 1 2 3 4 2 4 2 5 2 15 0 15 5 44 9 53 1 2 2 4 2 5 0 1 0 1 1 1
1 0 1 1 1 1 0 1 1 2 2 2 2 0 2 -2 1 -4 -2 -1 -1 -3 1 -3 1 0 1 0 0 1 0 0 0 1
1 4 1 2 3 6 4 9 4 9 4 10 7 13 1 1 3 2 4 2 0 0 1 0 1 1 0 1 1 1 1 1 1 0 4 2 6
4 6 5 9 7 15 8 5 0 5 0 4 -1 -2 -2 -2 -2 2 -2 2 0 4 1 5 1 1 1 1 1 1 0 0 -1 0
-1 1 0 1 1 2 2 1 2 0 1 3 1 7 1 5 0 7 0 7 -1 0 -1 0 -1 1 0 0 2 2 1 2 -1 -1
-1 0 -2 2 -2 2 1 3 0 3 0 0 -1 2 -1 4 -1 1 0 3 -1 3 -1 0 -1 2 -1 3 0 1 1 1 1
-3 2 -2 0 -5 1 -7 2 -2 0 -3 1 -4 1 0 1 0 1 1 1 3 -1 11 -2 11 -1 -1 1 12 0
13 -2 1 -1 1 -1 -1 -2 -2 -1 -2 -1 2 0 2 0 6 1 8 2 3 1 12 3 22 3 4 1 7 3 3 3
-5 0 -11 0 -16 -1 -7 -2 -6 0 2 3 3 2 8 2 11 3 3 0 7 0 10 2 3 1 5 2 6 2 1 0
1 0 1 1 -1 0 -1 1 0 1 1 0 1 1 1 3 1 1 1 1 3 1 2 0 3 0 3 1 0 3 3 0 5 -3z
m-126 -4 c0 -4 -1 -4 -4 -3 -2 2 -3 3 0 4 3 2 4 1 4 -1z m-21 -4 c0 -2 -3 -2
-6 -1 l-2 2 4 0 c2 0 4 0 4 -1z m-11 -16 c-2 -4 -8 -18 -9 -18 -1 0 -1 -1 0
-1 0 -1 0 -1 -1 -1 0 1 -1 1 -1 0 0 -1 0 -1 -1 0 -1 1 -1 1 0 2 0 0 1 1 0 1
-1 3 8 19 11 19 1 0 1 -1 1 -2z m-36 -91 c1 -2 1 -8 -1 -7 0 0 -1 -1 -1 -1 0
-1 0 -1 -1 0 -1 1 -1 1 -1 -1 -1 -2 0 -4 4 -4 2 -1 3 0 4 1 2 3 4 2 6 0 1 -2
1 -3 -1 -8 -3 -10 -8 -11 -16 -3 -5 5 -11 16 -9 19 0 1 1 1 1 0 0 -1 1 -1 4 0
2 1 3 2 2 4 0 2 0 3 3 2 2 0 5 -1 6 -2z m162 -21 c1 -4 3 -7 3 -7 0 0 0 -1 0
-2 1 0 1 -2 1 -4 1 -2 1 -3 -1 -2 0 0 -1 0 -1 -1 0 -2 0 -2 -4 1 -2 1 -4 2 -4
1 0 0 -1 1 -2 2 -3 1 -4 5 -2 6 0 1 1 3 2 5 1 9 4 9 8 1z m24 -17 c0 -2 0 -4
1 -5 1 -2 1 -2 -1 -3 -1 0 -2 -1 -2 -3 0 -2 0 -2 1 -1 0 2 1 2 2 -1 1 -2 1 -2
0 -3 -1 0 -1 -1 0 -2 1 -1 1 -2 1 -3 -1 0 -1 1 -2 3 -1 2 -2 3 -2 3 -2 0 -2 3
0 7 1 4 1 4 0 6 -1 0 -2 1 -1 3 0 3 2 2 3 -1z m-46 0 c1 -2 1 -2 0 -4 -4 -4
-7 -2 -5 3 1 4 2 4 5 1z m-29 -3 c0 1 1 0 2 0 0 -1 0 -1 0 -1 -1 1 -2 0 -3 -1
-2 -2 -8 -2 -10 -1 0 1 1 2 3 4 l3 3 2 -2 c1 -1 2 -2 3 -2z m-81 -23 c2 -3 4
-7 4 -8 3 -5 11 -22 11 -24 0 -2 4 -9 6 -11 2 -2 3 -6 1 -8 -1 0 -1 -1 0 -2 0
-2 -1 -3 -2 -4 -2 -2 -2 -2 -3 0 -1 2 -3 3 -4 3 -2 0 -3 1 -3 4 0 2 -1 5 -2 6
-1 1 -2 2 -2 3 0 1 -5 10 -6 11 -1 1 -1 2 -1 3 0 2 -1 4 -2 5 0 2 -1 4 -1 5 1
1 0 2 0 2 0 0 -1 1 -1 3 0 2 0 6 -1 9 -1 6 0 11 2 9 1 -1 3 -4 4 -6z m161 -25
c1 -1 0 -4 -2 -4 -3 0 -8 3 -8 5 0 1 1 1 3 1 1 -1 2 0 2 0 0 1 3 0 5 -2z
m-164 -12 c0 -4 0 -6 -1 -6 -1 0 -1 1 -1 3 1 1 0 3 0 4 -1 2 -1 5 1 5 1 0 1
-3 1 -6z m193 -9 c0 -2 -2 -4 -3 -2 -1 1 -1 4 1 4 1 0 1 -1 2 -2z m-194 -2 c1
-1 1 -3 0 -4 -1 -2 -1 -2 -1 0 0 1 -1 2 -1 3 -1 1 -1 3 1 3 0 0 1 -1 1 -2z
m53 -13 c0 -2 -6 -6 -8 -6 -2 0 -2 0 -1 1 2 0 2 1 1 1 -2 2 -1 5 2 7 2 2 2 2
4 0 1 -1 2 -2 2 -3z m-48 -6 c2 -2 2 -3 1 -3 -3 0 -5 5 -4 8 0 2 0 2 1 -1 1
-1 2 -3 2 -4z m16 1 c-1 -2 -2 -4 -2 -4 0 -3 -4 -2 -5 0 0 3 2 7 6 9 2 1 3 -1
1 -5z m129 -12 l0 -11 -6 -6 c-4 -4 -8 -8 -10 -9 -2 -1 -4 -2 -4 -3 -1 -2 -1
-2 -1 -1 0 1 1 3 2 4 1 1 2 3 3 4 1 1 2 2 2 2 1 0 2 1 2 2 1 2 2 3 3 4 5 1 6
3 6 9 0 4 0 5 -2 6 -1 0 -1 1 0 2 1 1 2 2 2 3 0 2 2 5 2 5 0 0 1 -5 1 -11z
m-190 5 c2 -2 1 -4 -1 -4 -2 0 -4 2 -4 4 1 1 3 1 5 0z m37 -2 c0 -2 -7 -8 -8
-7 -2 1 -1 3 2 6 3 2 6 3 6 1z m-20 -11 c4 -4 13 -11 19 -16 6 -5 16 -13 21
-18 4 -5 12 -12 17 -15 8 -7 11 -11 9 -11 -2 0 -5 2 -8 5 -8 6 -17 14 -24 21
-4 3 -14 12 -21 18 -19 15 -26 23 -21 23 1 0 4 -3 8 -7z m203 5 c1 -2 -2 -10
-4 -10 -1 -1 -1 0 -1 4 1 3 1 6 1 7 1 1 3 1 4 -1z m-142 -24 c0 -4 -1 -5 -4
-4 -1 0 -1 1 0 1 0 0 0 1 -1 1 -1 1 -1 1 1 1 2 -1 3 0 3 1 0 1 0 2 1 2 0 0 0
-1 0 -2z m49 -1 c3 -1 3 -1 3 1 -1 1 -1 1 0 0 2 -1 2 -2 1 -3 -1 -1 -2 -2 -2
-1 0 0 -2 -1 -4 -2 -2 -2 -10 -15 -10 -18 0 -2 -4 -5 -6 -5 -1 0 -2 0 -2 1 0
1 -1 3 -2 5 -1 2 -1 4 0 6 1 2 2 4 2 4 0 0 3 2 7 4 3 2 6 4 7 4 0 0 1 1 0 2 0
2 -1 2 -3 2 -3 -1 -3 0 0 1 4 1 6 1 9 -1z M234 314 c0 -1 1 -2 2 -2 0 0 1 0 2
0 0 -1 1 0 1 0 1 1 1 1 1 0 0 -1 5 -1 5 0 0 1 -4 2 -6 1 -1 0 -1 0 -1 1 0 1
-1 1 -2 1 -1 0 -2 -1 -2 -1z M193 305 c-2 -1 -2 -2 0 -4 0 -2 1 -3 0 -3 0 -1
0 -1 1 -1 1 0 2 3 2 7 0 3 -1 4 -3 1z M234 305 c-1 0 -3 -1 -5 -2 -2 0 -4 0
-4 0 -1 -2 3 -4 6 -4 3 -1 4 0 6 2 4 4 2 7 -3 4z M205 303 c-3 -3 -3 -5 0 -5
1 0 3 3 3 6 0 1 -1 1 -3 -1z M169 295 c-2 -1 -5 -2 -6 -1 -2 0 -9 0 -15 0
l-12 1 -3 -4 c-1 -1 -3 -3 -3 -3 0 1 -1 0 -1 0 0 -1 2 -1 3 -1 2 0 3 0 3 0 0
0 1 1 2 1 2 1 3 -1 1 -2 -1 -1 -1 -3 -1 -5 0 -4 0 -4 -7 -10 -7 -6 -13 -8 -15
-7 -1 0 -2 0 -2 -1 -1 -1 -2 -1 -2 0 -1 0 -1 -1 -1 -2 1 -4 3 -4 17 1 4 1 6 1
9 0 4 -1 9 -5 9 -8 0 -1 0 -2 1 -2 1 0 1 -3 -1 -4 -3 0 -8 -1 -8 -2 0 0 2 -1
4 0 8 0 12 0 12 -1 0 -1 -2 -2 -5 -4 -8 -3 -6 -6 2 -2 2 0 4 1 4 1 1 0 1 0 1
0 0 0 1 0 2 0 3 1 5 3 5 5 0 1 17 19 21 21 2 1 5 2 8 3 6 0 9 -2 12 -9 3 -10
5 -13 6 -13 1 0 2 -1 3 -2 1 -1 4 -3 7 -5 3 -1 6 -3 6 -4 1 -1 1 -1 2 0 1 1 3
1 6 0 5 0 13 2 13 3 0 1 -2 2 -4 2 -10 1 -12 1 -16 5 -4 4 -4 7 1 5 1 -1 3 -2
4 -3 2 -1 4 -1 11 -1 6 0 10 0 13 -2 6 -1 7 -1 4 1 -1 2 -1 3 0 6 1 2 1 3 0 5
-1 1 -1 2 0 4 1 3 2 9 1 9 0 0 -1 1 -1 2 -1 2 -3 4 -5 5 -2 1 -4 3 -5 4 -1 5
-9 9 -17 9 -2 1 -4 1 -4 1 -1 0 -1 1 0 1 0 1 0 1 0 1 -1 -1 -3 0 -5 1 -6 2
-10 1 -13 -5 -1 -2 -3 -5 -4 -5 -2 -1 -4 -2 -6 -3 -5 -4 -8 -2 -7 5 0 1 0 1
-1 0 -1 -1 -2 -2 -2 -2 0 -2 -5 -1 -8 1 -1 1 -3 3 -4 6 -2 7 -3 7 -9 4z m-20
-20 c0 -1 -3 -3 -6 -3 -3 0 -3 1 0 3 3 1 6 1 6 0z M211 228 c0 -3 5 -11 7 -11
1 0 0 3 -2 5 -1 1 -2 3 -3 4 -1 1 -2 2 -2 2z M244 223 c1 0 0 -1 -1 -1 0 -1
-1 -1 0 -2 0 -1 1 -1 1 0 1 0 1 -1 1 -2 0 -1 0 -1 2 0 1 2 1 3 0 3 -1 1 -1 1
0 1 1 0 1 1 -1 1 -1 1 -2 0 -2 0z M125 143 c-2 0 -3 -1 -2 -1 1 0 1 0 -1 -2
-1 -1 -1 -1 1 0 2 1 4 1 4 0 1 0 1 0 1 1 0 0 1 1 3 1 2 0 4 1 3 2 -1 0 -2 0
-2 -1 -1 -1 -2 -1 -2 0 0 1 -2 2 -5 0z M141 144 c-2 0 -4 -1 -5 -1 -1 -1 0 -2
3 -3 4 -1 6 -1 6 2 1 2 0 3 -4 2z M85 412 c-1 -1 -2 -3 -2 -5 0 -1 0 -2 1 -1
0 1 1 2 1 2 1 0 2 1 2 2 1 2 2 3 2 2 1 0 1 0 1 1 -2 1 -4 1 -5 -1z M145 407
c-12 -4 -17 -6 -18 -9 -1 -2 -1 -4 -1 -4 0 -1 3 -1 5 0 0 1 3 1 6 1 4 1 6 2 8
3 1 2 4 3 5 3 2 0 7 -2 7 -3 0 -1 -3 -2 -4 -1 -1 0 -1 -1 -1 -2 0 -2 1 -2 5
-2 5 0 6 0 6 4 0 2 1 3 1 3 1 0 1 0 1 1 0 0 -1 1 -2 1 -3 0 -9 1 -9 2 0 0 2 1
5 3 l5 2 -6 0 c-3 0 -9 -1 -13 -2z M120 407 c-1 -1 -4 -2 -6 -2 -3 -1 -5 -2
-6 -4 -1 -2 -1 -2 1 -1 1 0 2 0 2 -1 0 -1 1 0 3 2 1 2 4 3 4 3 1 0 3 1 5 2 3
2 1 3 -3 1z M0 172 c0 -71 0 -82 1 -82 1 0 2 1 3 2 3 5 24 24 33 29 4 3 8 6
12 10 l3 3 -6 2 c-3 1 -7 2 -7 3 -1 1 -4 5 -7 9 l-4 8 1 5 1 5 -5 9 c-7 12 -9
16 -8 22 1 6 2 7 5 7 3 0 3 0 3 3 -1 2 -1 4 -1 4 0 1 -1 1 -3 1 -6 0 -11 8
-13 20 -1 4 -3 10 -5 14 l-3 8 0 -82z M41 116 c0 0 -1 -2 -3 -2 -2 -1 -3 -2
-3 -3 1 -1 0 -1 -1 -1 -2 0 -4 -1 -7 -3 -2 -2 -4 -3 -5 -2 -2 0 -3 -1 -6 -4
-4 -4 -4 -4 -3 -5 1 -1 2 -2 1 -2 0 -1 1 -1 2 -1 3 1 14 7 16 10 1 1 5 3 8 4
3 1 5 3 5 3 0 2 0 3 2 4 1 2 1 2 -1 2 -1 -1 -2 0 -2 1 -1 2 -3 1 -3 -1z"/>
</g>
</svg>
