<svg xmlns="http://www.w3.org/2000/svg" xmlns:dc="http://purl.org/dc/elements/1.1/" xmlns:cc="http://creativecommons.org/ns#" xmlns:rdf="http://www.w3.org/1999/02/22-rdf-syntax-ns#" xmlns:svg="http://www.w3.org/2000/svg" xmlns:xlink="http://www.w3.org/1999/xlink" xmlns:sodipodi="http://sodipodi.sourceforge.net/DTD/sodipodi-0.dtd" xmlns:inkscape="http://www.inkscape.org/namespaces/inkscape" y="0" width="800" height="420"><g transform="translate(0.000000,420.000000) scale(1.000000,-1.000000)" fill="#000000" stroke="#ff66aa" stroke-width="10">
<path d="M193 418 c-1 -1 -1 -7 -2 -13 -1 -18 4 -37 13 -53 5 -9 5 -10 6 -20 1 -3 3 -10 5 -16 5 -13 5 -15 -1 -17 -2 0 -3 -1 -3 -3 0 -3 -1 -4 -3 -4 -4 0 -6 -2 -6 -5 0 -1 1 -2 2 -3 2 0 4 -4 2 -6 0 -1 2 -7 3 -7 2 0 1 -3 -3 -4 -2 -2 -4 -3 -4 -4 -2 -6 -2 -8 -5 -9 -2 -2 -3 -2 -5 -1 -2 1 -5 3 -7 4 l-4 4 2 5 c2 3 2 6 2 7 -1 0 -8 -3 -11 -6 -2 -2 -3 -3 -3 -5 0 -4 -5 -9 -10 -10 -1 -1 -4 -2 -7 -3 -2 -2 -4 -3 -6 -3 -3 0 -4 -2 -2 -7 2 -5 6 -9 9 -9 2 0 3 0 4 1 0 1 5 1 5 0 0 -2 -3 -5 -6 -5 -8 -2 -12 -3 -15 -5 l-4 -1 3 -1 c4 0 5 -1 5 -4 2 -6 -1 -11 -7 -13 -4 -2 -10 -6 -10 -7 1 0 2 0 4 1 2 1 6 2 8 2 3 0 4 0 4 -3 0 -2 0 -4 -1 -5 -1 -1 -1 -2 -1 -4 0 -1 -1 -4 -2 -6 -2 -5 -2 -13 -1 -17 1 -1 0 -3 -2 -5 -2 -3 -2 -3 0 -5 2 -3 1 -12 -2 -16 -2 -3 -2 -3 -1 -4 2 -1 2 -4 0 -12 -1 -6 -7 -16 -9 -17 -1 -1 -4 0 -4 2 0 0 -1 1 -1 1 -3 0 -2 -2 0 -5 5 -5 3 -15 -3 -18 -1 -1 -3 -3 -3 -4 0 0 -1 -1 -2 -2 -2 -1 -7 -6 -7 -7 1 0 2 0 3 1 1 1 2 1 3 0 2 0 1 -9 0 -10 -1 -1 -2 -2 -2 -2 0 -1 -2 -4 -4 -6 -3 -5 -3 -5 -3 -14 0 -5 1 -9 1 -10 1 -2 2 -6 2 -13 0 -6 0 -12 0 -14 l0 -3 241 0 242 0 1 11 c1 6 2 13 2 16 0 2 2 8 2 14 1 5 3 11 3 14 1 2 2 7 2 11 0 4 1 10 2 12 1 3 1 9 2 15 0 5 0 15 1 21 0 7 0 14 -1 19 -1 4 -2 13 -3 19 0 6 -1 14 -2 18 0 4 -1 9 0 11 0 5 0 6 -2 7 -3 3 -5 16 -4 30 0 6 0 15 0 20 0 6 1 9 2 10 1 1 0 11 -2 12 -2 1 -3 6 -5 25 -3 15 -3 19 -5 20 -1 1 -2 3 -2 7 -1 2 -2 8 -2 12 -3 12 -3 13 4 20 4 4 11 10 16 14 4 5 12 12 16 16 4 4 9 9 12 11 4 4 10 16 14 27 2 4 3 7 3 8 0 0 -101 0 -225 0 l-226 0 0 -2z m16 -156 c1 0 -1 -4 -2 -5 -4 -2 -5 2 -2 4 3 2 3 2 4 1z m381 -32 c1 -5 0 -8 -1 -7 -1 0 -1 11 0 11 0 0 1 -2 1 -4z m-312 -8 c0 -1 0 -3 -1 -3 -1 -2 -6 1 -6 4 0 2 6 1 7 -1z m-5 -7 c0 -1 -5 -13 -6 -13 -2 0 -2 7 -1 9 0 0 1 2 1 3 1 3 5 4 6 1z"/>
</g>
<g transform="translate(0.000000,420.000000) scale(1.000000,-1.000000)" fill="#ffffff" stroke="none">
<path d="M193 418 c-1 -1 -1 -7 -2 -13 -1 -18 4 -37 13 -53 5 -9 5 -10 6 -20 1 -3 3 -10 5 -16 5 -13 5 -15 -1 -17 -2 0 -3 -1 -3 -3 0 -3 -1 -4 -3 -4 -4 0 -6 -2 -6 -5 0 -1 1 -2 2 -3 2 0 4 -4 2 -6 0 -1 2 -7 3 -7 2 0 1 -3 -3 -4 -2 -2 -4 -3 -4 -4 -2 -6 -2 -8 -5 -9 -2 -2 -3 -2 -5 -1 -2 1 -5 3 -7 4 l-4 4 2 5 c2 3 2 6 2 7 -1 0 -8 -3 -11 -6 -2 -2 -3 -3 -3 -5 0 -4 -5 -9 -10 -10 -1 -1 -4 -2 -7 -3 -2 -2 -4 -3 -6 -3 -3 0 -4 -2 -2 -7 2 -5 6 -9 9 -9 2 0 3 0 4 1 0 1 5 1 5 0 0 -2 -3 -5 -6 -5 -8 -2 -12 -3 -15 -5 l-4 -1 3 -1 c4 0 5 -1 5 -4 2 -6 -1 -11 -7 -13 -4 -2 -10 -6 -10 -7 1 0 2 0 4 1 2 1 6 2 8 2 3 0 4 0 4 -3 0 -2 0 -4 -1 -5 -1 -1 -1 -2 -1 -4 0 -1 -1 -4 -2 -6 -2 -5 -2 -13 -1 -17 1 -1 0 -3 -2 -5 -2 -3 -2 -3 0 -5 2 -3 1 -12 -2 -16 -2 -3 -2 -3 -1 -4 2 -1 2 -4 0 -12 -1 -6 -7 -16 -9 -17 -1 -1 -4 0 -4 2 0 0 -1 1 -1 1 -3 0 -2 -2 0 -5 5 -5 3 -15 -3 -18 -1 -1 -3 -3 -3 -4 0 0 -1 -1 -2 -2 -2 -1 -7 -6 -7 -7 1 0 2 0 3 1 1 1 2 1 3 0 2 0 1 -9 0 -10 -1 -1 -2 -2 -2 -2 0 -1 -2 -4 -4 -6 -3 -5 -3 -5 -3 -14 0 -5 1 -9 1 -10 1 -2 2 -6 2 -13 0 -6 0 -12 0 -14 l0 -3 241 0 242 0 1 11 c1 6 2 13 2 16 0 2 2 8 2 14 1 5 3 11 3 14 1 2 2 7 2 11 0 4 1 10 2 12 1 3 1 9 2 15 0 5 0 15 1 21 0 7 0 14 -1 19 -1 4 -2 13 -3 19 0 6 -1 14 -2 18 0 4 -1 9 0 11 0 5 0 6 -2 7 -3 3 -5 16 -4 30 0 6 0 15 0 20 0 6 1 9 2 10 1 1 0 11 -2 12 -2 1 -3 6 -5 25 -3 15 -3 19 -5 20 -1 1 -2 3 -2 7 -1 2 -2 8 -2 12 -3 12 -3 13 4 20 4 4 11 10 16 14 4 5 12 12 16 16 4 4 9 9 12 11 4 4 10 16 14 27 2 4 3 7 3 8 0 0 -101 0 -225 0 l-226 0 0 -2z m16 -156 c1 0 -1 -4 -2 -5 -4 -2 -5 2 -2 4 3 2 3 2 4 1z m381 -32 c1 -5 0 -8 -1 -7 -1 0 -1 11 0 11 0 0 1 -2 1 -4z m-312 -8 c0 -1 0 -3 -1 -3 -1 -2 -6 1 -6 4 0 2 6 1 7 -1z m-5 -7 c0 -1 -5 -13 -6 -13 -2 0 -2 7 -1 9 0 0 1 2 1 3 1 3 5 4 6 1z"/>
</g>
<g transform="translate(0.000000,420.000000) scale(1.000000,-1.000000)" fill="#cccccc" stroke="none">
<path d="M209 419 c0 0 1 -1 2 -1 3 -1 3 -3 -1 -5 -2 -3 -2 -3 -1 -5 2 -3 4 -4 5 -1 0 0 1 1 2 1 1 0 1 -2 0 -3 -1 0 0 -2 2 -2 1 1 1 0 0 -2 -1 -3 -1 -3 2 -2 3 0 3 -1 -1 -5 -2 -1 -3 -3 -2 -3 1 -1 4 2 5 4 1 1 1 2 2 2 2 0 1 -2 -4 -6 l-4 -5 0 -6 c1 -8 3 -12 7 -15 5 -4 9 -14 5 -17 -1 -1 -1 -5 0 -8 1 -1 1 -3 -2 -9 -5 -9 -5 -13 -4 -19 1 -5 1 -8 -1 -8 -1 0 -2 -1 -3 -2 0 -1 -2 -2 -4 -2 -3 -1 -4 -4 -1 -5 2 0 1 -2 -1 -2 -1 0 -7 -5 -7 -7 0 -2 3 -9 5 -10 l3 -2 -3 -1 c-2 0 -3 -2 -1 -2 2 0 1 -3 -2 -4 -4 -2 -6 -4 -6 -7 0 -4 -7 -10 -13 -13 -2 -1 -4 -3 -5 -3 -2 -2 -4 -2 -4 -1 0 1 -1 2 -2 2 -1 1 -2 2 -2 3 0 2 1 3 3 1 1 -2 2 -1 2 1 0 2 0 3 1 4 2 1 1 2 -3 3 -3 1 -5 2 -5 2 -1 0 -3 -1 -5 -3 -2 -2 -4 -4 -6 -4 -2 -1 -5 -2 -7 -3 -3 -2 -5 -3 -7 -3 -3 0 -4 -2 -2 -7 2 -5 6 -9 9 -9 2 0 3 0 4 1 0 1 5 1 5 0 0 -2 -3 -5 -6 -5 -8 -2 -12 -3 -15 -5 l-4 -1 3 -1 c4 0 5 -1 5 -4 2 -6 -1 -11 -7 -13 -4 -2 -10 -6 -10 -7 1 0 2 0 4 1 2 1 6 2 8 2 3 0 4 0 4 -3 0 -2 0 -4 -1 -5 -1 -1 -1 -2 -1 -4 0 -1 -1 -4 -2 -6 -2 -5 -2 -13 -1 -17 1 -1 0 -3 -2 -5 -2 -3 -2 -3 0 -5 2 -3 1 -12 -2 -16 -2 -3 -2 -3 -1 -4 2 -1 2 -4 0 -12 -1 -6 -7 -16 -9 -17 -1 -1 -4 0 -4 2 0 0 -1 1 -1 1 -3 0 -2 -2 1 -6 2 -2 2 -3 2 -7 -1 -3 -2 -7 -3 -8 -1 -2 -2 -3 -2 -4 0 0 -2 -2 -4 -4 -3 -3 -4 -5 -3 -5 2 -2 1 -10 -1 -11 0 -1 -1 -2 -1 -3 0 0 -1 -2 -3 -4 -2 -3 -2 -4 1 -2 2 2 2 0 0 -7 -3 -8 -3 -18 -1 -18 1 0 2 0 2 -1 0 -1 -1 -1 -2 -1 -1 0 -2 -10 -1 -17 1 -3 1 -6 0 -7 0 -2 9 -2 193 -2 l193 0 -1 2 c-1 6 -5 16 -6 16 -2 0 -4 5 -9 21 -1 3 -3 6 -3 6 -1 0 -2 3 -3 6 -2 6 -2 6 0 13 0 3 2 7 2 8 1 1 2 3 2 4 1 6 12 4 33 -5 16 -7 25 -12 33 -20 12 -11 21 -26 27 -44 l2 -7 10 0 10 0 1 11 c1 6 2 13 2 16 0 2 2 8 2 14 1 5 3 11 3 14 1 2 2 7 2 11 0 4 1 10 2 12 1 3 1 9 2 15 0 5 0 15 1 21 0 7 0 14 -1 19 -1 4 -2 13 -3 19 0 6 -1 14 -2 18 0 4 -1 9 0 11 0 5 0 6 -2 7 -3 3 -5 16 -4 30 0 6 0 15 0 20 0 6 1 9 2 10 1 1 0 11 -2 12 -2 1 -3 6 -5 25 -3 15 -3 19 -5 20 -1 1 -2 3 -2 7 -1 2 -2 8 -2 12 -3 12 -3 13 4 20 4 4 6 6 4 6 -1 0 -3 -1 -4 -2 -6 -4 -12 -2 -7 3 3 2 3 3 0 6 -2 1 -3 3 -3 4 0 2 1 3 5 5 9 5 14 4 15 0 1 -2 6 0 6 3 0 2 2 4 16 15 4 3 8 8 10 10 9 14 11 17 7 18 -1 1 -1 1 0 3 3 4 2 5 -2 5 -3 0 -4 -1 -7 -4 -5 -5 -19 -16 -22 -16 -1 -1 -2 -2 -2 -3 0 -1 -12 -8 -23 -12 -5 -3 -11 -5 -12 -6 -1 -1 -7 -4 -13 -7 -17 -8 -29 -16 -29 -18 0 -1 0 -2 1 -2 0 -1 1 -2 1 -4 1 -1 2 -3 3 -5 1 -1 2 -4 2 -5 0 -2 1 -7 2 -11 3 -8 8 -27 8 -31 0 -4 -5 -8 -18 -12 -7 -3 -10 -5 -16 -13 -6 -8 -9 -13 -9 -18 -1 -5 0 -6 2 -7 2 -1 2 -1 1 -2 -1 -2 -1 -3 0 -5 1 -2 2 -3 3 -3 1 0 3 -6 5 -10 0 -1 0 -3 -1 -4 -1 -1 -2 -6 -2 -20 l0 -19 -3 -6 c-3 -6 -4 -9 -4 -23 l0 -9 -6 -1 c-8 -1 -18 0 -22 1 -2 1 -2 2 -2 5 0 5 3 12 6 13 1 1 2 1 5 -2 l3 -2 1 4 c1 3 2 4 6 5 6 3 7 4 4 10 -1 3 -3 7 -3 11 0 4 -2 10 -2 15 -2 7 -3 14 -5 35 -1 9 -1 12 1 18 1 6 1 8 0 11 0 2 -1 5 -1 6 0 3 -5 6 -13 9 -8 2 -14 5 -19 9 -4 3 -5 6 -2 6 2 0 3 1 4 5 1 3 2 5 5 8 2 2 4 4 4 4 0 1 1 2 2 4 2 2 2 2 1 3 -1 1 -2 1 -2 1 -1 0 -19 -12 -19 -13 0 -1 -5 -3 -7 -3 -2 1 -7 -3 -7 -6 -1 -1 -2 -2 -3 -3 -5 -1 -29 -20 -40 -30 -10 -9 -38 -39 -43 -46 -3 -3 -8 -10 -11 -15 -8 -11 -12 -16 -17 -18 -2 -2 -4 -3 -5 -3 -1 0 0 5 2 8 1 1 2 4 3 5 1 4 7 17 8 19 1 1 2 3 3 5 1 2 2 4 3 6 1 1 2 2 2 3 0 1 1 3 2 4 1 2 2 5 3 7 1 4 7 11 8 11 1 0 1 -1 1 -2 -1 -4 0 -4 2 -1 0 1 2 3 4 4 2 1 2 2 1 2 -1 0 -3 0 -4 -1 -3 -2 -4 0 -2 5 5 8 18 26 28 36 2 3 6 7 8 9 5 7 22 23 24 23 1 0 1 -2 0 -2 -2 -2 -1 -3 1 -3 2 -1 2 -1 2 -2 -1 -1 0 -2 0 -3 1 0 1 -3 1 -6 0 -6 2 -12 4 -12 1 0 2 4 2 5 -1 0 -1 6 -1 12 -1 13 0 17 5 19 4 2 5 4 2 4 -1 0 -2 0 -2 1 0 1 19 19 29 27 5 4 11 9 13 11 6 5 10 9 10 10 -1 0 -12 -6 -12 -7 0 0 -3 -2 -5 -4 -3 -2 -9 -6 -13 -10 -7 -6 -10 -7 -10 -5 0 0 6 5 12 11 7 5 14 11 17 14 2 2 6 5 8 7 3 2 6 5 7 6 l3 3 -3 1 c-3 2 -5 2 -5 -1 0 -2 -1 -1 -6 2 -5 3 -6 4 -6 2 0 -1 1 -2 2 -2 2 0 3 -1 3 -3 1 -3 0 -4 -1 -2 -1 0 -4 2 -6 4 -4 3 -7 3 -4 -1 1 -1 1 -1 0 -2 -1 -1 -2 -1 -5 0 -3 2 -5 2 -5 1 -1 -1 -2 -1 -3 0 -4 2 -5 2 -5 -2 1 -1 1 -2 0 -2 0 0 -2 1 -6 3 -5 3 -5 3 -7 1 -1 -1 -1 -1 -2 0 -1 1 -2 1 -3 0 -2 -1 -2 -1 -4 0 -2 1 -2 1 -4 0 -1 -1 -2 -1 -4 0 l-2 2 3 1 c2 1 4 2 5 3 0 1 1 2 2 2 0 0 1 1 1 1 -1 2 -7 1 -9 -1 0 0 -2 -1 -4 -1 -1 0 -3 -1 -4 -2 -1 -2 -5 -3 -10 -2 -2 1 -3 2 -2 3 1 0 1 1 1 2 -2 1 -10 1 -11 -1 -2 -2 -5 -1 -8 2 -3 3 -4 3 -7 2 -3 0 -4 0 -6 2 l-3 3 -71 0 c-43 0 -71 0 -71 -1z m26 -132 c0 -1 -3 -3 -4 -1 -1 0 -1 1 -1 2 1 1 4 1 5 -1z m200 -24 c5 -3 7 -7 5 -12 -2 -2 -2 -3 0 -4 1 -1 1 -1 -5 -1 -6 0 -12 2 -12 3 0 1 1 3 3 4 1 2 2 4 3 6 1 6 1 6 6 4z m-226 -1 c1 0 -1 -4 -2 -5 -4 -2 -5 2 -2 4 3 2 3 2 4 1z m381 -32 c1 -5 0 -8 -1 -7 -1 0 -1 11 0 11 0 0 1 -2 1 -4z m-158 0 c-1 -1 0 -2 1 -3 4 -2 4 -5 2 -10 -1 -2 -2 -5 -2 -5 0 -2 -1 -5 -3 -5 -1 1 -5 -2 -5 -5 0 -2 -4 -3 -7 -2 -1 1 -3 1 -4 1 -2 -1 -9 2 -8 4 0 1 -2 4 -4 7 -6 7 -7 13 -2 12 1 0 2 1 3 3 2 3 3 3 5 2 3 -1 5 0 14 1 10 2 10 2 10 0z m-154 -8 c0 -1 0 -3 -1 -3 -1 -2 -6 1 -6 4 0 2 6 1 7 -1z m-5 -7 c0 -1 -5 -13 -6 -13 -2 0 -2 7 -1 9 0 0 1 2 1 3 1 3 5 4 6 1z m37 -36 c-2 -1 -3 -3 -3 -4 0 -2 -1 -3 -1 -4 -2 -2 -9 0 -12 2 -1 2 -1 2 1 5 3 3 4 3 9 2 4 0 6 0 6 1 1 1 1 1 2 0 0 0 -1 -1 -2 -2z m-7 -11 c0 -1 -6 -10 -9 -12 -1 -2 -2 -2 -2 -1 0 2 7 13 8 13 2 1 3 1 3 0z m-27 -12 c0 -2 -4 -8 -8 -13 -4 -4 -13 -17 -16 -22 0 -2 -1 -4 -1 -5 1 -1 0 -3 0 -4 -2 -2 0 -4 1 -2 1 1 2 2 3 2 0 0 1 1 0 2 0 1 1 3 5 5 2 2 5 3 5 3 1 0 1 -3 0 -4 -1 -1 -3 -4 -6 -8 -3 -4 -6 -7 -7 -8 0 0 -2 -2 -2 -4 l-1 -2 0 2 c0 2 -1 3 -2 4 -2 1 -2 2 -1 11 1 5 2 9 3 10 1 2 1 3 0 7 -2 4 -2 5 -1 6 0 1 1 3 1 5 0 2 1 3 5 3 6 0 12 3 13 7 2 4 9 8 9 5z m205 -26 c1 0 2 -1 2 -2 0 -2 -1 -3 -8 -3 -10 0 -14 2 -12 3 1 1 3 1 5 1 2 0 4 1 6 1 2 1 4 1 7 0z m-197 -100 c0 -5 0 -7 -1 -7 -1 0 -1 2 -1 4 0 3 0 6 -1 9 0 2 0 3 1 2 0 0 1 -4 2 -8z M421 419 c-1 -1 -2 -2 -2 -1 -1 1 -4 -2 -3 -3 0 -2 4 -1 4 1 1 0 2 1 3 1 1 0 2 1 3 2 2 1 2 1 0 1 -1 0 -3 -1 -5 -1z M611 418 c-2 -3 -7 -11 -7 -12 0 0 -1 -1 -2 -2 -1 -1 -1 -2 -1 -3 1 -1 9 8 9 10 0 1 1 3 3 4 3 1 5 3 5 4 0 2 -5 1 -7 -1z M391 416 c3 -2 7 -4 7 -3 0 1 -3 4 -6 4 -3 1 -3 1 -1 -1z M380 300 c-3 -3 -2 -4 2 -2 2 1 3 2 2 3 0 1 -1 1 -4 -1z M390 293 c-2 -2 -5 -9 -5 -12 0 -2 0 -2 2 0 5 6 7 15 3 12z"/>
</g>
<g transform="translate(0.000000,420.000000) scale(1.000000,-1.000000)" fill="#999999" stroke="none">
<path d="M226 415 c1 -3 2 -6 2 -6 1 -1 1 -2 1 -3 0 -1 0 -2 1 -2 1 0 4 -6 4 -8 0 -2 0 -3 1 -4 1 -1 0 -4 -3 -8 -1 -1 -1 -3 3 -6 4 -4 5 -8 3 -8 -1 0 -1 -1 -1 -3 0 -2 0 -3 -1 -3 -1 0 -1 -1 -1 -2 0 -1 -1 -2 -1 -4 -1 -1 -2 -3 -2 -5 0 -2 0 -3 2 -2 1 0 3 1 3 3 2 3 4 3 7 1 3 -3 2 -4 -1 -5 -5 0 -6 -1 -6 -3 0 -2 -1 -3 -1 -5 -2 -2 -2 -4 0 -4 0 1 1 1 1 0 0 -1 -3 -3 -5 -4 -2 0 -4 -3 -6 -8 -2 -4 -2 -6 -2 -12 1 -9 0 -13 -3 -12 -2 0 -8 -3 -8 -5 0 -2 4 -2 7 0 3 3 5 2 7 -1 2 -3 0 -4 -6 -3 -4 1 -5 1 -9 -2 -5 -3 -5 -4 -4 -7 0 -5 3 -8 7 -7 3 0 6 -2 4 -4 -1 -1 -2 -2 -5 -1 -2 0 -3 0 -4 -2 0 -1 -1 -2 -3 -3 -4 -2 -6 -4 -6 -7 0 -4 -8 -12 -16 -17 -6 -3 -7 -4 -9 -2 -1 1 -2 2 -3 2 -1 -1 -3 -1 -4 -1 -3 -1 -3 -1 -2 -2 2 -1 0 -3 -7 -7 -3 -1 -5 -3 -4 -3 1 0 2 0 2 1 2 1 6 1 6 0 0 0 -1 -2 -1 -3 -1 -1 -2 -2 -1 -3 0 -2 -6 -5 -12 -5 -4 0 -5 0 -4 -1 2 -3 2 -8 0 -12 -1 -2 -1 -4 -1 -4 0 -1 -2 -2 -3 -3 l-3 -2 3 0 c3 0 4 0 4 -3 0 -2 0 -4 -1 -5 -1 -1 -1 -2 -1 -4 0 -1 -1 -4 -2 -6 -2 -5 -2 -13 -1 -17 1 -1 0 -3 -2 -5 -2 -3 -2 -3 0 -5 2 -3 1 -12 -2 -16 -2 -3 -2 -3 -1 -4 2 -1 2 -4 0 -12 -1 -6 -7 -16 -9 -17 -1 -1 -4 0 -4 2 0 0 -1 1 -1 1 -3 0 -2 -2 1 -6 2 -2 2 -3 2 -7 -1 -3 -1 -6 -2 -7 -1 -1 -1 -3 -2 -4 0 -1 -1 -4 -4 -6 -3 -3 -3 -4 -3 -9 0 -3 0 -5 -1 -6 -2 -1 -3 -4 -1 -4 1 0 0 -3 -1 -6 0 -4 -1 -7 -1 -7 1 0 1 -1 0 -2 -1 0 -1 -3 -2 -6 0 -4 0 -5 1 -7 2 -2 2 -6 0 -6 -2 0 -2 -3 -2 -12 l0 -12 81 0 c56 0 81 0 82 1 0 1 -1 2 -2 3 -1 1 -1 1 0 1 3 -1 5 1 8 6 2 4 2 5 2 10 -1 5 -1 6 0 6 1 -1 2 0 2 1 1 2 0 12 -2 18 -2 5 -1 5 3 -2 2 -6 3 -9 4 -14 0 -7 0 -8 -2 -13 -2 -2 -3 -6 -3 -7 0 -1 0 -2 -1 -2 -1 0 -3 -5 -3 -5 4 -3 10 -3 86 -3 l79 0 0 3 c0 1 -1 3 -1 4 -1 1 -2 2 -2 3 0 0 -2 2 -3 4 -2 2 -4 4 -4 5 0 0 -1 2 -3 3 -2 3 -2 3 -2 8 1 4 1 5 4 5 1 0 3 0 3 1 1 0 -3 4 -5 4 0 -1 -1 0 -2 1 -1 1 -1 1 0 2 2 1 4 3 5 4 l3 3 2 -3 c2 -1 3 -2 4 -2 3 0 8 13 5 13 0 0 -2 1 -3 2 l-3 3 -3 -3 c-3 -2 -4 -3 -4 -5 0 -4 -4 -7 -6 -5 -1 1 -1 2 1 2 3 1 5 7 6 15 0 4 1 8 1 9 1 1 1 1 0 1 -1 0 -2 0 -3 1 -1 1 -1 1 0 2 1 1 2 1 4 1 1 0 2 1 3 2 1 1 1 1 -1 3 -1 1 -4 2 -6 3 -3 1 -5 2 -6 3 -2 1 -4 2 -5 3 -3 1 -4 4 -1 7 1 2 3 2 10 3 5 0 11 1 15 2 6 2 10 3 19 3 6 1 12 1 13 2 2 1 2 1 2 -1 0 -1 1 -2 1 -3 1 -1 2 -2 1 -5 0 -6 -2 -13 -3 -14 -1 0 -1 -1 -1 -2 0 -1 -1 -2 -2 -2 -2 -1 0 -3 5 -3 3 -1 8 -2 11 -3 10 -3 30 -12 37 -16 20 -12 34 -30 42 -54 l2 -9 5 0 5 0 1 5 c0 3 1 10 2 16 2 23 3 30 4 35 1 3 1 20 2 38 0 34 0 39 -4 64 -5 35 -6 43 -7 67 -4 51 -6 73 -7 80 -1 3 -1 8 -1 11 -1 2 -1 5 -1 6 -1 2 0 7 1 7 2 0 3 -5 4 -12 0 -4 1 -11 1 -17 1 -6 2 -17 3 -24 1 -8 2 -19 3 -25 0 -6 1 -12 1 -14 1 -2 1 -7 2 -10 5 -20 5 -21 4 -21 -2 0 -2 1 -3 7 -1 3 -1 4 -2 3 -1 -1 0 -3 0 -6 1 -2 1 -5 1 -7 0 -2 0 -5 1 -6 0 -1 1 -1 1 3 l1 4 1 -5 c0 -2 2 -6 2 -7 1 -2 1 -6 2 -8 0 -2 0 -7 1 -10 1 -4 1 -7 0 -8 l-1 -2 0 2 c0 1 0 4 0 7 0 3 0 4 -1 4 -2 -1 -1 -15 0 -16 1 -1 1 -1 1 1 0 1 0 1 1 0 1 -1 1 -3 1 -6 0 -3 0 -4 -1 -3 -1 1 -2 0 -1 -5 0 -3 0 -7 1 -9 l0 -3 2 3 c0 1 1 2 1 2 0 -1 1 0 2 1 2 2 2 3 2 11 0 5 -1 10 -1 11 -1 1 -1 7 -1 13 0 8 -1 10 -2 11 -1 1 -2 4 -3 10 -2 8 -2 11 -1 20 0 6 0 15 0 20 0 6 1 9 2 10 1 1 0 11 -2 12 -2 1 -3 6 -5 25 -3 15 -3 19 -5 20 -1 1 -2 3 -2 7 -1 2 -1 7 -2 10 -1 2 -1 6 -2 7 0 1 -1 2 -2 2 -2 0 -2 6 0 7 1 0 1 1 1 2 0 0 1 1 2 1 1 0 3 2 5 4 2 1 4 3 4 3 -1 0 -12 -6 -13 -7 0 -1 -1 -1 -2 -1 -1 0 -1 -1 0 -3 0 -2 0 -2 -1 -2 -1 0 -2 2 -2 4 0 1 0 3 -1 5 0 1 -1 3 -1 4 0 1 -1 4 -3 8 -2 3 -3 8 -4 10 -2 8 -2 8 -17 1 -7 -4 -14 -8 -15 -9 l-3 -3 3 -7 c2 -4 4 -9 5 -11 0 -3 2 -7 2 -10 3 -9 7 -28 7 -31 0 -5 -3 -7 -15 -12 -5 -2 -10 -5 -11 -6 -3 -4 -3 -4 -9 -10 -4 -3 -7 -7 -7 -8 -2 -3 -3 -9 -2 -11 1 -2 11 -4 11 -2 0 1 1 1 2 1 1 0 2 0 2 -1 0 -1 0 -1 -1 -1 0 0 -1 -1 -2 -3 -2 -3 -2 -3 0 -5 1 -1 4 -3 6 -5 4 -4 4 -4 3 -8 0 -3 0 -5 1 -6 3 -5 2 -24 -2 -31 -1 -2 -2 -5 -3 -7 0 -3 -1 -6 -2 -8 -1 -2 -2 -6 -3 -9 0 -2 -1 -5 -2 -6 -3 -4 -8 -13 -8 -14 0 -2 -3 -3 -8 -3 -2 0 -5 -1 -7 -1 -2 -1 -5 -1 -10 0 -5 2 -9 2 -13 2 -4 -1 -9 0 -16 1 -10 2 -22 3 -26 1 -1 0 -3 1 -3 2 -1 1 -3 1 -4 1 -2 -1 -4 0 -7 4 -3 2 -5 5 -5 5 0 1 -2 3 -4 5 -2 2 -4 4 -4 5 0 1 -1 2 -1 3 -1 1 -2 3 -2 5 0 3 -1 6 -2 8 -2 2 -2 3 -1 5 1 2 0 3 -1 4 -1 1 -2 4 -3 7 -1 2 -2 5 -2 6 -1 1 -1 4 -1 6 0 3 0 5 -1 5 -1 2 -3 11 -3 17 0 7 1 10 5 10 2 0 5 3 6 5 0 1 1 1 4 0 1 -1 3 -1 4 -1 1 0 2 0 2 -1 -1 -1 2 -2 7 -4 2 0 3 -1 4 -1 1 -2 15 -2 16 0 0 1 1 1 2 0 2 -1 2 -1 3 0 1 0 2 1 3 1 1 0 2 1 2 1 0 1 -3 2 -6 2 -6 0 -20 5 -14 5 3 0 9 4 12 7 1 1 2 4 2 6 0 4 2 4 8 2 3 -2 5 -4 7 -7 2 -3 3 -6 4 -7 0 -1 1 -3 3 -3 1 -1 2 -2 2 -4 0 -4 2 -5 6 -5 4 0 5 -1 9 -9 3 -5 3 -6 0 -14 -1 -2 -3 -6 -3 -7 -1 -1 -3 -3 -5 -4 -2 -1 -3 -3 -3 -3 0 -1 -2 -3 -4 -5 -7 -8 -9 -17 -4 -24 4 -5 11 -7 18 -6 3 1 7 1 8 1 3 -1 13 3 15 5 1 0 0 2 -1 5 -6 9 -7 11 -7 17 0 3 -1 7 -2 9 0 1 -1 7 -1 13 -1 5 -2 13 -2 18 -1 5 -1 12 -2 17 0 7 -1 10 -6 19 l-5 11 -7 3 c-4 2 -10 5 -13 5 -4 1 -9 3 -12 4 -6 2 -7 2 -10 0 -3 -1 -7 -4 -9 -6 -2 -2 -7 -6 -11 -8 -4 -3 -15 -13 -29 -28 -24 -24 -31 -32 -39 -44 -3 -4 -7 -10 -10 -13 -3 -4 -5 -8 -5 -9 -1 -1 -2 -4 -4 -6 -2 -2 -5 -6 -7 -8 -2 -3 -7 -10 -12 -15 -4 -6 -10 -13 -12 -17 -5 -7 -11 -15 -12 -16 -1 0 -3 -2 -5 -5 -2 -3 -6 -9 -9 -12 -3 -4 -6 -8 -6 -9 0 -3 -3 -2 -4 1 0 1 -1 3 -2 4 -2 2 -2 4 -1 12 1 5 2 10 3 11 0 1 1 2 0 2 -1 1 -2 1 -2 0 0 -1 -1 -3 -1 -3 -2 -2 -4 -6 -4 -9 1 -1 1 -1 0 0 0 1 -2 1 -4 0 -1 -1 -2 -1 -3 1 -3 4 -2 6 2 5 1 0 1 3 1 7 0 1 1 3 2 3 l2 2 -2 2 -2 2 2 1 c3 1 3 1 5 0 3 -2 4 0 3 4 0 3 0 3 7 3 4 0 5 1 6 3 0 2 1 3 0 4 -2 2 -1 5 3 6 4 0 10 3 15 6 4 3 8 4 8 2 0 -1 -9 -15 -15 -23 -4 -4 -8 -10 -9 -12 -1 -2 -3 -4 -3 -5 -2 -1 -5 -6 -5 -7 0 -2 4 0 17 10 3 3 20 25 20 27 0 1 1 3 3 6 3 4 4 6 1 6 -1 0 -3 1 -4 2 -2 2 -2 2 -1 7 1 2 2 5 3 6 2 2 2 2 13 0 4 0 5 1 3 3 -1 1 -1 3 2 8 4 10 26 52 29 57 2 4 3 5 8 14 1 3 4 6 5 8 2 2 3 4 3 5 0 2 -4 -1 -5 -4 -2 -4 -10 -16 -11 -16 -2 0 -1 2 2 7 5 10 22 32 23 31 0 -1 -1 -3 -3 -6 -3 -3 -4 -7 -4 -8 0 -1 3 2 11 10 17 22 24 29 31 34 4 4 8 6 8 6 1 0 3 1 3 2 1 1 2 3 4 3 2 0 4 2 4 4 0 1 2 4 3 5 2 2 4 5 5 6 1 2 1 2 -1 2 -1 0 -2 -1 -3 -1 0 -1 -1 -1 -2 -1 -1 1 1 7 2 7 1 0 7 5 14 11 7 5 15 12 18 14 5 4 6 6 3 9 -3 5 -13 6 -14 2 -1 -2 -1 -2 -3 -1 -1 0 -4 0 -5 1 -1 0 -4 0 -6 1 -3 0 -3 0 -2 -1 0 -1 1 -2 1 -2 0 -1 -7 -1 -11 0 -3 1 -7 2 -9 2 -12 2 -12 2 -14 5 0 2 -2 3 -4 3 -5 1 -5 0 0 -5 l4 -4 -3 -4 c-2 -2 -5 -3 -6 -3 -3 0 -6 4 -7 9 0 5 -1 6 -3 3 -2 -2 -2 -2 -5 -1 -5 3 -16 3 -23 1 -6 -2 -11 -5 -11 -7 0 -1 -2 -3 -4 -4 -3 -1 -5 -3 -5 -3 0 -2 -5 -4 -7 -4 -1 0 -2 -1 -2 -2 0 0 -1 -1 -2 -2 -5 -2 -8 -5 -7 -6 0 -2 0 -2 -3 -2 -2 0 -3 0 -3 1 0 1 2 3 5 4 1 1 3 3 3 4 1 2 2 4 3 5 3 4 7 10 7 12 0 2 -2 1 -3 -1 -2 -4 -6 -6 -8 -4 -1 1 -2 1 -3 1 -2 0 -2 0 -1 2 1 2 2 3 1 4 0 1 1 2 2 3 2 1 4 3 5 5 l2 3 -4 -2 c-4 -1 -6 -3 -7 -5 -1 0 -2 -1 -2 -1 -1 0 -3 -1 -5 -3 -2 -2 -5 -4 -6 -4 -2 -1 -3 -2 -3 -2 0 -2 -8 -8 -10 -8 -1 0 -2 -1 -2 -1 1 -2 -5 -2 -6 -1 0 1 -1 2 -1 1 0 0 0 -1 1 -3 1 -4 0 -6 -4 -6 -1 0 -2 -1 -3 -2 0 -1 0 -1 -2 1 -2 1 -3 4 -1 4 1 0 1 1 0 1 0 1 2 4 4 7 3 2 7 8 10 12 3 4 7 7 8 8 1 1 2 2 2 2 0 1 3 4 6 8 l6 6 -3 0 c-3 0 -5 0 -7 -3 -2 -2 -4 -3 -5 -3 0 0 -2 -1 -3 -3 -1 -2 -3 -3 -4 -3 -1 0 -2 -1 -2 -2 -1 -1 -2 -2 -3 -3 -1 0 -3 -2 -4 -4 -2 -4 -5 -5 -5 -3 0 1 1 3 2 4 2 1 3 4 3 5 0 1 1 2 1 2 1 0 2 1 4 2 3 1 3 1 2 3 -2 2 -2 1 -7 -4 -3 -3 -6 -5 -7 -5 -1 0 -5 4 -5 5 0 2 8 10 10 10 0 0 1 0 1 1 0 1 -7 1 -20 1 l-19 0 0 -5z m26 -12 c1 -1 0 -2 0 -3 -1 -1 -2 -1 -4 0 -1 2 -1 2 1 3 2 2 3 2 3 0z m99 -8 c1 -2 0 -3 -2 -3 -2 0 -3 2 -1 3 1 1 3 1 3 0z m-7 -6 c-1 -2 -5 -3 -5 -1 0 1 1 2 1 2 3 1 4 1 4 -1z m-83 -20 c1 -1 1 -2 -1 -2 -3 -1 -5 0 -5 3 0 2 5 1 6 -1z m-7 -2 c1 -2 1 -4 0 -4 -2 0 -2 -1 -2 -3 0 -2 0 -4 -1 -4 -1 0 -1 1 -1 2 0 0 0 1 -1 1 0 -1 -1 0 -2 0 -1 1 -1 1 0 2 1 1 2 2 2 3 0 2 2 4 3 4 0 0 1 -1 2 -1z m139 -40 c0 0 -2 -3 -4 -5 -2 -3 -4 -5 -4 -6 0 -1 -1 -1 -2 -2 -2 0 -9 -7 -10 -10 -1 -3 -5 -5 -5 -3 0 3 22 28 24 28 1 0 1 -1 1 -2z m-157 -40 c0 -2 0 -2 -5 -3 -3 -1 -3 -1 -3 2 0 3 1 4 4 4 3 0 4 -1 4 -3z m193 -2 c2 -2 3 -2 3 -4 0 -2 -1 -3 -2 -3 -2 0 -3 1 -4 2 -2 2 -3 2 -4 2 -6 -2 -8 -2 -9 0 -2 1 -2 1 0 3 2 1 11 1 16 0z m-220 -23 c1 0 -1 -4 -2 -5 -4 -2 -5 2 -2 4 3 2 3 2 4 1z m320 -9 c0 -4 -7 -9 -11 -8 -3 1 -3 3 1 4 1 1 4 3 5 4 4 3 5 3 5 0z m-205 -21 c-2 -3 -5 -7 -6 -9 -1 -3 -3 -5 -3 -5 -2 0 -2 0 6 14 5 8 5 9 6 7 0 -1 -1 -4 -3 -7z m266 -2 c1 -5 0 -8 -1 -7 -1 0 -1 11 0 11 0 0 1 -2 1 -4z m-312 -8 c0 -1 0 -3 -1 -3 -1 -2 -6 1 -6 4 0 2 6 1 7 -1z m-5 -7 c0 -1 -5 -13 -6 -13 -2 0 -2 7 -1 9 0 0 1 2 1 3 1 3 5 4 6 1z m14 -14 c0 -2 -2 -1 -3 1 -1 1 -2 3 -3 3 -1 0 -2 1 -2 2 -1 2 -1 2 4 -1 2 -2 4 -4 4 -5z m-12 -2 c2 -2 3 -7 1 -8 -4 -1 -8 4 -6 8 1 3 2 3 5 0z m-13 -13 c4 -2 2 -4 -2 -2 -3 1 -4 2 -2 3 1 1 1 1 4 -1z m223 -54 c3 -1 3 -5 0 -9 -7 -7 -29 -6 -31 2 -1 3 2 5 9 6 3 0 8 1 11 1 8 1 9 1 11 0z m-299 -16 c-1 -8 -2 -13 -3 -13 -2 0 -1 8 2 16 0 2 1 1 1 -3z m298 -1 c1 -1 -3 -7 -4 -6 -2 1 -1 4 1 6 2 2 3 2 3 0z m-246 -29 c0 -1 0 -2 -1 -2 -2 0 -2 -4 0 -6 0 -2 1 -3 0 -3 -1 -1 -2 0 -4 4 -1 3 -1 5 1 5 0 1 1 2 1 2 -1 1 -1 2 0 2 1 2 2 0 3 -2z m23 -13 c4 -4 9 -9 7 -9 -1 0 -3 2 -5 4 -2 2 -5 4 -6 4 -2 0 -8 7 -7 8 0 1 2 0 3 -1 2 -2 5 -4 8 -6z m-5 -10 c0 -4 -1 -4 -3 0 -1 2 -1 3 1 4 2 1 3 0 2 -4z m-136 -3 c-1 -4 -3 -6 -4 -5 -2 1 0 5 2 7 2 3 3 2 2 -2z m148 -12 c3 -3 4 -7 2 -7 -1 0 -3 2 -5 5 -4 6 -1 7 3 2z m-152 -4 c0 -1 0 -3 0 -4 -1 -1 -1 -1 -3 1 -1 1 -2 3 -1 3 0 2 3 1 4 0z m158 -6 c2 -3 3 -6 1 -6 0 0 -1 1 -2 2 -3 5 -2 8 1 4z m-12 -7 c0 -3 -2 -5 -3 -5 -1 0 -1 1 -1 2 0 2 -1 3 -1 4 -1 1 -1 1 0 2 1 2 1 2 3 0 1 -1 2 -2 2 -3z m-1 -16 c0 -8 0 -8 -3 -8 -2 0 -3 0 -2 2 0 1 1 2 1 3 0 0 1 2 2 5 1 8 2 7 2 -2z m27 -5 c0 -1 -1 -2 -3 -2 -2 0 -2 0 -1 3 1 3 4 2 4 -1z M620 403 c-3 -1 -9 -4 -13 -6 -10 -6 -16 -9 -29 -14 -6 -2 -12 -4 -14 -6 -2 -1 -2 -2 -1 -5 1 -4 5 -4 14 -2 22 6 37 15 47 27 5 8 5 9 -4 6z M221 380 c0 -5 2 -5 4 -2 2 3 2 3 0 3 -1 1 -2 1 -3 2 0 0 -1 -1 -1 -3z M168 255 c-2 -1 -5 -3 -6 -3 -2 -1 -5 -2 -7 -3 -3 -2 -5 -3 -7 -3 -2 0 -2 0 -2 -3 0 -5 2 -6 7 -5 1 0 4 1 7 0 3 0 3 0 2 1 -3 3 -2 5 5 8 3 2 6 4 6 4 1 1 -1 7 -2 7 0 0 -2 -1 -3 -3z"/>
</g>
<g transform="translate(0.000000,420.000000) scale(1.000000,-1.000000)" fill="#666666" stroke="none">
<path d="M234 419 c0 -1 1 -2 2 -2 2 0 3 -2 1 -2 -1 -1 -1 -1 0 -2 2 -2 3 -2 4 0 1 0 2 3 3 4 l1 3 -6 0 c-4 0 -5 0 -5 -1z M363 396 c2 -3 2 -3 -2 -4 -11 -3 -16 -7 -20 -15 -2 -3 -4 -5 -5 -6 -2 0 -4 -2 -7 -4 -4 -4 -5 -3 -6 2 -1 2 0 4 1 6 2 2 1 2 -2 -1 -2 -1 -2 -3 -2 -8 l0 -7 -3 0 c-1 0 -5 1 -7 2 -6 2 -7 1 -3 -1 2 -2 2 -3 1 -3 -1 0 -2 -1 -3 -2 -1 -1 -4 -2 -6 -2 -3 -1 -5 -3 -2 -3 3 0 4 -2 1 -4 -2 -1 -4 -2 -6 -1 -4 0 -4 0 -3 -2 2 0 3 -1 3 -1 1 0 1 -1 1 -3 0 -3 -3 -4 -5 -1 -3 2 -5 2 -5 -1 0 -1 -1 -2 -1 -3 -1 -1 -2 -2 -2 -3 0 -3 -2 -6 -4 -5 -1 0 -3 -1 -5 -1 -1 -2 -2 -2 -4 -1 -2 1 -2 1 -3 -1 0 -1 -1 -3 -3 -3 -3 -1 -3 -2 0 -4 2 -1 2 -1 0 -3 -2 -1 -4 -4 -5 -6 -1 -2 -3 -4 -5 -5 -1 -1 -2 -1 -1 -3 0 -1 0 -4 -1 -5 -1 -3 -1 -3 -4 -3 -2 1 -3 0 -5 -3 -2 -2 -4 -4 -6 -5 -1 -1 -2 -2 -2 -3 0 -1 0 -2 1 -3 0 -2 0 -2 -3 -2 -3 1 -4 1 -8 -3 -3 -3 -4 -3 -6 -3 -4 1 -7 -1 -7 -2 1 -1 0 -2 0 -3 -1 0 -1 -1 0 -1 1 -1 1 -2 0 -3 -1 -3 -4 -4 -5 -3 -2 0 -1 3 1 4 1 0 1 0 -1 2 -2 2 -3 1 -3 -3 0 -2 -1 -4 -2 -5 -1 -1 -2 -3 -3 -4 -1 -2 -3 -4 -5 -5 -3 -1 -6 -3 -8 -5 -2 -1 -5 -2 -7 -2 -5 0 -11 -4 -13 -8 0 -3 0 -4 0 -4 1 0 3 0 5 0 5 -1 4 -2 -2 -4 -3 -1 -6 -2 -7 -3 -1 0 -3 -1 -4 -1 -2 0 -3 -1 -4 -1 0 -1 -1 -2 -2 -2 -1 -1 -2 -2 -1 -3 0 -1 0 -3 -1 -5 -2 -3 -2 -4 2 -1 3 1 7 1 7 0 0 0 -2 -2 -5 -4 -2 -1 -5 -3 -5 -3 0 0 0 -2 0 -4 0 -3 0 -5 -1 -6 -1 -1 -2 -2 -1 -3 0 -2 -1 -5 -2 -7 -2 -5 -2 -13 -1 -17 1 -1 0 -3 -2 -5 -2 -3 -2 -3 0 -5 1 -2 1 -3 1 -8 -1 -3 -2 -6 -2 -7 -1 -1 -1 -4 0 -6 1 -9 -7 -28 -13 -29 -1 0 -1 0 -1 -2 0 -1 0 -3 1 -5 0 -1 -1 -4 -1 -7 -1 -2 -2 -5 -1 -6 0 -1 -2 -3 -4 -6 -5 -4 -5 -5 -5 -9 l1 -5 3 2 c1 0 3 2 4 4 1 2 4 3 4 0 0 0 -1 -2 -2 -4 -1 -1 -3 -4 -3 -6 -1 -3 -3 -6 -5 -8 -3 -4 -3 -4 -1 -5 2 -2 3 -5 0 -7 -1 -1 -1 -1 -2 0 -2 2 -3 1 -2 -3 0 -3 0 -5 0 -5 0 -1 1 -1 1 0 3 2 4 -2 1 -4 -2 -2 -2 -2 0 -3 1 -2 1 -2 -1 -7 -2 -3 -3 -7 -3 -10 -1 -2 -1 -5 -2 -5 0 -2 6 -2 67 -2 49 0 69 0 70 1 3 1 3 2 4 22 0 7 0 8 2 6 1 -2 1 -2 3 -1 2 1 2 5 0 4 -1 0 -2 1 -3 4 0 4 0 5 3 2 1 -1 2 -2 2 -1 1 1 1 5 0 6 -2 1 -3 1 -3 -1 0 -1 -1 -1 -2 -1 -1 1 -2 0 -3 -2 -2 -5 -6 -5 -7 1 -1 10 -1 19 1 19 1 0 4 -3 4 -5 0 -1 3 -4 5 -4 1 0 1 1 1 3 -1 1 0 4 0 5 1 2 1 4 0 5 -1 3 -1 5 0 5 3 0 3 2 1 6 -3 4 -13 8 -13 5 0 -1 1 -3 2 -4 l2 -1 -3 -1 c-3 -1 -4 0 -7 3 -4 3 -4 4 -4 7 1 4 0 9 -2 9 0 -1 -1 0 -2 1 -1 2 -1 7 0 7 0 0 0 2 0 5 0 3 0 4 1 3 1 0 1 -2 1 -4 1 -3 1 -3 4 -2 3 1 3 1 2 6 0 2 -1 5 -2 6 0 1 -1 3 -2 5 0 3 0 5 4 9 3 5 3 5 2 7 -2 2 -2 3 0 3 1 0 4 2 7 5 3 3 6 5 7 5 2 0 7 4 8 6 1 4 4 7 8 7 2 1 5 2 7 4 2 1 5 2 6 2 5 0 7 2 10 10 2 7 3 8 6 9 3 2 4 3 6 7 7 17 25 50 32 59 2 3 4 6 6 9 4 9 24 38 26 38 1 0 1 1 1 1 0 3 26 31 29 31 0 0 1 -1 2 -2 1 -2 1 -2 2 -1 2 2 8 6 9 6 3 0 5 4 4 8 -1 5 -1 7 3 8 2 1 3 3 5 6 1 3 3 5 4 5 1 0 22 17 26 20 0 1 2 3 5 4 2 2 4 4 4 4 0 2 -3 6 -6 7 -2 1 -2 1 -1 -2 0 -3 0 -3 -2 -3 -1 1 -6 1 -10 1 -14 -1 -24 0 -28 0 -4 1 -5 1 -5 0 0 -1 -2 -2 -5 -3 -3 -1 -7 -3 -10 -4 -2 -1 -4 -2 -5 -1 0 1 -1 1 -2 1 -4 0 -7 3 -7 7 -1 2 -2 3 -3 3 -1 0 -3 1 -5 1 -6 3 -7 2 -6 0z m-6 -11 c0 -1 -7 -7 -9 -8 -2 -1 -3 0 -2 3 2 4 11 8 11 5z m-79 -163 c0 -1 0 -3 -1 -3 -1 -2 -6 1 -6 4 0 2 6 1 7 -1z m-5 -7 c0 -1 -5 -13 -6 -13 -2 0 -2 7 -1 9 0 0 1 2 1 3 1 3 5 4 6 1z m10 -8 c6 -6 6 -6 5 -9 -2 -1 -2 -1 -7 4 -3 3 -5 6 -5 7 0 4 2 4 7 -2z m-8 -5 c3 -3 4 -10 2 -11 -1 -1 -2 -1 -4 0 -2 1 -5 1 -6 2 -1 0 -3 0 -3 0 -1 0 8 11 9 11 0 0 1 -1 2 -2z m-110 0 c0 0 -1 -2 -2 -3 -3 -4 -5 -2 -3 1 2 3 5 4 5 2z m98 -11 c1 -1 2 -2 1 -2 -1 -1 0 -2 1 -3 4 -3 0 -5 -5 -3 -4 2 -5 3 -2 7 1 3 2 4 5 1z m-10 -8 c0 -2 0 -2 -2 -2 -4 0 -4 1 -2 3 2 2 3 2 4 -1z m-45 -11 c2 -5 4 -16 2 -13 0 1 -2 5 -4 10 -2 5 -3 9 -3 10 1 2 3 0 5 -7z m55 3 c0 -2 -3 -4 -4 -2 -1 1 0 4 2 4 1 0 2 -1 2 -2z m-24 -7 c3 -3 3 -6 0 -7 -2 -1 -3 -1 -4 1 -2 2 -1 8 1 8 0 0 1 -1 3 -2z m-6 -18 c0 -1 -1 -3 -2 -4 -2 -3 -2 -3 0 -6 l1 -2 -3 2 c-4 3 -5 4 -1 8 3 4 5 5 5 2z m-45 -31 c0 -5 -1 -10 -2 -11 0 0 -1 -3 -1 -5 -1 -6 -3 -6 -4 0 0 3 0 7 2 13 1 5 2 9 2 11 0 1 0 2 1 2 1 2 2 -1 2 -10z m39 -3 c3 -1 4 -5 2 -5 -2 0 -7 6 -6 6 1 1 1 1 4 -1z m-4 -27 c3 0 3 -2 0 -4 -3 -2 -3 -2 -5 0 -2 3 -2 6 1 4 1 0 3 0 4 0z m-94 -9 c0 -3 -2 -7 -4 -6 -1 1 -1 2 0 4 1 6 4 8 4 2z m96 -3 c-4 -8 -5 -10 -7 -12 -2 -3 -3 -3 -4 -2 -3 2 -2 4 1 6 1 1 4 4 5 6 1 3 3 4 4 3 0 0 1 -1 1 -1z M608 395 c-4 -3 -7 -6 -6 -8 2 -1 8 3 9 5 1 2 2 3 3 3 2 1 3 3 1 3 -1 0 -4 -1 -7 -3z M540 364 c-2 -2 -2 -2 3 -6 2 -3 4 -5 4 -5 0 -1 -1 -1 -3 -1 -3 0 -7 4 -7 7 0 1 -1 2 -1 2 -2 0 -7 -4 -7 -5 0 -1 6 -4 15 -7 2 -1 3 -2 3 -4 1 -1 1 -3 1 -4 2 -3 0 -2 -7 4 -6 6 -10 7 -7 2 1 -1 2 -3 1 -3 0 -1 1 -7 3 -14 1 -7 4 -16 5 -20 1 -4 1 -10 1 -13 0 -5 0 -5 -3 -8 -2 -2 -6 -4 -10 -6 -6 -1 -8 -3 -4 -3 0 0 1 -1 1 -1 0 -1 0 -2 0 -2 -1 0 -4 -1 -7 -2 -7 -3 -16 -9 -18 -12 -2 -3 -2 -7 -1 -7 1 0 3 -1 5 -3 5 -4 10 -4 14 -1 4 4 5 5 5 9 0 3 0 4 1 4 3 0 5 -4 5 -10 0 -5 -1 -7 -7 -11 -2 -2 -2 -2 -1 -4 1 -1 2 -2 2 -3 0 -1 0 -2 1 -2 0 0 2 -1 4 -3 1 -2 4 -3 4 -3 1 0 3 -1 4 -2 2 -1 2 -3 2 -9 0 -4 -1 -10 -1 -12 -1 -3 -2 -8 -3 -11 -2 -7 -11 -26 -15 -31 -2 -3 -3 -7 -4 -10 -1 -2 -2 -6 -3 -8 -4 -9 -7 -16 -9 -16 0 -1 -1 -2 -1 -3 0 0 0 -1 -1 -1 -3 1 -18 -33 -18 -41 0 -2 4 -6 6 -6 2 0 23 -9 30 -12 23 -12 39 -31 48 -58 2 -9 2 -9 6 -9 2 0 3 0 3 1 0 0 1 5 1 10 2 12 7 46 8 60 2 26 0 64 -5 97 -4 22 -6 43 -7 63 -3 56 -4 63 -8 79 -5 21 -10 34 -16 36 -1 1 -2 2 -1 3 0 2 -1 3 -2 5 -2 2 -4 4 -4 7 -2 4 -3 5 -5 3z M577 325 c-1 -5 0 -21 2 -29 1 -5 2 -13 2 -16 0 -8 2 -32 4 -38 0 -2 1 -5 2 -7 0 -3 1 -4 1 -3 0 3 2 2 2 -3 1 -2 1 -5 0 -6 -1 -2 -1 -9 1 -12 1 -1 2 14 2 27 0 6 1 9 2 10 1 1 0 11 -2 12 -2 1 -3 6 -5 25 -3 15 -3 19 -5 20 -1 1 -2 2 -2 5 0 4 -1 8 -3 14 -1 1 -1 1 -1 1z M212 289 c-3 -2 -3 -3 -2 -7 0 -3 1 -4 4 -4 1 0 4 0 5 -1 3 -1 3 -1 4 0 2 2 3 13 2 13 0 1 -3 1 -5 2 -4 0 -5 0 -8 -3z M433 288 c-1 0 1 -2 3 -4 3 -3 4 -4 3 -5 0 -2 -1 -2 -2 -2 -1 1 -3 0 -5 -1 -2 -1 -3 -1 -6 1 -2 2 -3 2 -4 1 -1 0 -6 -1 -11 -1 -6 -1 -12 -2 -14 -3 -3 -1 -12 -9 -14 -13 -2 -3 -2 -3 0 -5 1 0 3 -1 5 -2 2 0 6 -2 9 -4 3 -1 7 -3 8 -3 3 0 3 0 3 3 0 2 0 3 1 3 1 -1 3 -1 5 -1 7 -2 14 4 12 10 0 2 0 3 2 4 4 2 11 -2 16 -7 4 -6 5 -6 5 -2 -1 2 -1 3 0 3 0 0 2 -2 3 -4 4 -3 4 -3 5 -2 1 1 2 2 3 2 1 0 2 1 2 2 0 1 -1 1 -3 1 -3 0 -3 0 -4 3 -1 3 -3 5 -6 8 -2 1 -2 1 0 4 1 2 2 2 4 2 4 0 6 1 6 3 0 2 -3 4 -14 7 -9 3 -12 4 -12 2z M167 255 c-1 -2 -4 -3 -5 -3 -2 -1 -5 -2 -7 -3 -3 -2 -5 -3 -6 -3 -2 0 -2 -1 -1 -5 1 -4 5 -3 10 3 3 2 6 4 6 4 2 0 8 3 8 4 0 1 -1 2 -1 3 -1 2 -2 2 -4 0z M350 227 c-5 -5 -12 -13 -16 -19 -3 -4 -7 -11 -9 -13 -4 -5 -6 -8 -6 -11 0 -1 -2 -4 -5 -7 -2 -3 -6 -7 -8 -10 -2 -2 -7 -8 -10 -12 -4 -5 -10 -13 -13 -18 -4 -5 -12 -16 -19 -24 -7 -8 -12 -15 -12 -16 0 -3 -2 -3 -5 -2 -2 1 -3 2 -3 4 0 1 0 2 -1 3 -1 0 -1 0 -1 -1 0 -2 -2 -1 -3 2 -1 2 -1 2 -2 1 -2 -2 -1 -6 0 -10 1 -1 1 -2 0 -2 -1 0 -1 0 0 -2 1 -1 2 -2 2 -4 1 -1 2 -1 5 -1 4 0 5 0 9 -3 2 -2 6 -6 9 -9 3 -2 8 -8 11 -12 12 -19 16 -34 11 -43 -1 -2 -2 -5 -2 -6 0 -1 0 -1 2 0 2 3 4 2 5 0 0 -3 -2 -5 -5 -5 -3 0 -7 -2 -6 -3 5 -4 4 -4 56 -4 l51 0 0 5 c1 2 2 8 2 12 1 3 2 9 3 12 1 5 2 6 9 13 4 4 7 7 7 7 0 1 -3 0 -5 -2 -3 -1 -6 -2 -7 -2 -2 1 -1 5 2 6 1 2 2 3 2 6 0 4 0 4 -3 4 -3 0 -4 2 -2 4 1 0 1 1 0 2 -2 2 -3 5 -2 7 5 5 13 8 27 8 5 0 6 0 6 2 -1 2 -2 3 -7 4 -9 1 -11 2 -17 8 -3 3 -5 6 -6 6 -1 0 -1 1 -1 1 0 1 -2 3 -5 4 -4 2 -6 4 -6 5 0 2 -1 3 -4 3 -3 0 -4 1 -6 7 -1 4 -2 8 -2 10 0 5 -1 12 -3 15 0 1 -1 3 -1 6 0 6 -2 22 -3 25 0 1 -1 6 -1 12 -1 6 -1 12 -2 13 0 1 -1 5 -1 9 -1 4 -1 8 -2 8 0 1 1 8 3 14 0 2 1 3 0 3 0 0 -4 -4 -10 -10z M595 186 c0 -3 2 -7 3 -6 2 1 1 7 -1 8 -1 0 -2 0 -2 -2z M463 177 c-5 -3 -1 -5 6 -4 2 1 5 1 7 0 4 -1 5 0 3 1 -2 1 -11 4 -13 4 -1 0 -2 -1 -3 -1z M283 158 c-1 0 -2 -2 -2 -3 0 -2 -1 -4 -2 -5 -2 -1 -4 -5 -6 -9 -2 -3 -4 -7 -5 -8 -1 -2 -1 -2 0 -2 1 0 5 4 8 9 4 5 8 10 9 11 2 2 3 8 1 9 0 0 -2 -1 -3 -2z M500 141 c-2 -1 -6 -2 -9 -2 -3 -1 -6 -1 -7 -2 -2 -1 -2 -1 1 -2 2 -1 5 -1 7 -1 2 1 4 0 5 0 2 -1 2 -1 4 1 3 2 4 6 3 7 0 0 -2 0 -4 -1z M420 138 c-1 0 -1 -1 -1 -2 0 -1 2 -2 8 -4 10 -3 13 -3 17 -2 2 1 9 2 16 3 7 0 12 1 13 1 0 1 0 2 -1 2 -1 1 -6 2 -20 2 -10 0 -21 0 -25 0 -4 1 -7 1 -7 0z M260 66 c0 0 -1 -2 -2 -3 -1 -1 -1 -1 9 -12 4 -5 11 -17 11 -20 0 -2 0 -2 1 -1 2 1 -1 13 -5 22 -5 10 -14 19 -14 14z M252 57 c0 -3 0 -5 1 -6 1 -1 3 -4 5 -8 4 -7 5 -8 6 -6 2 3 2 0 1 -5 -1 -2 -2 -6 -2 -7 0 -1 0 -4 0 -6 0 -3 0 -4 2 -4 2 0 5 -3 5 -6 0 -3 2 -3 3 0 1 1 2 4 2 5 1 1 2 4 1 9 0 5 -1 7 -3 10 -2 2 -3 4 -3 5 0 0 -1 2 -2 2 -3 2 -6 7 -6 10 0 2 -2 4 -4 4 -1 0 -2 1 -2 1 0 1 -1 2 -2 2 -2 1 -2 1 -2 0z M261 12 c0 -1 1 -2 2 -4 3 -2 3 -2 3 -1 0 3 -2 6 -3 6 0 0 -1 0 -2 -1z M257 4 c-1 0 -1 -1 -1 -2 0 -2 1 -2 4 -2 3 0 4 1 1 3 -2 2 -3 2 -4 1z"/>
</g>
<g transform="translate(0.000000,420.000000) scale(1.000000,-1.000000)" fill="#333333" stroke="none">
<path d="M453 390 c-2 -1 -2 -1 -5 0 -3 1 -12 1 -12 0 -1 -1 -5 -1 -10 -1 -7 0 -8 0 -9 -2 0 -1 -3 -3 -5 -5 -3 -1 -7 -4 -9 -5 -3 -4 -4 -4 -4 -1 0 2 1 3 3 3 2 1 4 2 5 2 1 1 3 3 5 4 7 5 4 7 -5 4 -9 -3 -14 -5 -17 -8 -4 -3 -6 -3 -6 0 -1 2 -1 2 -4 2 -3 -1 -6 0 -5 3 0 3 -1 6 -2 4 -1 0 -3 -1 -4 -1 -3 0 -3 0 -1 -1 1 -1 2 -2 3 -3 0 -2 -4 -6 -9 -7 -2 0 -5 -1 -6 -1 -2 -1 -6 -2 -9 -3 -3 -1 -7 -2 -8 -4 -2 -1 -4 -2 -4 -2 -1 0 -9 -6 -13 -9 -1 -1 -3 -2 -4 -2 -2 0 -3 -1 -3 -2 -1 -1 -2 -1 -4 0 -5 0 -5 -2 -1 -5 2 -1 2 -1 0 -3 -1 0 -2 -1 -4 -1 -3 0 -9 -4 -9 -6 0 -3 -1 -4 -5 -7 -2 -1 -4 -2 -5 -2 -2 1 -4 -1 -4 -4 -1 -4 -4 -6 -12 -7 -3 0 -6 -1 -6 -1 0 0 1 -1 2 -2 1 -1 2 -2 2 -3 0 -1 -4 -5 -10 -10 -2 -2 -4 -4 -4 -5 0 -3 -10 -14 -12 -14 -2 0 -4 -2 -3 -4 0 -2 -2 -5 -3 -4 -1 0 -2 -1 -3 -2 -1 -1 -3 -2 -5 -2 -4 0 -6 -1 -7 -4 -1 -3 -1 -3 -4 -3 -4 1 -4 1 -7 -3 -4 -7 -5 -7 -8 -7 -1 0 -2 -1 -4 -4 -1 -2 -3 -4 -6 -6 -3 -2 -4 -3 -3 -4 0 -2 -3 -4 -5 -3 -1 1 -1 0 -1 0 0 -1 -1 -3 -2 -3 -2 -2 -3 -2 -4 0 -1 0 -3 1 -4 1 -2 0 -8 -5 -8 -7 0 -1 7 -2 9 0 1 1 1 1 0 0 0 -1 0 -2 0 -3 0 -2 -2 -4 -8 -5 -4 -1 -11 -4 -11 -6 0 -1 0 -1 1 -1 1 0 1 0 1 -1 0 -1 -1 -1 -2 -1 -3 1 -6 0 -5 -1 1 -1 4 -1 8 -1 3 1 4 1 4 0 0 -2 -4 -6 -9 -8 -6 -3 -8 -5 -8 -8 0 -3 -3 -14 -5 -17 -1 -3 -1 -5 1 -18 1 -6 0 -14 -2 -17 0 -1 -1 -5 -1 -10 0 -5 0 -9 0 -8 -1 0 -3 -4 -4 -8 0 -1 -1 -4 -2 -5 -4 -5 -4 -7 -3 -11 1 -4 1 -4 -2 -9 -4 -6 -4 -7 -1 -7 2 0 3 -1 3 -4 0 -2 -1 -5 -1 -6 -1 -1 -2 -3 -2 -5 0 -1 -2 -5 -4 -9 -3 -6 -4 -9 -5 -14 0 -4 -1 -7 -1 -8 -1 -2 -2 -5 -2 -7 0 -9 0 -10 -2 -17 -2 -4 -3 -8 -3 -11 l-1 -4 63 0 c41 0 64 0 64 1 0 1 -4 3 -5 2 -2 0 -2 0 -1 2 0 2 0 4 -1 5 0 1 -1 3 0 5 l1 4 3 -7 c3 -7 6 -9 10 -6 2 1 2 2 2 8 0 13 -2 21 -3 15 -1 -4 -3 -1 -4 5 0 8 -1 9 -6 14 -11 12 -13 15 -6 12 3 -2 5 -2 5 0 0 0 0 1 1 1 1 0 1 1 1 2 0 1 1 2 3 2 2 0 2 0 1 2 -1 1 -3 3 -4 4 -2 1 -3 2 -3 3 0 1 0 2 -1 2 0 1 -12 -14 -14 -18 0 -1 -3 -3 -5 -5 -4 -3 -6 -4 -6 -7 -1 -3 -4 -4 -4 -1 0 1 1 4 2 6 l2 3 -3 1 c-2 1 -4 2 -4 2 -2 0 -5 3 -12 12 -3 4 -3 4 -4 19 -1 9 -1 16 -2 18 0 1 1 5 2 9 1 3 2 10 3 14 1 4 2 7 2 8 2 1 5 -4 5 -9 0 -4 1 -6 4 -9 4 -6 3 -5 6 -4 2 2 3 1 4 -4 0 -7 1 -8 4 -5 1 2 3 3 4 3 0 0 1 1 2 2 0 2 -1 3 -4 7 -3 2 -5 5 -5 5 0 2 2 1 5 -1 2 -2 3 -2 5 -1 1 0 2 0 3 0 3 -2 4 0 4 4 -1 1 -2 3 -4 3 -2 1 -3 2 -4 3 0 1 -1 3 -2 4 -3 3 -2 4 1 2 2 -2 3 -2 5 -1 2 1 2 1 2 -2 1 -3 5 -7 6 -7 2 0 5 4 5 6 0 1 -1 2 -2 1 -3 0 -7 3 -7 5 0 1 -1 2 -2 2 -3 0 -10 8 -10 10 1 1 0 3 -1 4 0 1 -2 4 -3 7 -1 3 -1 3 -2 2 -2 -3 -3 -2 -3 1 1 2 0 7 -1 11 -1 4 -1 11 -1 15 0 8 -1 9 -4 4 -2 -4 -3 -3 -2 2 1 2 4 7 5 7 2 0 5 -9 6 -15 1 -8 6 -22 8 -23 1 0 1 1 1 4 -1 2 -1 6 -2 8 0 4 0 4 1 3 1 -1 3 -5 4 -10 1 -4 3 -10 4 -12 1 -2 2 -4 2 -5 0 0 1 -1 2 -2 1 -2 2 -2 3 -1 0 1 1 2 1 3 0 2 2 2 4 1 3 -1 3 -4 0 -8 l-2 -4 2 -2 c2 -2 5 -2 5 0 0 2 7 9 12 11 3 2 6 4 8 7 1 2 3 4 4 4 1 0 3 1 4 2 4 2 8 4 11 4 6 0 8 1 10 8 2 7 4 10 9 12 1 0 2 3 3 6 3 5 15 30 21 40 22 37 31 50 39 60 l4 5 -2 5 c-1 2 -2 6 -3 8 0 2 0 6 -1 9 0 4 0 6 1 6 0 -1 1 -3 1 -5 0 -3 1 -6 2 -8 1 -2 2 -5 3 -6 0 -2 1 -4 2 -4 0 0 4 4 9 10 10 11 24 24 27 24 1 0 2 1 2 5 1 7 2 10 4 13 2 2 5 3 5 1 0 0 0 -2 -1 -4 0 -2 -1 -3 0 -3 2 0 5 3 8 10 3 7 3 7 6 6 2 -1 5 0 11 6 10 9 13 11 15 12 3 2 5 5 3 6 0 1 -1 0 -2 -1z m-64 -15 c-6 -5 -7 -3 -2 2 2 3 3 3 4 2 1 -1 1 -2 -2 -4z m22 2 c0 -1 -2 -4 -4 -4 -2 0 -3 1 0 3 1 2 4 3 4 1z m-31 -7 c0 -1 1 -1 2 -1 2 1 1 -1 -1 -3 -1 -2 -2 -2 -3 -1 0 1 -1 1 -2 -1 -2 -3 -3 -2 -2 2 2 5 6 8 6 4z m21 -2 c0 -1 -5 -6 -7 -8 -4 -2 -4 0 1 5 4 4 6 5 6 3z m-137 -118 c0 -3 0 -7 0 -9 -1 -3 -1 -4 4 -2 3 2 2 0 -1 -4 -2 -3 -4 -4 -4 -2 0 1 -1 2 -2 2 -3 1 -4 4 -2 4 1 0 2 2 2 8 0 5 0 9 1 9 1 2 2 -1 2 -6z m-7 -7 c0 -1 -1 -2 -2 -2 -1 0 -3 4 -3 7 1 1 1 1 3 -1 1 -1 2 -3 2 -4z m-39 4 c0 -2 -6 -4 -9 -4 -2 1 -2 1 2 3 5 2 7 3 7 1z m-11 -7 c4 -3 4 -3 6 -2 3 2 3 2 3 0 1 -2 0 -3 -2 -4 -4 -3 -5 -2 -10 3 -6 7 -5 9 3 3z m48 -10 c1 0 1 -1 1 -2 -1 -3 5 -2 9 0 2 2 4 3 5 3 2 0 1 -3 -2 -7 -5 -4 -10 -4 -12 -1 -1 1 -3 3 -5 4 -4 1 -4 4 0 4 1 0 3 0 4 -1z m23 -8 c0 -1 -1 -3 -1 -4 -3 -1 -2 -3 1 -3 1 0 2 -1 3 -2 0 -1 2 -4 5 -6 4 -5 4 -6 4 -8 -1 -5 -5 -7 -7 -3 -1 2 -2 3 -3 3 -1 1 -1 0 -1 -4 0 -4 0 -5 -2 -5 -1 -1 -2 -2 -2 -3 0 -1 -2 -2 -4 -3 -4 -1 -4 -2 -4 -4 1 -1 0 -2 -1 -2 -1 -1 -2 -2 -2 -4 0 -1 -1 -3 -3 -4 -1 -1 -2 -2 -2 -3 1 -2 0 -2 -1 -2 -1 1 -2 0 -3 0 -3 -4 -3 -2 -1 2 2 3 3 6 3 7 0 1 1 3 3 4 1 1 2 2 1 3 -2 2 -5 2 -7 1 -2 -2 -6 -2 -8 -1 -1 1 0 2 2 4 2 2 4 3 4 3 1 0 3 1 4 3 1 2 3 3 3 3 2 0 8 7 7 8 -1 1 -1 7 0 9 0 0 1 2 1 3 1 2 2 3 3 3 1 0 1 1 1 4 0 3 0 3 3 3 3 0 4 -1 4 -2z m-69 -4 c0 -1 -1 -2 -2 -2 0 0 -2 0 -5 -2 -4 -1 -4 -2 -3 -5 l0 -4 -2 2 c-3 3 -2 5 2 9 7 4 10 5 10 2z m-39 -8 c0 0 -1 -3 -2 -6 -2 -5 -2 -6 2 -3 1 2 4 4 6 5 2 1 1 0 -3 -5 -5 -4 -7 -6 -8 -5 -2 0 -3 -1 -5 -3 -4 -5 -6 -5 -6 -2 -1 4 -1 5 5 12 4 3 7 6 7 7 1 2 3 2 4 0z m38 -11 c2 -5 2 -7 1 -7 -1 0 -2 3 -3 8 -1 4 0 4 2 -1z m44 -2 c3 -1 2 -7 0 -7 -2 0 -6 5 -5 7 0 1 3 1 5 0z m-68 -12 c-4 -10 -8 -17 -11 -19 -2 -2 -4 -4 -5 -6 -2 -2 -3 -3 -4 -4 -1 0 -3 -2 -5 -4 -2 -4 -3 -5 -4 -2 -1 2 0 4 4 6 5 2 16 15 16 19 0 0 1 1 2 2 1 1 2 3 3 4 1 3 5 11 6 11 0 -1 -1 -4 -2 -7z m-21 -6 c0 -6 0 -7 -2 -8 -2 -1 -3 -1 -4 0 -1 2 -1 2 0 5 1 2 1 3 1 4 -1 0 3 6 4 6 0 0 1 -3 1 -7z m79 -14 c1 -3 -2 -9 -5 -9 -2 0 -4 2 -4 8 -1 4 -1 5 1 6 2 2 3 2 5 0 1 -1 3 -4 3 -5z m-91 -47 c-1 -6 -3 -12 -5 -10 -2 1 -1 10 1 14 3 5 4 4 4 -4z m20 -62 c-1 -2 -3 -4 -5 -6 -4 -2 -4 -2 -11 -1 -6 1 -11 3 -11 5 0 1 1 1 3 1 2 0 3 0 3 2 0 1 0 2 1 3 1 0 1 -1 1 -2 0 -7 13 -6 15 0 1 3 1 3 3 2 1 -1 1 -3 1 -4z m19 -7 c-4 -3 -6 -2 -2 1 2 2 4 3 4 2 0 -1 -1 -2 -2 -3z m-20 -31 c-1 -8 -2 -10 -5 -10 -1 0 -2 0 -2 -1 -1 -1 -2 -1 -3 -1 -1 0 -2 -1 -2 -2 -1 0 -1 -1 -2 0 -1 0 0 1 1 2 4 5 7 8 8 10 1 4 3 9 4 9 1 0 1 -3 1 -7z M543 340 c1 -2 1 -3 0 -6 -1 -3 -1 -5 0 -9 1 -3 3 -10 4 -17 l2 -11 -2 -5 c-4 -6 -4 -8 0 -9 1 -1 2 -2 2 -2 0 -2 -7 -5 -12 -5 -12 0 -31 -9 -33 -15 0 -3 2 -6 6 -6 2 0 4 0 5 -1 2 -2 5 -1 7 1 2 3 2 5 0 5 -1 0 -2 0 -2 2 0 1 0 2 2 2 1 0 2 1 3 2 2 1 2 1 5 -1 3 -2 5 -6 5 -10 0 -6 -2 -9 -5 -11 -3 -2 -4 -3 -1 -3 1 0 2 0 3 -1 0 -1 2 -1 6 0 2 0 5 1 5 0 2 -1 3 -24 1 -30 -1 -3 -1 -6 -2 -7 0 -5 -6 -18 -10 -26 -16 -35 -20 -43 -24 -50 -3 -4 -5 -7 -5 -8 0 0 -1 -1 -2 -2 -5 -5 -11 -18 -11 -28 l0 -7 15 -7 c19 -8 20 -8 29 -15 8 -5 12 -6 11 -4 -1 1 0 4 1 7 1 4 2 5 3 4 1 -1 1 3 1 16 -1 18 0 30 2 28 1 0 2 -21 4 -49 0 -13 1 -16 3 -16 1 0 1 -1 1 -2 -1 -3 1 -12 3 -13 1 -1 1 -1 1 1 -1 1 0 2 1 2 0 0 1 -1 1 -3 0 -2 0 -3 1 -2 1 3 2 0 2 -8 1 -9 3 -16 4 -16 1 0 1 -1 1 -2 0 -4 3 -4 3 -1 1 5 4 24 6 36 1 15 1 23 0 23 -2 1 -1 3 1 3 0 0 1 1 1 3 0 1 0 2 -1 2 -1 -1 -1 1 -1 5 0 4 0 6 2 7 2 2 2 3 2 26 -1 25 -3 50 -7 70 -3 16 -5 39 -7 84 -1 29 -4 46 -11 65 -2 7 -6 14 -7 15 -1 0 -1 0 0 -2 1 -2 2 -10 1 -10 0 0 -3 2 -5 5 -5 5 -11 9 -8 6z m19 -245 c-1 -7 -2 -9 -3 -2 0 5 1 9 2 9 1 0 1 -3 1 -7z m20 -3 c1 -6 0 -9 -1 -9 -1 1 -2 4 -2 8 0 6 0 8 1 8 1 0 2 -3 2 -7z m-7 -10 c1 -6 -1 -19 -2 -20 -1 -2 -1 20 0 24 1 4 2 2 2 -4z m6 -7 c0 -2 -1 -3 -1 -2 -1 0 -1 5 0 6 1 2 2 -1 1 -4z m-8 -21 c0 -3 -1 -6 -2 -9 -1 -2 -2 -6 -2 -8 0 -2 0 -4 -1 -4 -1 0 -1 9 0 12 1 1 2 4 2 6 1 6 2 7 3 7 1 0 1 -2 0 -4z M581 302 c0 -2 1 -4 2 -5 1 -1 1 -3 0 -5 0 -1 1 -7 2 -12 0 -6 1 -11 1 -12 -1 0 0 -3 0 -5 2 -4 2 -8 0 -9 -1 -1 0 -9 2 -12 1 -1 1 -1 1 1 0 1 1 3 3 4 2 4 3 5 0 8 -2 1 -3 10 -3 19 0 2 -1 4 -1 5 -1 1 -1 4 -1 7 -1 4 -1 8 -2 10 0 1 -1 4 -2 5 -1 5 -3 5 -2 1z M213 287 c-2 -2 -2 -2 -1 -3 1 0 2 -1 1 -2 0 -2 0 -2 2 -2 1 0 3 -1 5 -2 2 -2 3 -1 3 5 0 2 0 4 0 5 0 1 -1 2 -4 2 -4 0 -5 0 -6 -3z M422 275 c-1 0 -4 -1 -7 -1 -8 -1 -13 -2 -19 -5 -5 -2 -5 -3 -5 -6 0 0 -1 -1 -1 -2 -2 -1 -2 -2 -1 -3 1 0 2 -1 2 -1 1 0 3 -1 4 -2 4 -5 8 -5 8 1 0 3 2 3 6 0 4 -3 9 -4 10 -1 0 1 2 6 3 6 1 0 1 1 1 2 1 2 6 5 8 5 1 0 4 -2 7 -3 6 -4 6 -4 10 -2 l4 1 -6 5 c-5 5 -10 7 -15 5 -2 -1 -3 -1 -5 0 -2 2 -3 2 -4 1z M153 248 c-4 -3 -6 -7 -2 -7 2 0 7 4 8 7 2 3 2 3 0 3 -1 0 -3 -2 -6 -3z M342 216 c-3 -2 -6 -7 -8 -10 -2 -3 -6 -8 -8 -11 -3 -4 -5 -7 -5 -9 0 -2 -2 -5 -7 -10 -3 -4 -8 -10 -10 -13 -3 -3 -6 -8 -9 -11 -3 -3 -8 -10 -12 -16 -6 -9 -14 -19 -27 -34 -2 -2 -3 -4 -3 -5 0 -2 -2 -4 -4 -4 -1 0 -2 -1 -2 -2 0 -2 1 -3 1 -3 1 0 3 -2 4 -4 1 -2 4 -4 7 -6 4 -3 13 -13 18 -22 8 -13 12 -28 9 -36 -1 -4 -1 -4 1 -5 5 -3 2 -9 -3 -9 -3 0 -4 -2 -1 -4 2 -2 3 -2 5 0 1 1 2 1 2 0 0 -2 3 -2 28 -2 l29 0 0 4 c1 2 2 5 4 7 2 3 3 6 3 7 0 2 1 4 2 5 1 2 2 3 1 3 0 1 3 13 4 15 2 1 2 1 4 0 3 -3 4 -7 3 -13 0 -4 0 -5 1 -6 1 0 1 -3 1 -11 l0 -11 3 0 c3 0 3 1 5 10 0 3 1 9 1 14 1 4 2 14 1 24 0 27 2 31 16 34 12 2 13 2 11 3 -1 1 -2 1 -3 1 -3 0 -8 3 -13 6 -2 2 -8 6 -12 8 -8 4 -15 10 -17 15 -1 3 -2 8 -3 13 -1 4 -3 9 -4 11 0 1 -1 4 -1 6 0 4 -1 6 -2 6 -1 0 -1 -2 -1 -4 1 -5 0 -13 -1 -13 -1 0 -2 2 -2 4 0 1 -2 4 -3 5 -1 1 -3 4 -3 6 -1 5 -2 34 -1 41 l0 4 2 -5 c0 -2 1 -6 1 -8 1 -2 1 -5 2 -6 1 -2 1 -5 1 -7 0 -5 2 -11 3 -11 0 0 0 9 0 19 0 20 -2 45 -3 45 0 0 -3 -2 -5 -5z M190 114 c0 -3 1 -4 3 -6 2 -2 3 -3 3 -3 0 1 -5 12 -5 12 -1 0 -1 -1 -1 -3z M213 105 c-4 -3 -4 -5 -1 -5 2 -1 4 -2 6 -4 1 -1 3 -2 3 -2 3 0 -1 14 -4 14 0 0 -2 -1 -4 -3z M187 101 c-1 0 -1 -3 -2 -5 0 -4 0 -5 2 -4 1 0 2 0 2 -3 1 -2 2 -5 4 -7 1 -1 2 -3 2 -4 0 -1 2 -4 4 -6 4 -4 5 -4 8 -4 3 1 4 2 5 4 1 3 0 4 -1 5 -2 1 -6 9 -6 12 0 1 -2 3 -6 6 -3 2 -7 4 -8 5 -2 1 -3 1 -4 1z M215 81 c0 -1 0 -4 -1 -4 -1 -3 3 -2 4 0 2 2 2 3 1 4 -2 4 -4 3 -4 0z M246 74 c1 -1 2 -2 2 -3 0 -1 1 -2 2 -1 2 0 1 2 -1 4 -2 3 -5 3 -3 0z M119 71 c-3 -4 -2 -6 1 -2 2 2 3 3 3 4 0 2 -2 1 -4 -2z M195 67 c1 -4 12 -9 15 -8 0 0 1 1 1 2 0 1 -2 2 -7 3 -3 1 -7 2 -7 3 -2 1 -3 1 -2 0z M262 63 c0 -4 3 -10 7 -13 5 -6 5 0 0 5 -2 2 -3 4 -3 5 0 1 -1 3 -2 4 -2 1 -2 1 -2 -1z M546 57 c0 -2 0 -3 1 -5 0 -2 1 -3 2 -3 1 0 1 7 0 9 -1 2 -2 2 -3 -1z M257 50 c1 -4 3 -7 5 -7 1 0 1 1 0 4 0 1 -1 2 -1 3 -1 1 -2 2 -3 2 -2 0 -2 0 -1 -2z M268 35 c-1 0 -1 -2 -1 -5 0 -3 0 -4 -1 -4 -2 0 -2 0 -1 -5 1 -4 7 -9 9 -7 2 1 0 15 -2 19 -3 3 -3 3 -4 2z"/>
</g>
</svg>
