<svg xmlns="http://www.w3.org/2000/svg" xmlns:dc="http://purl.org/dc/elements/1.1/" xmlns:cc="http://creativecommons.org/ns#" xmlns:rdf="http://www.w3.org/1999/02/22-rdf-syntax-ns#" xmlns:svg="http://www.w3.org/2000/svg" xmlns:xlink="http://www.w3.org/1999/xlink" xmlns:sodipodi="http://sodipodi.sourceforge.net/DTD/sodipodi-0.dtd" xmlns:inkscape="http://www.inkscape.org/namespaces/inkscape" y="0" width="160" height="160"><g transform="translate(0.000000,160.000000) scale(1.000000,-1.000000)" fill="#ffffff" stroke="none">
<path d="M63 144 c-10 -3 -13 -4 -15 -8 -1 -2 -2 -4 -3 -4 0 -1 -1 -2 -1 -2 0 -1 -1 -2 -1 -3 -4 -2 -6 -22 -3 -29 2 -4 2 -5 2 -10 1 -4 0 -5 -1 -5 -1 -1 -4 -3 -7 -5 -4 -4 -5 -5 -5 -9 0 -11 -3 -29 -5 -35 -1 -1 -1 -6 -2 -11 -1 -5 -1 -12 -2 -14 l0 -5 4 -1 c3 0 7 0 9 0 4 1 18 1 19 0 2 -1 66 -1 66 0 0 0 -1 4 -2 8 -2 8 -2 7 2 30 1 9 1 10 -1 24 -2 17 -2 17 -2 24 0 5 0 5 5 10 5 5 6 7 8 12 3 9 3 12 -1 13 -2 1 -3 1 -5 -1 -6 -4 -13 -9 -14 -9 -1 0 -1 1 -2 2 -1 2 -7 11 -11 15 -5 7 -13 12 -19 14 -3 0 -5 1 -5 1 0 0 -4 -1 -8 -2z"/>
</g>
<g transform="translate(0.000000,160.000000) scale(1.000000,-1.000000)" fill="#aaaaaa" stroke="none">
<path d="M67 145 c-4 0 -14 -3 -15 -4 -1 -1 -4 -5 -6 -8 -5 -6 -5 -8 -6 -14 0 -5 0 -10 1 -12 0 -3 1 -6 1 -7 0 -2 1 -3 1 -4 1 0 1 0 1 1 -1 1 -1 1 0 1 0 -1 1 -2 0 -4 0 -1 0 -4 0 -5 0 -2 -9 -12 -11 -12 0 0 -2 -1 -3 -2 -2 -1 -2 -2 -1 -4 0 -1 0 -4 -1 -7 0 -3 -1 -8 -1 -11 0 -3 -1 -7 -2 -9 -1 -2 -1 -4 -1 -5 1 0 0 -2 -1 -4 -1 -4 -3 -19 -3 -27 0 -4 0 -4 2 -5 4 -1 12 -1 12 0 1 1 16 1 18 0 2 -1 6 -1 16 -1 7 1 18 1 24 1 11 0 16 1 13 2 -1 1 -1 2 0 2 0 1 -1 2 -1 4 -1 1 -2 2 -1 2 0 0 -1 1 -1 3 -5 8 -9 18 -8 20 1 7 16 -3 19 -13 l1 -4 1 2 c2 6 3 24 3 33 0 7 0 10 -1 13 -2 3 -2 5 -2 10 1 3 0 6 0 6 0 1 -1 4 0 7 0 6 0 6 5 11 6 5 8 9 5 10 -2 1 -3 0 -4 -3 -1 -2 -4 -4 -9 -7 -7 -3 -8 -4 -7 -5 3 -11 3 -14 -1 -14 0 0 -2 -1 -3 -3 -2 -2 -2 -3 -2 -5 1 -4 1 -9 0 -16 0 -6 0 -6 -3 -6 -2 0 -3 0 -3 2 0 1 1 1 2 1 2 0 3 3 2 9 -1 3 -1 8 -1 11 0 5 0 6 -2 7 -5 1 -5 1 -2 6 2 2 3 4 3 5 -1 0 -2 0 -2 -1 -1 -1 -2 -2 -2 -2 -1 0 -1 0 -1 1 1 0 0 1 0 2 -1 1 -1 0 -3 -2 -1 -3 -8 -11 -9 -11 -1 0 0 8 1 9 1 1 1 1 2 -1 0 -2 1 -3 1 -3 1 0 2 5 1 6 -1 0 -1 1 1 2 1 0 1 1 0 1 0 0 2 3 6 6 3 3 5 5 4 4 -2 0 0 1 3 3 2 2 5 5 7 6 1 1 1 1 -1 0 -2 -1 -3 -2 -3 -1 0 0 -1 0 -1 -1 -1 -1 -2 -1 -3 -1 -1 1 -1 1 -1 0 0 0 -2 -1 -3 0 -3 0 -4 -1 -4 -1 0 -1 0 -1 -1 0 0 1 -1 2 0 2 0 1 -1 1 -1 0 -1 0 -2 1 -2 1 -1 1 -1 2 -2 2 -1 0 -1 0 0 -1 1 -2 -5 -2 -7 0 -1 1 0 1 2 4 3 2 3 2 1 1 -1 -1 -3 -2 -3 -2 -1 -1 -5 -4 -6 -4 -1 0 -1 0 0 1 0 1 0 2 -1 3 -1 1 -1 1 0 3 2 2 1 4 -1 2 -1 0 -2 -1 -3 -1 -1 0 1 2 4 4 9 7 10 8 7 7 -3 -1 -3 -1 -3 2 0 2 0 4 0 4 -1 1 -1 2 0 3 1 1 1 2 1 2 -1 -1 -3 1 -4 3 0 0 -1 0 -2 0z m7 -33 c0 0 -1 -1 -1 -1 -1 -1 -2 0 -1 1 0 1 2 2 2 0z m51 -1 c0 -1 -1 -1 -2 -2 -1 -1 -1 -1 0 0 1 2 2 2 2 2z m-49 -30 c0 -1 -2 -5 -5 -8 -3 -4 -6 -8 -7 -9 -3 -3 -3 -3 -2 -1 1 4 4 9 5 9 1 0 1 1 0 2 0 1 0 1 1 1 1 0 1 0 2 2 0 3 1 4 2 3 1 0 1 0 1 0 -1 2 1 5 2 4 1 0 2 -1 1 -3z m11 -6 c-1 -2 -3 -1 -2 1 0 2 1 2 2 1 0 -1 1 -2 0 -2z m-49 0 c-1 -1 -2 -1 -2 -1 -1 0 -1 0 0 1 0 1 1 1 1 1 1 0 1 0 1 -1z m48 -5 c1 0 1 -2 0 -4 -1 -1 -2 -2 -3 -2 -2 0 -5 4 -3 5 1 1 4 2 5 1 0 -1 1 -1 1 0z m-25 -11 c0 0 -1 -1 -1 -2 -2 -2 -2 -2 -2 0 0 2 1 3 2 3 0 0 1 0 1 -1z m-7 -4 c0 -1 -1 -3 -3 -5 -2 -3 -2 -3 -2 -1 0 1 1 3 3 5 3 2 3 3 2 1z m41 -7 c0 0 -2 0 -2 0 -1 1 0 1 1 1 1 0 2 0 1 -1z m-44 -3 c-2 -2 -3 -3 -3 0 0 0 0 1 1 1 0 -1 1 -1 1 0 1 1 1 1 2 1 0 0 -1 -1 -1 -2z M71 145 c1 0 1 0 2 0 0 1 -1 1 -2 1 -1 0 -1 0 0 -1z M70 116 c-1 -1 -1 -1 0 -1 0 0 1 0 2 1 0 1 0 1 -1 1 0 0 -1 0 -1 -1z"/>
</g>
<g transform="translate(0.000000,160.000000) scale(1.000000,-1.000000)" fill="#555555" stroke="none">
<path d="M73 103 c0 0 -1 -1 -3 -2 -2 0 -4 -1 -5 -2 -1 -1 -2 -2 -3 -2 -1 0 -1 0 0 -1 0 -1 0 -1 -1 -1 -1 0 -2 -1 -3 -2 -2 -2 -3 -3 -4 -3 -1 0 -2 0 -2 -1 1 -1 -14 -16 -18 -17 -1 -1 -2 -1 -2 -1 0 -1 1 -1 2 0 0 0 1 0 1 0 0 -1 -1 -2 -3 -2 l-2 -1 2 -1 c2 -1 3 -1 5 2 2 2 3 3 3 4 -1 1 -1 1 0 1 1 0 3 1 4 3 l3 3 -2 -3 c-1 -2 -2 -4 -2 -4 1 -1 0 -3 -1 -4 -1 -2 -2 -3 -1 -6 0 -2 0 -4 0 -5 0 0 0 0 0 0 1 1 2 0 3 -2 1 -2 1 -2 2 0 0 1 1 2 1 1 1 0 0 -1 -1 -3 -1 -1 -1 -2 0 -2 0 0 0 -1 -2 -2 -1 -1 -2 -2 -1 -2 0 -1 2 1 4 4 3 2 5 5 7 5 1 1 3 3 5 6 11 20 18 30 21 30 1 0 1 0 1 1 -1 1 -1 2 0 3 0 1 1 1 1 0 0 0 2 1 4 3 2 1 4 3 4 3 1 0 1 1 1 1 0 1 -1 1 -4 1 -2 -1 -4 -1 -6 -1 -1 0 -2 -1 -3 -1 0 -1 0 -1 2 -1 1 1 2 1 2 0 0 -1 0 -2 -1 -2 -1 0 -1 -1 -1 -1 0 -1 -1 -2 -2 -2 -1 0 -1 0 0 2 2 2 0 2 -3 0 -2 -3 -3 -2 0 2 1 1 1 2 0 2 -1 0 -1 0 0 1 0 1 0 1 -1 1 -1 0 -1 -1 -1 -2z m-3 -7 c-1 -1 0 -2 1 -3 0 -2 1 -3 1 -4 0 -2 -1 -1 -2 2 -1 2 -2 5 -1 5 0 1 1 1 1 0z m-6 -2 c0 0 0 -1 -1 -1 0 1 0 1 0 2 1 2 2 1 1 -1z m-9 -12 c0 -2 0 -2 -1 -1 0 1 -1 2 0 3 1 2 1 1 1 -2z m-6 -3 c-1 -1 -1 -1 -1 0 0 1 1 2 2 1 0 0 0 -1 -1 -1z m4 -2 c0 -7 0 -8 1 -8 0 0 1 -1 2 -3 1 -3 1 -3 0 -3 0 1 -1 0 -1 -1 -1 0 -1 -1 -2 0 -1 0 -1 0 -1 -1 1 0 0 -2 -1 -3 -1 -1 -1 -1 0 1 0 1 0 2 -1 2 -1 -1 -1 0 -1 0 1 0 1 1 0 2 0 1 0 1 1 0 1 -1 1 -1 2 1 2 3 1 5 -1 4 -2 0 -3 0 -4 1 0 1 0 1 1 1 1 -1 1 0 0 2 -1 1 -1 1 0 1 1 -1 1 -1 1 0 0 2 3 8 3 8 1 0 1 -2 1 -4z m9 1 c0 0 -2 1 -2 2 0 1 1 0 1 0 1 -1 2 -2 1 -2z M106 98 c-1 -1 -1 -1 0 -3 1 -2 2 -5 2 -8 0 -3 1 -5 1 -5 2 0 0 -2 -4 -2 -5 -2 -6 -3 -3 -4 1 -1 2 0 2 1 0 0 0 1 1 1 2 0 2 -3 1 -5 -1 -1 -1 -1 0 -1 3 1 3 -2 2 -7 -1 -5 -6 -15 -8 -18 -1 -1 -2 -4 -3 -5 0 -3 0 -3 4 -5 6 -3 10 -7 12 -13 l2 -4 1 6 c1 9 1 28 -1 45 -2 18 -3 21 -4 21 -1 0 -1 0 0 1 0 1 0 1 -1 1 -1 0 -2 0 -2 1 -1 2 -1 2 0 3 1 1 1 1 1 1 -1 0 -2 0 -3 -1z m6 -58 c-1 -2 -1 -4 -1 -5 0 -4 -2 0 -2 5 0 3 0 4 1 3 1 0 2 -1 2 -3z M42 83 c-1 -1 -1 -2 1 -2 0 0 1 1 1 2 0 1 -1 1 -2 0z M88 82 c0 -1 1 -1 2 -1 1 0 0 1 -1 1 -2 1 -2 1 -1 0z M78 79 c-2 -2 -2 -2 0 -3 1 -1 1 -1 2 0 0 1 1 1 2 0 1 -1 3 0 3 1 -1 0 -1 1 0 1 0 1 1 1 1 0 1 -1 2 -1 3 -1 1 0 1 0 0 2 -2 1 -9 1 -11 0z M30 75 c-1 -1 -1 -2 0 -2 0 0 1 1 2 2 2 1 1 1 -2 0z M68 68 c-4 -6 -17 -24 -18 -26 -1 0 0 -3 2 -6 2 -2 4 -5 4 -6 0 -1 0 -3 1 -4 0 -2 -1 -3 -1 -3 -1 0 0 -1 3 -2 l4 -1 -4 1 c-3 0 -5 0 -6 1 -2 0 -2 0 0 -2 3 -3 3 -3 1 -4 -2 -2 -2 -2 -2 -1 1 1 0 2 -1 3 -1 1 -1 1 -1 0 1 -2 1 -2 -2 -1 -1 1 -2 2 -1 3 0 0 0 1 -1 2 -1 1 -4 6 -3 6 1 2 3 0 3 -3 0 -1 0 -2 1 -2 2 0 1 4 -1 6 -1 1 -2 2 -2 3 1 0 0 1 0 2 -2 0 -4 -2 -4 -4 1 0 1 -1 0 0 -1 0 -1 1 -1 2 0 1 -1 3 -2 4 -2 1 -2 2 -2 8 1 8 1 9 4 7 1 -1 2 -1 2 0 0 1 0 1 1 0 1 0 1 1 0 2 -1 1 -2 2 -2 1 -1 -2 -3 2 -2 5 0 2 -1 3 -1 3 -1 0 -1 -1 -1 -1 0 -1 -1 -3 -2 -5 -2 -1 -3 -3 -3 -4 0 -1 0 -1 -1 -1 -2 0 -1 2 2 6 2 2 3 4 3 5 0 1 1 2 2 2 0 0 1 1 1 2 0 2 0 2 -3 -1 -2 -2 -3 -4 -3 -5 0 -1 -1 -2 -1 -2 -2 -1 -2 0 -1 1 0 2 1 3 0 3 0 1 0 2 1 2 1 2 1 2 0 1 -2 0 -2 -2 -4 -12 0 -4 -1 -8 -1 -9 -1 -1 -1 -4 -1 -5 0 -1 0 -3 -1 -3 -2 -2 -3 -15 -2 -21 0 -4 0 -6 -1 -8 -1 -2 -1 -2 0 -3 2 -1 13 -1 13 0 0 1 1 1 2 0 1 0 1 0 1 2 l0 3 2 -3 c2 -2 2 -2 3 -1 1 1 1 1 1 0 0 0 1 -1 2 -1 1 0 1 0 0 2 -1 2 -1 2 1 0 l2 -2 0 3 c0 2 -1 3 -2 5 -2 1 -3 3 -2 4 0 2 0 2 2 0 1 -1 3 -2 4 -2 1 0 2 -1 2 -3 0 -2 0 -3 -1 -3 -1 1 0 -4 1 -5 2 -2 5 -1 8 1 1 1 3 2 4 2 2 0 7 5 9 9 1 2 2 8 2 13 l1 10 3 1 c1 0 2 1 1 1 -3 0 -9 7 -9 9 0 1 0 2 -1 1 -1 0 -2 1 -2 3 -1 4 -1 9 0 7 1 -3 2 -1 2 4 0 3 0 5 0 6 2 2 0 1 -2 -2z m-39 -24 c-1 -2 -2 -4 -2 -4 0 1 1 8 2 8 0 0 0 -2 0 -4z m6 -10 c0 -1 0 -1 -1 0 -1 0 -1 0 -1 -1 0 -1 -4 -1 -4 0 -1 0 -1 1 0 1 1 1 1 1 1 0 0 -1 0 -1 1 -1 1 0 1 1 1 2 0 2 0 2 2 1 0 -1 1 -2 1 -2z m38 -9 c0 -6 0 -7 -3 -11 -2 -4 -6 -7 -8 -6 0 0 2 4 4 9 2 4 4 9 5 11 1 6 2 4 2 -3z m-40 0 c0 -3 -1 -4 -1 -3 -1 1 0 5 1 7 1 2 1 0 0 -4z M38 48 c0 0 1 -1 2 -2 2 -1 2 -1 1 1 -2 2 -3 2 -3 1z M37 42 c0 -1 1 -3 2 -4 1 -2 2 -2 2 -1 0 1 -1 3 -2 4 -1 2 -2 2 -2 1z M51 35 c0 0 1 -1 2 -2 1 -1 1 -1 0 1 -1 2 -2 3 -2 1z M52 28 c0 -2 0 -3 1 -3 1 -1 1 0 1 1 0 2 0 3 -1 4 -1 0 -1 -1 -1 -2z"/>
</g>
</svg>
