<svg xmlns="http://www.w3.org/2000/svg" xmlns:dc="http://purl.org/dc/elements/1.1/" xmlns:cc="http://creativecommons.org/ns#" xmlns:rdf="http://www.w3.org/1999/02/22-rdf-syntax-ns#" xmlns:svg="http://www.w3.org/2000/svg" xmlns:xlink="http://www.w3.org/1999/xlink" xmlns:sodipodi="http://sodipodi.sourceforge.net/DTD/sodipodi-0.dtd" xmlns:inkscape="http://www.inkscape.org/namespaces/inkscape" viewBox="0 0 800 533"><rect x="0" y="0" width="800" height="533" fill="#b266b2"/><g transform="translate(0.000000,533.000000) scale(1.000000,-1.000000)" fill="#000000" stroke="#d83359" stroke-width="5">
<path d="M374 487 c-4 -1 -9 -2 -10 -3 -1 0 -3 -1 -6 -1 -2 -1 -7 -3 -11 -5 -4 -1 -8 -3 -10 -3 -1 0 -4 -1 -7 -2 -3 -2 -6 -3 -7 -3 -1 0 -3 -1 -4 -3 -2 -1 -4 -2 -4 -1 -1 0 -10 -8 -10 -11 -1 -1 -2 -4 -4 -5 -2 -2 -2 -2 -1 -4 1 -1 0 -2 -3 -3 -2 -1 -3 -3 -3 -4 0 -1 -2 -5 -6 -8 -5 -5 -6 -6 -8 -5 -3 0 -5 -2 -4 -7 1 -2 1 -4 0 -6 -1 -1 -2 -4 -3 -6 0 -3 -1 -5 -3 -7 -3 -3 -3 -3 -2 -6 0 -2 0 -4 -1 -5 -3 -5 -1 -38 2 -51 2 -7 2 -12 0 -17 -1 -4 -1 -7 -1 -18 1 -15 4 -25 11 -39 6 -12 10 -25 10 -36 1 -8 2 -11 5 -17 5 -12 4 -17 -5 -27 -4 -4 -7 -9 -9 -14 -3 -6 -6 -9 -14 -18 -6 -5 -12 -11 -14 -12 -5 -3 -6 -3 -30 -8 -18 -4 -25 -7 -41 -13 -15 -7 -27 -10 -49 -15 -12 -2 -22 -5 -25 -6 -6 -3 -19 -8 -34 -12 -6 -2 -16 -6 -22 -8 -14 -5 -20 -11 -27 -24 -5 -10 -12 -31 -16 -51 l-1 -3 355 0 c283 0 355 0 355 1 0 2 -7 7 -11 9 -2 1 -7 4 -11 7 -5 3 -11 7 -15 9 -4 2 -17 9 -28 15 -24 14 -26 15 -48 23 -19 6 -20 7 -16 14 3 5 3 9 2 14 -1 5 -4 8 -20 18 -7 5 -15 10 -17 12 -2 3 -8 7 -12 10 -16 12 -16 12 -11 25 4 7 8 21 11 35 1 3 3 9 4 13 2 9 3 41 1 56 -2 18 -3 47 -2 59 1 9 1 10 -2 22 -2 11 -2 13 -2 32 -1 19 -1 21 -3 25 -3 6 -6 12 -7 18 -2 6 -8 19 -10 20 -3 2 -7 5 -8 8 -1 1 -2 2 -2 2 -1 0 -2 1 -3 2 -1 1 -4 2 -6 3 -4 3 -6 4 -6 7 0 1 -2 2 -5 3 -3 2 -4 3 -5 5 0 3 -1 4 -5 5 -1 0 -4 0 -5 1 -2 0 -6 1 -8 2 -3 1 -7 2 -8 2 -2 1 -7 2 -10 3 -4 1 -9 2 -11 3 -2 1 -7 2 -13 2 -6 1 -16 2 -22 3 -14 1 -18 1 -29 -1z m-65 -31 c-2 -2 -2 0 -1 2 1 1 2 1 2 0 0 -1 0 -2 -1 -2z"/>
</g>
<g transform="translate(0.000000,533.000000) scale(1.000000,-1.000000)" fill="#ffccff" stroke="none">
<path d="M374 487 c-4 -1 -9 -2 -10 -3 -1 0 -3 -1 -6 -1 -2 -1 -7 -3 -11 -5 -4 -1 -8 -3 -10 -3 -1 0 -4 -1 -7 -2 -3 -2 -6 -3 -7 -3 -1 0 -3 -1 -4 -3 -2 -1 -4 -2 -4 -1 -1 0 -10 -8 -10 -11 -1 -1 -2 -4 -4 -5 -2 -2 -2 -2 -1 -4 1 -1 0 -2 -3 -3 -2 -1 -3 -3 -3 -4 0 -1 -2 -5 -6 -8 -5 -5 -6 -6 -8 -5 -3 0 -5 -2 -4 -7 1 -2 1 -4 0 -6 -1 -1 -2 -4 -3 -6 0 -3 -1 -5 -3 -7 -3 -3 -3 -3 -2 -6 0 -2 0 -4 -1 -5 -3 -5 -1 -38 2 -51 2 -7 2 -12 0 -17 -1 -4 -1 -7 -1 -18 1 -15 4 -25 11 -39 6 -12 10 -25 10 -36 1 -8 2 -11 5 -17 5 -12 4 -17 -5 -27 -4 -4 -7 -9 -9 -14 -3 -6 -6 -9 -14 -18 -6 -5 -12 -11 -14 -12 -5 -3 -6 -3 -30 -8 -18 -4 -25 -7 -41 -13 -15 -7 -27 -10 -49 -15 -12 -2 -22 -5 -25 -6 -6 -3 -19 -8 -34 -12 -6 -2 -16 -6 -22 -8 -14 -5 -20 -11 -27 -24 -5 -10 -12 -31 -16 -51 l-1 -3 355 0 c283 0 355 0 355 1 0 2 -7 7 -11 9 -2 1 -7 4 -11 7 -5 3 -11 7 -15 9 -4 2 -17 9 -28 15 -24 14 -26 15 -48 23 -19 6 -20 7 -16 14 3 5 3 9 2 14 -1 5 -4 8 -20 18 -7 5 -15 10 -17 12 -2 3 -8 7 -12 10 -16 12 -16 12 -11 25 4 7 8 21 11 35 1 3 3 9 4 13 2 9 3 41 1 56 -2 18 -3 47 -2 59 1 9 1 10 -2 22 -2 11 -2 13 -2 32 -1 19 -1 21 -3 25 -3 6 -6 12 -7 18 -2 6 -8 19 -10 20 -3 2 -7 5 -8 8 -1 1 -2 2 -2 2 -1 0 -2 1 -3 2 -1 1 -4 2 -6 3 -4 3 -6 4 -6 7 0 1 -2 2 -5 3 -3 2 -4 3 -5 5 0 3 -1 4 -5 5 -1 0 -4 0 -5 1 -2 0 -6 1 -8 2 -3 1 -7 2 -8 2 -2 1 -7 2 -10 3 -4 1 -9 2 -11 3 -2 1 -7 2 -13 2 -6 1 -16 2 -22 3 -14 1 -18 1 -29 -1z m-65 -31 c-2 -2 -2 0 -1 2 1 1 2 1 2 0 0 -1 0 -2 -1 -2z"/>
</g>
<g transform="translate(0.000000,533.000000) scale(1.000000,-1.000000)" fill="#d999d9" stroke="none">
<path d="M318 461 c0 -2 0 -3 -1 -4 -1 0 -2 -1 -2 -3 -1 -4 -5 -7 -8 -8 l-3 0 2 -2 3 -2 -3 -1 c-2 0 -3 -1 -4 -2 0 0 -1 -1 -2 -1 -1 0 -2 -1 -2 -1 0 -1 -1 -1 -1 0 -1 0 0 2 1 3 1 1 1 1 -1 1 -1 0 -1 -1 -1 -4 0 -3 -6 -9 -6 -6 0 1 -2 -1 -5 -5 -6 -6 -8 -8 -7 -3 1 1 1 2 0 2 -1 0 -2 -3 -1 -6 0 -2 0 -4 -1 -6 -1 -2 -2 -5 -2 -7 -1 -3 -2 -5 -4 -6 -3 -3 -4 -5 -1 -4 2 0 3 -2 1 -4 -1 0 -1 0 -1 1 1 0 1 1 0 1 -1 0 -1 -1 -1 -3 0 -1 -1 -3 -1 -3 -3 -1 -1 -37 3 -51 1 -4 2 -9 3 -11 0 -3 1 -3 3 -3 0 0 1 -1 1 -3 1 -2 1 -2 -3 -2 -4 1 -5 -2 -5 -16 l0 -13 4 -7 c6 -12 15 -33 15 -36 0 -2 1 -7 1 -10 1 -4 1 -9 1 -11 0 -2 1 -4 1 -4 0 -2 1 -2 1 -6 0 -1 1 -3 2 -4 3 -3 6 -9 6 -11 0 -6 14 -26 18 -26 1 0 2 -1 2 -1 0 -1 3 -5 8 -9 4 -4 7 -8 7 -9 0 -1 2 -3 5 -5 3 -2 10 -7 15 -12 6 -4 13 -10 17 -12 6 -5 7 -7 4 -7 -2 0 -8 -7 -8 -9 0 -1 0 -1 -1 -1 0 0 -1 -1 -1 -3 0 -4 -1 -5 -2 -2 -2 1 -2 1 -2 -3 0 -6 2 -10 3 -10 2 1 3 -6 2 -6 -1 -1 -1 -1 0 -1 0 0 1 -1 1 -2 0 -1 3 -7 6 -12 4 -6 8 -14 10 -17 4 -7 9 -13 11 -13 1 0 3 -1 4 -3 l2 -3 -2 -1 c-3 0 -2 -2 1 -3 2 -1 3 -1 3 -4 0 -2 0 -4 1 -5 0 0 2 -4 4 -8 2 -4 5 -8 6 -9 0 -1 1 -2 1 -3 0 -1 3 -1 14 -1 13 0 14 0 13 2 0 1 -1 3 -1 6 0 2 -1 5 -2 7 -3 6 0 8 4 3 2 -2 4 -3 5 -3 0 0 2 -1 2 -2 2 -3 3 -4 1 -4 -2 2 -2 -2 0 -4 1 0 1 -2 1 -3 -1 -2 0 -2 2 -2 2 0 2 0 2 3 0 5 3 6 5 3 1 -1 2 -3 2 -4 0 -1 1 -2 2 -2 3 0 3 1 0 4 -3 3 -4 6 -1 6 2 0 6 -4 6 -6 -1 -1 0 -2 1 -3 3 -1 3 -1 3 1 0 1 0 1 1 0 2 -2 4 -2 22 -2 l21 0 4 4 c3 4 10 8 12 8 1 0 -7 -8 -11 -10 -1 -2 -1 -2 2 -2 3 0 8 4 8 6 0 0 1 1 3 2 1 0 2 2 3 2 0 2 5 3 5 1 0 -1 1 -1 2 -1 1 0 2 1 3 3 0 3 3 4 6 2 2 -1 5 0 6 5 0 4 3 6 4 4 1 -1 0 -5 -2 -5 0 0 -1 -1 0 -2 0 -2 0 -3 -1 -4 -1 -1 -2 -2 -2 -3 0 0 -1 -2 -2 -3 -2 -1 -3 -2 -3 -3 0 0 -1 -1 -2 -2 -1 -1 -1 -1 1 -1 1 0 2 1 2 2 0 0 1 2 3 2 1 1 2 2 2 3 0 2 3 4 5 4 2 0 1 -2 -4 -7 l-5 -5 10 0 10 0 -1 5 c0 4 0 5 1 3 0 -1 1 -4 1 -5 l0 -3 70 0 c68 0 70 0 69 2 -1 2 -10 8 -13 9 -1 1 -5 3 -8 5 -4 3 -12 8 -19 12 -8 4 -20 10 -28 15 -19 11 -28 15 -47 22 l-17 5 -3 -3 c-1 -1 -2 -3 -3 -4 0 -1 0 -3 -1 -4 -2 -2 -2 -2 -3 -1 0 1 1 3 2 5 1 1 2 3 2 4 0 0 0 1 1 1 1 0 2 1 2 3 1 1 2 2 2 1 0 -1 1 1 3 4 2 6 4 14 2 15 -1 0 -1 1 -1 2 0 2 -4 5 -6 5 -2 -1 -3 -5 -1 -5 1 -1 1 -2 1 -3 0 -2 -1 -4 -5 -6 -6 -4 -11 -9 -12 -12 0 -1 -1 -3 -3 -5 -4 -3 -4 -5 -1 -12 2 -5 6 -11 6 -8 0 0 1 1 2 1 1 0 2 0 1 -1 0 -2 3 -22 5 -28 1 -2 1 -4 1 -5 -1 0 -1 2 -2 5 -1 3 -2 5 -2 4 -1 -1 -1 -1 -2 0 -1 1 -1 2 0 5 1 4 1 4 0 6 -1 1 -2 3 -2 4 0 1 -1 4 -3 6 -2 2 -3 4 -3 4 0 1 -1 2 -2 4 -1 1 -2 4 -2 5 0 2 -1 3 -2 4 -1 0 -1 1 0 1 1 0 2 6 0 6 0 0 -2 -1 -4 -2 -2 -2 -4 -3 -7 -3 -3 0 -4 0 -2 1 1 0 3 1 4 0 3 0 5 1 2 3 -3 2 -2 6 2 6 1 0 3 1 3 2 0 1 1 2 3 3 1 1 3 3 3 3 0 0 0 1 -1 1 0 1 0 2 1 3 2 2 2 2 3 0 2 -1 8 -1 9 1 0 1 1 3 2 4 1 2 1 3 0 3 -1 0 -2 1 -3 2 -1 1 -2 2 -3 2 -4 2 -17 11 -17 12 0 1 -1 1 -2 1 -4 0 -4 2 -1 5 2 3 2 4 1 4 -1 0 -2 -1 -3 -2 -1 -2 -2 -2 -3 -1 -1 1 -1 1 1 3 3 3 2 6 -1 5 -2 0 -2 1 -2 4 0 0 -3 3 -7 5 -4 3 -8 6 -9 7 -1 2 -1 2 -3 0 -2 -2 -2 -2 -4 -1 -1 2 -1 2 -2 0 -1 -1 -1 -2 0 -3 0 -1 -1 -1 -1 -1 -1 0 -2 -1 -3 -3 0 -2 -1 -3 -1 -2 -1 0 -1 -1 -2 -2 0 -1 -1 -2 -3 -3 -1 0 -2 -2 -2 -2 0 -1 0 -2 -1 -2 -1 0 -1 0 -1 -1 0 -1 -3 -5 -5 -5 0 0 -1 1 -1 1 0 1 -2 0 -4 -2 -2 -2 -4 -3 -6 -3 -4 0 -4 0 -3 1 2 1 2 2 2 3 -1 0 0 1 0 2 1 2 1 3 0 3 -1 1 -1 1 -1 -1 0 -1 0 -1 -1 1 l-1 2 -3 -3 c-2 -2 -5 -3 -7 -3 -3 0 -3 0 3 4 1 1 2 2 1 3 0 1 0 2 1 2 0 -1 2 1 3 4 2 6 2 7 1 7 -1 -1 -1 0 -1 2 0 1 0 2 -1 1 0 -1 -1 -2 -2 -2 0 -1 -1 -2 -1 -2 0 -1 0 -1 1 -1 1 1 1 0 1 -2 0 -1 -1 -3 -1 -2 -1 0 -2 0 -4 1 -1 0 -2 -1 -2 -3 -1 -4 -4 -7 -5 -6 0 1 0 2 1 3 1 2 1 2 0 3 0 0 -1 1 0 2 0 1 0 2 -1 2 0 0 -1 -1 -1 -3 0 -3 0 -3 -1 -2 -1 2 -1 3 0 4 1 2 1 3 0 3 -2 -2 -2 2 0 4 1 0 2 3 3 4 0 3 0 3 1 1 1 -4 3 -4 4 0 0 2 1 4 1 5 1 0 1 2 0 3 0 1 0 3 -1 5 0 1 0 2 0 3 0 0 0 0 -1 -1 -2 -3 -1 2 1 5 l1 3 0 -4 c0 -1 1 -3 2 -4 1 -1 1 -1 1 2 -1 3 -1 3 0 2 1 0 1 0 0 1 -1 2 -2 8 -1 8 1 0 1 -1 2 -2 0 -2 1 -2 3 2 2 3 2 4 1 4 -2 1 -3 1 -3 0 0 -1 -1 -1 -2 0 -1 1 -2 0 -3 -2 -1 -1 -2 -3 -3 -3 -1 -1 -3 -5 -4 -10 0 -2 -1 -4 -2 -6 0 -2 -1 -3 -1 -4 1 0 1 1 2 3 1 2 2 3 3 3 1 0 1 0 0 -3 -1 -2 -2 -4 -2 -4 0 -1 -1 -3 -2 -4 -1 -1 -2 -3 -2 -4 1 0 1 -1 0 -1 0 0 -1 -2 -2 -5 -2 -4 -4 -8 -4 -5 0 1 0 2 -1 2 -1 0 -1 -1 -1 -2 0 -2 0 -3 -2 -3 -1 0 -2 0 -1 2 0 1 1 2 1 1 2 0 1 2 -1 3 -2 2 -2 2 -1 0 0 -1 0 -1 -1 -1 -1 0 -2 3 -3 6 -2 3 -3 6 -3 7 -2 2 -3 0 -3 -3 l0 -2 -3 2 c-1 1 -3 3 -4 4 -1 1 -1 1 -1 0 0 -1 0 -1 -1 -1 0 1 -1 -1 -2 -3 -1 -4 0 -7 2 -12 1 -1 0 -2 0 -2 -1 -1 -1 -1 0 -1 2 0 -1 -3 -3 -3 0 0 -1 0 -1 -1 1 0 -1 -1 -2 -2 -3 0 -5 0 -9 1 -6 2 -8 4 -3 4 3 0 4 0 4 2 0 1 -1 1 -2 1 -3 -1 -9 0 -8 1 0 1 -1 1 -1 1 -1 0 -2 -1 -2 -2 0 -1 0 -2 -2 -2 l-3 -1 2 3 c1 1 2 3 1 4 0 0 1 2 3 4 4 3 6 4 5 2 -1 -1 -1 -2 0 -2 1 0 1 0 1 1 0 0 1 1 2 1 1 1 2 2 2 3 1 2 1 2 -3 1 -3 -2 -6 -2 -8 -1 0 1 -2 0 -3 -2 -2 -2 -3 -4 -3 -5 0 -1 -1 -2 -4 -2 -2 0 -4 0 -4 1 0 1 0 1 -1 1 -2 0 -3 0 -5 2 -1 1 -2 2 -2 2 0 -1 -1 0 -1 0 -3 2 -1 5 1 5 2 -1 3 0 4 0 1 1 2 1 2 0 0 -1 -1 -1 -2 -2 -2 -1 -2 -1 0 -1 3 -1 6 -3 6 -5 0 0 1 -1 2 -1 3 0 3 0 3 2 0 3 -1 3 -3 2 l-2 0 2 1 c1 1 3 1 3 1 1 0 4 3 4 4 0 2 -2 6 -3 6 -1 0 -1 -1 0 -2 0 -1 0 -2 -1 -2 -1 0 -1 1 0 1 0 1 -1 1 -3 1 l-2 -1 2 1 c1 1 2 2 2 2 0 1 1 2 2 3 1 1 2 2 1 2 -1 0 -2 0 -3 1 -1 1 -3 2 -3 2 -1 0 -2 -4 -1 -5 1 -2 1 -2 0 -2 -1 0 -2 -1 -1 -2 0 -1 0 -1 -1 0 -2 2 -2 2 -1 3 1 1 1 1 0 3 -1 1 -2 2 -1 3 0 2 0 2 -1 2 -1 -1 -1 -2 -1 -3 1 -1 0 -2 0 -2 -1 0 -1 -1 -1 -2 0 -1 0 -1 -1 -2 -2 0 -2 1 -1 2 0 2 0 3 0 4 0 1 1 3 2 4 1 1 2 2 2 1 0 -1 1 0 2 1 1 1 2 3 1 4 0 1 1 2 1 3 1 1 2 3 2 4 1 1 2 4 3 5 2 3 3 5 1 3 -1 0 -1 0 -1 1 1 0 0 2 0 4 -2 2 -2 3 -3 -3 -1 0 -1 -1 -2 -1 -1 0 -2 0 -2 -1 0 -2 0 -2 1 -1 2 1 2 1 0 -2 -1 -2 -2 -3 -2 -3 -1 1 -3 -1 -3 -4 0 -1 -1 -3 -2 -3 -1 -1 -1 -1 -1 1 0 1 1 2 1 2 1 0 1 1 1 2 -1 1 -1 1 -2 -1 -1 -2 -2 -3 -2 -2 0 1 -1 2 -1 2 -1 1 0 1 1 1 2 0 2 1 2 3 0 1 1 4 2 5 3 3 2 4 -3 7 0 0 2 4 4 5 0 1 1 2 1 4 0 1 1 2 2 3 0 0 1 1 1 2 0 1 1 3 2 3 0 1 1 2 1 3 0 0 2 2 4 5 2 2 4 5 4 6 -1 0 0 1 0 2 1 0 1 -1 1 -2 0 -2 1 -3 1 -3 1 0 1 -1 1 -3 -1 -1 0 -2 0 -2 0 0 1 -1 1 -3 0 -3 -2 -7 -3 -8 -2 -1 -2 -3 -1 -4 0 0 0 -2 -1 -5 -2 -3 -2 -4 -1 -6 1 -1 2 -1 2 0 1 1 1 1 0 2 -1 0 -1 2 0 2 2 0 3 -3 3 -6 -1 -1 -1 -2 0 -2 1 0 1 0 1 1 0 0 1 1 3 1 2 0 3 0 3 -1 -1 -1 -1 -1 -2 -1 -1 0 -1 0 0 -1 1 -1 1 -1 3 1 1 1 2 3 1 3 0 1 1 1 2 0 1 -1 2 -2 2 -3 -1 -2 1 -2 3 -1 1 1 2 1 2 -1 1 -1 1 -3 1 -4 0 -1 0 -2 1 -2 1 0 1 1 1 2 0 2 0 2 1 1 1 -2 1 -2 3 1 2 1 3 2 3 1 0 -1 1 -2 2 -2 1 -1 1 -1 -1 -3 -4 -1 -4 -1 0 -2 1 0 3 0 3 -1 1 -1 6 5 7 7 0 2 1 2 1 0 0 -1 1 -2 1 -2 1 1 1 0 1 0 -1 0 -1 -1 -1 -2 0 -3 4 -3 5 0 1 1 2 2 3 1 1 0 2 1 4 2 1 2 3 3 6 3 4 0 5 -1 3 -1 -1 -1 -2 -1 -2 -2 -1 0 -2 -1 -3 0 -1 0 -1 0 0 -1 0 -1 1 -2 0 -2 0 -1 0 -1 1 -1 0 0 1 1 2 1 2 2 1 -1 -1 -3 -2 -2 -3 -5 -1 -4 1 1 1 1 0 -3 -1 -2 -1 -3 -2 -2 -1 1 -1 1 -1 0 0 0 -1 -2 -2 -2 -1 -2 -1 -2 0 -4 1 0 2 -1 2 0 1 0 1 0 1 -1 0 -1 0 -1 1 -1 1 1 1 0 0 0 0 -1 -1 -2 -1 -2 -1 0 -1 0 -1 -1 0 -1 0 -1 1 -1 1 1 1 0 1 0 0 -1 -1 -2 -1 -2 -1 0 -2 0 -2 -1 0 -4 0 -5 -1 -4 -1 0 -2 -1 -3 -3 -2 -4 -1 -6 0 -7 2 -1 3 0 3 4 1 2 2 4 2 5 1 0 2 2 2 4 1 3 2 5 2 6 1 0 1 1 1 2 -1 0 0 1 0 2 1 1 1 1 -1 1 -1 0 -1 0 0 1 0 0 1 1 1 2 0 1 0 3 1 4 0 1 0 1 1 -1 1 -1 1 0 1 3 1 2 2 5 2 5 2 1 2 8 1 8 -1 0 0 2 2 4 2 1 5 3 5 2 1 0 0 -1 -1 -2 -2 -1 -2 -1 -1 -2 1 -1 2 0 3 0 0 1 1 1 2 1 0 -1 1 0 1 0 1 1 1 0 0 -2 0 -4 0 -4 1 -2 1 1 2 3 2 4 0 1 1 2 1 2 1 0 1 0 0 1 -1 1 -1 1 0 1 0 0 2 -1 2 -2 3 -2 4 -3 3 0 0 1 0 1 2 0 2 -1 4 -1 5 0 1 0 3 1 5 1 1 -1 3 0 4 0 1 1 1 1 0 1 -2 0 -2 0 0 2 2 1 2 1 0 1 0 0 -1 1 -2 2 -1 1 -1 1 1 2 1 1 3 1 4 0 3 0 3 0 2 1 0 1 0 2 2 1 2 0 6 4 5 6 0 0 0 1 1 1 1 0 3 -2 5 -4 1 -2 1 -2 1 -1 0 3 -3 8 -3 7 -1 -1 -4 2 -3 3 0 1 -1 1 -2 2 -2 1 -2 1 -1 2 2 1 2 2 2 4 -1 1 -1 2 0 2 1 0 2 0 2 1 1 2 1 2 0 4 -1 1 -2 3 -3 5 0 1 0 4 0 6 l-1 4 1 -3 c1 -2 2 -3 3 -3 0 0 1 -1 1 -2 1 -1 2 -3 3 -4 2 -2 3 -5 3 -7 0 -1 0 -3 1 -3 1 0 1 1 0 2 0 3 2 5 3 3 1 -1 2 -2 3 -2 1 0 1 0 -1 -2 -2 -2 -2 -2 -1 -4 1 -1 2 -3 2 -5 0 -1 1 -3 1 -4 1 -1 1 -8 0 -9 -1 0 0 -1 0 -3 1 -1 2 -5 2 -7 1 -6 2 -6 3 0 0 2 1 4 1 5 2 3 4 18 5 39 0 23 -1 28 -3 28 -1 0 -2 1 -2 2 0 2 0 2 1 2 1 -1 2 0 2 3 0 2 0 3 -1 3 -1 -1 -1 -1 -1 0 0 2 0 3 -1 2 -1 0 -2 -1 -2 -2 0 -1 -1 -3 -2 -4 -1 -1 -2 -1 -2 0 1 0 0 1 0 1 -1 0 -2 -1 -1 -1 0 -1 -1 -2 -2 -3 -1 -1 -2 -2 -2 -1 0 0 0 0 -1 -1 0 -1 -1 -1 -2 -1 0 1 0 2 1 2 2 2 2 2 -1 4 -2 1 -4 3 -5 4 0 2 -2 3 -2 4 -1 1 -2 2 -1 2 0 1 -5 4 -8 4 -2 0 -3 1 -4 2 -1 1 -3 3 -5 4 -2 1 -4 3 -5 4 -1 1 -2 2 -2 2 -1 0 -4 2 -7 4 l-5 4 0 -3 c1 -3 2 -5 3 -6 3 -3 6 -11 6 -13 0 -2 -1 -3 -1 -3 -1 -1 -2 -1 -2 0 0 0 -3 1 -6 1 -7 0 -11 1 -11 3 0 2 -6 3 -7 1 -1 -2 -7 -1 -6 0 0 1 -2 2 -7 2 -4 0 -6 0 -6 -1 1 -1 1 -1 0 -1 -1 0 -1 -1 -1 -1 0 -2 -2 -3 -6 -4 -2 0 -4 0 -5 0 0 0 -1 0 0 -1 0 -1 0 -1 -1 -1 -1 0 -1 1 -1 2 0 1 -1 2 -1 2 -3 1 -2 4 0 8 1 2 2 5 2 6 0 2 3 4 4 3 1 0 1 0 1 1 -1 1 -1 1 0 1 1 -1 1 -1 1 -2 0 -1 0 -1 1 -1 1 1 1 0 2 -1 1 -2 3 -5 3 -4 0 0 1 2 1 4 1 3 1 5 1 6 -1 1 0 2 1 4 2 2 2 3 1 14 0 6 0 12 -1 12 -1 1 -1 3 -1 6 0 4 1 4 3 4 1 0 2 1 3 3 1 1 3 2 4 2 1 0 2 1 3 2 2 2 2 2 4 0 0 -1 1 -3 1 -4 0 -3 5 -14 8 -17 1 -1 3 -3 4 -4 0 -2 2 -3 3 -3 1 0 2 -1 2 -1 -1 0 0 -1 0 -1 1 -1 2 -2 2 -1 0 0 3 -2 5 -4 4 -3 6 -3 11 -4 5 0 13 2 14 3 1 3 1 4 3 4 1 0 2 0 2 1 0 1 7 4 8 4 1 0 1 1 1 1 0 1 0 1 1 1 1 0 1 1 1 1 -1 1 0 3 0 4 1 1 1 2 0 2 -1 0 -1 1 1 1 1 1 2 2 3 1 2 0 1 1 -1 3 -2 2 -2 2 0 3 1 2 1 2 0 3 -1 2 -1 2 0 4 1 1 2 4 2 7 0 3 0 4 -2 3 -1 0 -1 0 -1 3 1 1 0 5 0 7 -1 2 -2 4 -2 3 0 -1 0 -1 -1 0 -1 1 -1 2 0 3 0 2 -4 5 -12 8 -7 2 -11 2 -18 -2 -6 -3 -7 -3 -9 -2 -1 1 -2 3 -3 4 0 2 0 2 3 2 2 0 2 0 2 1 0 2 0 2 1 1 1 0 1 0 1 1 -1 1 0 2 2 1 2 0 4 1 4 1 1 2 0 4 -3 4 -2 0 -3 0 -3 1 -2 2 -3 1 -3 -1 0 -2 -6 -5 -10 -5 -4 0 -6 0 -7 -2 0 -2 -2 -3 -3 -3 -2 0 -2 0 -1 -2 1 -2 1 -6 0 -6 0 1 -1 0 -1 -1 -1 -1 -2 -1 -4 2 -2 2 -3 4 -3 5 0 0 -1 1 -1 1 -1 1 -2 0 -2 -3 0 -2 0 -3 0 -4 1 0 1 -1 1 -2 0 -1 -1 0 -3 2 l-2 3 0 -3 c1 -2 1 -3 0 -3 -1 0 -2 0 -2 1 -1 0 -3 1 -5 0 -4 0 -5 0 -6 2 -2 1 -4 2 -5 2 -2 0 -3 1 -4 2 0 0 -1 1 -2 1 -1 0 -3 1 -3 2 -2 1 -4 2 -7 2 -2 0 -4 0 -4 1 0 1 -1 1 -2 1 -1 1 -3 1 -5 1 -4 1 -7 2 -13 3 -3 0 -5 1 -6 2 -2 2 -3 1 -5 -1 -1 -2 -2 -2 -6 -2 l-5 1 1 5 c0 6 -1 7 -5 6 -1 -1 -2 -1 -2 0 1 0 0 1 0 1 -1 0 -2 -1 -1 -1 0 -1 -1 -1 -2 -1 -2 0 -3 1 -3 2 0 1 1 1 1 1 1 -1 2 0 1 1 0 2 2 4 2 2 1 -1 2 -1 3 -1 1 0 1 0 0 1 -2 1 -2 1 1 1 3 -1 3 -1 2 0 -1 1 -2 2 -1 3 0 1 0 1 -1 1 0 -1 -1 -1 -1 0 0 1 1 1 5 1 1 0 2 1 1 2 0 1 0 1 1 1 1 -1 1 -1 1 0 -1 1 0 2 3 1 1 0 3 -1 3 0 0 0 1 0 2 -1 1 -1 1 -1 1 0 -1 0 0 1 1 1 1 1 1 1 0 0 0 -1 1 -1 2 0 1 1 2 2 2 2 0 1 1 1 1 0 1 0 1 1 -1 2 -2 2 -2 6 -1 6 1 0 1 0 1 1 0 2 -6 1 -7 -1 -2 -2 -5 -3 -6 -1 -1 0 -2 1 -3 1 -1 0 -3 0 -5 1 l-3 2 0 -4 c0 -2 0 -4 1 -4 1 -1 1 -2 0 -2 0 -1 0 -1 1 0 1 1 2 1 4 -1 1 -1 2 -3 1 -4 0 -1 0 -1 -1 0 -1 1 -1 2 0 2 0 1 0 1 -1 1 -1 -1 -1 -2 0 -2 0 -1 0 -1 -1 -1 -1 1 -2 0 -3 0 0 -1 -1 -1 -1 0 -1 0 -1 0 0 -1 1 -1 1 -2 0 -2 0 0 -1 1 -2 1 -1 1 -2 2 -2 2 -1 -1 -1 0 -1 0 2 1 1 2 -1 2 -1 0 -2 -1 -1 -2 0 0 -1 -1 -2 -1 -3 -1 -6 0 -5 1 0 1 -1 1 -1 0 -2 0 -2 0 -2 3 0 2 0 3 -4 3 -2 0 -4 -1 -4 -2 0 0 1 -1 1 0 1 0 1 0 1 -1 0 -1 -1 -1 -1 -1 -1 0 -1 0 0 -1 1 -2 -1 -4 -4 -4 -2 0 -3 -1 -3 -3 0 -4 -3 -8 -3 -5 0 1 0 2 1 2 0 -1 1 0 1 1 0 1 -1 1 -2 -1 -1 -1 -2 -2 -2 -1 0 1 0 1 -1 0 -1 -1 -1 -1 -1 -1 0 1 -1 0 -1 0 -1 -1 -2 -2 -1 -2 0 -1 0 -1 -1 -1 -1 0 -1 0 -1 -1 1 -1 -2 -1 -3 0 0 1 0 1 1 1 1 -1 1 -1 0 0 0 3 -2 2 -2 0 1 -1 0 -2 -1 -3 -1 -1 -1 -1 -1 0 1 0 0 0 -2 -1 -2 -1 -3 -1 -4 -1 -1 1 -2 14 -1 13 0 0 1 -2 2 -4 l0 -4 1 4 c1 2 1 6 1 8 -1 1 0 3 0 3 1 0 1 3 2 6 0 8 1 11 3 14 2 2 2 2 1 4 -1 2 -1 2 0 3 1 0 1 1 1 1 0 3 0 4 3 5 1 1 2 2 2 3 0 2 0 4 1 5 2 3 3 7 1 7 0 1 -1 0 -1 -1 -1 -2 -1 -2 -1 1 0 4 -1 5 -4 4 -2 -1 -3 0 -3 2 0 1 -1 2 -2 2 -2 1 -2 1 -1 -1z m-28 -37 c0 -1 -1 -2 -2 -2 -1 0 -1 0 1 2 2 2 2 2 1 0z m-1 -39 c0 -1 0 -1 -1 0 -1 2 -1 3 0 2 1 0 2 -1 1 -2z m97 -15 c5 0 9 -1 11 -1 2 -2 2 -2 -3 -3 -3 0 -7 -1 -9 0 -2 0 -5 -1 -7 -1 -3 -1 -5 -2 -6 -2 -1 0 -3 0 -4 -1 -6 -3 -9 -4 -9 -3 0 1 1 3 3 4 1 1 2 2 2 2 0 -1 2 0 4 2 2 2 4 4 5 4 0 -1 1 0 2 1 1 0 2 1 2 0 1 0 5 -1 9 -2z m75 -12 c-1 0 -2 0 -3 1 -2 1 -2 2 -1 2 1 1 4 -2 4 -3z m-117 -5 c-1 -1 -2 -3 -2 -4 0 -1 -1 -2 -1 -2 -1 0 -1 5 1 10 1 2 1 2 3 0 2 -1 2 -2 -1 -4z m-17 4 c0 -1 0 -2 1 -2 1 0 1 -1 1 -1 -1 -3 -3 -2 -4 1 0 2 1 3 2 3 0 0 1 -1 0 -1z m9 -9 c0 0 -1 -1 -1 0 -1 0 -1 -1 0 -2 2 -2 2 -3 1 -4 -1 -1 -1 -1 0 -1 0 1 1 0 1 0 1 -3 -2 -2 -4 2 -1 2 -2 3 -1 2 1 0 1 1 1 2 0 2 0 2 0 6 l-1 3 3 -3 c1 -2 2 -4 1 -5z m-10 -24 c0 -1 -1 -2 -1 -2 -1 0 -1 -1 -1 -2 1 -3 0 -9 -1 -8 -1 0 -1 -1 -2 -2 0 -1 -1 -2 -1 -2 -1 0 -1 -1 -1 -2 0 -1 0 -1 -1 0 -1 0 -1 3 -1 6 1 3 1 4 2 3 1 -1 0 -2 0 -3 -1 -2 -1 -2 0 -1 2 1 2 2 2 5 -1 4 -1 5 2 7 3 4 3 4 3 1z m188 -6 c0 -1 1 -1 3 -1 2 1 2 1 2 -1 -1 -1 -1 -3 -1 -3 0 -1 -2 -1 -6 -1 -3 0 -5 1 -5 2 0 0 -1 1 -2 1 -2 1 -2 1 2 2 6 2 7 2 7 1z m-3 -10 c0 -2 -3 -3 -3 -1 -1 1 0 1 3 2 1 0 1 -1 0 -1z m-158 -3 c0 0 -1 -2 -2 -3 -2 -2 -2 -2 -1 -2 1 0 2 0 2 1 0 1 1 1 2 1 1 0 1 1 1 1 -1 1 0 2 2 1 2 0 3 0 3 1 2 2 3 1 2 -1 0 -1 1 -1 7 -1 5 0 8 -1 8 -2 1 0 4 -1 7 -1 2 -1 6 -2 8 -3 5 -1 15 -1 19 2 2 0 4 1 6 1 2 0 3 0 3 1 0 1 7 2 8 1 1 -1 -6 -12 -12 -17 -2 -3 -4 -5 -4 -6 0 -1 -1 -3 -3 -3 -1 -1 -3 -3 -5 -6 -2 -5 -5 -7 -7 -5 -1 0 -1 1 -1 1 1 1 0 1 -1 1 -2 -1 -3 -2 -2 -2 1 -2 -2 -2 -4 -1 -1 1 -2 2 -3 2 0 0 -1 0 -1 1 0 1 -1 1 -1 1 -1 0 -2 1 -1 3 0 3 0 3 -3 -1 -1 -3 -4 -5 -4 -5 -3 -1 -7 0 -8 3 0 1 -1 2 -3 2 -3 0 -6 4 -4 7 0 1 1 2 2 2 3 0 10 1 10 2 1 1 8 5 9 5 1 0 3 1 3 2 2 1 3 4 1 4 -1 -1 -3 -1 -6 -1 -3 0 -5 -1 -6 -2 -1 0 -2 -1 -3 -1 -3 0 -5 -1 -5 -3 0 0 0 -1 -1 -1 -1 0 -1 1 0 2 0 2 -1 10 -2 10 -1 0 -1 -1 -1 -2 0 -1 0 -2 -1 -2 0 0 -1 -2 -2 -3 -1 -2 -2 -4 -3 -4 -1 0 -1 0 -1 -1 1 0 0 -1 -1 -2 -1 -1 -2 0 -3 3 -1 6 -2 9 -3 7 0 -1 -1 -2 0 -3 0 -2 0 -2 1 -1 1 1 1 1 1 0 0 0 0 -1 -1 -2 -1 0 -1 -1 0 -1 1 -1 1 -2 0 -2 0 -1 -1 -2 -1 -4 0 -1 -1 0 -2 1 0 1 -1 2 0 3 1 2 -1 3 -3 2 -2 -2 -3 0 -1 2 2 2 2 6 1 11 -1 3 -1 3 1 5 1 1 3 2 4 2 0 0 1 0 1 1 0 2 3 1 4 -1z m-30 -6 c-1 0 -1 0 -1 1 0 0 0 1 -1 1 -1 0 -1 -1 -1 -2 0 -2 -2 -3 -2 0 -1 0 0 2 1 3 0 0 1 2 1 3 0 1 1 0 2 -2 0 -2 1 -4 1 -4z m65 6 c-2 -2 -8 -3 -8 -2 0 2 2 3 7 3 2 0 2 0 1 -1z m-46 -13 c-1 -1 -3 -2 -3 -2 -1 0 0 1 0 2 1 1 2 2 3 2 1 0 1 0 0 -2z m4 -19 c0 0 -1 -1 -1 -1 -1 0 -2 1 -2 1 0 1 1 2 2 2 0 0 1 -1 1 -2z m-17 -5 c2 -1 2 -2 1 -3 0 -1 -1 -2 0 -2 0 -1 0 -1 -1 -2 -3 0 -2 -3 0 -3 2 -1 2 -1 1 -3 -1 -1 -1 -3 -1 -4 0 -2 0 -3 -2 -3 -2 0 -2 0 -1 3 0 3 0 4 -2 4 -1 1 -1 2 -1 6 1 5 2 9 3 9 0 0 2 -1 3 -2z m-30 -12 c1 -3 1 -3 -1 -2 -1 1 -2 2 -2 4 0 2 0 3 1 2 0 -1 1 -3 2 -4z m194 2 c3 1 3 0 2 -1 -1 -2 -1 -2 0 -2 1 0 2 0 2 -1 0 -2 1 -4 2 -3 2 0 2 -3 0 -4 -1 -1 -1 -2 0 -2 0 0 1 1 1 1 0 2 2 -2 2 -5 1 -1 1 -2 2 -2 0 0 1 -1 0 -2 0 0 -1 -1 -1 0 0 0 -1 -1 -1 -2 -1 -1 -1 -1 -3 1 -1 1 -2 1 -2 0 0 -2 -3 -3 -3 -2 -2 4 -2 5 -3 5 -1 -1 -3 2 -3 7 -1 2 -1 5 -2 5 -1 0 -1 1 0 2 1 0 2 1 3 0 1 0 1 0 1 2 0 1 0 2 -1 2 -1 -1 -1 -1 -1 -1 0 1 0 2 -1 3 0 1 0 1 1 0 1 -1 3 -1 5 -1z m-198 -8 c-1 -1 -2 -3 -2 -5 0 -3 0 -3 -1 -2 -2 3 -1 6 2 7 1 1 2 2 2 2 0 1 0 1 1 1 0 -1 -1 -2 -2 -3z m13 0 c1 0 1 -2 1 -4 -1 -3 -2 -4 -4 -5 -2 0 -4 -1 -4 0 -2 0 -3 9 -2 10 1 1 8 0 9 -1z m171 -4 c0 -1 0 -1 1 -1 2 -1 1 -4 -1 -4 0 -1 -1 -1 -1 0 1 0 0 2 -1 4 -1 5 -1 6 1 4 1 -1 2 -3 1 -3z m-19 -1 c-1 -1 -2 -1 -3 -2 -2 -1 -2 -1 -1 1 0 1 0 1 -1 1 -1 -1 -1 -1 -1 0 1 0 2 1 2 0 1 0 2 0 2 1 1 1 1 1 2 1 0 -1 0 -1 0 -2z m-35 -2 c0 -2 0 -3 1 -3 2 1 1 -4 -1 -6 -1 0 -1 -1 -1 -3 1 -1 0 -2 0 -2 0 1 -1 0 -2 -1 -1 -2 -1 -2 -4 1 -2 3 -3 4 -1 4 1 0 1 1 1 2 0 0 0 1 1 1 0 -1 0 -2 0 -4 0 -4 2 -4 3 0 1 3 1 4 0 6 -1 1 -1 1 0 1 0 -1 1 0 1 1 1 1 0 2 0 2 -1 1 -1 1 1 2 2 2 2 2 1 -1z m-128 1 c0 -1 1 -2 2 -3 2 -2 1 -2 -2 -1 -2 1 -3 5 -1 5 1 0 1 -1 1 -1z m123 -1 c0 0 -1 -2 -2 -4 -2 -2 -3 -3 -3 -3 0 1 -1 0 -3 -1 -2 -1 -3 -2 -3 -1 0 1 6 7 7 6 1 0 1 1 1 2 -1 0 -1 1 0 0 1 0 1 0 1 1 0 1 0 1 1 1 1 0 1 0 1 -1z m18 -7 c0 -1 -1 -3 -1 -3 -1 -1 -1 0 -1 3 2 4 2 4 2 0z m73 0 c2 0 3 -3 2 -4 -1 0 -1 0 -1 1 1 0 1 1 1 1 -1 0 -2 0 -2 1 -1 0 -2 0 -2 -1 0 -3 -1 -2 -2 1 0 2 1 3 1 2 1 -1 2 -1 3 -1z m17 -8 c0 -2 0 -2 -1 -1 -1 2 -1 3 0 3 1 0 1 -1 1 -2z m-33 -33 c-1 -1 -1 -1 -1 -1 1 0 0 -1 0 -2 -1 0 -2 -2 -1 -2 0 -1 0 -1 -1 0 0 0 -1 2 -1 4 -1 1 -1 2 0 1 0 -1 2 -1 2 0 0 1 -1 3 -2 3 -2 1 -2 2 -1 2 2 1 6 -4 5 -5z m-16 0 c0 -2 -1 -4 -1 -4 -1 0 -1 1 -1 2 1 1 0 2 0 1 -1 0 -1 1 0 3 2 1 2 1 2 -2z m-33 -4 c1 0 1 0 0 -1 -1 -2 -2 -2 -3 -1 0 1 -1 2 0 2 0 1 0 1 1 0 0 0 1 -1 2 0z m-3 -4 c0 0 -1 0 -3 0 -1 0 -2 0 -2 1 1 1 5 0 5 -1z m-61 -24 c0 -1 0 -3 -1 -3 0 -1 -1 1 0 3 0 3 0 3 -1 2 -1 -3 -3 -4 -4 -4 0 1 1 2 2 4 3 5 4 4 4 -2z m-3 -8 c-1 -1 -3 -2 -3 -2 -1 0 -1 1 1 1 1 1 2 2 3 3 0 0 1 1 1 0 0 0 -1 -1 -2 -2z m1 -8 c0 -2 -4 -3 -4 -2 0 0 1 1 2 2 2 2 3 2 2 0z m8 -35 c8 -4 22 -17 26 -23 1 -3 3 -9 4 -13 4 -24 8 -37 12 -39 1 0 2 0 2 -1 0 0 5 -4 12 -7 7 -3 13 -7 14 -9 3 -2 2 -2 -4 2 -4 2 -6 2 -11 2 -3 0 -6 0 -7 0 -1 -1 -4 1 -4 2 0 1 7 0 12 -1 3 0 3 0 1 1 -2 2 -7 4 -7 3 1 -1 -2 -2 -3 -1 0 1 -2 2 -4 2 -3 1 -3 1 1 1 l5 -1 -3 2 c-2 2 -4 3 -5 2 -1 0 -2 0 -3 1 0 1 0 1 2 0 2 0 2 0 0 3 -3 2 -4 3 -4 2 -2 -3 -5 0 -5 4 -1 2 -1 3 -4 3 -6 0 -6 0 -6 2 -1 1 -2 2 -2 2 -1 0 -1 -1 0 -2 0 -3 -2 -3 -4 0 -1 3 -1 3 3 4 l3 1 -2 1 c-1 1 -3 1 -3 1 -2 -2 -4 -1 -6 2 -1 3 -1 5 2 5 1 0 2 0 2 1 0 0 -2 1 -3 0 -3 0 -4 0 -4 1 0 1 -1 1 -2 -1 -1 -1 -2 -1 -2 -1 -1 1 -4 7 -3 7 0 0 0 1 -1 2 -2 2 0 4 3 3 1 -1 1 -1 0 -2 -3 -2 -1 -2 4 0 2 0 6 1 10 1 8 1 12 2 12 4 0 0 -1 1 -3 2 -2 0 -3 1 -3 1 0 1 -1 1 -2 0 -2 -1 -6 0 -7 3 0 2 0 2 5 2 3 0 6 0 6 0 0 1 -1 3 -3 5 -2 4 -3 5 -5 5 -2 0 -4 0 -5 1 0 1 -2 1 -4 0 l-3 -1 2 -1 c4 -1 3 -4 -2 -7 -4 -2 -5 -2 -7 0 -3 2 -3 4 0 4 3 0 3 3 0 3 -2 1 -3 5 -2 9 0 2 0 3 0 3 -2 0 -4 3 -4 8 0 4 0 4 2 2 0 -1 4 -3 7 -5z m-22 -16 c1 -2 -1 -3 -2 0 0 1 1 5 2 4 0 -1 0 -2 0 -4z m163 -2 c0 -3 -1 -3 -4 -2 -1 2 -1 2 0 4 2 2 4 1 4 -2z m28 2 c0 -1 0 -2 -1 -1 -1 0 -2 1 -2 2 0 0 1 1 2 1 0 0 1 -1 1 -2z m-13 -1 c0 -1 0 -1 -1 0 -1 1 -1 1 -1 0 0 -1 0 -1 -1 -1 0 1 1 3 2 3 1 0 1 -1 1 -2z m17 -2 c0 -2 0 -2 -2 -1 -1 1 -1 2 -1 3 1 2 3 0 3 -2z m-14 -2 c-1 -1 -1 -1 -1 0 1 1 1 3 1 3 0 1 0 1 1 0 0 -1 0 -3 -1 -3z m-140 2 c0 -1 0 -2 1 -2 1 -3 -4 -2 -6 0 -2 2 -2 2 1 2 2 0 4 0 4 0z m128 -2 c0 -1 -1 -1 -2 -2 -2 -1 -4 0 -2 2 1 2 4 2 4 0z m37 1 c0 0 -1 -1 -1 -3 -1 -2 -2 -2 -5 0 -3 2 -3 2 -1 2 2 0 3 0 3 1 0 1 1 1 2 1 1 0 2 0 2 -1z m-18 -1 c0 -1 -1 -2 -2 -2 -1 0 -2 0 -1 1 0 2 3 3 3 1z m5 -4 c0 -3 -2 -4 -4 -2 -2 2 1 7 3 5 0 -1 1 -2 1 -3z m-20 -1 c-1 -1 -1 -1 -2 0 -1 1 -1 1 0 3 2 1 3 0 2 -3z m-140 -2 c0 -1 0 -2 -2 -2 -1 0 -2 1 -2 2 1 1 1 2 1 2 0 2 3 0 3 -2z m131 0 c0 -2 -1 -3 -2 -3 -3 0 -4 1 -2 4 2 3 4 2 4 -1z m14 0 c0 0 -1 -1 0 -1 0 -1 0 -1 -1 -1 -1 0 -2 1 -1 3 1 1 2 2 2 1 1 -1 1 -1 0 -2z m10 -4 c1 0 0 -1 -1 -1 0 -1 -1 0 -1 1 0 1 2 2 2 0z m-155 -2 c1 -1 1 -1 0 -2 -3 -2 -5 -1 -6 2 0 2 3 3 6 0z m140 -1 c0 -1 -1 -2 -2 -2 -1 0 -2 0 -1 2 0 2 3 3 3 0z m-131 0 c0 -1 -1 -1 -3 -1 -3 0 -4 0 -3 1 0 1 1 1 3 1 1 0 2 0 3 -1z m-23 -3 c0 -1 -1 -1 -2 -1 -2 0 -4 1 -4 2 0 1 0 1 2 0 1 0 3 -1 4 -1z m2 -7 c0 -2 0 -4 0 -4 -2 0 -4 2 -5 6 0 3 0 3 2 2 1 -1 2 -2 3 -4z m-7 1 c0 0 0 -1 -1 -1 -1 0 -3 3 -2 3 1 1 3 0 3 -2z m135 -6 c0 -1 -3 -1 -3 0 -1 1 0 2 2 1 1 0 2 -1 1 -1z m-125 -4 c1 -3 1 -4 -1 -1 -3 3 -4 4 -1 4 0 0 1 -1 2 -3z m8 -2 c0 0 -1 0 -1 0 -1 -1 -2 0 -3 2 -1 2 -1 2 1 0 2 -1 3 -2 3 -2z m121 2 c0 -1 1 -1 2 -1 4 0 6 -2 5 -4 -1 0 -1 -1 -1 -1 0 0 2 -1 3 -2 3 -2 4 -4 2 -4 -1 0 -2 -1 -2 -2 -1 -1 -2 -2 -3 -2 0 -1 -1 -1 -1 -2 0 -2 3 -1 4 1 0 0 1 1 2 1 1 0 2 1 2 1 0 2 5 5 6 4 2 -1 1 -4 -2 -5 -2 0 -3 -1 -2 -2 2 -2 0 -3 -3 -2 -2 0 -2 0 -2 -2 1 -2 -2 -2 -5 0 -2 3 -4 4 -4 2 -1 0 0 -1 2 -2 1 -1 3 -2 3 -3 0 -3 -2 -3 -5 0 -2 1 -4 2 -4 2 -1 -1 -2 0 -3 1 0 2 0 3 1 5 1 3 1 3 0 4 -1 1 -1 1 0 5 1 2 2 4 1 4 -1 1 0 2 1 4 1 2 2 2 3 0z m23 -6 c-1 -1 -3 -2 -3 -1 0 0 -1 0 -1 -1 -1 -1 -1 -1 -1 0 1 1 1 2 3 2 2 2 3 3 3 6 0 2 0 2 1 0 0 -2 -1 -4 -2 -6z m32 3 c1 -1 -2 -5 -3 -4 -1 0 0 1 0 3 1 2 2 3 3 1z m-41 -4 c-1 -1 -2 -2 -3 -2 -1 1 0 3 2 4 3 1 4 0 1 -2z m14 -4 c-1 -1 -2 -2 -3 -2 -1 -1 -2 -2 -2 -4 -1 -4 -2 -2 -1 2 0 5 4 9 5 7 1 0 1 -2 1 -3z m4 -10 c0 -1 -1 -2 -1 -2 -2 1 -2 5 -1 6 1 1 1 3 1 4 0 2 0 1 1 -1 0 -3 1 -6 0 -7z m-135 5 c2 -1 3 -3 1 -3 -1 0 -4 3 -4 4 0 2 2 1 3 -1z m140 -5 c-1 -1 -1 -1 -1 2 0 2 0 2 1 1 1 -2 1 -3 0 -3z m-12 -1 c0 0 -2 -1 -4 -1 -3 -1 -4 -1 -4 1 0 2 1 2 4 2 2 0 4 0 4 1 0 1 0 1 1 0 0 -1 0 -3 -1 -3z m-8 -4 c1 -2 1 -2 0 -3 -3 0 -5 1 -5 2 0 2 2 2 5 1z m12 -3 c-1 -2 -2 -4 -2 -3 0 1 2 7 3 7 0 0 0 -2 -1 -4z m-138 2 c1 0 4 -6 4 -6 0 0 -2 0 -4 -1 -2 0 -3 0 -4 3 -2 4 -1 5 4 4z m110 -1 c1 -1 0 -4 -2 -5 -2 0 -4 3 -4 5 1 2 4 3 6 0z m35 0 c0 -1 0 -2 -1 -2 -1 -1 -1 0 -1 1 0 2 0 3 1 3 1 0 1 -1 1 -2z m-138 -1 c2 -2 3 -3 0 -3 -1 0 -2 1 -3 3 -1 2 -1 3 3 0z m114 -1 c1 -2 1 -4 -1 -4 -2 0 -5 3 -4 4 0 2 4 1 5 0z m-16 -5 c0 -2 -3 -3 -3 -2 -1 0 -1 2 0 3 0 2 3 2 3 -1z m-93 1 c1 -1 4 -5 4 -6 0 -1 -1 -1 -3 -1 -3 0 -4 0 -5 3 0 2 -1 4 -1 4 0 1 3 1 5 0z m9 -1 c1 -2 1 -2 0 -4 -2 -1 -2 -1 -4 1 -1 1 -2 3 -2 4 0 2 3 1 6 -1z m96 0 c1 -2 1 -2 0 -3 -2 -1 -2 -1 -4 1 -2 2 -2 4 0 4 1 0 3 -1 4 -2z m18 0 c-1 -1 -2 -2 -2 -2 -1 0 -1 1 0 2 0 0 1 1 2 1 1 0 1 0 0 -1z m7 -3 c-2 -1 -2 1 -1 3 0 1 0 1 1 0 0 -1 0 -2 0 -3z m-137 1 c2 -4 2 -4 0 -4 -1 -1 -3 0 -4 1 -3 3 -3 4 2 5 0 0 1 -1 2 -2z m32 -1 c1 0 2 -1 2 -2 0 0 -2 1 -3 2 -3 2 -1 3 1 0z m7 1 c1 -1 1 -2 0 -2 -2 0 -4 1 -4 2 0 1 1 1 4 0z m116 -3 c0 -3 -3 -6 -3 -4 0 0 0 1 0 2 -1 1 0 3 1 3 3 2 3 2 2 -1z m-50 0 c2 -1 2 -1 1 -2 -1 -1 -2 -2 -3 -2 -1 0 -1 0 -1 -1 0 -1 -1 -3 -2 -3 -2 -1 -3 -2 -3 -2 -1 -2 -5 -3 -5 -2 -1 0 0 3 1 5 2 3 3 4 5 4 1 0 2 1 2 2 -1 0 0 1 1 2 2 1 2 1 4 -1z m-84 -2 c1 -1 2 -3 2 -4 -1 -1 0 -2 0 -2 0 0 1 -2 1 -4 0 -4 0 -4 -1 -4 -2 0 -3 0 -3 4 -1 2 -2 4 -2 4 -1 0 -2 1 -2 3 -2 3 -2 3 0 4 3 3 3 2 5 -1z m36 -10 c0 -1 -1 0 -2 1 -1 1 -3 3 -3 5 -2 1 -2 1 -3 0 -2 -2 -5 -1 -6 1 -2 3 -1 4 1 3 1 0 2 0 2 1 0 1 3 -1 6 -4 3 -3 5 -6 5 -7z m68 11 c0 -1 -1 -2 -2 -2 -1 0 -1 0 0 1 0 2 2 3 2 1z m-86 -3 c1 -1 2 -2 2 -3 0 -1 -1 0 -2 1 -2 2 -3 3 -3 4 0 0 1 0 3 -2z m-26 -1 c1 -1 1 -2 1 -3 1 -2 1 -2 -1 -2 -2 0 -6 3 -6 5 0 3 6 3 6 0z m-9 -3 c0 0 -1 -1 -2 -1 -1 0 -1 1 -1 3 1 2 3 1 3 -2z m98 -5 c-1 -1 -1 -1 -2 0 -1 1 -1 1 1 1 2 0 2 0 1 -1z m-85 -2 c1 -2 1 -2 -2 -1 -3 1 -3 3 0 3 1 0 2 -1 2 -2z M491 254 c1 -3 3 -6 4 -6 1 0 1 2 -1 6 -2 4 -3 4 -3 0z M491 246 c-1 -2 -1 -7 0 -6 0 1 1 0 2 -1 2 -1 2 -1 1 0 0 1 0 2 1 2 1 1 1 0 1 -1 0 -1 0 -1 1 0 0 1 -4 8 -5 8 0 0 0 -1 -1 -2z M410 55 c0 -1 1 -1 2 -1 0 0 1 0 1 1 0 1 -1 1 -1 1 -1 0 -2 0 -2 -1z M343 440 c-2 0 -1 -3 1 -3 1 0 2 1 2 1 0 2 -1 3 -3 2z M371 440 c1 -1 0 -2 0 -3 -1 -1 -1 -1 0 -1 2 0 3 3 1 4 -1 0 -1 0 -1 0z M526 408 c0 -2 1 -6 1 -7 l0 -2 1 2 2 2 0 -2 c1 -2 0 -3 -1 -4 -1 0 -1 -2 0 -4 0 -2 1 -3 1 -2 0 1 1 -1 1 -3 l1 -4 1 2 1 3 2 -4 1 -3 -1 3 c0 3 0 4 1 4 2 0 3 3 1 5 -1 0 -1 -1 -1 -1 0 -1 -1 -2 -1 -2 -1 -1 -2 0 -2 3 0 2 -1 5 -1 6 -1 1 -2 4 -2 5 0 3 0 3 -1 1 -2 -1 -2 -1 -3 3 -1 2 -2 4 -2 4 -1 0 0 -2 1 -5z M399 409 c-2 -1 -4 -2 -4 -3 0 0 0 -1 -1 -1 -1 0 -2 0 -2 0 -1 0 -1 0 0 -2 1 -1 3 -1 9 -1 6 1 8 1 8 3 0 1 0 3 1 4 0 2 0 2 -3 2 -2 0 -5 -1 -8 -2z M532 375 c1 -2 2 -5 2 -5 1 0 1 -2 1 -3 0 -2 1 -3 1 -2 1 0 1 1 0 3 0 2 0 3 1 3 1 0 1 0 0 1 0 0 -1 2 -2 4 0 2 -1 4 -2 4 -1 0 -1 -1 -1 -5z M448 373 c0 -1 1 -2 2 -2 1 0 1 2 -1 3 0 0 -1 -1 -1 -1z M535 360 c0 -3 1 -4 2 -3 0 1 -1 6 -2 6 -1 0 -1 -1 0 -3z M541 326 c-2 -1 -1 -2 1 -2 1 0 2 1 2 2 0 1 -2 1 -3 0z M538 280 c0 -4 1 -6 3 -5 1 0 1 5 0 7 -2 2 -3 1 -3 -2z M398 213 c0 -2 0 -3 1 -2 1 0 1 1 1 3 0 1 0 2 -1 2 -1 0 -1 -1 -1 -3z M520 210 c-1 -2 0 -3 1 -3 1 0 1 3 0 3 0 1 -1 0 -1 0z M524 206 c-1 -1 0 -2 0 -3 1 -1 1 -3 1 -5 0 -4 1 -8 2 -8 0 0 0 2 0 4 -1 2 -1 5 -1 6 1 5 -1 11 -2 6z M394 199 c0 -1 -1 -2 -1 -3 0 -1 -1 -2 -2 -4 -3 -3 -3 -5 0 -2 1 1 3 3 3 3 0 1 0 1 0 2 1 0 1 1 1 2 0 1 1 2 1 2 1 0 1 1 0 1 0 1 -1 0 -2 -1z M287 183 c-2 -3 -6 -8 -8 -13 -2 -6 -5 -9 -13 -18 -6 -5 -12 -11 -14 -12 -3 -2 -9 -4 -14 -5 -5 -1 -15 -3 -21 -5 -13 -2 -22 -5 -42 -14 -11 -4 -26 -8 -53 -14 -7 -2 -16 -5 -21 -7 -6 -2 -16 -6 -22 -8 -16 -4 -33 -10 -39 -14 -10 -6 -19 -21 -26 -44 -3 -12 -7 -27 -7 -29 0 0 88 0 196 0 107 0 195 0 195 0 0 1 -2 4 -4 9 -3 4 -9 15 -14 25 -5 10 -13 24 -17 32 -5 9 -9 16 -9 17 0 2 -7 18 -10 22 -1 1 -2 3 -2 3 0 2 -10 20 -11 21 -1 0 -1 1 -1 1 0 2 -6 13 -8 15 -2 1 -2 2 -2 6 0 3 0 5 -1 5 0 0 -1 -2 0 -4 0 -3 0 -4 -1 -4 -1 0 -1 -1 0 -2 1 -3 1 -6 0 -7 -1 0 -2 -1 -1 -2 0 -1 0 -1 -1 -1 -1 1 -1 2 -1 3 1 0 -2 4 -5 7 -3 4 -6 8 -7 9 0 2 -1 3 -2 4 0 1 -1 2 -1 3 0 0 0 1 -1 1 -1 0 -3 2 -4 5 -4 6 -5 9 -3 15 2 5 0 5 -5 0z m36 -45 c0 -2 0 -4 -1 -5 -1 -2 -1 -2 -2 0 -2 1 -2 2 -1 2 1 1 1 1 1 0 0 -1 0 -1 1 -1 0 1 0 2 -1 2 -1 1 -1 3 0 4 0 3 1 3 2 2 0 -1 1 -3 1 -4z m4 -5 c0 -2 -2 -3 -2 -1 0 1 0 2 0 3 0 2 0 2 1 1 1 -1 1 -2 1 -3z M496 183 c-1 -1 0 -2 1 -1 1 1 1 2 0 2 0 0 -1 0 -1 -1z M412 182 c0 -1 0 -2 -1 -3 -2 -3 -2 -4 0 -5 0 0 1 1 1 1 0 1 1 3 1 3 1 1 2 3 1 3 0 2 -2 3 -2 1z M527 178 c0 -2 0 -3 1 -2 0 1 0 3 0 4 -1 1 -1 0 -1 -2z M487 178 c0 -1 1 -1 2 -1 0 0 1 0 1 1 0 1 -1 1 -1 1 -1 0 -2 0 -2 -1z M405 177 c-1 -1 -1 -2 0 -2 0 0 1 1 1 2 1 1 0 2 -1 0z M426 175 c-1 -1 -2 -2 -2 -3 -1 -2 -1 -2 1 0 3 1 4 4 3 4 0 1 -1 0 -2 -1z M455 174 c-1 -1 -2 -1 -3 -1 -2 0 -2 -2 -1 -4 1 0 1 -1 1 -2 0 -1 0 -2 1 -2 1 0 1 1 1 2 0 0 0 1 1 1 0 0 1 2 1 4 0 3 0 4 -1 2z M486 174 c-1 0 -1 -1 -1 -2 1 -2 1 -2 2 0 0 2 1 3 1 3 0 0 -1 0 -2 -1z M532 172 c0 -1 0 -2 1 -2 0 -1 1 -1 1 0 1 2 -1 4 -2 2z M488 171 c0 -1 -1 -3 -3 -5 -2 -1 -3 -4 -4 -6 0 -2 0 -2 1 -1 1 1 1 1 1 0 1 -1 1 0 1 2 0 2 0 2 1 -1 1 -3 2 -4 2 -3 2 4 2 5 0 6 -1 2 -1 4 1 2 1 -2 2 -1 2 3 1 3 1 4 0 4 -1 0 -2 -1 -2 -1z M434 169 c-1 0 -1 -2 -1 -2 0 -2 1 -2 2 0 2 2 1 3 -1 2z M442 168 c0 -1 0 -2 1 -2 1 -1 1 0 1 0 0 1 0 2 -1 3 -1 0 -1 -1 -1 -1z M448 165 c0 -4 1 -5 2 -4 0 0 1 1 1 2 0 2 -1 3 -1 4 -2 2 -2 2 -2 -2z M405 166 c-2 -1 -2 -2 -1 -2 1 -1 4 1 4 3 0 2 -2 1 -3 -1z M435 164 c-1 0 -1 -2 0 -3 1 -2 1 -2 1 1 0 3 0 4 -1 2z M526 162 c0 0 -1 -1 -1 -1 -2 0 -2 -4 0 -4 0 -1 1 -1 1 0 -1 1 -1 2 0 3 1 1 1 2 1 3 -1 0 -1 0 -1 -1z M432 160 c-1 -2 -1 -4 -1 -4 1 0 1 1 2 3 1 1 1 3 1 3 -1 0 -1 -1 -2 -2z M401 159 c-1 -1 -1 -1 -1 -2 1 -1 3 1 3 3 0 2 -2 1 -2 -1z M428 157 c-1 -1 -2 -2 -1 -1 1 0 2 1 2 0 1 0 1 1 1 2 1 3 1 3 -2 -1z M449 156 c0 -1 4 -9 5 -10 2 0 1 2 0 4 -1 0 -2 2 -2 4 0 2 -1 3 -1 3 -1 0 -2 0 -2 -1z M423 153 c0 -2 -1 -5 -2 -6 -1 -3 0 -4 2 -2 1 1 2 4 2 6 0 6 -1 6 -2 2z M437 154 c1 0 0 -2 -1 -3 0 -1 -1 -3 -1 -4 0 -1 0 -1 1 0 1 2 1 2 2 0 1 -1 1 -1 1 2 -1 3 -1 3 1 3 1 -1 1 -1 1 1 -1 0 -1 2 -1 2 0 1 -1 1 -2 1 -1 0 -1 -1 -1 -2z M399 153 c0 -1 2 -5 3 -4 1 0 1 1 1 2 -1 0 -1 1 0 1 0 -1 1 0 2 0 1 1 0 2 -2 2 -2 0 -3 -1 -4 -1z M313 151 c0 -1 1 -2 2 -2 1 0 1 0 0 1 0 2 -2 3 -2 1z M447 144 c-1 -1 0 -2 0 -3 2 -1 2 -1 2 1 0 2 -2 4 -2 2z M418 137 c-1 -1 -2 -2 -2 -3 1 -1 4 3 4 4 0 1 -1 0 -2 -1z M469 138 c-1 -1 -1 -4 1 -4 0 0 1 1 2 3 1 2 0 3 -3 1z M419 128 c-1 -3 -1 -4 0 -4 1 0 1 1 1 2 0 0 0 1 1 1 1 0 1 1 1 2 0 3 -2 2 -3 -1z M425 130 c-1 -2 -1 -3 0 -3 1 0 2 3 2 4 0 0 -1 -1 -2 -1z M353 114 c0 -1 1 -3 3 -5 1 -2 2 -5 2 -7 0 -2 0 -4 1 -4 1 -1 1 0 0 3 0 2 0 3 1 3 2 -2 1 2 -2 5 -2 2 -3 4 -4 5 -1 2 -1 2 -1 0z M559 111 c0 -1 10 -7 12 -7 1 0 -1 2 -5 4 -6 3 -7 3 -7 3z M551 11 c-3 -4 -4 -5 -4 -6 1 -1 6 4 6 6 1 3 0 3 -2 0z M445 5 c0 -1 1 -1 2 -1 0 0 1 0 1 1 0 1 -1 1 -1 1 -1 0 -2 0 -2 -1z M541 2 c-2 -1 -1 -2 1 -2 1 0 2 1 2 2 0 1 -2 2 -3 0z"/>
</g>
<g transform="translate(0.000000,533.000000) scale(1.000000,-1.000000)" fill="#b266b2" stroke="none">
<path d="M300 431 c-2 -3 -2 -4 1 -2 1 1 1 1 1 1 -1 0 -1 1 1 1 1 1 1 2 0 2 0 0 -2 -1 -3 -2z M300 425 c-1 -2 -2 -3 -3 -3 -1 0 -1 -1 -4 -8 -1 -4 -2 -5 0 -4 0 1 1 1 1 0 0 0 0 0 1 1 1 1 1 1 1 -1 0 -1 -1 -3 -2 -5 0 -1 -1 -3 -1 -3 0 -1 1 0 2 2 1 2 2 3 3 3 0 0 0 -1 -1 -1 0 -1 0 -1 1 0 2 1 2 1 2 -2 0 -1 0 -3 0 -4 1 0 1 -2 0 -2 0 -1 -1 -1 -1 0 -1 3 -3 0 -3 -4 -1 -6 0 -7 2 -2 1 3 1 3 2 2 1 -2 1 -2 0 -3 -1 -1 -2 -2 -2 -3 -1 -1 0 -2 1 -1 1 0 2 -1 1 -2 0 0 0 -1 1 -1 2 0 2 3 1 8 0 3 0 6 0 7 1 1 1 3 1 4 0 2 1 3 2 3 1 0 1 1 1 3 -1 2 -1 3 0 3 0 -1 1 1 2 3 2 3 2 3 0 3 -1 0 -2 -1 -3 -2 l-1 -2 0 2 c-1 1 0 3 0 5 2 2 2 3 1 3 -1 1 -2 0 -3 0 -1 -1 -1 -1 -1 0 0 0 1 1 1 2 1 0 1 1 1 2 0 0 -2 -1 -3 -3z M285 413 c-1 0 -1 -1 -2 0 -1 0 -1 0 -1 -1 1 0 0 -2 -1 -3 0 -1 -1 -2 -1 -3 0 -1 1 0 2 1 2 4 4 7 4 8 -1 0 -1 -1 -1 -2z M285 407 c-1 -3 -2 -4 -3 -4 -1 0 -1 -1 -1 -3 0 0 0 -1 -1 -1 0 0 -1 -2 -2 -3 -1 -2 -1 -3 1 -4 1 -1 1 -1 0 -1 -3 -1 -4 4 -1 8 l1 3 -2 -2 c-1 -1 -2 -3 -2 -4 0 -2 -1 -3 -3 -4 -3 -2 -3 -2 -2 -3 1 -1 2 0 2 1 1 1 1 1 1 0 0 -1 -1 -3 -2 -4 0 -2 -1 -4 -1 -5 1 0 0 -1 0 -1 -1 0 0 -4 1 -5 1 -1 1 -1 0 -2 -1 -1 -2 -4 -2 -9 -1 -7 -1 -8 0 -8 1 1 2 0 2 0 1 -1 1 0 0 2 0 3 0 4 1 4 1 0 1 1 1 5 -1 3 -1 6 0 7 1 2 1 2 1 -1 0 -4 0 -4 2 -2 l1 2 0 -2 c-1 -2 -1 -3 -2 -4 -2 -11 -2 -15 -2 -16 1 -1 0 -1 -1 1 l-2 2 0 -2 c-1 -1 -1 -3 -1 -4 0 -2 0 -2 1 -1 2 2 2 1 2 -5 0 -5 0 -8 0 -9 1 0 1 1 1 2 0 2 0 3 1 3 0 -1 1 1 2 3 l1 4 0 -4 c0 -4 2 -4 3 0 0 3 2 5 3 3 0 0 1 -1 2 -1 1 0 1 0 0 -1 -1 -1 -2 0 -3 1 -1 1 -1 1 -1 -1 0 -4 3 -4 6 -1 2 2 2 2 2 1 0 -1 -1 -3 -3 -4 -2 -2 -3 -3 -2 -3 1 0 0 -1 -2 -2 -4 -1 -5 -3 -3 -3 3 0 8 3 8 4 -1 1 0 1 0 1 1 -2 2 -1 2 1 0 1 0 2 1 2 1 0 1 1 1 2 -1 2 -1 2 0 1 1 -1 1 -3 0 -5 l-1 -2 2 2 c2 2 2 2 2 1 0 -1 0 -3 1 -4 0 -1 0 -1 -1 -1 -2 2 0 -4 2 -6 1 -1 1 -1 0 -2 0 0 -1 -1 0 -1 1 -2 -1 -1 -4 2 -2 2 -2 3 -1 5 l0 3 -3 -1 c-1 -1 -3 -3 -4 -3 -1 -1 -3 -2 -4 -3 -1 0 -2 -1 -1 -1 1 1 2 0 3 -1 0 -1 2 -1 3 -2 1 0 3 0 4 0 0 0 1 0 1 -1 0 0 -1 -1 -2 0 -3 0 -4 -2 -1 -4 0 -1 1 -2 1 -3 0 -1 -1 -1 -9 1 -7 3 -7 2 -8 -10 0 -8 0 -10 2 -12 2 -3 4 -2 3 1 0 2 0 3 1 3 0 0 1 -1 1 -2 0 -3 1 -5 2 -5 1 0 1 3 1 9 -1 5 0 9 0 10 1 2 4 0 7 -2 4 -5 9 -8 9 -4 0 2 3 1 3 -1 0 -1 0 -1 1 0 0 0 1 1 1 0 1 0 1 1 1 2 0 0 0 1 1 1 1 -1 1 -1 1 0 0 1 1 1 2 0 2 -1 2 -1 2 3 -1 2 -1 3 0 2 1 -1 1 0 2 2 0 2 1 4 1 4 1 1 1 2 0 3 0 1 0 2 0 2 0 1 0 1 -1 1 -1 0 -1 1 -1 2 0 2 0 2 1 1 0 -1 1 -2 1 -1 1 0 1 -1 1 -2 0 -1 0 -1 1 0 0 0 1 1 1 1 2 0 6 7 6 9 0 1 0 1 -2 0 -1 -2 -1 -2 -1 -1 0 2 0 2 -1 1 -1 0 -1 0 0 1 1 2 0 5 -1 5 -1 0 -1 1 -1 3 0 3 -2 4 -3 1 0 -1 0 -1 -1 1 -1 1 -1 3 0 4 0 0 0 1 -1 1 -1 0 -2 0 -1 1 0 1 0 1 1 1 0 -1 1 0 2 2 l2 2 -3 -1 c-3 -1 -5 -3 -5 -5 0 -2 -2 -2 -2 -1 -1 1 -2 2 -3 2 -1 0 -2 -1 -1 -4 0 -6 -1 -3 -3 7 -1 3 -2 8 -3 9 0 2 0 2 1 0 2 -3 3 -3 5 2 1 4 1 10 0 10 -1 -1 -1 2 1 5 0 2 0 3 -1 3 -2 1 -3 1 -2 -1 0 -1 0 -2 -1 -3 -1 -1 -2 -2 -1 -3 0 -1 -1 -2 -1 -2 0 1 -1 -1 -1 -3 0 -2 0 -5 -1 -7 -1 -3 -1 -3 -1 2 0 4 0 6 -1 6 -1 -1 -1 -17 1 -18 0 0 0 1 0 2 0 1 0 2 1 2 1 1 1 0 1 -2 0 -3 0 -4 -2 -4 -4 -1 -4 -1 -4 1 0 1 -1 2 -2 2 -1 0 -1 0 0 1 0 1 1 1 2 0 2 -2 1 3 -1 5 -1 1 -1 1 0 2 2 2 2 9 0 9 -1 0 -1 -2 -1 -4 0 -4 0 -4 -1 -2 -1 1 -1 1 -1 -1 -1 -2 -1 -3 -1 -4 1 0 1 -1 0 -1 -1 -1 -1 -2 -1 -3 0 -1 0 -2 -1 -2 0 1 -1 -1 -1 -3 1 -3 1 -3 0 0 0 1 -1 2 -1 1 0 -1 -1 -2 -1 -4 -2 -1 -2 -1 -1 1 0 1 1 3 2 5 1 1 3 9 3 15 1 1 1 3 1 3 0 0 0 0 1 -1 1 -1 1 1 1 5 0 5 0 7 1 8 0 0 1 -1 1 -2 1 -1 1 -1 1 1 0 1 -1 4 -2 6 -1 4 -1 5 0 7 1 1 1 3 0 3 -1 1 -1 0 -3 -7 0 -3 0 -4 1 -4 1 1 1 0 0 -2 -1 -2 -1 -5 -1 -7 0 -1 0 -3 -1 -3 -1 -1 -1 4 0 12 0 9 1 13 2 16 2 2 3 8 3 8 -1 0 -1 -2 -2 -4z m18 -73 c1 -3 1 -6 2 -7 0 -1 0 -2 -1 -2 -1 0 -2 0 -1 1 0 1 0 1 -1 1 0 0 -1 1 -1 2 0 1 0 4 0 7 -1 2 -1 3 0 2 1 -1 1 -1 1 1 0 5 1 1 1 -5z m-6 -4 c-2 -1 -2 1 -1 3 l0 3 1 -3 c0 -1 0 -2 0 -3z m-6 -17 c1 0 0 -1 -1 -2 -1 -1 -1 -1 -1 1 0 2 1 3 2 1z M307 402 c-1 0 -1 -1 -1 -2 0 -2 0 -2 1 0 1 2 1 4 0 2z M290 374 c0 -2 0 -3 1 -2 0 1 0 3 0 4 -1 1 -1 0 -1 -2z M267 371 c-1 -3 0 -3 1 0 1 1 1 2 0 2 0 1 -1 0 -1 -2z M505 370 c-2 -1 -4 -2 -5 -3 -1 -1 -20 -8 -25 -9 -3 0 -4 -1 -6 -6 -5 -10 -4 -23 2 -23 2 0 4 -3 2 -4 -2 -1 2 -5 10 -12 l7 -5 7 0 c4 0 8 0 9 1 1 1 1 1 -1 1 -4 0 -10 2 -12 4 -1 1 -2 2 -3 2 0 0 -1 1 0 2 0 1 1 2 2 2 0 -1 1 0 1 0 1 1 2 2 5 1 4 0 5 0 5 2 0 1 -1 2 -5 2 -7 2 -18 6 -18 8 0 1 1 2 3 2 2 1 3 1 4 0 2 -1 2 -1 3 0 1 2 3 0 3 -4 l1 -4 6 0 c4 1 7 1 7 2 2 2 2 2 3 0 1 -2 6 -2 6 1 0 1 1 3 2 4 2 2 2 2 1 4 -1 1 -2 2 -1 3 1 4 -12 7 -26 7 -2 0 -2 1 -2 2 1 0 1 1 1 2 0 0 1 0 1 0 1 0 4 1 8 3 5 3 8 4 14 3 1 0 2 -1 2 -1 0 -1 1 -3 3 -4 1 -2 2 -4 2 -5 0 -1 0 -2 1 -2 1 -1 1 -3 1 -5 0 -3 0 -3 2 2 2 7 3 15 1 17 -1 0 -2 2 -2 3 0 1 -1 2 -2 3 -1 0 -2 1 -3 2 -1 0 -2 1 -4 1 -1 0 -2 0 -2 1 -1 1 -2 1 -8 0z m9 -28 c1 -1 2 -3 3 -5 0 -3 0 -3 -1 -1 -2 3 -6 5 -8 5 -2 0 -4 1 -5 1 -3 2 -2 2 2 3 2 1 7 -1 9 -3z M304 361 c-3 -5 -4 -8 -3 -9 1 0 2 0 2 1 0 1 0 1 1 0 1 -1 1 -1 1 0 -1 1 0 3 0 5 1 3 1 5 -1 3z M384 361 c-7 -1 -17 -4 -17 -5 0 -3 -4 -7 -6 -6 -2 0 -2 -1 -3 -3 -1 -2 -3 -5 -4 -6 -3 -2 -3 -3 -3 -8 0 -5 0 -6 -2 -5 -1 0 -2 0 -2 -1 0 -1 4 -5 6 -5 3 0 2 -2 -1 -3 -3 -1 -3 -1 -2 -2 1 -1 2 -1 3 -1 2 0 7 -2 7 -3 0 0 -1 -1 -2 -2 -2 -1 -2 -1 4 -1 5 0 6 0 9 3 2 2 3 2 7 2 2 -1 10 -2 16 -2 6 -1 12 -1 12 -2 0 0 -1 -1 -1 -2 -1 -2 -2 -3 -2 -3 1 -1 -12 -4 -16 -4 -2 0 -2 0 1 -1 2 -1 7 -1 12 -1 8 1 10 1 15 4 3 2 6 4 6 4 1 0 2 1 4 3 1 2 4 4 6 4 2 1 3 3 4 4 0 1 2 3 3 4 3 3 3 3 3 12 0 8 0 9 2 9 3 0 4 2 3 5 -1 3 -1 4 -6 4 -3 0 -6 1 -6 1 -1 0 -5 1 -9 2 -7 0 -17 2 -19 4 -1 0 -4 0 -7 1 -3 0 -7 0 -9 0 -2 1 -5 1 -6 0z m9 -20 c2 -1 4 -3 5 -3 2 0 1 -1 -4 -2 -4 -1 -7 -3 -8 -4 -1 -1 -3 -1 -4 -1 -1 1 -1 1 0 3 1 1 4 2 6 3 5 1 6 2 3 3 -1 1 -2 2 -2 2 0 3 1 2 4 -1z m12 0 c0 -1 -1 -1 -2 -1 -2 0 -3 0 -3 1 0 1 1 1 2 1 1 0 2 0 3 -1z m-8 -20 c1 -1 1 -1 0 -1 -1 1 -3 1 -3 1 -1 0 -1 0 -1 1 0 2 3 1 4 -1z M300 359 c-1 0 -1 -1 -1 -2 0 -2 0 -2 1 -1 1 0 1 2 1 2 0 1 -1 2 -1 1z M313 350 c-1 0 -1 -3 0 -3 1 -1 5 2 5 3 0 1 -3 1 -5 0z M520 327 c3 -1 6 -1 4 0 -2 0 -3 1 -4 1 -2 0 -2 0 0 -1z M312 311 c-1 -1 -1 -3 -1 -4 0 -1 1 0 2 2 1 3 1 4 -1 2z M311 302 c-1 -1 0 -2 0 -1 1 0 1 -1 1 -2 0 -1 0 -2 1 -2 1 0 0 1 0 3 -2 4 -2 4 -2 2z M299 297 c0 -1 -1 -3 -3 -6 -2 -2 -3 -5 -2 -6 0 0 0 -1 -1 -1 -1 0 -1 0 -2 0 -1 -1 -1 -1 -2 -1 -2 0 -1 -4 2 -8 2 -2 3 -3 3 -2 0 0 1 2 3 4 1 2 3 3 4 2 2 0 3 1 4 4 2 5 3 7 1 7 0 -1 -1 0 -2 2 -1 4 -5 7 -5 5z M426 289 c-1 -1 -2 -1 -1 -2 0 -2 -8 -13 -9 -12 -1 0 -1 0 -1 -1 -1 -4 -3 -9 -5 -10 -1 0 -2 -3 -3 -4 -1 -2 -2 -4 -3 -4 0 0 -1 -1 -1 -3 -1 -1 -2 -2 -3 -2 -1 1 -2 0 -2 -2 -1 -1 -2 -4 -4 -7 -4 -3 -4 -4 -2 -5 1 -1 1 -2 0 -4 -1 -2 -1 -2 1 -5 2 -4 5 -5 5 -2 0 1 0 3 1 4 0 1 0 1 1 -1 1 -1 1 -1 1 0 0 2 3 7 7 10 0 1 3 7 6 13 7 15 8 17 10 12 1 -4 4 -12 5 -12 1 0 1 -1 1 -2 0 -3 1 -4 2 -2 1 1 1 0 1 -1 -1 -1 0 -2 0 -2 0 0 0 -2 0 -4 -1 -3 -2 -7 -1 -9 0 -3 0 -4 -1 -3 -1 1 -1 1 -1 0 0 0 -1 -1 -2 -2 -2 -1 -3 -1 -3 0 0 1 0 1 -1 1 -1 0 -1 -1 0 -2 0 -1 0 -2 -1 -2 -1 0 -2 -1 -4 -3 -2 -1 -3 -2 -3 -1 0 1 -2 2 -4 3 -4 2 -4 2 -4 0 0 -2 0 -2 1 -1 2 1 2 0 1 -2 0 -2 0 -4 0 -4 0 0 -1 0 -1 1 -2 1 -2 1 -2 -1 0 -1 0 -2 -1 -2 -1 1 -1 -6 0 -8 0 -1 0 -2 0 -2 0 -1 0 -1 0 -2 -2 -5 -3 -6 -4 -8 -2 -1 -2 -2 1 -1 1 0 1 -2 1 -4 0 -1 1 -1 1 -1 2 0 3 3 3 4 -1 0 0 1 2 2 2 1 6 0 6 -3 0 0 1 -1 2 -1 0 0 1 1 1 2 0 2 3 4 6 4 2 0 2 0 -1 -2 -4 -2 -5 -6 -1 -6 1 0 1 -1 1 -2 -1 -1 0 -2 1 -2 1 -1 1 -1 0 -3 -1 0 -1 -1 0 -1 1 0 3 3 2 5 0 0 1 1 2 2 1 0 3 1 4 3 1 1 3 2 3 1 2 0 1 3 0 5 -1 0 -3 1 -4 1 l-2 0 2 2 c1 1 3 2 5 2 2 0 4 1 5 3 1 1 3 2 4 2 0 0 1 1 2 2 1 1 5 2 4 0 -1 -1 11 1 12 2 0 1 2 1 3 1 4 0 16 4 16 5 0 2 3 2 7 1 5 -2 7 -4 7 -8 0 -1 0 -3 0 -2 1 0 2 -2 3 -5 3 -5 4 -6 5 -3 0 1 1 2 2 1 1 0 2 0 2 1 1 1 1 1 3 -1 1 -1 1 -1 1 1 -1 1 0 2 1 2 1 0 1 1 1 2 -1 1 0 2 0 1 1 0 1 0 1 1 0 1 -1 1 -2 1 -1 -1 -2 0 -1 2 0 2 0 3 -1 4 -1 0 -2 1 -2 2 0 0 0 1 1 1 0 -1 0 1 0 4 0 3 0 7 0 9 0 2 0 3 -1 2 0 -2 -1 -2 -2 -1 -2 0 -3 1 -3 0 -1 0 -1 1 -1 2 0 1 0 2 -1 2 -1 0 -1 -1 -1 -2 1 -2 1 -3 -1 -2 0 0 -2 -1 -3 -2 -1 -1 -1 -1 -1 0 0 2 -2 3 -2 1 0 -1 -3 -1 -4 0 -1 1 -1 1 -2 0 0 -2 -3 -3 -3 -1 0 0 1 2 2 3 1 1 2 2 1 3 -1 0 -3 -1 -3 -3 0 0 -1 -1 -1 -1 -1 0 -2 0 -2 -1 0 -1 -1 -1 -2 -1 -1 0 -2 1 -1 4 0 3 0 3 -1 1 -1 -3 -3 -4 -4 -2 -1 1 0 2 1 4 3 2 3 4 0 1 -1 -1 -4 -2 -5 -2 -2 -1 -2 0 -3 2 -1 4 -3 4 -2 0 0 -1 0 -4 0 -5 0 -3 0 -4 -3 -4 -4 0 -5 2 -2 5 2 2 2 2 2 0 1 -1 0 -2 -1 -2 0 0 -1 0 -1 -1 0 -1 1 -1 2 -1 2 0 2 1 1 4 0 2 0 5 -1 6 -1 3 1 9 2 10 1 1 1 2 1 2 -1 1 -1 2 0 1 1 0 1 -1 1 -2 -1 -1 0 -2 0 -3 1 -1 1 -1 1 1 0 1 0 2 1 2 1 0 1 -1 1 -2 0 -2 0 -2 1 -1 1 1 1 1 0 3 -1 3 -1 3 2 3 3 1 4 0 2 -1 -1 -1 -1 -1 0 -3 1 -1 1 -1 1 0 -1 2 2 3 2 2 1 -1 2 -2 3 -2 2 -1 2 0 2 1 -1 0 0 2 1 3 1 1 2 8 0 8 -2 0 -1 3 2 4 1 1 2 2 2 2 0 2 -5 1 -9 -2 -6 -3 -16 -3 -24 -1 -5 2 -8 2 -16 2 -9 -1 -11 -1 -13 1 -2 2 -2 2 -1 8 1 3 2 6 2 8 2 2 3 7 2 7 0 0 -2 -1 -3 -1z m33 -39 c0 -2 0 -2 1 0 1 1 1 1 1 0 0 -1 0 -3 1 -4 0 -1 0 -1 -1 0 -1 1 -1 1 -1 0 0 -1 1 -2 1 -3 1 -3 -1 -6 -3 -6 -1 0 -1 1 0 2 3 2 2 3 0 2 -3 -2 -7 -6 -7 -8 0 -1 1 -1 3 0 3 0 4 -1 2 -3 -2 -3 -3 -3 -5 0 -3 2 -3 2 -3 1 0 -1 -1 -2 -2 -2 0 0 -1 0 0 1 0 1 0 1 -1 1 0 -1 -1 -2 -1 -3 0 0 0 -1 -1 -1 0 1 -1 0 -1 0 -1 -1 -1 0 -1 1 l0 3 -1 -3 -1 -2 -1 2 c0 2 -1 3 -2 3 -1 0 -1 0 -1 0 0 -1 0 -1 -1 -2 0 -1 1 -2 2 -2 1 -1 2 -1 2 -2 -1 0 -2 0 -3 0 -2 1 -3 6 0 8 1 1 1 3 1 6 -1 2 0 4 1 5 1 3 2 1 2 -3 0 -7 0 -8 3 -1 0 2 0 3 0 2 -1 0 -1 0 -1 1 1 1 1 3 1 4 0 1 0 1 1 0 1 -1 2 0 4 1 3 4 4 3 4 -2 -1 -4 -1 -4 0 -2 1 3 6 8 7 8 1 0 1 -1 1 -2z m48 -23 c0 -2 0 -2 -2 -1 -1 1 -2 1 -2 2 0 0 0 0 1 0 1 -1 1 -1 1 0 0 2 2 1 2 -1z M445 244 c-1 -2 -1 -3 0 -3 0 0 1 1 2 2 1 2 0 3 -2 1z M444 238 c0 -1 0 -3 -1 -4 -1 -4 1 -2 2 2 0 2 0 3 0 4 -1 0 -1 -1 -1 -2z M447 239 c-1 -2 2 -3 3 -1 2 2 2 2 0 2 -1 0 -2 0 -3 -1z M278 281 c0 -2 3 -8 3 -8 1 0 -1 7 -2 9 -1 1 -1 1 -1 -1z M490 281 c2 -6 2 -9 1 -11 -2 -3 -2 -3 5 -10 6 -6 7 -8 7 -10 -1 -1 0 -2 0 -3 1 0 1 -1 0 -3 0 -2 0 -2 1 0 0 1 1 2 2 2 1 0 1 1 0 2 -1 2 -1 5 0 3 1 -1 2 -2 2 -2 1 0 3 -1 4 -2 2 -2 2 -2 1 -3 -1 -1 -1 -1 1 -3 l2 -2 0 2 c0 1 1 2 1 2 1 0 1 0 1 1 0 1 0 2 1 2 1 -1 1 0 1 0 0 1 -1 2 -1 2 -1 0 -2 1 -2 3 0 2 0 3 -1 4 -1 0 -2 1 -2 2 -2 4 -6 10 -6 10 -1 0 -4 1 -4 2 0 1 -5 6 -11 11 -3 3 -3 3 -3 1z M294 268 c0 -1 1 -3 2 -3 0 0 1 1 0 2 0 4 -2 4 -2 1z M302 265 c0 -3 1 -4 3 -6 3 -3 4 -1 3 3 -1 2 -2 4 -1 5 0 0 -1 1 -3 2 -2 1 -2 1 -2 -4z M283 265 c0 -2 6 -11 7 -11 4 0 3 2 -1 7 -4 5 -6 6 -6 4z M484 249 c0 -1 0 -3 -1 -4 0 -1 0 -1 1 0 1 1 1 3 1 4 -1 1 -1 1 -1 0z M470 243 c0 -1 -1 -1 -1 0 -1 0 -1 0 0 -1 0 -1 1 -2 1 -3 0 -1 1 -1 1 0 0 0 0 2 0 3 0 1 -1 2 -1 1z M289 239 c1 -2 2 -5 2 -6 1 -2 1 -3 1 -4 1 -1 6 -6 7 -6 4 0 5 0 5 -2 0 -1 0 -2 1 -3 1 0 1 5 0 8 -1 2 -1 2 2 2 2 0 3 0 3 4 0 2 0 4 0 4 -1 0 -7 -6 -7 -7 0 -2 -3 -1 -6 2 -2 2 -4 4 -4 3 -1 0 -1 0 -1 1 1 0 0 3 -1 5 l-2 4 0 -5z M482 237 c-1 -3 -1 -3 2 -2 2 1 2 1 1 2 -1 0 -2 1 -2 1 0 1 -1 0 -1 -1z M428 236 c0 -1 0 -2 1 -3 1 -1 1 -1 0 2 0 3 -1 4 -1 1z M413 227 c-2 -2 -2 -3 0 -1 1 0 2 1 2 0 1 0 1 0 1 1 0 2 -2 2 -3 0z M294 223 c0 -3 1 -5 2 -4 2 0 1 4 0 4 -1 1 -2 0 -2 0z M454 203 c-2 0 -3 -1 -3 -2 0 -1 0 -1 2 0 1 1 3 1 4 1 1 0 2 0 3 1 0 1 -1 1 -6 0z M469 202 c-1 -1 -1 -1 1 -4 l3 -2 1 3 0 3 1 -3 c1 -2 1 -2 1 1 0 3 0 3 -3 3 -1 0 -3 0 -4 -1z M478 202 c-1 0 0 -1 0 -2 2 -1 5 0 4 2 -1 1 -4 1 -4 0z M458 199 c-2 -2 -2 -3 0 -3 1 0 2 1 3 2 0 3 0 3 -3 1z M462 200 c0 -1 0 -2 -1 -4 0 -3 2 -4 3 -1 0 1 1 1 2 -1 2 -3 3 -1 0 4 -1 3 -2 4 -4 2z M442 198 c0 0 0 -1 0 -2 1 -2 1 -2 1 0 1 1 2 2 3 2 2 1 2 1 0 1 -1 0 -3 0 -4 -1z M446 195 c-3 -2 0 -2 5 -1 l5 2 -5 0 c-2 0 -4 -1 -5 -1z M413 190 c-1 -1 -1 -1 0 -1 2 1 3 3 1 3 0 0 -1 -1 -1 -2z M469 191 c0 -1 1 -1 2 -1 0 0 1 0 1 1 0 1 -1 1 -1 1 -1 0 -2 0 -2 -1z M494 190 c-1 -2 2 -4 3 -2 1 1 2 2 2 2 0 2 -4 2 -5 0z M456 189 c0 -1 0 -1 -1 0 0 2 -2 1 -7 -1 -3 -1 -5 -2 -6 -2 -1 1 -5 -1 -5 -2 0 -1 1 -1 2 0 1 0 1 0 1 -1 -1 -1 0 -1 1 -1 0 0 1 0 1 1 -1 0 2 1 5 0 3 0 5 0 5 1 -1 0 0 1 1 1 1 1 2 0 2 0 0 -1 0 -1 1 0 0 1 1 1 3 0 1 0 2 0 3 0 0 0 1 0 1 -1 0 -1 1 -1 3 -1 3 0 4 1 2 3 -1 1 -1 1 0 0 3 0 2 2 0 3 -1 1 -2 1 -2 0 -1 -1 -1 -1 -3 0 -3 1 -3 1 -3 0 1 -3 -1 -3 -2 -1 0 1 0 2 0 2 0 1 0 1 -1 1 -1 0 -1 -1 -1 -2z M485 190 c0 -1 1 -1 2 -1 0 0 1 0 1 1 0 1 -1 1 -1 1 -1 0 -2 0 -2 -1z M489 188 c0 -1 1 -1 2 -1 2 0 2 0 1 1 -2 1 -3 1 -3 0z M433 186 c-1 -1 -3 -1 -3 -2 0 0 0 0 1 -1 0 -2 1 -2 2 -1 2 1 2 1 1 -1 0 -1 0 -1 1 0 1 0 1 1 0 3 -1 1 0 2 1 3 2 2 0 1 -3 -1z M289 183 c-1 -1 -2 -3 -2 -3 0 -1 0 -1 -1 -1 0 1 -3 -3 -5 -8 -4 -8 -7 -11 -15 -20 -7 -7 -12 -11 -15 -13 -3 -1 -11 -3 -19 -5 -23 -5 -34 -8 -46 -13 -21 -9 -34 -13 -58 -18 -9 -1 -17 -4 -24 -7 -6 -2 -18 -6 -26 -8 -25 -8 -37 -12 -43 -18 -6 -6 -11 -14 -15 -23 -2 -7 -8 -27 -11 -38 l-2 -8 195 0 c107 0 195 0 195 0 0 1 -27 49 -28 50 -1 1 -1 2 -1 3 0 0 -1 3 -3 5 -2 2 -3 5 -3 6 0 1 -1 3 -2 5 -2 2 -3 4 -3 5 0 1 -2 3 -4 6 -4 5 -9 13 -12 19 -1 1 -2 4 -3 5 -1 1 -2 3 -2 4 0 2 -2 4 -4 7 -3 2 -5 5 -5 6 -1 1 -6 7 -11 14 -8 11 -19 27 -24 35 -2 4 -2 10 0 14 2 3 0 2 -3 -1z M312 181 c0 -1 5 -6 6 -6 1 0 0 2 -2 4 -2 2 -4 3 -4 2z M349 175 c0 -2 0 -3 1 -3 1 0 1 -1 1 -1 0 -1 0 -1 1 -1 1 0 2 0 4 0 2 0 2 1 0 2 -1 1 -1 1 0 1 2 0 2 1 1 3 -1 0 -3 1 -5 1 -3 0 -3 0 -3 -2z M359 170 c0 0 -1 -1 -2 -1 -2 0 -2 -1 -2 -3 0 -3 0 -4 2 -3 0 0 1 1 1 1 0 1 1 1 2 0 0 0 1 -1 0 -1 0 0 0 -1 0 -3 1 -2 6 -3 6 -1 0 0 -1 1 -2 1 -1 0 -2 0 -2 3 0 2 1 3 1 4 1 0 1 0 1 -1 -1 0 0 -1 0 -1 2 -1 2 0 1 1 0 2 -1 2 -2 2 -1 0 -2 1 -3 2 -1 1 -1 1 -1 0z M377 158 c-1 0 -2 -1 -2 -2 0 -1 0 -1 2 1 1 1 3 2 3 2 0 0 -1 0 -3 -1z M335 156 c0 -1 4 -4 24 -19 8 -7 17 -14 20 -17 3 -3 8 -6 11 -8 9 -4 21 -16 25 -24 2 -4 3 -8 3 -9 0 -1 1 -2 3 -2 1 -1 2 -1 2 -2 0 -2 6 -6 9 -7 1 0 3 1 6 3 4 3 5 3 5 0 0 -2 3 -5 6 -5 3 0 7 7 8 13 0 6 3 13 5 12 0 0 1 1 2 2 1 0 3 2 4 3 3 3 3 4 0 4 -1 -1 -2 0 -3 0 0 1 -1 1 -2 0 -1 0 -2 0 -2 1 0 1 0 1 -1 0 -1 0 -1 -1 -1 -2 0 -1 -1 -3 -2 -4 -1 -1 -3 -3 -4 -5 -1 -4 -6 -9 -7 -9 -1 0 -1 2 -1 4 1 2 0 4 0 6 -1 2 -1 3 2 5 2 2 4 4 4 4 0 2 -8 5 -11 6 -3 0 -8 1 -12 3 -5 2 -9 3 -10 3 0 0 -2 1 -3 2 -3 3 -4 4 -9 6 -2 1 -4 2 -3 2 0 1 -1 1 -3 1 -1 0 -4 1 -6 2 -2 1 -5 2 -7 2 -3 0 -5 2 -2 2 2 0 2 1 1 3 -2 1 -2 1 -1 0 0 -2 0 -2 -2 -1 -1 0 -4 1 -6 2 -3 0 -6 2 -8 4 -2 2 -4 3 -5 3 -1 0 -2 1 -3 2 -2 0 -4 1 -5 1 -3 0 -9 4 -16 11 -4 3 -5 4 -5 2z M368 155 c-1 -1 0 -1 0 -1 1 0 2 0 3 1 0 1 -1 1 -1 1 -1 0 -2 0 -2 -1z M357 154 c-1 -1 -1 -1 0 -1 1 -1 2 -1 2 1 0 1 -1 1 -2 0z M363 154 c-1 0 0 -1 0 -1 1 -1 2 0 2 1 1 1 -2 2 -2 0z M373 150 c-1 0 0 -1 1 -1 1 0 2 1 3 1 0 1 -1 1 -2 1 -1 0 -2 0 -2 -1z M376 136 c0 -1 1 -2 2 -2 2 0 2 0 1 2 -3 1 -4 1 -3 0z M520 134 c-1 -1 0 -1 1 -1 1 0 3 -1 3 -1 3 -3 4 -2 2 1 -2 2 -5 3 -6 1z M517 131 c-1 -2 -2 -2 -3 -1 -2 1 -2 1 0 -3 1 -2 2 -3 3 -2 1 0 2 -1 3 -1 1 -1 2 -2 3 -2 0 0 2 -1 4 -2 2 -1 4 -2 4 -1 0 1 0 1 -1 1 0 0 -2 2 -4 3 -2 2 -5 4 -6 4 0 1 -1 2 -2 3 -1 2 -1 2 -1 1z M507 122 c0 -1 1 -1 2 -2 1 0 1 -1 -1 -4 -2 -2 -2 -2 -4 -1 -3 2 -4 1 -2 -2 2 -1 2 -1 1 -3 -2 -1 -2 -1 -4 0 -1 1 -1 1 -1 0 1 -1 1 -1 -1 0 -3 3 -4 2 -4 -5 0 -9 -1 -12 -3 -12 -1 -1 -2 -2 -2 -3 0 -2 -1 -3 -6 -5 -5 -1 -10 -6 -10 -7 0 -1 -1 -3 -2 -5 -1 -2 -1 -4 -1 -5 1 -4 1 -8 -1 -12 l-2 -4 5 0 c6 1 9 2 12 5 1 2 3 3 7 3 4 0 5 0 4 -1 0 -1 -1 -2 -1 -2 -1 0 -1 -1 0 -1 0 -1 -1 -2 -2 -3 -1 -1 -1 -1 0 0 1 2 1 2 -2 0 -4 -2 -7 -5 -5 -6 2 -1 1 -3 0 -3 -1 0 -2 0 -2 1 0 0 -1 1 -2 0 -1 0 -2 1 -4 2 -2 3 -3 4 -6 1 -2 -2 -3 -6 -2 -6 1 0 1 -1 1 -2 0 -2 0 -4 1 -4 0 -1 1 -3 2 -5 0 -3 0 -4 -2 -5 -1 0 -2 0 -3 2 -1 1 -1 1 -1 -1 0 -2 -3 -3 -4 -1 -1 1 -2 2 -3 2 -2 0 -3 -1 -2 -2 0 0 -1 -1 -2 -1 -1 0 -1 0 1 -1 1 -1 3 -2 4 -3 1 -1 1 -1 0 1 -1 2 -1 3 2 0 0 0 1 -2 1 -2 -1 -2 5 -8 9 -8 2 -1 3 -2 3 -3 0 -1 0 -2 -2 -1 -1 0 -1 0 -1 -1 1 0 3 -1 5 -1 2 -1 4 -2 5 -3 1 -1 1 -1 -2 0 -4 2 -4 2 -4 0 0 -2 1 -3 13 -3 l13 0 0 4 c1 4 3 11 6 18 0 2 1 8 2 12 1 8 1 10 0 14 -3 8 -3 13 -2 20 1 5 1 8 0 9 -2 3 0 2 4 -1 2 -2 4 -4 5 -4 1 0 1 0 0 2 -6 4 -8 14 -3 11 3 -2 3 0 0 2 -3 4 -3 7 1 8 l3 1 -2 1 c-6 4 -6 5 -6 7 1 2 2 3 3 3 2 0 2 0 1 2 -1 1 -2 2 -3 2 -1 0 -2 1 -2 2 -1 1 1 5 3 5 2 0 1 1 -1 3 -2 2 -4 3 -4 1z m2 -13 c1 -2 1 -2 0 -4 -2 -1 -3 -1 -4 1 -1 1 -1 2 0 3 1 2 3 2 4 0z m-36 -85 c0 -2 0 -2 -1 -1 -2 1 -2 3 0 3 1 0 1 -1 1 -2z M442 120 c-1 -2 -3 -3 -4 -3 -1 -1 -2 -2 -2 -2 0 -1 5 0 6 1 0 1 1 2 2 3 1 1 2 2 2 2 0 2 -2 1 -4 -1z M463 117 c-1 0 -2 -1 -2 -2 1 0 2 0 3 1 1 1 1 2 1 3 -1 0 -2 -1 -2 -2z M373 116 c-5 -6 -6 -10 -5 -21 0 -7 1 -8 3 -9 3 -1 3 -1 0 2 -2 3 -3 6 -1 8 1 0 1 1 0 1 -2 1 -1 6 1 7 0 1 1 2 1 3 -1 1 0 2 0 3 2 1 2 1 3 -1 1 -1 2 -2 3 -2 1 0 0 1 -1 4 -2 2 -2 3 -1 4 1 2 0 3 -1 3 0 0 -1 -1 -2 -2z M452 115 c-1 -1 -2 -3 -1 -3 0 -1 6 4 6 5 0 2 -3 1 -5 -2z M516 116 c1 -2 4 -3 4 0 0 0 0 1 -1 1 0 0 -2 0 -3 1 -1 0 -1 0 0 -2z M582 95 c-1 -1 1 -4 3 -5 2 0 2 0 1 3 -1 2 -3 4 -4 2z M582 86 c0 0 1 -1 2 -2 3 -2 3 -1 1 1 -2 2 -3 2 -3 1z M368 81 c1 -2 7 -3 8 -3 0 1 -1 1 -3 2 -2 0 -3 1 -3 1 0 1 0 1 -1 1 -1 0 -1 -1 -1 -1z M570 77 c-2 -2 -4 -5 -4 -6 1 0 -1 -2 -3 -4 -3 -3 -4 -5 -3 -7 0 -2 0 -2 2 0 2 1 3 1 5 0 2 0 4 -1 4 0 0 0 0 0 -1 1 0 0 -1 1 -1 2 0 1 0 2 -1 1 -1 0 -1 0 -1 1 1 1 2 1 7 1 3 0 3 0 2 2 -1 2 -1 2 2 5 2 3 3 3 5 3 2 -1 2 -1 0 1 -1 1 -3 3 -5 3 l-3 2 -5 -5z M578 58 c-4 -7 -7 -13 -7 -14 0 -1 1 -7 2 -12 1 -6 3 -15 4 -21 l2 -11 69 0 c41 0 69 0 69 1 0 1 -6 6 -11 9 -3 1 -8 4 -11 6 -4 3 -11 7 -17 10 -7 4 -14 7 -16 9 -12 7 -33 19 -39 21 -4 2 -14 6 -23 8 l-15 6 -7 -12z M561 56 c0 -1 5 -6 6 -6 0 1 -3 6 -4 7 -1 0 -2 -1 -2 -1z M442 34 c0 -1 1 -2 3 -3 l3 -1 -2 3 c-2 2 -4 3 -4 1z M562 3 l-3 -3 3 0 c3 0 4 0 4 2 0 4 -2 4 -4 1z"/>
</g>
<g transform="translate(0.000000,533.000000) scale(1.000000,-1.000000)" fill="#8c338c" stroke="none">
<path d="M507 365 c-4 -4 -4 -4 1 -5 3 0 5 1 6 1 0 1 -1 1 -3 1 -2 0 -2 0 -1 1 2 3 0 4 -3 2z M276 362 c-1 -4 -1 -7 0 -5 1 0 1 2 1 4 0 3 -1 3 -1 1z M494 360 c-2 0 -6 -1 -8 -1 -2 -1 -5 -2 -7 -4 -10 -9 -12 -11 -12 -12 0 -2 1 -1 5 2 2 2 7 4 9 5 3 1 7 3 10 4 2 2 6 3 8 3 2 1 3 2 3 3 0 2 -1 2 -8 0z M388 356 c-11 -1 -13 -4 -2 -4 3 0 7 -1 11 -3 5 -2 13 -4 22 -6 5 -2 3 -3 -3 -4 -3 0 -6 0 -7 -1 -2 -1 -2 -1 1 -1 4 0 4 -2 0 -3 -2 0 -6 -1 -10 -2 -18 -6 -30 -13 -21 -13 4 0 7 1 7 3 0 1 2 2 5 4 l6 2 1 -4 c1 -2 2 -3 4 -3 5 -1 11 1 13 4 l1 3 0 -3 c-1 -2 -1 -3 1 -3 1 0 2 1 2 1 0 1 0 1 1 1 0 -1 2 0 3 1 2 1 2 2 1 4 -1 1 -1 3 0 4 1 2 1 3 0 3 -1 1 -1 1 0 1 1 0 2 0 2 1 1 0 0 1 -1 1 -1 -1 -2 -1 -2 0 1 0 3 1 5 0 3 0 6 1 6 4 0 4 -24 12 -32 12 -3 0 -5 0 -6 1 -2 0 -5 0 -8 0z M488 345 c1 0 3 0 4 0 1 1 0 1 -2 1 -3 0 -3 0 -2 -1z M493 341 c0 -1 -2 -1 -5 -1 -4 -1 -15 -6 -13 -7 1 0 2 1 4 2 1 1 5 2 9 3 l6 1 0 -4 c1 -4 4 -7 7 -7 0 0 2 1 4 3 3 1 5 2 5 1 2 -2 5 -1 5 1 0 5 -10 9 -15 7 -4 -1 -5 -1 -3 0 1 1 1 1 -1 1 -2 0 -3 0 -3 0z M378 327 c-3 -2 -8 -6 -7 -6 0 0 3 2 6 4 6 4 6 5 1 2z M300 293 c-1 -2 -1 -3 1 -3 1 0 2 1 1 2 0 3 -2 3 -2 1z M433 262 c-5 -2 -6 -4 -3 -4 1 -1 2 -2 2 -2 0 -1 0 -1 1 0 2 2 3 1 3 -2 0 -1 0 -4 0 -5 0 -2 1 -3 1 -2 0 2 1 2 2 2 1 -1 1 0 0 2 0 2 1 3 5 2 1 0 2 1 1 2 0 1 0 1 2 1 1 -1 3 -1 4 -2 2 0 3 -1 3 -1 0 -1 10 -1 11 1 1 1 1 1 2 -1 1 -1 1 -1 2 0 1 1 2 2 3 1 0 0 1 0 1 1 0 0 1 1 3 1 2 0 2 1 2 3 0 1 0 2 1 2 1 0 1 0 1 1 -1 1 -2 1 -2 1 -1 0 -1 0 0 -1 0 -1 -1 -1 -2 -1 -1 0 -4 -1 -6 -2 -6 -2 -8 -3 -12 0 -3 2 -14 5 -18 5 -1 0 -5 -1 -7 -2z M498 226 c-1 0 -1 0 -2 0 0 0 -2 -2 -3 -3 -2 -2 -5 -2 -11 0 -2 1 -5 1 -10 0 -4 -1 -10 -1 -12 -1 -6 0 -10 0 -18 -1 -4 0 -6 0 -6 1 0 1 0 1 -2 0 -1 -1 -1 -1 -1 0 1 1 1 1 0 0 -1 0 -2 -1 -1 -1 0 -1 0 -1 -1 -1 -1 1 -2 1 -2 0 -1 -1 -4 0 -4 2 0 1 -1 0 -3 -2 -2 -2 -4 -3 -4 -3 -1 0 -1 -2 -2 -3 0 -2 -1 -4 -1 -4 -1 0 -1 1 0 2 0 1 0 2 1 4 0 1 0 1 -1 0 -2 -1 -2 -1 -2 0 -1 3 -3 -4 -2 -8 0 -2 0 -3 -2 -5 -1 -1 -2 -3 -2 -3 0 -1 0 -2 -1 -2 -1 0 -1 -1 -1 -2 0 -2 9 7 11 12 1 4 1 4 6 4 7 0 9 1 17 2 4 0 10 1 15 1 9 0 13 0 23 3 5 1 8 2 10 1 2 0 5 0 7 0 2 1 3 1 3 -1 0 0 1 -1 2 -2 2 0 3 -1 4 -3 0 -2 1 -3 2 -3 1 0 1 0 0 1 -1 1 -1 1 0 1 0 0 1 0 1 -1 1 -1 -2 -4 -3 -4 -2 0 1 -1 4 -2 1 -1 2 -1 2 0 0 1 0 2 -1 2 -1 0 -1 0 -1 1 0 1 1 1 2 0 2 -1 2 -1 1 1 0 1 0 3 -1 4 0 1 0 3 0 4 -1 1 -1 1 0 1 1 -1 1 0 1 3 0 3 -1 3 -3 4 -2 0 -5 0 -6 0 -2 0 -3 1 -2 1 0 1 0 1 -1 0z M285 152 c-2 -5 -2 -7 -1 -8 1 0 2 -2 3 -5 0 -3 1 -4 2 -4 0 1 1 0 2 0 0 -1 1 -7 1 -12 0 -1 1 -2 2 -1 3 1 4 -2 2 -5 0 -1 -1 -1 -1 0 1 0 1 1 0 1 -1 0 -1 -1 -1 -2 0 -1 0 -2 -1 -2 0 1 -2 -1 -4 -2 -4 -3 -4 -4 -4 -6 1 -1 2 -2 3 -2 0 0 1 0 1 -1 -1 0 -2 -1 -3 0 -1 0 -1 -1 -1 -3 0 -1 -1 -3 -1 -3 -1 -1 -1 -1 0 -1 1 1 2 0 3 -1 1 -1 1 -1 -1 -1 -3 0 -3 0 -2 -2 1 -1 2 -2 3 -2 1 0 2 0 2 -1 -1 -1 -2 -1 -3 -1 -2 0 -4 -1 -6 -1 l-4 -2 4 0 c2 0 4 0 4 0 1 2 3 1 3 -1 0 -2 1 -2 2 -2 2 0 2 -1 0 -4 -1 -3 -2 -5 -4 -7 -1 -1 -2 -2 -2 -3 0 -1 -1 -3 -3 -4 -2 -3 -2 -3 -4 -2 -1 1 -3 1 -5 1 -5 0 -5 1 -2 4 3 2 3 3 3 6 -1 2 -1 3 0 3 1 1 0 1 -1 1 -2 0 -9 3 -7 3 1 0 0 1 -1 3 -4 4 -4 6 -1 7 2 0 2 0 1 1 -2 1 -3 1 -3 -1 -1 -1 -2 -2 -3 -2 -2 0 -3 -1 -5 -4 -1 -3 -1 -5 -1 -6 2 -2 -9 -6 -12 -4 -2 1 0 11 2 11 1 0 1 1 0 3 -1 1 -1 1 1 2 1 0 1 0 -1 1 -1 1 -1 1 0 1 1 0 2 1 3 2 1 2 1 2 0 2 -2 -1 -2 0 -2 1 0 1 0 2 1 2 0 1 1 2 0 4 0 2 0 3 1 3 1 0 2 0 2 1 0 1 0 1 -1 1 -1 0 -1 1 -1 1 0 1 -1 2 -3 3 -1 0 -4 1 -5 2 -3 2 -14 2 -16 1 -1 -1 -3 -2 -4 -2 -4 -1 -6 -2 -10 -5 -3 -1 -6 -3 -7 -3 -2 -1 -3 -2 -3 -4 0 -2 -1 -3 -3 -3 -1 0 -4 -3 -7 -5 -5 -6 -5 -6 -9 -6 -1 0 -3 -1 -4 -1 0 -1 -3 -2 -5 -2 -2 0 -4 -1 -4 -1 -1 -2 -9 -4 -12 -3 -2 1 -4 0 -7 -2 -7 -3 -16 -3 -18 -1 -1 2 -2 2 -7 2 -4 -1 -6 -1 -7 1 -2 2 -14 3 -14 1 0 -1 0 -1 -1 0 -2 1 -9 1 -9 0 0 -1 0 -1 -1 0 -1 1 -1 1 -1 0 0 -1 0 -1 -1 -1 0 1 -1 0 -2 0 -1 -1 -1 -1 0 1 2 1 2 2 -4 2 -5 0 -6 0 -6 1 0 1 -7 -1 -13 -3 -2 -1 -2 -1 2 -2 4 -1 16 -6 17 -8 2 -2 0 -1 -5 1 -3 2 -5 3 -7 3 -1 0 -2 0 -2 1 -1 1 -3 1 -5 1 -3 0 -5 0 -5 1 0 0 -4 -1 -8 -2 -12 -5 -20 -14 -27 -30 -3 -7 -13 -42 -13 -46 0 0 87 0 194 0 107 0 194 0 194 0 0 1 -16 30 -17 31 -1 0 -1 1 -1 2 0 1 -17 30 -33 58 -15 24 -26 40 -34 48 0 1 -1 3 -2 4 -1 1 -2 2 -2 1 0 0 0 -1 1 -1 0 -1 1 -2 0 -2 0 -1 0 -3 1 -4 1 -2 1 -3 0 -3 -1 0 -1 0 -1 1 0 1 -1 1 -1 1 -2 0 -5 6 -6 10 -1 1 -2 2 -4 2 -2 0 -4 0 -4 1 0 1 -1 1 -3 0 -2 -1 -2 -1 -3 2 -1 2 -2 3 -2 1z m28 -21 c0 -1 -1 -1 -3 0 -1 1 -1 2 0 2 2 1 3 0 3 -2z m-52 -62 c1 -2 0 -2 -1 -2 -1 0 -2 1 -2 2 0 0 1 1 1 1 1 0 2 -1 2 -1z M371 131 c-2 -1 10 -11 12 -11 2 0 2 0 2 -1 0 0 1 -1 1 -1 0 -1 1 0 1 1 0 0 -1 2 -2 2 -1 1 -3 3 -4 4 -1 1 -2 2 -3 2 0 -1 -1 0 -2 0 -1 2 -5 5 -5 4z M494 103 c0 -3 3 -9 5 -11 1 0 2 -2 2 -4 2 -6 5 -7 5 0 0 3 -1 6 -3 7 -1 1 -2 3 -2 4 -1 1 -1 2 -2 2 0 -1 -2 0 -3 2 -2 2 -2 2 -2 0z M506 73 c0 -3 0 -5 0 -6 1 -1 1 8 0 10 0 0 -1 -1 0 -4z M584 65 c-3 -4 -11 -16 -11 -18 -1 -1 -1 -2 -1 -3 -1 -1 1 -12 2 -15 1 -1 2 -3 1 -4 0 -1 1 -5 2 -8 1 -4 2 -9 2 -11 l1 -5 68 -1 69 0 -2 3 c-2 2 -6 4 -9 6 -3 1 -9 5 -14 8 -5 3 -9 6 -9 6 -1 0 -3 1 -6 3 -3 2 -5 3 -6 3 0 0 -3 2 -6 3 -3 2 -6 4 -6 3 -1 0 -1 0 -1 1 0 0 -1 1 -2 1 -1 0 -3 1 -4 1 -1 1 -2 2 -3 2 -1 0 -1 0 0 1 0 1 0 1 -2 1 -1 -1 -3 0 -5 0 -2 1 -4 2 -5 2 -1 0 -2 1 -2 1 0 2 -9 6 -20 8 -5 1 -12 4 -15 7 -1 1 -4 2 -5 3 -2 1 -4 2 -5 2 -2 2 -3 2 -6 0z M509 41 c0 -5 1 -5 1 -1 0 2 0 4 -1 5 -1 0 -1 -1 0 -4z M562 2 l-2 -2 3 0 c2 0 3 0 2 2 0 4 -1 4 -3 0z"/>
</g>
</svg>
